<svg xmlns="http://www.w3.org/2000/svg" width="1060" height="940" viewBox="0 0 1060 940" font-family="WenQuanYi Zen Hei, Microsoft YaHei, SimSun, sans-serif">
<rect x="0" y="0" width="1060" height="940" fill="#ffffff"/>
<rect x="400" y="40" width="260" height="64" fill="#ffe6cc" stroke="#d79b00" stroke-width="1.2"/><line x1="406" y1="40" x2="406" y2="104" stroke="#d79b00" stroke-width="1"/><text x="533.0" y="76.5" font-family="WenQuanYi Zen Hei, Microsoft YaHei, SimSun, sans-serif" font-size="12" text-anchor="middle" fill="#1f2328">用户 / 管理员</text>
<rect x="400" y="150" width="260" height="60" rx="2" fill="#dae8fc" stroke="#6c8ebf" stroke-width="1.2"/><text x="530.0" y="184.5" font-family="WenQuanYi Zen Hei, Microsoft YaHei, SimSun, sans-serif" font-size="12" text-anchor="middle" fill="#1f2328">浏览器 · React 18 SPA</text>
<rect x="380" y="262" width="300" height="66" rx="2" fill="#f2f4f7" stroke="#8a94a6" stroke-width="1.2"/><text x="530.0" y="292.0" font-family="WenQuanYi Zen Hei, Microsoft YaHei, SimSun, sans-serif" font-size="12" text-anchor="middle" fill="#1f2328">nginx 反向代理</text><text x="530.0" y="307.0" font-family="WenQuanYi Zen Hei, Microsoft YaHei, SimSun, sans-serif" font-size="12" text-anchor="middle" fill="#1f2328">静态资源直出 + API 反向代理</text>
<rect x="350" y="372" width="360" height="320" rx="12" fill="#fafbff" stroke="#c4ccd6" stroke-width="1.2"/>
<text x="366.0" y="393.0" font-family="WenQuanYi Zen Hei, Microsoft YaHei, SimSun, sans-serif" font-size="11" text-anchor="start" font-weight="bold" fill="#57606a">FastAPI 单体后端（routes → services → db）</text>
<rect x="420" y="420" width="220" height="54" rx="2" fill="#dae8fc" stroke="#6c8ebf" stroke-width="1.2"/><text x="530.0" y="451.5" font-family="WenQuanYi Zen Hei, Microsoft YaHei, SimSun, sans-serif" font-size="12" text-anchor="middle" fill="#1f2328">路由层 routes</text>
<rect x="420" y="500" width="220" height="54" rx="2" fill="#d5e8d4" stroke="#82b366" stroke-width="1.2"/><text x="530.0" y="531.5" font-family="WenQuanYi Zen Hei, Microsoft YaHei, SimSun, sans-serif" font-size="12" text-anchor="middle" fill="#1f2328">服务层 services</text>
<rect x="420" y="580" width="220" height="54" rx="2" fill="#e1d5e7" stroke="#9673a6" stroke-width="1.2"/><text x="530.0" y="611.5" font-family="WenQuanYi Zen Hei, Microsoft YaHei, SimSun, sans-serif" font-size="12" text-anchor="middle" fill="#1f2328">数据层 db（SQLAlchemy）</text>
<path d="M410 740 L660 740 M410 800 L660 800 M410 740 L410 800" fill="none" stroke="#9673a6" stroke-width="1.2"/><rect x="400" y="740" width="260" height="60" fill="none" stroke="none"/><text x="536.0" y="774.5" font-family="WenQuanYi Zen Hei, Microsoft YaHei, SimSun, sans-serif" font-size="12" text-anchor="middle" fill="#1f2328">SQLite 主库 labnotes.db</text>
<rect x="780" y="470" width="220" height="74" fill="#ffe6cc" stroke="#d79b00" stroke-width="1.2"/><line x1="786" y1="470" x2="786" y2="544" stroke="#d79b00" stroke-width="1"/><text x="893.0" y="504.0" font-family="WenQuanYi Zen Hei, Microsoft YaHei, SimSun, sans-serif" font-size="12" text-anchor="middle" fill="#1f2328">外部 AI 服务</text><text x="893.0" y="519.0" font-family="WenQuanYi Zen Hei, Microsoft YaHei, SimSun, sans-serif" font-size="12" text-anchor="middle" fill="#1f2328">DeepSeek · OpenAI 兼容</text>
<rect x="780" y="590" width="220" height="54" rx="2" fill="#f8cecc" stroke="#b85450" stroke-width="1.2" stroke-dasharray="6 4"/><text x="890.0" y="621.5" font-family="WenQuanYi Zen Hei, Microsoft YaHei, SimSun, sans-serif" font-size="12" text-anchor="middle" fill="#1f2328">AI 审查分类（规划）</text>
<path d="M770 740 L1000 740 M770 800 L1000 800 M770 740 L770 800" fill="none" stroke="#8a94a6" stroke-width="1.2" stroke-dasharray="6 4"/><rect x="760" y="740" width="240" height="60" fill="none" stroke="none"/><text x="886.0" y="774.5" font-family="WenQuanYi Zen Hei, Microsoft YaHei, SimSun, sans-serif" font-size="12" text-anchor="middle" fill="#1f2328">HF 私有 Dataset · 灾备快照</text>
<path d="M530.0 104.0 L530.0 150.0" fill="none" stroke="#5b6b7b" stroke-width="1.3"/><polygon points="530.0,150.0 526.9,138.4 533.1,138.4" fill="#5b6b7b"/><rect x="512.8" y="118.0" width="34.4" height="18.0" fill="#ffffff" opacity="0.9" rx="3"/><text x="530.0" y="129.0" font-family="WenQuanYi Zen Hei, Microsoft YaHei, SimSun, sans-serif" font-size="11" text-anchor="middle" fill="#57606a">操作</text>
<path d="M530.0 210.0 L530.0 262.0" fill="none" stroke="#5b6b7b" stroke-width="1.3"/><polygon points="530.0,262.0 526.9,250.4 533.1,250.4" fill="#5b6b7b"/><rect x="493.0" y="227.0" width="74.0" height="18.0" fill="#ffffff" opacity="0.9" rx="3"/><text x="530.0" y="238.0" font-family="WenQuanYi Zen Hei, Microsoft YaHei, SimSun, sans-serif" font-size="11" text-anchor="middle" fill="#57606a">HTTPS 请求</text>
<path d="M530.0 328.0 L530.0 420.0" fill="none" stroke="#5b6b7b" stroke-width="1.3"/><polygon points="530.0,420.0 526.9,408.4 533.1,408.4" fill="#5b6b7b"/><rect x="493.0" y="365.0" width="74.0" height="18.0" fill="#ffffff" opacity="0.9" rx="3"/><text x="530.0" y="376.0" font-family="WenQuanYi Zen Hei, Microsoft YaHei, SimSun, sans-serif" font-size="11" text-anchor="middle" fill="#57606a">REST · JWT</text>
<path d="M530.0 474.0 L530.0 500.0" fill="none" stroke="#5b6b7b" stroke-width="1.3"/><polygon points="530.0,500.0 526.9,488.4 533.1,488.4" fill="#5b6b7b"/><rect x="473.2" y="478.0" width="113.6" height="18.0" fill="#ffffff" opacity="0.9" rx="3"/><text x="530.0" y="489.0" font-family="WenQuanYi Zen Hei, Microsoft YaHei, SimSun, sans-serif" font-size="11" text-anchor="middle" fill="#57606a">复杂查询/AI/鉴权</text>
<path d="M420.0 447.0 L400.0 447.0 L400.0 607.0 L420.0 607.0" fill="none" stroke="#5b6b7b" stroke-width="1.3"/><polygon points="420.0,607.0 408.4,610.1 408.4,603.9" fill="#5b6b7b"/><rect x="369.6" y="518.0" width="60.8" height="18.0" fill="#ffffff" opacity="0.9" rx="3"/><text x="400.0" y="529.0" font-family="WenQuanYi Zen Hei, Microsoft YaHei, SimSun, sans-serif" font-size="11" text-anchor="middle" fill="#57606a">轻量写入</text>
<path d="M530.0 554.0 L530.0 580.0" fill="none" stroke="#5b6b7b" stroke-width="1.3"/><polygon points="530.0,580.0 526.9,568.4 533.1,568.4" fill="#5b6b7b"/><rect x="499.6" y="558.0" width="60.8" height="18.0" fill="#ffffff" opacity="0.9" rx="3"/><text x="530.0" y="569.0" font-family="WenQuanYi Zen Hei, Microsoft YaHei, SimSun, sans-serif" font-size="11" text-anchor="middle" fill="#57606a">ORM 查询</text>
<path d="M530.0 634.0 L530.0 740.0" fill="none" stroke="#5b6b7b" stroke-width="1.3"/><polygon points="530.0,740.0 526.9,728.4 533.1,728.4" fill="#5b6b7b"/><rect x="512.8" y="678.0" width="34.4" height="18.0" fill="#ffffff" opacity="0.9" rx="3"/><text x="530.0" y="689.0" font-family="WenQuanYi Zen Hei, Microsoft YaHei, SimSun, sans-serif" font-size="11" text-anchor="middle" fill="#57606a">读写</text>
<path d="M640.0 520.9 L780.0 513.1" fill="none" stroke="#5b6b7b" stroke-width="1.3"/><polygon points="780.0,513.1 768.6,516.9 768.3,510.7" fill="#5b6b7b"/><rect x="669.7" y="508.0" width="80.6" height="18.0" fill="#ffffff" opacity="0.9" rx="3"/><text x="710.0" y="519.0" font-family="WenQuanYi Zen Hei, Microsoft YaHei, SimSun, sans-serif" font-size="11" text-anchor="middle" fill="#57606a">润色 / 摘要</text>
<path d="M640.0 527.0 L660.0 527.0 L700.0 617.0 L780.0 617.0" fill="none" stroke="#b85450" stroke-width="1.3" stroke-dasharray="6 4"/><polygon points="780.0,617.0 768.4,620.1 768.4,613.9" fill="#b85450"/><rect x="655.2" y="590.4" width="74.0" height="18.0" fill="#ffffff" opacity="0.9" rx="3"/><text x="692.2" y="601.4" font-family="WenQuanYi Zen Hei, Microsoft YaHei, SimSun, sans-serif" font-size="11" text-anchor="middle" fill="#57606a">审查(规划)</text>
<path d="M660.0 770.0 L760.0 770.0" fill="none" stroke="#57606a" stroke-width="1.3" stroke-dasharray="6 4"/><polygon points="760.0,770.0 748.4,773.1 748.4,766.9" fill="#57606a"/><rect x="676.3" y="761.0" width="67.4" height="18.0" fill="#ffffff" opacity="0.9" rx="3"/><text x="710.0" y="772.0" font-family="WenQuanYi Zen Hei, Microsoft YaHei, SimSun, sans-serif" font-size="11" text-anchor="middle" fill="#57606a">cron 快照</text>
<path d="M660.0 180.0 L690.0 180.0 L690.0 72.0 L660.0 72.0" fill="none" stroke="#57606a" stroke-width="1.3"/><polygon points="660.0,72.0 671.6,68.9 671.6,75.1" fill="#57606a"/><rect x="659.6" y="117.0" width="60.8" height="18.0" fill="#ffffff" opacity="0.9" rx="3"/><text x="690.0" y="128.0" font-family="WenQuanYi Zen Hei, Microsoft YaHei, SimSun, sans-serif" font-size="11" text-anchor="middle" fill="#57606a">页面响应</text>
</svg>