<svg xmlns="http://www.w3.org/2000/svg" width="1360" height="1120" viewBox="0 0 1360 1120" font-family="WenQuanYi Zen Hei, Microsoft YaHei, SimSun, sans-serif">
<rect x="0" y="0" width="1360" height="1120" fill="#ffffff"/>
<circle cx="75.0" cy="267" r="11" fill="#ffffff" stroke="#1f2328" stroke-width="1.4"/><line x1="75.0" y1="278" x2="75.0" y2="304" stroke="#1f2328" stroke-width="1.4"/><line x1="59.0" y1="288" x2="91.0" y2="288" stroke="#1f2328" stroke-width="1.4"/><line x1="75.0" y1="304" x2="61.0" y2="326" stroke="#1f2328" stroke-width="1.4"/><line x1="75.0" y1="304" x2="89.0" y2="326" stroke="#1f2328" stroke-width="1.4"/><text x="75.0" y="342.0" font-family="WenQuanYi Zen Hei, Microsoft YaHei, SimSun, sans-serif" font-size="12" text-anchor="middle" font-weight="bold" fill="#1f2328">匿名访客</text>
<circle cx="75.0" cy="577" r="11" fill="#ffffff" stroke="#1f2328" stroke-width="1.4"/><line x1="75.0" y1="588" x2="75.0" y2="614" stroke="#1f2328" stroke-width="1.4"/><line x1="59.0" y1="598" x2="91.0" y2="598" stroke="#1f2328" stroke-width="1.4"/><line x1="75.0" y1="614" x2="61.0" y2="636" stroke="#1f2328" stroke-width="1.4"/><line x1="75.0" y1="614" x2="89.0" y2="636" stroke="#1f2328" stroke-width="1.4"/><text x="75.0" y="652.0" font-family="WenQuanYi Zen Hei, Microsoft YaHei, SimSun, sans-serif" font-size="12" text-anchor="middle" font-weight="bold" fill="#1f2328">注册用户</text>
<circle cx="75.0" cy="877" r="11" fill="#ffffff" stroke="#1f2328" stroke-width="1.4"/><line x1="75.0" y1="888" x2="75.0" y2="914" stroke="#1f2328" stroke-width="1.4"/><line x1="59.0" y1="898" x2="91.0" y2="898" stroke="#1f2328" stroke-width="1.4"/><line x1="75.0" y1="914" x2="61.0" y2="936" stroke="#1f2328" stroke-width="1.4"/><line x1="75.0" y1="914" x2="89.0" y2="936" stroke="#1f2328" stroke-width="1.4"/><text x="75.0" y="952.0" font-family="WenQuanYi Zen Hei, Microsoft YaHei, SimSun, sans-serif" font-size="12" text-anchor="middle" font-weight="bold" fill="#1f2328">笔记作者</text>
<circle cx="1285.0" cy="317" r="11" fill="#ffffff" stroke="#1f2328" stroke-width="1.4"/><line x1="1285.0" y1="328" x2="1285.0" y2="354" stroke="#1f2328" stroke-width="1.4"/><line x1="1269.0" y1="338" x2="1301.0" y2="338" stroke="#1f2328" stroke-width="1.4"/><line x1="1285.0" y1="354" x2="1271.0" y2="376" stroke="#1f2328" stroke-width="1.4"/><line x1="1285.0" y1="354" x2="1299.0" y2="376" stroke="#1f2328" stroke-width="1.4"/><text x="1285.0" y="392.0" font-family="WenQuanYi Zen Hei, Microsoft YaHei, SimSun, sans-serif" font-size="12" text-anchor="middle" font-weight="bold" fill="#1f2328">外部 AI 服务</text>
<rect x="260" y="40" width="940" height="1050" rx="14" fill="none" stroke="#57606a" stroke-width="1.3" stroke-dasharray="2 3"/><text x="730.0" y="60.0" font-family="WenQuanYi Zen Hei, Microsoft YaHei, SimSun, sans-serif" font-size="13" text-anchor="middle" font-weight="bold" fill="#57606a">笔记系统与社区互动</text>
<ellipse cx="425.0" cy="132.0" rx="95.0" ry="42.0" fill="#dae8fc" stroke="#6c8ebf" stroke-width="1.2"/><text x="425.0" y="129.0" font-family="WenQuanYi Zen Hei, Microsoft YaHei, SimSun, sans-serif" font-size="12" text-anchor="middle" fill="#1f2328">浏览/检索</text><text x="425.0" y="144.0" font-family="WenQuanYi Zen Hei, Microsoft YaHei, SimSun, sans-serif" font-size="12" text-anchor="middle" fill="#1f2328">信息流</text>
<ellipse cx="655.0" cy="132.0" rx="95.0" ry="42.0" fill="#dae8fc" stroke="#6c8ebf" stroke-width="1.2"/><text x="655.0" y="136.5" font-family="WenQuanYi Zen Hei, Microsoft YaHei, SimSun, sans-serif" font-size="12" text-anchor="middle" fill="#1f2328">查看笔记详情</text>
<ellipse cx="895.0" cy="132.0" rx="95.0" ry="42.0" fill="#dae8fc" stroke="#6c8ebf" stroke-width="1.2"/><text x="895.0" y="129.0" font-family="WenQuanYi Zen Hei, Microsoft YaHei, SimSun, sans-serif" font-size="12" text-anchor="middle" fill="#1f2328">撰写/自动</text><text x="895.0" y="144.0" font-family="WenQuanYi Zen Hei, Microsoft YaHei, SimSun, sans-serif" font-size="12" text-anchor="middle" fill="#1f2328">保存草稿</text>
<ellipse cx="1115.0" cy="132.0" rx="95.0" ry="42.0" fill="#dae8fc" stroke="#6c8ebf" stroke-width="1.2"/><text x="1115.0" y="136.5" font-family="WenQuanYi Zen Hei, Microsoft YaHei, SimSun, sans-serif" font-size="12" text-anchor="middle" fill="#1f2328">AI 选段润色</text>
<ellipse cx="895.0" cy="252.0" rx="95.0" ry="42.0" fill="#dae8fc" stroke="#6c8ebf" stroke-width="1.2"/><text x="895.0" y="249.0" font-family="WenQuanYi Zen Hei, Microsoft YaHei, SimSun, sans-serif" font-size="12" text-anchor="middle" fill="#1f2328">发布笔记</text><text x="895.0" y="264.0" font-family="WenQuanYi Zen Hei, Microsoft YaHei, SimSun, sans-serif" font-size="12" text-anchor="middle" fill="#1f2328">(AI 摘要兜底)</text>
<ellipse cx="1115.0" cy="252.0" rx="95.0" ry="42.0" fill="#dae8fc" stroke="#6c8ebf" stroke-width="1.2"/><text x="1115.0" y="249.0" font-family="WenQuanYi Zen Hei, Microsoft YaHei, SimSun, sans-serif" font-size="12" text-anchor="middle" fill="#1f2328">编辑/删除</text><text x="1115.0" y="264.0" font-family="WenQuanYi Zen Hei, Microsoft YaHei, SimSun, sans-serif" font-size="12" text-anchor="middle" fill="#1f2328">本人笔记</text>
<ellipse cx="425.0" cy="372.0" rx="95.0" ry="42.0" fill="#dae8fc" stroke="#6c8ebf" stroke-width="1.2"/><text x="425.0" y="376.5" font-family="WenQuanYi Zen Hei, Microsoft YaHei, SimSun, sans-serif" font-size="12" text-anchor="middle" fill="#1f2328">笔记点赞</text>
<ellipse cx="655.0" cy="372.0" rx="95.0" ry="42.0" fill="#dae8fc" stroke="#6c8ebf" stroke-width="1.2"/><text x="655.0" y="369.0" font-family="WenQuanYi Zen Hei, Microsoft YaHei, SimSun, sans-serif" font-size="12" text-anchor="middle" fill="#1f2328">笔记点踩</text><text x="655.0" y="384.0" font-family="WenQuanYi Zen Hei, Microsoft YaHei, SimSun, sans-serif" font-size="12" text-anchor="middle" fill="#1f2328">(后端)</text>
<ellipse cx="895.0" cy="392.0" rx="95.0" ry="42.0" fill="#dae8fc" stroke="#6c8ebf" stroke-width="1.2"/><text x="895.0" y="389.0" font-family="WenQuanYi Zen Hei, Microsoft YaHei, SimSun, sans-serif" font-size="12" text-anchor="middle" fill="#1f2328">收藏/取消</text><text x="895.0" y="404.0" font-family="WenQuanYi Zen Hei, Microsoft YaHei, SimSun, sans-serif" font-size="12" text-anchor="middle" fill="#1f2328">收藏</text>
<ellipse cx="1115.0" cy="392.0" rx="95.0" ry="42.0" fill="#dae8fc" stroke="#6c8ebf" stroke-width="1.2"/><text x="1115.0" y="396.5" font-family="WenQuanYi Zen Hei, Microsoft YaHei, SimSun, sans-serif" font-size="12" text-anchor="middle" fill="#1f2328">查看我的收藏</text>
<ellipse cx="425.0" cy="542.0" rx="95.0" ry="42.0" fill="#dae8fc" stroke="#6c8ebf" stroke-width="1.2"/><text x="425.0" y="539.0" font-family="WenQuanYi Zen Hei, Microsoft YaHei, SimSun, sans-serif" font-size="12" text-anchor="middle" fill="#1f2328">发表评论/</text><text x="425.0" y="554.0" font-family="WenQuanYi Zen Hei, Microsoft YaHei, SimSun, sans-serif" font-size="12" text-anchor="middle" fill="#1f2328">二级回复</text>
<ellipse cx="655.0" cy="542.0" rx="95.0" ry="42.0" fill="#dae8fc" stroke="#6c8ebf" stroke-width="1.2"/><text x="655.0" y="546.5" font-family="WenQuanYi Zen Hei, Microsoft YaHei, SimSun, sans-serif" font-size="12" text-anchor="middle" fill="#1f2328">删除评论</text>
<ellipse cx="895.0" cy="542.0" rx="95.0" ry="42.0" fill="#dae8fc" stroke="#6c8ebf" stroke-width="1.2"/><text x="895.0" y="539.0" font-family="WenQuanYi Zen Hei, Microsoft YaHei, SimSun, sans-serif" font-size="12" text-anchor="middle" fill="#1f2328">评论赞踩</text><text x="895.0" y="554.0" font-family="WenQuanYi Zen Hei, Microsoft YaHei, SimSun, sans-serif" font-size="12" text-anchor="middle" fill="#1f2328">(后端)</text>
<ellipse cx="425.0" cy="702.0" rx="95.0" ry="42.0" fill="#dae8fc" stroke="#6c8ebf" stroke-width="1.2"/><text x="425.0" y="699.0" font-family="WenQuanYi Zen Hei, Microsoft YaHei, SimSun, sans-serif" font-size="12" text-anchor="middle" fill="#1f2328">创建/维护</text><text x="425.0" y="714.0" font-family="WenQuanYi Zen Hei, Microsoft YaHei, SimSun, sans-serif" font-size="12" text-anchor="middle" fill="#1f2328">合集</text>
<ellipse cx="655.0" cy="702.0" rx="95.0" ry="42.0" fill="#dae8fc" stroke="#6c8ebf" stroke-width="1.2"/><text x="655.0" y="699.0" font-family="WenQuanYi Zen Hei, Microsoft YaHei, SimSun, sans-serif" font-size="12" text-anchor="middle" fill="#1f2328">加入/移出</text><text x="655.0" y="714.0" font-family="WenQuanYi Zen Hei, Microsoft YaHei, SimSun, sans-serif" font-size="12" text-anchor="middle" fill="#1f2328">合集笔记</text>
<ellipse cx="895.0" cy="702.0" rx="95.0" ry="42.0" fill="#dae8fc" stroke="#6c8ebf" stroke-width="1.2"/><text x="895.0" y="699.0" font-family="WenQuanYi Zen Hei, Microsoft YaHei, SimSun, sans-serif" font-size="12" text-anchor="middle" fill="#1f2328">查询合集</text><text x="895.0" y="714.0" font-family="WenQuanYi Zen Hei, Microsoft YaHei, SimSun, sans-serif" font-size="12" text-anchor="middle" fill="#1f2328">上下文</text>
<ellipse cx="425.0" cy="872.0" rx="95.0" ry="42.0" fill="#dae8fc" stroke="#6c8ebf" stroke-width="1.2"/><text x="425.0" y="876.5" font-family="WenQuanYi Zen Hei, Microsoft YaHei, SimSun, sans-serif" font-size="12" text-anchor="middle" fill="#1f2328">每日签到</text>
<ellipse cx="655.0" cy="872.0" rx="95.0" ry="42.0" fill="#dae8fc" stroke="#6c8ebf" stroke-width="1.2"/><text x="655.0" y="876.5" font-family="WenQuanYi Zen Hei, Microsoft YaHei, SimSun, sans-serif" font-size="12" text-anchor="middle" fill="#1f2328">查看经验流水</text>
<path d="M110.0 278.7 L359.6 162.5" fill="none" stroke="#5b6b7b" stroke-width="1.3"/>
<path d="M110.0 285.2 L574.8 154.5" fill="none" stroke="#5b6b7b" stroke-width="1.3"/>
<path d="M110.0 312.4 L831.8 670.6" fill="none" stroke="#5b6b7b" stroke-width="1.3"/>
<path d="M108.3 560.0 L395.5 171.9" fill="none" stroke="#5b6b7b" stroke-width="1.3"/>
<path d="M110.0 576.5 L609.7 168.9" fill="none" stroke="#5b6b7b" stroke-width="1.3"/>
<path d="M110.0 584.8 L837.2 165.3" fill="none" stroke="#5b6b7b" stroke-width="1.3"/>
<path d="M110.0 589.1 L1048.8 162.1" fill="none" stroke="#5b6b7b" stroke-width="1.3"/>
<path d="M110.0 589.9 L826.9 281.3" fill="none" stroke="#5b6b7b" stroke-width="1.3"/>
<path d="M110.0 581.7 L372.4 407.0" fill="none" stroke="#5b6b7b" stroke-width="1.3"/>
<path d="M110.0 590.9 L584.7 400.2" fill="none" stroke="#5b6b7b" stroke-width="1.3"/>
<path d="M110.0 595.9 L813.1 413.3" fill="none" stroke="#5b6b7b" stroke-width="1.3"/>
<path d="M110.0 597.8 L1028.8 409.7" fill="none" stroke="#5b6b7b" stroke-width="1.3"/>
<path d="M110.0 598.7 L337.0 557.8" fill="none" stroke="#5b6b7b" stroke-width="1.3"/>
<path d="M110.0 602.3 L801.4 549.2" fill="none" stroke="#5b6b7b" stroke-width="1.3"/>
<path d="M110.0 614.7 L344.5 679.7" fill="none" stroke="#5b6b7b" stroke-width="1.3"/>
<path d="M110.0 610.9 L566.1 687.1" fill="none" stroke="#5b6b7b" stroke-width="1.3"/>
<path d="M110.0 609.1 L803.2 691.1" fill="none" stroke="#5b6b7b" stroke-width="1.3"/>
<path d="M110.0 631.7 L377.4 835.7" fill="none" stroke="#5b6b7b" stroke-width="1.3"/>
<path d="M110.0 621.1 L589.2 841.7" fill="none" stroke="#5b6b7b" stroke-width="1.3"/>
<path d="M110.0 883.0 L1060.3 286.3" fill="none" stroke="#5b6b7b" stroke-width="1.3"/>
<path d="M110.0 883.1 L600.2 576.3" fill="none" stroke="#5b6b7b" stroke-width="1.3"/>
<path d="M1250.0 301.1 L1210.0 132.0" fill="none" stroke="#5b6b7b" stroke-width="1.3"/>
<path d="M1250.0 336.7 L990.0 252.0" fill="none" stroke="#5b6b7b" stroke-width="1.3"/>
<path d="M75.0 860.0 L75.0 650.0" fill="none" stroke="#57606a" stroke-width="1.3"/><polygon points="75.0,650.0 79.1,661.3 70.9,661.3" fill="#ffffff" stroke="#57606a" stroke-width="1.2"/>
</svg>