<svg xmlns="http://www.w3.org/2000/svg" width="3627" height="2437" viewBox="0 0 3627 2437" font-family="WenQuanYi Zen Hei, Microsoft YaHei, SimSun, sans-serif">
<rect width="3627" height="2437" fill="#ffffff"/>
<rect x="113.0" y="170.0" width="425.0" height="187.0" rx="12" fill="#ffffff" stroke="#000000" stroke-width="1.2"/><text x="325.5" y="279.5" font-family="WenQuanYi Zen Hei, Microsoft YaHei, SimSun, sans-serif" font-size="34" text-anchor="middle" fill="#1f2328">匿名访客</text>
<rect x="113.0" y="1077.0" width="425.0" height="210.0" rx="12" fill="#ffffff" stroke="#000000" stroke-width="1.2"/><text x="325.5" y="1198.0" font-family="WenQuanYi Zen Hei, Microsoft YaHei, SimSun, sans-serif" font-size="34" text-anchor="middle" fill="#1f2328">注册用户</text>
<ellipse cx="1147.5" cy="325.5" rx="175.5" ry="175.5" fill="#ffffff" stroke="#000000" stroke-width="1.2"/><text x="1147.5" y="325.5" font-family="WenQuanYi Zen Hei, Microsoft YaHei, SimSun, sans-serif" font-size="34" text-anchor="middle" fill="#1f2328">P3.1 列表/详情查询</text>
<ellipse cx="1147.5" cy="977.5" rx="175.5" ry="175.5" fill="#ffffff" stroke="#000000" stroke-width="1.2"/><text x="1147.5" y="977.5" font-family="WenQuanYi Zen Hei, Microsoft YaHei, SimSun, sans-serif" font-size="34" text-anchor="middle" fill="#1f2328">P3.2 笔记赞踩收藏</text>
<ellipse cx="1147.5" cy="1373.5" rx="175.5" ry="175.5" fill="#ffffff" stroke="#000000" stroke-width="1.2"/><text x="1147.5" y="1373.5" font-family="WenQuanYi Zen Hei, Microsoft YaHei, SimSun, sans-serif" font-size="34" text-anchor="middle" fill="#1f2328">P3.3 评论/回复/表态</text>
<ellipse cx="1147.5" cy="1770.5" rx="175.5" ry="175.5" fill="#ffffff" stroke="#000000" stroke-width="1.2"/><text x="1147.5" y="1770.5" font-family="WenQuanYi Zen Hei, Microsoft YaHei, SimSun, sans-serif" font-size="34" text-anchor="middle" fill="#1f2328">P3.4 合集管理与上下文</text>
<ellipse cx="1147.5" cy="2238.5" rx="175.5" ry="175.5" fill="#ffffff" stroke="#000000" stroke-width="1.2"/><text x="1147.5" y="2238.5" font-family="WenQuanYi Zen Hei, Microsoft YaHei, SimSun, sans-serif" font-size="34" text-anchor="middle" fill="#1f2328">P3.5 每日签到与经验</text>
<path d="M1823.0 198.0 L2295.0 198.0 M1823.0 351.0 L2295.0 351.0 M1823.0 198.0 L1823.0 351.0" fill="none" stroke="#000000" stroke-width="1.2"/><text x="2064.0" y="290.5" font-family="WenQuanYi Zen Hei, Microsoft YaHei, SimSun, sans-serif" font-size="34" text-anchor="middle" fill="#1f2328">D2 笔记库</text>
<path d="M1823.0 878.0 L2295.0 878.0 M1823.0 1031.0 L2295.0 1031.0 M1823.0 878.0 L1823.0 1031.0" fill="none" stroke="#000000" stroke-width="1.2"/><text x="2064.0" y="970.5" font-family="WenQuanYi Zen Hei, Microsoft YaHei, SimSun, sans-serif" font-size="34" text-anchor="middle" fill="#1f2328">D3 互动库</text>
<path d="M1823.0 1275.0 L2295.0 1275.0 M1823.0 1428.0 L2295.0 1428.0 M1823.0 1275.0 L1823.0 1428.0" fill="none" stroke="#000000" stroke-width="1.2"/><text x="2064.0" y="1367.5" font-family="WenQuanYi Zen Hei, Microsoft YaHei, SimSun, sans-serif" font-size="34" text-anchor="middle" fill="#1f2328">D4 评论库</text>
<path d="M1823.0 1672.0 L2295.0 1672.0 M1823.0 1825.0 L2295.0 1825.0 M1823.0 1672.0 L1823.0 1825.0" fill="none" stroke="#000000" stroke-width="1.2"/><text x="2064.0" y="1764.5" font-family="WenQuanYi Zen Hei, Microsoft YaHei, SimSun, sans-serif" font-size="34" text-anchor="middle" fill="#1f2328">D7 合集库</text>
<path d="M1823.0 2068.0 L2295.0 2068.0 M1823.0 2221.0 L2295.0 2221.0 M1823.0 2068.0 L1823.0 2221.0" fill="none" stroke="#000000" stroke-width="1.2"/><text x="2064.0" y="2160.5" font-family="WenQuanYi Zen Hei, Microsoft YaHei, SimSun, sans-serif" font-size="34" text-anchor="middle" fill="#1f2328">D6 成长库</text>
<path d="M538.0 279.5 L972.0 312.3" fill="none" stroke="#000000" stroke-width="1.3"/><polygon points="972.0,312.3 960.3,315.1 960.9,307.7" fill="#000000" stroke="#000000" stroke-width="1"/><rect x="720.3" y="287.4" width="69.4" height="17.0" fill="#ffffff" opacity="0.85" rx="3"/><text x="755.0" y="299.4" font-family="WenQuanYi Zen Hei, Microsoft YaHei, SimSun, sans-serif" font-size="11" text-anchor="middle" fill="#000000">浏览/检索</text>
<path d="M326.0 1133.0 L708.0 567.0 L850.0 340.0" fill="none" stroke="#000000" stroke-width="1.3"/><polygon points="850.0,340.0 847.1,351.6 840.8,347.7" fill="#000000" stroke="#000000" stroke-width="1"/><rect x="557.2" y="730.5" width="69.4" height="17.0" fill="#ffffff" opacity="0.85" rx="3"/><text x="591.9" y="742.5" font-family="WenQuanYi Zen Hei, Microsoft YaHei, SimSun, sans-serif" font-size="11" text-anchor="middle" fill="#000000">浏览/检索</text>
<path d="M1323.0 315.6 L1813.0 288.1" fill="none" stroke="#000000" stroke-width="1.3"/><polygon points="1813.0,288.1 1801.8,292.4 1801.4,285.0" fill="#000000" stroke="#000000" stroke-width="1"/><rect x="1526.5" y="293.3" width="83.0" height="17.0" fill="#ffffff" opacity="0.85" rx="3"/><text x="1568.0" y="305.3" font-family="WenQuanYi Zen Hei, Microsoft YaHei, SimSun, sans-serif" font-size="11" text-anchor="middle" fill="#000000">读笔记/计数</text>
<path d="M1417.0 340.0 L1700.0 935.0" fill="none" stroke="#000000" stroke-width="1.3"/><polygon points="1700.0,935.0 1691.7,926.3 1698.4,923.1" fill="#000000" stroke="#000000" stroke-width="1"/><rect x="1534.0" y="629.0" width="48.9" height="17.0" fill="#ffffff" opacity="0.85" rx="3"/><text x="1558.5" y="641.0" font-family="WenQuanYi Zen Hei, Microsoft YaHei, SimSun, sans-serif" font-size="11" text-anchor="middle" fill="#000000">读互动</text>
<path d="M1417.0 368.0 L1672.0 1332.0" fill="none" stroke="#000000" stroke-width="1.3"/><polygon points="1672.0,1332.0 1665.5,1321.9 1672.7,1320.0" fill="#000000" stroke="#000000" stroke-width="1"/><rect x="1520.0" y="841.5" width="48.9" height="17.0" fill="#ffffff" opacity="0.85" rx="3"/><text x="1544.5" y="853.5" font-family="WenQuanYi Zen Hei, Microsoft YaHei, SimSun, sans-serif" font-size="11" text-anchor="middle" fill="#000000">读评论</text>
<path d="M538.0 1129.1 L972.0 1021.2" fill="none" stroke="#000000" stroke-width="1.3"/><polygon points="972.0,1021.2 961.8,1027.5 960.0,1020.3" fill="#000000" stroke="#000000" stroke-width="1"/><rect x="716.9" y="1066.6" width="76.2" height="17.0" fill="#ffffff" opacity="0.85" rx="3"/><text x="755.0" y="1078.6" font-family="WenQuanYi Zen Hei, Microsoft YaHei, SimSun, sans-serif" font-size="11" text-anchor="middle" fill="#000000">赞/踩/收藏</text>
<path d="M1323.0 973.0 L1813.0 960.6" fill="none" stroke="#000000" stroke-width="1.3"/><polygon points="1813.0,960.6 1801.7,964.6 1801.5,957.2" fill="#000000" stroke="#000000" stroke-width="1"/><rect x="1536.7" y="958.3" width="62.6" height="17.0" fill="#ffffff" opacity="0.85" rx="3"/><text x="1568.0" y="970.3" font-family="WenQuanYi Zen Hei, Microsoft YaHei, SimSun, sans-serif" font-size="11" text-anchor="middle" fill="#000000">幂等写入</text>
<path d="M326.0 1247.0 L708.0 1332.0 L850.0 1360.0" fill="none" stroke="#000000" stroke-width="1.3"/><polygon points="850.0,1360.0 838.1,1361.4 839.5,1354.2" fill="#000000" stroke="#000000" stroke-width="1"/><rect x="535.9" y="1296.7" width="103.5" height="17.0" fill="#ffffff" opacity="0.85" rx="3"/><text x="587.6" y="1308.7" font-family="WenQuanYi Zen Hei, Microsoft YaHei, SimSun, sans-serif" font-size="11" text-anchor="middle" fill="#000000">评论/回复/表态</text>
<path d="M1323.0 1369.2 L1813.0 1357.3" fill="none" stroke="#000000" stroke-width="1.3"/><polygon points="1813.0,1357.3 1801.7,1361.3 1801.5,1353.9" fill="#000000" stroke="#000000" stroke-width="1"/><rect x="1543.5" y="1354.8" width="48.9" height="17.0" fill="#ffffff" opacity="0.85" rx="3"/><text x="1568.0" y="1366.8" font-family="WenQuanYi Zen Hei, Microsoft YaHei, SimSun, sans-serif" font-size="11" text-anchor="middle" fill="#000000">写评论</text>
<path d="M326.0 1275.0 L680.0 1757.0 L850.0 1757.0" fill="none" stroke="#000000" stroke-width="1.3"/><polygon points="850.0,1757.0 838.6,1760.7 838.6,1753.3" fill="#000000" stroke="#000000" stroke-width="1"/><rect x="522.0" y="1576.0" width="62.6" height="17.0" fill="#ffffff" opacity="0.85" rx="3"/><text x="553.3" y="1588.0" font-family="WenQuanYi Zen Hei, Microsoft YaHei, SimSun, sans-serif" font-size="11" text-anchor="middle" fill="#000000">合集维护</text>
<path d="M1323.0 1766.2 L1813.0 1754.3" fill="none" stroke="#000000" stroke-width="1.3"/><polygon points="1813.0,1754.3 1801.7,1758.3 1801.5,1750.9" fill="#000000" stroke="#000000" stroke-width="1"/><rect x="1536.7" y="1751.8" width="62.6" height="17.0" fill="#ffffff" opacity="0.85" rx="3"/><text x="1568.0" y="1763.8" font-family="WenQuanYi Zen Hei, Microsoft YaHei, SimSun, sans-serif" font-size="11" text-anchor="middle" fill="#000000">读写合集</text>
<path d="M1417.0 1700.0 L2352.0 850.0 L2153.0 351.0" fill="none" stroke="#000000" stroke-width="1.3" stroke-dasharray="6 4"/><polygon points="2153.0,351.0 2160.7,360.2 2153.8,363.0" fill="#000000" stroke="#000000" stroke-width="1"/><rect x="2045.2" y="1085.8" width="76.2" height="17.0" fill="#ffffff" opacity="0.85" rx="3"/><text x="2083.3" y="1097.8" font-family="WenQuanYi Zen Hei, Microsoft YaHei, SimSun, sans-serif" font-size="11" text-anchor="middle" fill="#000000">校验已发布</text>
<path d="M326.0 1286.0 L680.0 2153.0 L850.0 2153.0" fill="none" stroke="#000000" stroke-width="1.3"/><polygon points="850.0,2153.0 838.6,2156.7 838.6,2149.3" fill="#000000" stroke="#000000" stroke-width="1"/><rect x="517.5" y="1789.7" width="35.3" height="17.0" fill="#ffffff" opacity="0.85" rx="3"/><text x="535.1" y="1801.7" font-family="WenQuanYi Zen Hei, Microsoft YaHei, SimSun, sans-serif" font-size="11" text-anchor="middle" fill="#000000">签到</text>
<path d="M1323.0 2220.3 L1813.0 2169.5" fill="none" stroke="#000000" stroke-width="1.3"/><polygon points="1813.0,2169.5 1802.0,2174.4 1801.3,2167.0" fill="#000000" stroke="#000000" stroke-width="1"/><rect x="1519.7" y="2186.4" width="96.7" height="17.0" fill="#ffffff" opacity="0.85" rx="3"/><text x="1568.0" y="2198.4" font-family="WenQuanYi Zen Hei, Microsoft YaHei, SimSun, sans-serif" font-size="11" text-anchor="middle" fill="#000000">签到/经验流水</text>
</svg>