<svg xmlns="http://www.w3.org/2000/svg" width="1320" height="860" viewBox="0 0 1320 860" font-family="WenQuanYi Zen Hei, Microsoft YaHei, SimSun, sans-serif">
<rect x="0" y="0" width="1320" height="860" fill="#ffffff"/>
<rect x="60" y="120" width="165" height="74" fill="#ffe6cc" stroke="#d79b00" stroke-width="1.2"/><line x1="66" y1="120" x2="66" y2="194" stroke="#d79b00" stroke-width="1"/><text x="145.5" y="161.5" font-family="WenQuanYi Zen Hei, Microsoft YaHei, SimSun, sans-serif" font-size="12" text-anchor="middle" fill="#1f2328">匿名访客</text>
<rect x="60" y="360" width="165" height="74" fill="#ffe6cc" stroke="#d79b00" stroke-width="1.2"/><line x1="66" y1="360" x2="66" y2="434" stroke="#d79b00" stroke-width="1"/><text x="145.5" y="401.5" font-family="WenQuanYi Zen Hei, Microsoft YaHei, SimSun, sans-serif" font-size="12" text-anchor="middle" fill="#1f2328">注册用户</text>
<rect x="1095" y="210" width="170" height="74" fill="#ffe6cc" stroke="#d79b00" stroke-width="1.2"/><line x1="1101" y1="210" x2="1101" y2="284" stroke="#d79b00" stroke-width="1"/><text x="1183.0" y="251.5" font-family="WenQuanYi Zen Hei, Microsoft YaHei, SimSun, sans-serif" font-size="12" text-anchor="middle" fill="#1f2328">外部 AI 服务</text>
<rect x="1095" y="470" width="170" height="74" fill="#ffe6cc" stroke="#d79b00" stroke-width="1.2"/><line x1="1101" y1="470" x2="1101" y2="544" stroke="#d79b00" stroke-width="1"/><text x="1183.0" y="511.5" font-family="WenQuanYi Zen Hei, Microsoft YaHei, SimSun, sans-serif" font-size="12" text-anchor="middle" fill="#1f2328">管理员（规划）</text>
<ellipse cx="650.0" cy="305.0" rx="180.0" ry="95.0" fill="#d5e8d4" stroke="#82b366" stroke-width="1.2"/><text x="650.0" y="302.0" font-family="WenQuanYi Zen Hei, Microsoft YaHei, SimSun, sans-serif" font-size="12" text-anchor="middle" fill="#1f2328">P0</text><text x="650.0" y="317.0" font-family="WenQuanYi Zen Hei, Microsoft YaHei, SimSun, sans-serif" font-size="12" text-anchor="middle" fill="#1f2328">笔记与社区互动子系统</text>
<path d="M70 660 L225 660 M70 716 L225 716 M70 660 L70 716" fill="none" stroke="#9673a6" stroke-width="1.2"/><rect x="60" y="660" width="165" height="56" fill="none" stroke="none"/><text x="148.5" y="692.5" font-family="WenQuanYi Zen Hei, Microsoft YaHei, SimSun, sans-serif" font-size="12" text-anchor="middle" fill="#1f2328">D1 草稿库</text>
<path d="M250 660 L405 660 M250 716 L405 716 M250 660 L250 716" fill="none" stroke="#9673a6" stroke-width="1.2"/><rect x="240" y="660" width="165" height="56" fill="none" stroke="none"/><text x="328.5" y="692.5" font-family="WenQuanYi Zen Hei, Microsoft YaHei, SimSun, sans-serif" font-size="12" text-anchor="middle" fill="#1f2328">D2 笔记库</text>
<path d="M430 660 L585 660 M430 716 L585 716 M430 660 L430 716" fill="none" stroke="#9673a6" stroke-width="1.2"/><rect x="420" y="660" width="165" height="56" fill="none" stroke="none"/><text x="508.5" y="692.5" font-family="WenQuanYi Zen Hei, Microsoft YaHei, SimSun, sans-serif" font-size="12" text-anchor="middle" fill="#1f2328">D3 互动库</text>
<path d="M610 660 L765 660 M610 716 L765 716 M610 660 L610 716" fill="none" stroke="#9673a6" stroke-width="1.2"/><rect x="600" y="660" width="165" height="56" fill="none" stroke="none"/><text x="688.5" y="692.5" font-family="WenQuanYi Zen Hei, Microsoft YaHei, SimSun, sans-serif" font-size="12" text-anchor="middle" fill="#1f2328">D4 评论库</text>
<path d="M790 660 L945 660 M790 716 L945 716 M790 660 L790 716" fill="none" stroke="#8a94a6" stroke-width="1.2" stroke-dasharray="6 4"/><rect x="780" y="660" width="165" height="56" fill="none" stroke="none"/><text x="868.5" y="692.5" font-family="WenQuanYi Zen Hei, Microsoft YaHei, SimSun, sans-serif" font-size="12" text-anchor="middle" fill="#1f2328">D5 治理预留库</text>
<path d="M970 660 L1125 660 M970 716 L1125 716 M970 660 L970 716" fill="none" stroke="#9673a6" stroke-width="1.2"/><rect x="960" y="660" width="165" height="56" fill="none" stroke="none"/><text x="1048.5" y="692.5" font-family="WenQuanYi Zen Hei, Microsoft YaHei, SimSun, sans-serif" font-size="12" text-anchor="middle" fill="#1f2328">D6 成长库</text>
<path d="M1150 660 L1305 660 M1150 716 L1305 716 M1150 660 L1150 716" fill="none" stroke="#9673a6" stroke-width="1.2"/><rect x="1140" y="660" width="165" height="56" fill="none" stroke="none"/><text x="1228.5" y="692.5" font-family="WenQuanYi Zen Hei, Microsoft YaHei, SimSun, sans-serif" font-size="12" text-anchor="middle" fill="#1f2328">D7 合集库</text>
<path d="M225.0 382.0 L470.0 305.0" fill="none" stroke="#5b6b7b" stroke-width="1.3"/><polygon points="470.0,305.0 459.9,311.4 458.0,305.5" fill="#5b6b7b"/><rect x="280.8" y="327.5" width="133.4" height="32.0" fill="#ffffff" opacity="0.9" rx="3"/><text x="347.5" y="338.5" font-family="WenQuanYi Zen Hei, Microsoft YaHei, SimSun, sans-serif" font-size="11" text-anchor="middle" fill="#57606a">草稿/发布/评论</text><text x="347.5" y="352.5" font-family="WenQuanYi Zen Hei, Microsoft YaHei, SimSun, sans-serif" font-size="11" text-anchor="middle" fill="#57606a">表态/收藏/签到/合集</text>
<path d="M500.0 360.0 L300.0 300.0 L225.0 385.0" fill="none" stroke="#5b6b7b" stroke-width="1.3"/><polygon points="225.0,385.0 230.3,374.3 235.0,378.4" fill="#5b6b7b"/><rect x="295.5" y="304.7" width="100.4" height="18.0" fill="#ffffff" opacity="0.9" rx="3"/><text x="345.7" y="315.7" font-family="WenQuanYi Zen Hei, Microsoft YaHei, SimSun, sans-serif" font-size="11" text-anchor="middle" fill="#57606a">列表/详情/结果</text>
<path d="M225.0 181.1 L470.0 305.0" fill="none" stroke="#5b6b7b" stroke-width="1.3"/><polygon points="470.0,305.0 458.3,302.5 461.1,297.0" fill="#5b6b7b"/><rect x="313.8" y="234.0" width="67.4" height="18.0" fill="#ffffff" opacity="0.9" rx="3"/><text x="347.5" y="245.0" font-family="WenQuanYi Zen Hei, Microsoft YaHei, SimSun, sans-serif" font-size="11" text-anchor="middle" fill="#57606a">浏览/检索</text>
<path d="M500.0 250.0 L300.0 175.0 L225.0 160.0" fill="none" stroke="#5b6b7b" stroke-width="1.3"/><polygon points="225.0,160.0 237.0,159.2 235.8,165.3" fill="#5b6b7b"/><rect x="317.3" y="190.1" width="93.8" height="18.0" fill="#ffffff" opacity="0.9" rx="3"/><text x="364.2" y="201.1" font-family="WenQuanYi Zen Hei, Microsoft YaHei, SimSun, sans-serif" font-size="11" text-anchor="middle" fill="#57606a">笔记/评论数据</text>
<path d="M830.0 270.0 L1095.0 250.0" fill="none" stroke="#5b6b7b" stroke-width="1.3"/><polygon points="1095.0,250.0 1083.7,254.0 1083.2,247.8" fill="#5b6b7b"/><rect x="915.6" y="251.0" width="93.8" height="18.0" fill="#ffffff" opacity="0.9" rx="3"/><text x="962.5" y="262.0" font-family="WenQuanYi Zen Hei, Microsoft YaHei, SimSun, sans-serif" font-size="11" text-anchor="middle" fill="#57606a">润色/摘要请求</text>
<path d="M1095.0 285.0 L830.0 320.0" fill="none" stroke="#5b6b7b" stroke-width="1.3"/><polygon points="830.0,320.0 841.1,315.4 841.9,321.6" fill="#5b6b7b"/><rect x="915.6" y="293.5" width="93.8" height="18.0" fill="#ffffff" opacity="0.9" rx="3"/><text x="962.5" y="304.5" font-family="WenQuanYi Zen Hei, Microsoft YaHei, SimSun, sans-serif" font-size="11" text-anchor="middle" fill="#57606a">改写/摘要文本</text>
<path d="M1095.0 474.6 L795.9 360.6" fill="none" stroke="#57606a" stroke-width="1.3" stroke-dasharray="6 4"/><polygon points="795.9,360.6 807.9,361.8 805.7,367.6" fill="#57606a"/><rect x="908.5" y="408.6" width="74.0" height="18.0" fill="#ffffff" opacity="0.9" rx="3"/><text x="945.5" y="419.6" font-family="WenQuanYi Zen Hei, Microsoft YaHei, SimSun, sans-serif" font-size="11" text-anchor="middle" fill="#57606a">裁决(规划)</text>
<path d="M504.5 360.9 L142.5 500.0 L142.5 660.0" fill="none" stroke="#5b6b7b" stroke-width="1.3"/><polygon points="142.5,660.0 139.4,648.4 145.6,648.4" fill="#5b6b7b"/>
<path d="M530.6 376.1 L322.5 500.0 L322.5 660.0" fill="none" stroke="#5b6b7b" stroke-width="1.3"/><polygon points="322.5,660.0 319.4,648.4 325.6,648.4" fill="#5b6b7b"/>
<path d="M583.3 393.2 L502.5 500.0 L502.5 660.0" fill="none" stroke="#5b6b7b" stroke-width="1.3"/><polygon points="502.5,660.0 499.4,648.4 505.6,648.4" fill="#5b6b7b"/>
<path d="M665.8 399.6 L682.5 500.0 L682.5 660.0" fill="none" stroke="#5b6b7b" stroke-width="1.3"/><polygon points="682.5,660.0 679.4,648.4 685.6,648.4" fill="#5b6b7b"/>
<path d="M739.7 387.4 L862.5 500.0 L862.5 660.0" fill="none" stroke="#57606a" stroke-width="1.3" stroke-dasharray="6 4"/><polygon points="862.5,660.0 859.4,648.4 865.6,648.4" fill="#57606a"/>
<path d="M781.1 370.1 L1042.5 500.0 L1042.5 660.0" fill="none" stroke="#5b6b7b" stroke-width="1.3"/><polygon points="1042.5,660.0 1039.4,648.4 1045.6,648.4" fill="#5b6b7b"/>
<path d="M801.2 356.5 L1222.5 500.0 L1222.5 660.0" fill="none" stroke="#5b6b7b" stroke-width="1.3"/><polygon points="1222.5,660.0 1219.4,648.4 1225.6,648.4" fill="#5b6b7b"/>
</svg>