<svg xmlns="http://www.w3.org/2000/svg" width="1280" height="860" viewBox="0 0 1280 860" font-family="WenQuanYi Zen Hei, Microsoft YaHei, SimSun, sans-serif">
<rect x="0" y="0" width="1280" height="860" fill="#ffffff"/>
<rect x="40" y="60" width="150" height="66" fill="#ffe6cc" stroke="#d79b00" stroke-width="1.2"/><line x1="46" y1="60" x2="46" y2="126" stroke="#d79b00" stroke-width="1"/><text x="118.0" y="97.5" font-family="WenQuanYi Zen Hei, Microsoft YaHei, SimSun, sans-serif" font-size="12" text-anchor="middle" fill="#1f2328">匿名访客</text>
<rect x="40" y="380" width="150" height="74" fill="#ffe6cc" stroke="#d79b00" stroke-width="1.2"/><line x1="46" y1="380" x2="46" y2="454" stroke="#d79b00" stroke-width="1"/><text x="118.0" y="421.5" font-family="WenQuanYi Zen Hei, Microsoft YaHei, SimSun, sans-serif" font-size="12" text-anchor="middle" fill="#1f2328">注册用户</text>
<rect x="300" y="60" width="200" height="90" rx="45.0" fill="#d5e8d4" stroke="#82b366" stroke-width="1.2"/><text x="400.0" y="102.0" font-family="WenQuanYi Zen Hei, Microsoft YaHei, SimSun, sans-serif" font-size="12" text-anchor="middle" fill="#1f2328">P3.1</text><text x="400.0" y="117.0" font-family="WenQuanYi Zen Hei, Microsoft YaHei, SimSun, sans-serif" font-size="12" text-anchor="middle" fill="#1f2328">列表/详情查询</text>
<rect x="300" y="300" width="200" height="90" rx="45.0" fill="#d5e8d4" stroke="#82b366" stroke-width="1.2"/><text x="400.0" y="342.0" font-family="WenQuanYi Zen Hei, Microsoft YaHei, SimSun, sans-serif" font-size="12" text-anchor="middle" fill="#1f2328">P3.2</text><text x="400.0" y="357.0" font-family="WenQuanYi Zen Hei, Microsoft YaHei, SimSun, sans-serif" font-size="12" text-anchor="middle" fill="#1f2328">笔记赞踩收藏</text>
<rect x="300" y="440" width="200" height="90" rx="45.0" fill="#d5e8d4" stroke="#82b366" stroke-width="1.2"/><text x="400.0" y="482.0" font-family="WenQuanYi Zen Hei, Microsoft YaHei, SimSun, sans-serif" font-size="12" text-anchor="middle" fill="#1f2328">P3.3</text><text x="400.0" y="497.0" font-family="WenQuanYi Zen Hei, Microsoft YaHei, SimSun, sans-serif" font-size="12" text-anchor="middle" fill="#1f2328">评论/回复/表态</text>
<rect x="300" y="580" width="200" height="90" rx="45.0" fill="#d5e8d4" stroke="#82b366" stroke-width="1.2"/><text x="400.0" y="622.0" font-family="WenQuanYi Zen Hei, Microsoft YaHei, SimSun, sans-serif" font-size="12" text-anchor="middle" fill="#1f2328">P3.4</text><text x="400.0" y="637.0" font-family="WenQuanYi Zen Hei, Microsoft YaHei, SimSun, sans-serif" font-size="12" text-anchor="middle" fill="#1f2328">合集管理与上下文</text>
<rect x="300" y="720" width="200" height="90" rx="45.0" fill="#d5e8d4" stroke="#82b366" stroke-width="1.2"/><text x="400.0" y="762.0" font-family="WenQuanYi Zen Hei, Microsoft YaHei, SimSun, sans-serif" font-size="12" text-anchor="middle" fill="#1f2328">P3.5</text><text x="400.0" y="777.0" font-family="WenQuanYi Zen Hei, Microsoft YaHei, SimSun, sans-serif" font-size="12" text-anchor="middle" fill="#1f2328">每日签到与经验</text>
<path d="M650 70 L810 70 M650 124 L810 124 M650 70 L650 124" fill="none" stroke="#9673a6" stroke-width="1.2"/><rect x="640" y="70" width="170" height="54" fill="none" stroke="none"/><text x="731.0" y="101.5" font-family="WenQuanYi Zen Hei, Microsoft YaHei, SimSun, sans-serif" font-size="12" text-anchor="middle" fill="#1f2328">D2 笔记库</text>
<path d="M650 310 L810 310 M650 364 L810 364 M650 310 L650 364" fill="none" stroke="#9673a6" stroke-width="1.2"/><rect x="640" y="310" width="170" height="54" fill="none" stroke="none"/><text x="731.0" y="341.5" font-family="WenQuanYi Zen Hei, Microsoft YaHei, SimSun, sans-serif" font-size="12" text-anchor="middle" fill="#1f2328">D3 互动库</text>
<path d="M650 450 L810 450 M650 504 L810 504 M650 450 L650 504" fill="none" stroke="#9673a6" stroke-width="1.2"/><rect x="640" y="450" width="170" height="54" fill="none" stroke="none"/><text x="731.0" y="481.5" font-family="WenQuanYi Zen Hei, Microsoft YaHei, SimSun, sans-serif" font-size="12" text-anchor="middle" fill="#1f2328">D4 评论库</text>
<path d="M650 590 L810 590 M650 644 L810 644 M650 590 L650 644" fill="none" stroke="#9673a6" stroke-width="1.2"/><rect x="640" y="590" width="170" height="54" fill="none" stroke="none"/><text x="731.0" y="621.5" font-family="WenQuanYi Zen Hei, Microsoft YaHei, SimSun, sans-serif" font-size="12" text-anchor="middle" fill="#1f2328">D7 合集库</text>
<path d="M650 730 L810 730 M650 784 L810 784 M650 730 L650 784" fill="none" stroke="#9673a6" stroke-width="1.2"/><rect x="640" y="730" width="170" height="54" fill="none" stroke="none"/><text x="731.0" y="761.5" font-family="WenQuanYi Zen Hei, Microsoft YaHei, SimSun, sans-serif" font-size="12" text-anchor="middle" fill="#1f2328">D6 成长库</text>
<path d="M190.0 96.2 L300.4 100.8" fill="none" stroke="#5b6b7b" stroke-width="1.3"/><polygon points="300.4,100.8 288.7,103.4 289.0,97.2" fill="#5b6b7b"/><rect x="211.5" y="89.5" width="67.4" height="18.0" fill="#ffffff" opacity="0.9" rx="3"/><text x="245.2" y="100.5" font-family="WenQuanYi Zen Hei, Microsoft YaHei, SimSun, sans-serif" font-size="11" text-anchor="middle" fill="#57606a">浏览/检索</text>
<path d="M115.0 400.0 L250.0 200.0 L300.0 120.0" fill="none" stroke="#5b6b7b" stroke-width="1.3"/><polygon points="300.0,120.0 296.5,131.5 291.2,128.2" fill="#5b6b7b"/><rect x="175.2" y="251.9" width="67.4" height="18.0" fill="#ffffff" opacity="0.9" rx="3"/><text x="208.9" y="262.9" font-family="WenQuanYi Zen Hei, Microsoft YaHei, SimSun, sans-serif" font-size="11" text-anchor="middle" fill="#57606a">浏览/检索</text>
<path d="M499.9 102.5 L640.0 99.1" fill="none" stroke="#5b6b7b" stroke-width="1.3"/><polygon points="640.0,99.1 628.5,102.5 628.3,96.3" fill="#5b6b7b"/><rect x="529.6" y="91.8" width="80.6" height="18.0" fill="#ffffff" opacity="0.9" rx="3"/><text x="569.9" y="102.8" font-family="WenQuanYi Zen Hei, Microsoft YaHei, SimSun, sans-serif" font-size="11" text-anchor="middle" fill="#57606a">读笔记/计数</text>
<path d="M500.0 120.0 L600.0 330.0" fill="none" stroke="#5b6b7b" stroke-width="1.3"/><polygon points="600.0,330.0 592.2,320.9 597.8,318.2" fill="#5b6b7b"/><rect x="526.2" y="216.0" width="47.6" height="18.0" fill="#ffffff" opacity="0.9" rx="3"/><text x="550.0" y="227.0" font-family="WenQuanYi Zen Hei, Microsoft YaHei, SimSun, sans-serif" font-size="11" text-anchor="middle" fill="#57606a">读互动</text>
<path d="M500.0 130.0 L590.0 470.0" fill="none" stroke="#5b6b7b" stroke-width="1.3"/><polygon points="590.0,470.0 584.0,459.6 590.0,458.0" fill="#5b6b7b"/><rect x="521.2" y="291.0" width="47.6" height="18.0" fill="#ffffff" opacity="0.9" rx="3"/><text x="545.0" y="302.0" font-family="WenQuanYi Zen Hei, Microsoft YaHei, SimSun, sans-serif" font-size="11" text-anchor="middle" fill="#57606a">读评论</text>
<path d="M190.0 398.1 L312.8 367.0" fill="none" stroke="#5b6b7b" stroke-width="1.3"/><polygon points="312.8,367.0 302.3,372.9 300.8,366.9" fill="#5b6b7b"/><rect x="214.4" y="373.5" width="74.0" height="18.0" fill="#ffffff" opacity="0.9" rx="3"/><text x="251.4" y="384.5" font-family="WenQuanYi Zen Hei, Microsoft YaHei, SimSun, sans-serif" font-size="11" text-anchor="middle" fill="#57606a">赞/踩/收藏</text>
<path d="M499.9 342.5 L640.0 339.1" fill="none" stroke="#5b6b7b" stroke-width="1.3"/><polygon points="640.0,339.1 628.5,342.5 628.3,336.3" fill="#5b6b7b"/><rect x="539.5" y="331.8" width="60.8" height="18.0" fill="#ffffff" opacity="0.9" rx="3"/><text x="569.9" y="342.8" font-family="WenQuanYi Zen Hei, Microsoft YaHei, SimSun, sans-serif" font-size="11" text-anchor="middle" fill="#57606a">幂等写入</text>
<path d="M115.0 440.0 L250.0 470.0 L300.0 480.0" fill="none" stroke="#5b6b7b" stroke-width="1.3"/><polygon points="300.0,480.0 288.0,480.8 289.2,474.7" fill="#5b6b7b"/><rect x="157.2" y="451.5" width="100.4" height="18.0" fill="#ffffff" opacity="0.9" rx="3"/><text x="207.4" y="462.5" font-family="WenQuanYi Zen Hei, Microsoft YaHei, SimSun, sans-serif" font-size="11" text-anchor="middle" fill="#57606a">评论/回复/表态</text>
<path d="M499.9 482.5 L640.0 479.1" fill="none" stroke="#5b6b7b" stroke-width="1.3"/><polygon points="640.0,479.1 628.5,482.5 628.3,476.3" fill="#5b6b7b"/><rect x="546.1" y="471.8" width="47.6" height="18.0" fill="#ffffff" opacity="0.9" rx="3"/><text x="569.9" y="482.8" font-family="WenQuanYi Zen Hei, Microsoft YaHei, SimSun, sans-serif" font-size="11" text-anchor="middle" fill="#57606a">写评论</text>
<path d="M115.0 450.0 L240.0 620.0 L300.0 620.0" fill="none" stroke="#5b6b7b" stroke-width="1.3"/><polygon points="300.0,620.0 288.4,623.1 288.4,616.9" fill="#5b6b7b"/><rect x="164.9" y="550.2" width="60.8" height="18.0" fill="#ffffff" opacity="0.9" rx="3"/><text x="195.3" y="561.2" font-family="WenQuanYi Zen Hei, Microsoft YaHei, SimSun, sans-serif" font-size="11" text-anchor="middle" fill="#57606a">合集维护</text>
<path d="M499.9 622.5 L640.0 619.1" fill="none" stroke="#5b6b7b" stroke-width="1.3"/><polygon points="640.0,619.1 628.5,622.5 628.3,616.3" fill="#5b6b7b"/><rect x="539.5" y="611.8" width="60.8" height="18.0" fill="#ffffff" opacity="0.9" rx="3"/><text x="569.9" y="622.8" font-family="WenQuanYi Zen Hei, Microsoft YaHei, SimSun, sans-serif" font-size="11" text-anchor="middle" fill="#57606a">读写合集</text>
<path d="M500.0 600.0 L830.0 300.0 L760.0 124.0" fill="none" stroke="#57606a" stroke-width="1.3" stroke-dasharray="6 4"/><polygon points="760.0,124.0 767.2,133.6 761.4,135.9" fill="#57606a"/><rect x="698.1" y="377.3" width="74.0" height="18.0" fill="#ffffff" opacity="0.9" rx="3"/><text x="735.1" y="388.3" font-family="WenQuanYi Zen Hei, Microsoft YaHei, SimSun, sans-serif" font-size="11" text-anchor="middle" fill="#57606a">校验已发布</text>
<path d="M115.0 454.0 L240.0 760.0 L300.0 760.0" fill="none" stroke="#5b6b7b" stroke-width="1.3"/><polygon points="300.0,760.0 288.4,763.1 288.4,756.9" fill="#5b6b7b"/><rect x="171.6" y="625.8" width="34.4" height="18.0" fill="#ffffff" opacity="0.9" rx="3"/><text x="188.8" y="636.8" font-family="WenQuanYi Zen Hei, Microsoft YaHei, SimSun, sans-serif" font-size="11" text-anchor="middle" fill="#57606a">签到</text>
<path d="M499.9 762.5 L640.0 759.1" fill="none" stroke="#5b6b7b" stroke-width="1.3"/><polygon points="640.0,759.1 628.5,762.5 628.3,756.3" fill="#5b6b7b"/><rect x="523.0" y="751.8" width="93.8" height="18.0" fill="#ffffff" opacity="0.9" rx="3"/><text x="569.9" y="762.8" font-family="WenQuanYi Zen Hei, Microsoft YaHei, SimSun, sans-serif" font-size="11" text-anchor="middle" fill="#57606a">签到/经验流水</text>
</svg>