<svg xmlns="http://www.w3.org/2000/svg" width="1260" height="720" viewBox="0 0 1260 720" font-family="WenQuanYi Zen Hei, Microsoft YaHei, SimSun, sans-serif">
<rect x="0" y="0" width="1260" height="720" fill="#ffffff"/>
<rect x="40" y="300" width="150" height="74" fill="#ffe6cc" stroke="#d79b00" stroke-width="1.2"/><line x1="46" y1="300" x2="46" y2="374" stroke="#d79b00" stroke-width="1"/><text x="118.0" y="341.5" font-family="WenQuanYi Zen Hei, Microsoft YaHei, SimSun, sans-serif" font-size="12" text-anchor="middle" fill="#1f2328">注册用户</text>
<path d="M310 60 L470 60 M310 114 L470 114 M310 60 L310 114" fill="none" stroke="#9673a6" stroke-width="1.2"/><rect x="300" y="60" width="170" height="54" fill="none" stroke="none"/><text x="391.0" y="91.5" font-family="WenQuanYi Zen Hei, Microsoft YaHei, SimSun, sans-serif" font-size="12" text-anchor="middle" fill="#1f2328">D1 草稿库</text>
<path d="M990 600 L1170 600 M990 654 L1170 654 M990 600 L990 654" fill="none" stroke="#9673a6" stroke-width="1.2"/><rect x="980" y="600" width="190" height="54" fill="none" stroke="none"/><text x="1081.0" y="631.5" font-family="WenQuanYi Zen Hei, Microsoft YaHei, SimSun, sans-serif" font-size="12" text-anchor="middle" fill="#1f2328">D2 笔记库</text>
<rect x="980" y="90" width="190" height="70" fill="#ffe6cc" stroke="#d79b00" stroke-width="1.2"/><line x1="986" y1="90" x2="986" y2="160" stroke="#d79b00" stroke-width="1"/><text x="1078.0" y="129.5" font-family="WenQuanYi Zen Hei, Microsoft YaHei, SimSun, sans-serif" font-size="12" text-anchor="middle" fill="#1f2328">外部 AI 服务</text>
<rect x="290" y="210" width="190" height="96" rx="48.0" fill="#d5e8d4" stroke="#82b366" stroke-width="1.2"/><text x="385.0" y="255.0" font-family="WenQuanYi Zen Hei, Microsoft YaHei, SimSun, sans-serif" font-size="12" text-anchor="middle" fill="#1f2328">P1.1</text><text x="385.0" y="270.0" font-family="WenQuanYi Zen Hei, Microsoft YaHei, SimSun, sans-serif" font-size="12" text-anchor="middle" fill="#1f2328">编辑与自动保存</text>
<rect x="560" y="300" width="190" height="96" rx="48.0" fill="#d5e8d4" stroke="#82b366" stroke-width="1.2"/><text x="655.0" y="345.0" font-family="WenQuanYi Zen Hei, Microsoft YaHei, SimSun, sans-serif" font-size="12" text-anchor="middle" fill="#1f2328">P1.2</text><text x="655.0" y="360.0" font-family="WenQuanYi Zen Hei, Microsoft YaHei, SimSun, sans-serif" font-size="12" text-anchor="middle" fill="#1f2328">发布前校验</text>
<rect x="830" y="300" width="190" height="96" rx="48.0" fill="#d5e8d4" stroke="#82b366" stroke-width="1.2"/><text x="925.0" y="345.0" font-family="WenQuanYi Zen Hei, Microsoft YaHei, SimSun, sans-serif" font-size="12" text-anchor="middle" fill="#1f2328">P1.3</text><text x="925.0" y="360.0" font-family="WenQuanYi Zen Hei, Microsoft YaHei, SimSun, sans-serif" font-size="12" text-anchor="middle" fill="#1f2328">AI 摘要生成</text>
<rect x="830" y="470" width="190" height="86" rx="43.0" fill="#fff2cc" stroke="#d6b656" stroke-width="1.2"/><text x="925.0" y="510.0" font-family="WenQuanYi Zen Hei, Microsoft YaHei, SimSun, sans-serif" font-size="12" text-anchor="middle" fill="#1f2328">P1.4</text><text x="925.0" y="525.0" font-family="WenQuanYi Zen Hei, Microsoft YaHei, SimSun, sans-serif" font-size="12" text-anchor="middle" fill="#1f2328">首段截断兜底</text>
<rect x="540" y="560" width="210" height="96" rx="48.0" fill="#d5e8d4" stroke="#82b366" stroke-width="1.2"/><text x="645.0" y="605.0" font-family="WenQuanYi Zen Hei, Microsoft YaHei, SimSun, sans-serif" font-size="12" text-anchor="middle" fill="#1f2328">P1.5</text><text x="645.0" y="620.0" font-family="WenQuanYi Zen Hei, Microsoft YaHei, SimSun, sans-serif" font-size="12" text-anchor="middle" fill="#1f2328">创建笔记并删草稿</text>
<path d="M190.0 315.1 L302.8 282.1" fill="none" stroke="#5b6b7b" stroke-width="1.3"/><polygon points="302.8,282.1 292.5,288.3 290.8,282.3" fill="#5b6b7b"/><rect x="216.0" y="289.6" width="60.8" height="18.0" fill="#ffffff" opacity="0.9" rx="3"/><text x="246.4" y="300.6" font-family="WenQuanYi Zen Hei, Microsoft YaHei, SimSun, sans-serif" font-size="11" text-anchor="middle" fill="#57606a">编辑内容</text>
<path d="M385.0 210.0 L385.0 114.0" fill="none" stroke="#5b6b7b" stroke-width="1.3"/><polygon points="385.0,114.0 388.1,125.6 381.9,125.6" fill="#5b6b7b"/><rect x="354.6" y="153.0" width="60.8" height="18.0" fill="#ffffff" opacity="0.9" rx="3"/><text x="385.0" y="164.0" font-family="WenQuanYi Zen Hei, Microsoft YaHei, SimSun, sans-serif" font-size="11" text-anchor="middle" fill="#57606a">保存草稿</text>
<path d="M115.0 340.0 L300.0 420.0 L560.0 360.0" fill="none" stroke="#5b6b7b" stroke-width="1.3"/><polygon points="560.0,360.0 549.4,365.6 548.0,359.6" fill="#5b6b7b"/><rect x="314.6" y="403.7" width="34.4" height="18.0" fill="#ffffff" opacity="0.9" rx="3"/><text x="331.8" y="414.7" font-family="WenQuanYi Zen Hei, Microsoft YaHei, SimSun, sans-serif" font-size="11" text-anchor="middle" fill="#57606a">发布</text>
<path d="M400.0 114.0 L600.0 300.0" fill="none" stroke="#5b6b7b" stroke-width="1.3"/><polygon points="600.0,300.0 589.4,294.4 593.6,289.8" fill="#5b6b7b"/><rect x="476.2" y="198.0" width="47.6" height="18.0" fill="#ffffff" opacity="0.9" rx="3"/><text x="500.0" y="209.0" font-family="WenQuanYi Zen Hei, Microsoft YaHei, SimSun, sans-serif" font-size="11" text-anchor="middle" fill="#57606a">读草稿</text>
<path d="M610.0 396.0 L360.0 470.0 L192.0 366.0" fill="none" stroke="#b85450" stroke-width="1.3"/><polygon points="192.0,366.0 203.5,369.5 200.2,374.7" fill="#b85450"/><rect x="359.9" y="452.0" width="60.8" height="18.0" fill="#ffffff" opacity="0.9" rx="3"/><text x="390.3" y="463.0" font-family="WenQuanYi Zen Hei, Microsoft YaHei, SimSun, sans-serif" font-size="11" text-anchor="middle" fill="#57606a">错误提示</text>
<path d="M750.0 348.0 L830.0 348.0" fill="none" stroke="#5b6b7b" stroke-width="1.3"/><polygon points="830.0,348.0 818.4,351.1 818.4,344.9" fill="#5b6b7b"/><rect x="759.6" y="339.0" width="60.8" height="18.0" fill="#ffffff" opacity="0.9" rx="3"/><text x="790.0" y="350.0" font-family="WenQuanYi Zen Hei, Microsoft YaHei, SimSun, sans-serif" font-size="11" text-anchor="middle" fill="#57606a">摘要为空</text>
<path d="M905.0 300.0 L1005.0 160.0" fill="none" stroke="#5b6b7b" stroke-width="1.3"/><polygon points="1005.0,160.0 1000.8,171.2 995.7,167.6" fill="#5b6b7b"/><rect x="924.6" y="221.0" width="60.8" height="18.0" fill="#ffffff" opacity="0.9" rx="3"/><text x="955.0" y="232.0" font-family="WenQuanYi Zen Hei, Microsoft YaHei, SimSun, sans-serif" font-size="11" text-anchor="middle" fill="#57606a">生成请求</text>
<path d="M1085.0 160.0 L985.0 300.0" fill="none" stroke="#5b6b7b" stroke-width="1.3"/><polygon points="985.0,300.0 989.2,288.8 994.3,292.4" fill="#5b6b7b"/><rect x="1004.6" y="221.0" width="60.8" height="18.0" fill="#ffffff" opacity="0.9" rx="3"/><text x="1035.0" y="232.0" font-family="WenQuanYi Zen Hei, Microsoft YaHei, SimSun, sans-serif" font-size="11" text-anchor="middle" fill="#57606a">摘要文本</text>
<path d="M925.0 396.0 L925.0 470.0" fill="none" stroke="#b85450" stroke-width="1.3" stroke-dasharray="6 4"/><polygon points="925.0,470.0 921.9,458.4 928.1,458.4" fill="#b85450"/><rect x="891.3" y="424.0" width="67.4" height="18.0" fill="#ffffff" opacity="0.9" rx="3"/><text x="925.0" y="435.0" font-family="WenQuanYi Zen Hei, Microsoft YaHei, SimSun, sans-serif" font-size="11" text-anchor="middle" fill="#57606a">超时/失败</text>
<path d="M830.0 380.0 L700.0 500.0" fill="none" stroke="#5b6b7b" stroke-width="1.3"/><polygon points="700.0,500.0 706.4,489.9 710.6,494.4" fill="#5b6b7b"/><rect x="734.6" y="431.0" width="60.8" height="18.0" fill="#ffffff" opacity="0.9" rx="3"/><text x="765.0" y="442.0" font-family="WenQuanYi Zen Hei, Microsoft YaHei, SimSun, sans-serif" font-size="11" text-anchor="middle" fill="#57606a">摘要就绪</text>
<path d="M830.0 520.0 L700.0 560.0" fill="none" stroke="#5b6b7b" stroke-width="1.3"/><polygon points="700.0,560.0 710.2,553.6 712.0,559.6" fill="#5b6b7b"/><rect x="734.6" y="531.0" width="60.8" height="18.0" fill="#ffffff" opacity="0.9" rx="3"/><text x="765.0" y="542.0" font-family="WenQuanYi Zen Hei, Microsoft YaHei, SimSun, sans-serif" font-size="11" text-anchor="middle" fill="#57606a">兜底摘要</text>
<path d="M749.5 612.6 L980.0 622.8" fill="none" stroke="#5b6b7b" stroke-width="1.3"/><polygon points="980.0,622.8 968.3,625.4 968.6,619.2" fill="#5b6b7b"/><rect x="841.0" y="608.7" width="47.6" height="18.0" fill="#ffffff" opacity="0.9" rx="3"/><text x="864.8" y="619.7" font-family="WenQuanYi Zen Hei, Microsoft YaHei, SimSun, sans-serif" font-size="11" text-anchor="middle" fill="#57606a">新笔记</text>
<path d="M560.0 560.0 L360.0 300.0 L360.0 114.0" fill="none" stroke="#57606a" stroke-width="1.3" stroke-dasharray="6 4"/><polygon points="360.0,114.0 363.1,125.6 356.9,125.6" fill="#57606a"/><rect x="379.5" y="347.3" width="47.6" height="18.0" fill="#ffffff" opacity="0.9" rx="3"/><text x="403.3" y="358.3" font-family="WenQuanYi Zen Hei, Microsoft YaHei, SimSun, sans-serif" font-size="11" text-anchor="middle" fill="#57606a">删草稿</text>
</svg>