<svg xmlns="http://www.w3.org/2000/svg" width="3853" height="3173" viewBox="0 0 3853 3173" font-family="WenQuanYi Zen Hei, Microsoft YaHei, SimSun, sans-serif">
<rect width="3853" height="3173" fill="#ffffff"/>
<circle cx="212.0" cy="719.0" r="11" fill="#ffffff" stroke="#000000" stroke-width="1.4"/><line x1="212.0" y1="730.0" x2="212.0" y2="754.0" stroke="#000000" stroke-width="1.4"/><line x1="197.0" y1="739.0" x2="227.0" y2="739.0" stroke="#000000" stroke-width="1.4"/><line x1="212.0" y1="754.0" x2="199.0" y2="774.0" stroke="#000000" stroke-width="1.4"/><line x1="212.0" y1="754.0" x2="225.0" y2="774.0" stroke="#000000" stroke-width="1.4"/><text x="212.0" y="965.0" font-family="WenQuanYi Zen Hei, Microsoft YaHei, SimSun, sans-serif" font-size="34" text-anchor="middle" font-weight="bold" fill="#1f2328">匿名访客</text>
<circle cx="212.0" cy="1598.0" r="11" fill="#ffffff" stroke="#000000" stroke-width="1.4"/><line x1="212.0" y1="1609.0" x2="212.0" y2="1633.0" stroke="#000000" stroke-width="1.4"/><line x1="197.0" y1="1618.0" x2="227.0" y2="1618.0" stroke="#000000" stroke-width="1.4"/><line x1="212.0" y1="1633.0" x2="199.0" y2="1653.0" stroke="#000000" stroke-width="1.4"/><line x1="212.0" y1="1633.0" x2="225.0" y2="1653.0" stroke="#000000" stroke-width="1.4"/><text x="212.0" y="1844.0" font-family="WenQuanYi Zen Hei, Microsoft YaHei, SimSun, sans-serif" font-size="34" text-anchor="middle" font-weight="bold" fill="#1f2328">注册用户</text>
<circle cx="212.0" cy="2448.0" r="11" fill="#ffffff" stroke="#000000" stroke-width="1.4"/><line x1="212.0" y1="2459.0" x2="212.0" y2="2483.0" stroke="#000000" stroke-width="1.4"/><line x1="197.0" y1="2468.0" x2="227.0" y2="2468.0" stroke="#000000" stroke-width="1.4"/><line x1="212.0" y1="2483.0" x2="199.0" y2="2503.0" stroke="#000000" stroke-width="1.4"/><line x1="212.0" y1="2483.0" x2="225.0" y2="2503.0" stroke="#000000" stroke-width="1.4"/><text x="212.0" y="2694.0" font-family="WenQuanYi Zen Hei, Microsoft YaHei, SimSun, sans-serif" font-size="34" text-anchor="middle" font-weight="bold" fill="#1f2328">笔记作者</text>
<circle cx="3641.0" cy="861.0" r="11" fill="#ffffff" stroke="#000000" stroke-width="1.4"/><line x1="3641.0" y1="872.0" x2="3641.0" y2="896.0" stroke="#000000" stroke-width="1.4"/><line x1="3626.0" y1="881.0" x2="3656.0" y2="881.0" stroke="#000000" stroke-width="1.4"/><line x1="3641.0" y1="896.0" x2="3628.0" y2="916.0" stroke="#000000" stroke-width="1.4"/><line x1="3641.0" y1="896.0" x2="3654.0" y2="916.0" stroke="#000000" stroke-width="1.4"/><text x="3641.0" y="1107.0" font-family="WenQuanYi Zen Hei, Microsoft YaHei, SimSun, sans-serif" font-size="34" text-anchor="middle" font-weight="bold" fill="#1f2328">外部 AI 服务</text>
<rect x="737.0" y="113.0" width="2663.0" height="2975.0" rx="12" fill="none" stroke="#000000" stroke-width="1.2" stroke-dasharray="6 4"/><text x="2068.5" y="153.0" font-family="WenQuanYi Zen Hei, Microsoft YaHei, SimSun, sans-serif" font-size="34" text-anchor="middle" font-weight="bold" fill="#000000">笔记系统与社区互动</text>
<ellipse cx="1204.0" cy="374.0" rx="269.0" ry="119.0" fill="#ffffff" stroke="#000000" stroke-width="1.2"/><text x="1204.0" y="374.0" font-family="WenQuanYi Zen Hei, Microsoft YaHei, SimSun, sans-serif" font-size="34" text-anchor="middle" fill="#1f2328">浏览/检索 信息流</text>
<ellipse cx="1856.0" cy="374.0" rx="269.0" ry="119.0" fill="#ffffff" stroke="#000000" stroke-width="1.2"/><text x="1856.0" y="374.0" font-family="WenQuanYi Zen Hei, Microsoft YaHei, SimSun, sans-serif" font-size="34" text-anchor="middle" fill="#1f2328">查看笔记详情</text>
<ellipse cx="2536.0" cy="374.0" rx="269.0" ry="119.0" fill="#ffffff" stroke="#000000" stroke-width="1.2"/><text x="2536.0" y="374.0" font-family="WenQuanYi Zen Hei, Microsoft YaHei, SimSun, sans-serif" font-size="34" text-anchor="middle" fill="#1f2328">撰写/自动 保存草稿</text>
<ellipse cx="3159.0" cy="374.0" rx="269.0" ry="119.0" fill="#ffffff" stroke="#000000" stroke-width="1.2"/><text x="3159.0" y="374.0" font-family="WenQuanYi Zen Hei, Microsoft YaHei, SimSun, sans-serif" font-size="34" text-anchor="middle" fill="#1f2328">AI 选段润色</text>
<ellipse cx="2536.0" cy="714.0" rx="269.0" ry="119.0" fill="#ffffff" stroke="#000000" stroke-width="1.2"/><text x="2536.0" y="714.0" font-family="WenQuanYi Zen Hei, Microsoft YaHei, SimSun, sans-serif" font-size="34" text-anchor="middle" fill="#1f2328">发布笔记 (AI 摘要兜底)</text>
<ellipse cx="3159.0" cy="714.0" rx="269.0" ry="119.0" fill="#ffffff" stroke="#000000" stroke-width="1.2"/><text x="3159.0" y="714.0" font-family="WenQuanYi Zen Hei, Microsoft YaHei, SimSun, sans-serif" font-size="34" text-anchor="middle" fill="#1f2328">编辑/删除 本人笔记</text>
<ellipse cx="1204.0" cy="1054.0" rx="269.0" ry="119.0" fill="#ffffff" stroke="#000000" stroke-width="1.2"/><text x="1204.0" y="1054.0" font-family="WenQuanYi Zen Hei, Microsoft YaHei, SimSun, sans-serif" font-size="34" text-anchor="middle" fill="#1f2328">笔记点赞</text>
<ellipse cx="1856.0" cy="1054.0" rx="269.0" ry="119.0" fill="#ffffff" stroke="#000000" stroke-width="1.2"/><text x="1856.0" y="1054.0" font-family="WenQuanYi Zen Hei, Microsoft YaHei, SimSun, sans-serif" font-size="34" text-anchor="middle" fill="#1f2328">笔记点踩 (后端)</text>
<ellipse cx="2536.0" cy="1111.0" rx="269.0" ry="119.0" fill="#ffffff" stroke="#000000" stroke-width="1.2"/><text x="2536.0" y="1111.0" font-family="WenQuanYi Zen Hei, Microsoft YaHei, SimSun, sans-serif" font-size="34" text-anchor="middle" fill="#1f2328">收藏/取消 收藏</text>
<ellipse cx="3159.0" cy="1111.0" rx="269.0" ry="119.0" fill="#ffffff" stroke="#000000" stroke-width="1.2"/><text x="3159.0" y="1111.0" font-family="WenQuanYi Zen Hei, Microsoft YaHei, SimSun, sans-serif" font-size="34" text-anchor="middle" fill="#1f2328">查看我的收藏</text>
<ellipse cx="1204.0" cy="1536.0" rx="269.0" ry="119.0" fill="#ffffff" stroke="#000000" stroke-width="1.2"/><text x="1204.0" y="1536.0" font-family="WenQuanYi Zen Hei, Microsoft YaHei, SimSun, sans-serif" font-size="34" text-anchor="middle" fill="#1f2328">发表评论/ 二级回复</text>
<ellipse cx="1856.0" cy="1536.0" rx="269.0" ry="119.0" fill="#ffffff" stroke="#000000" stroke-width="1.2"/><text x="1856.0" y="1536.0" font-family="WenQuanYi Zen Hei, Microsoft YaHei, SimSun, sans-serif" font-size="34" text-anchor="middle" fill="#1f2328">删除评论</text>
<ellipse cx="2536.0" cy="1536.0" rx="269.0" ry="119.0" fill="#ffffff" stroke="#000000" stroke-width="1.2"/><text x="2536.0" y="1536.0" font-family="WenQuanYi Zen Hei, Microsoft YaHei, SimSun, sans-serif" font-size="34" text-anchor="middle" fill="#1f2328">评论赞踩 (后端)</text>
<ellipse cx="1204.0" cy="1989.0" rx="269.0" ry="119.0" fill="#ffffff" stroke="#000000" stroke-width="1.2"/><text x="1204.0" y="1989.0" font-family="WenQuanYi Zen Hei, Microsoft YaHei, SimSun, sans-serif" font-size="34" text-anchor="middle" fill="#1f2328">创建/维护 合集</text>
<ellipse cx="1856.0" cy="1989.0" rx="269.0" ry="119.0" fill="#ffffff" stroke="#000000" stroke-width="1.2"/><text x="1856.0" y="1989.0" font-family="WenQuanYi Zen Hei, Microsoft YaHei, SimSun, sans-serif" font-size="34" text-anchor="middle" fill="#1f2328">加入/移出 合集笔记</text>
<ellipse cx="2536.0" cy="1989.0" rx="269.0" ry="119.0" fill="#ffffff" stroke="#000000" stroke-width="1.2"/><text x="2536.0" y="1989.0" font-family="WenQuanYi Zen Hei, Microsoft YaHei, SimSun, sans-serif" font-size="34" text-anchor="middle" fill="#1f2328">查询合集 上下文</text>
<ellipse cx="1204.0" cy="2471.0" rx="269.0" ry="119.0" fill="#ffffff" stroke="#000000" stroke-width="1.2"/><text x="1204.0" y="2471.0" font-family="WenQuanYi Zen Hei, Microsoft YaHei, SimSun, sans-serif" font-size="34" text-anchor="middle" fill="#1f2328">每日签到</text>
<ellipse cx="1856.0" cy="2471.0" rx="269.0" ry="119.0" fill="#ffffff" stroke="#000000" stroke-width="1.2"/><text x="1856.0" y="2471.0" font-family="WenQuanYi Zen Hei, Microsoft YaHei, SimSun, sans-serif" font-size="34" text-anchor="middle" fill="#1f2328">查看经验流水</text>
<path d="M311.0 789.4 L948.2 493.0" fill="none" stroke="#000000" stroke-width="1.3"/>
<path d="M311.0 807.7 L1587.0 449.5" fill="none" stroke="#000000" stroke-width="1.3"/>
<path d="M311.0 884.6 L2296.2 1870.0" fill="none" stroke="#000000" stroke-width="1.3"/>
<path d="M306.4 1587.0 L1115.9 493.0" fill="none" stroke="#000000" stroke-width="1.3"/>
<path d="M311.0 1633.8 L1710.1 493.0" fill="none" stroke="#000000" stroke-width="1.3"/>
<path d="M311.0 1657.4 L2329.7 493.0" fill="none" stroke="#000000" stroke-width="1.3"/>
<path d="M311.0 1669.5 L2897.4 493.0" fill="none" stroke="#000000" stroke-width="1.3"/>
<path d="M311.0 1671.9 L2267.0 829.8" fill="none" stroke="#000000" stroke-width="1.3"/>
<path d="M311.0 1648.6 L1025.3 1173.0" fill="none" stroke="#000000" stroke-width="1.3"/>
<path d="M311.0 1674.7 L1587.0 1162.1" fill="none" stroke="#000000" stroke-width="1.3"/>
<path d="M311.0 1688.8 L2267.0 1180.9" fill="none" stroke="#000000" stroke-width="1.3"/>
<path d="M311.0 1694.2 L2890.0 1166.1" fill="none" stroke="#000000" stroke-width="1.3"/>
<path d="M311.0 1696.7 L935.0 1584.4" fill="none" stroke="#000000" stroke-width="1.3"/>
<path d="M311.0 1706.9 L2267.0 1556.7" fill="none" stroke="#000000" stroke-width="1.3"/>
<path d="M311.0 1741.9 L935.0 1914.6" fill="none" stroke="#000000" stroke-width="1.3"/>
<path d="M311.0 1731.0 L1587.0 1944.1" fill="none" stroke="#000000" stroke-width="1.3"/>
<path d="M311.0 1726.2 L2267.0 1957.2" fill="none" stroke="#000000" stroke-width="1.3"/>
<path d="M311.0 1790.0 L1048.0 2352.0" fill="none" stroke="#000000" stroke-width="1.3"/>
<path d="M311.0 1760.1 L1597.4 2352.0" fill="none" stroke="#000000" stroke-width="1.3"/>
<path d="M311.0 2502.3 L2969.5 833.0" fill="none" stroke="#000000" stroke-width="1.3"/>
<path d="M311.0 2502.6 L1665.8 1655.0" fill="none" stroke="#000000" stroke-width="1.3"/>
<path d="M3542.0 853.5 L3254.0 493.0" fill="none" stroke="#000000" stroke-width="1.3"/>
<path d="M3542.0 953.9 L2805.0 778.1" fill="none" stroke="#000000" stroke-width="1.3"/>
<path d="M212.0 2437.0 L212.0 1842.0" fill="none" stroke="#000000" stroke-width="1.3"/><polygon points="212.0,1842.0 215.7,1853.4 208.3,1853.4" fill="#ffffff" stroke="#000000" stroke-width="1"/>
</svg>