<svg xmlns="http://www.w3.org/2000/svg" width="3570" height="2040" viewBox="0 0 3570 2040" font-family="WenQuanYi Zen Hei, Microsoft YaHei, SimSun, sans-serif">
<rect width="3570" height="2040" fill="#ffffff"/>
<rect x="113.0" y="850.0" width="425.0" height="210.0" rx="12" fill="#ffffff" stroke="#000000" stroke-width="1.2"/><text x="325.5" y="971.0" font-family="WenQuanYi Zen Hei, Microsoft YaHei, SimSun, sans-serif" font-size="34" text-anchor="middle" fill="#1f2328">注册用户</text>
<path d="M860.0 170.0 L1332.0 170.0 M860.0 323.0 L1332.0 323.0 M860.0 170.0 L860.0 323.0" fill="none" stroke="#000000" stroke-width="1.2"/><text x="1101.0" y="262.5" font-family="WenQuanYi Zen Hei, Microsoft YaHei, SimSun, sans-serif" font-size="34" text-anchor="middle" fill="#1f2328">D1 草稿库</text>
<path d="M2787.0 1700.0 L3315.0 1700.0 M2787.0 1853.0 L3315.0 1853.0 M2787.0 1700.0 L2787.0 1853.0" fill="none" stroke="#000000" stroke-width="1.2"/><text x="3056.0" y="1792.5" font-family="WenQuanYi Zen Hei, Microsoft YaHei, SimSun, sans-serif" font-size="34" text-anchor="middle" fill="#1f2328">D2 笔记库</text>
<rect x="2777.0" y="255.0" width="538.0" height="198.0" rx="12" fill="#ffffff" stroke="#000000" stroke-width="1.2"/><text x="3046.0" y="370.0" font-family="WenQuanYi Zen Hei, Microsoft YaHei, SimSun, sans-serif" font-size="34" text-anchor="middle" fill="#1f2328">外部 AI 服务</text>
<ellipse cx="1090.5" cy="730.5" rx="212.5" ry="212.5" fill="#ffffff" stroke="#000000" stroke-width="1.2"/><text x="1090.5" y="730.5" font-family="WenQuanYi Zen Hei, Microsoft YaHei, SimSun, sans-serif" font-size="34" text-anchor="middle" fill="#1f2328">P1.1 编辑与自动保存</text>
<ellipse cx="1855.5" cy="986.5" rx="212.5" ry="212.5" fill="#ffffff" stroke="#000000" stroke-width="1.2"/><text x="1855.5" y="986.5" font-family="WenQuanYi Zen Hei, Microsoft YaHei, SimSun, sans-serif" font-size="34" text-anchor="middle" fill="#1f2328">P1.2 发布前校验</text>
<ellipse cx="2620.5" cy="986.5" rx="212.5" ry="212.5" fill="#ffffff" stroke="#000000" stroke-width="1.2"/><text x="2620.5" y="986.5" font-family="WenQuanYi Zen Hei, Microsoft YaHei, SimSun, sans-serif" font-size="34" text-anchor="middle" fill="#1f2328">P1.3 AI 摘要生成</text>
<ellipse cx="2620.5" cy="1453.5" rx="212.5" ry="212.5" fill="#ffffff" stroke="#000000" stroke-width="1.2"/><text x="2620.5" y="1453.5" font-family="WenQuanYi Zen Hei, Microsoft YaHei, SimSun, sans-serif" font-size="34" text-anchor="middle" fill="#1f2328">P1.4 首段截断兜底</text>
<ellipse cx="1827.5" cy="1722.5" rx="212.5" ry="212.5" fill="#ffffff" stroke="#000000" stroke-width="1.2"/><text x="1827.5" y="1722.5" font-family="WenQuanYi Zen Hei, Microsoft YaHei, SimSun, sans-serif" font-size="34" text-anchor="middle" fill="#1f2328">P1.5 创建笔记并删草稿</text>
<path d="M538.0 892.6 L878.0 792.9" fill="none" stroke="#000000" stroke-width="1.3"/><polygon points="878.0,792.9 868.1,799.6 866.0,792.5" fill="#000000" stroke="#000000" stroke-width="1"/><rect x="676.7" y="834.2" width="62.6" height="17.0" fill="#ffffff" opacity="0.85" rx="3"/><text x="708.0" y="846.2" font-family="WenQuanYi Zen Hei, Microsoft YaHei, SimSun, sans-serif" font-size="11" text-anchor="middle" fill="#000000">编辑内容</text>
<path d="M1090.7 518.0 L1090.9 323.0" fill="none" stroke="#000000" stroke-width="1.3"/><polygon points="1090.9,323.0 1094.6,334.4 1087.2,334.4" fill="#000000" stroke="#000000" stroke-width="1"/><rect x="1059.5" y="412.0" width="62.6" height="17.0" fill="#ffffff" opacity="0.85" rx="3"/><text x="1090.8" y="424.0" font-family="WenQuanYi Zen Hei, Microsoft YaHei, SimSun, sans-serif" font-size="11" text-anchor="middle" fill="#000000">保存草稿</text>
<path d="M326.0 963.0 L850.0 1190.0 L1587.0 1020.0" fill="none" stroke="#000000" stroke-width="1.3"/><polygon points="1587.0,1020.0 1576.7,1026.2 1575.0,1019.0" fill="#000000" stroke="#000000" stroke-width="1"/><rect x="922.6" y="1160.7" width="35.3" height="17.0" fill="#ffffff" opacity="0.85" rx="3"/><text x="940.3" y="1172.7" font-family="WenQuanYi Zen Hei, Microsoft YaHei, SimSun, sans-serif" font-size="11" text-anchor="middle" fill="#000000">发布</text>
<path d="M1133.0 323.0 L1700.0 850.0" fill="none" stroke="#000000" stroke-width="1.3"/><polygon points="1700.0,850.0 1689.1,844.9 1694.2,839.5" fill="#000000" stroke="#000000" stroke-width="1"/><rect x="1392.0" y="578.0" width="48.9" height="17.0" fill="#ffffff" opacity="0.85" rx="3"/><text x="1416.5" y="590.0" font-family="WenQuanYi Zen Hei, Microsoft YaHei, SimSun, sans-serif" font-size="11" text-anchor="middle" fill="#000000">读草稿</text>
<path d="M1728.0 1122.0 L1020.0 1332.0 L544.0 1037.0" fill="none" stroke="#000000" stroke-width="1.3"/><polygon points="544.0,1037.0 555.7,1039.9 551.7,1046.2" fill="#000000" stroke="#000000" stroke-width="1"/><rect x="1074.3" y="1298.1" width="62.6" height="17.0" fill="#ffffff" opacity="0.85" rx="3"/><text x="1105.6" y="1310.1" font-family="WenQuanYi Zen Hei, Microsoft YaHei, SimSun, sans-serif" font-size="11" text-anchor="middle" fill="#000000">错误提示</text>
<path d="M2068.0 986.5 L2408.0 986.5" fill="none" stroke="#000000" stroke-width="1.3"/><polygon points="2408.0,986.5 2396.6,990.2 2396.6,982.8" fill="#000000" stroke="#000000" stroke-width="1"/><rect x="2206.7" y="978.0" width="62.6" height="17.0" fill="#ffffff" opacity="0.85" rx="3"/><text x="2238.0" y="990.0" font-family="WenQuanYi Zen Hei, Microsoft YaHei, SimSun, sans-serif" font-size="11" text-anchor="middle" fill="#000000">摘要为空</text>
<path d="M2564.0 850.0 L2848.0 453.0" fill="none" stroke="#000000" stroke-width="1.3"/><polygon points="2848.0,453.0 2844.4,464.4 2838.3,460.1" fill="#000000" stroke="#000000" stroke-width="1"/><rect x="2674.7" y="643.0" width="62.6" height="17.0" fill="#ffffff" opacity="0.85" rx="3"/><text x="2706.0" y="655.0" font-family="WenQuanYi Zen Hei, Microsoft YaHei, SimSun, sans-serif" font-size="11" text-anchor="middle" fill="#000000">生成请求</text>
<path d="M3074.0 453.0 L2791.0 850.0" fill="none" stroke="#000000" stroke-width="1.3"/><polygon points="2791.0,850.0 2794.6,838.6 2800.6,842.9" fill="#000000" stroke="#000000" stroke-width="1"/><rect x="2901.2" y="643.0" width="62.6" height="17.0" fill="#ffffff" opacity="0.85" rx="3"/><text x="2932.5" y="655.0" font-family="WenQuanYi Zen Hei, Microsoft YaHei, SimSun, sans-serif" font-size="11" text-anchor="middle" fill="#000000">摘要文本</text>
<path d="M2620.5 1199.0 L2620.5 1241.0" fill="none" stroke="#000000" stroke-width="1.3" stroke-dasharray="6 4"/><polygon points="2620.5,1241.0 2616.8,1229.6 2624.2,1229.6" fill="#000000" stroke="#000000" stroke-width="1"/><rect x="2585.8" y="1211.5" width="69.4" height="17.0" fill="#ffffff" opacity="0.85" rx="3"/><text x="2620.5" y="1223.5" font-family="WenQuanYi Zen Hei, Microsoft YaHei, SimSun, sans-serif" font-size="11" text-anchor="middle" fill="#000000">超时/失败</text>
<path d="M2352.0 1077.0 L1983.0 1417.0" fill="none" stroke="#000000" stroke-width="1.3"/><polygon points="1983.0,1417.0 1988.9,1406.5 1993.9,1412.0" fill="#000000" stroke="#000000" stroke-width="1"/><rect x="2136.2" y="1238.5" width="62.6" height="17.0" fill="#ffffff" opacity="0.85" rx="3"/><text x="2167.5" y="1250.5" font-family="WenQuanYi Zen Hei, Microsoft YaHei, SimSun, sans-serif" font-size="11" text-anchor="middle" fill="#000000">摘要就绪</text>
<path d="M2352.0 1473.0 L1983.0 1587.0" fill="none" stroke="#000000" stroke-width="1.3"/><polygon points="1983.0,1587.0 1992.8,1580.1 1995.0,1587.2" fill="#000000" stroke="#000000" stroke-width="1"/><rect x="2136.2" y="1521.5" width="62.6" height="17.0" fill="#ffffff" opacity="0.85" rx="3"/><text x="2167.5" y="1533.5" font-family="WenQuanYi Zen Hei, Microsoft YaHei, SimSun, sans-serif" font-size="11" text-anchor="middle" fill="#000000">兜底摘要</text>
<path d="M2040.0 1731.9 L2777.0 1764.6" fill="none" stroke="#000000" stroke-width="1.3"/><polygon points="2777.0,1764.6 2765.4,1767.8 2765.8,1760.4" fill="#000000" stroke="#000000" stroke-width="1"/><rect x="2384.0" y="1739.7" width="48.9" height="17.0" fill="#ffffff" opacity="0.85" rx="3"/><text x="2408.5" y="1751.7" font-family="WenQuanYi Zen Hei, Microsoft YaHei, SimSun, sans-serif" font-size="11" text-anchor="middle" fill="#000000">新笔记</text>
<path d="M1587.0 1587.0 L1020.0 850.0 L1020.0 323.0" fill="none" stroke="#000000" stroke-width="1.3" stroke-dasharray="6 4"/><polygon points="1020.0,323.0 1023.7,334.4 1016.3,334.4" fill="#000000" stroke="#000000" stroke-width="1"/><rect x="1118.4" y="1001.2" width="48.9" height="17.0" fill="#ffffff" opacity="0.85" rx="3"/><text x="1142.8" y="1013.2" font-family="WenQuanYi Zen Hei, Microsoft YaHei, SimSun, sans-serif" font-size="11" text-anchor="middle" fill="#000000">删草稿</text>
</svg>