<svg xmlns="http://www.w3.org/2000/svg" width="1280" height="900" viewBox="0 0 1280 900" font-family="WenQuanYi Zen Hei, Microsoft YaHei, SimSun, sans-serif">
<rect x="0" y="0" width="1280" height="900" fill="#ffffff"/>
<rect x="40" y="46" width="900" height="190" rx="12" fill="#fbfcfe" stroke="#c4ccd6" stroke-width="1.2"/>
<text x="56.0" y="68.0" font-family="WenQuanYi Zen Hei, Microsoft YaHei, SimSun, sans-serif" font-size="12" text-anchor="start" font-weight="bold" fill="#57606a">客户层 · 浏览器 React 18 SPA（前端 features 纵切）</text>
<rect x="58" y="90" width="168" height="58" rx="12" fill="#fff2cc" stroke="#d6b656" stroke-width="1.2"/><text x="142.0" y="116.0" font-family="WenQuanYi Zen Hei, Microsoft YaHei, SimSun, sans-serif" font-size="11" text-anchor="middle" fill="#1f2328">WritePage</text><text x="142.0" y="130.0" font-family="WenQuanYi Zen Hei, Microsoft YaHei, SimSun, sans-serif" font-size="11" text-anchor="middle" fill="#1f2328">/write</text>
<rect x="240" y="90" width="168" height="58" rx="12" fill="#fff2cc" stroke="#d6b656" stroke-width="1.2"/><text x="324.0" y="116.0" font-family="WenQuanYi Zen Hei, Microsoft YaHei, SimSun, sans-serif" font-size="11" text-anchor="middle" fill="#1f2328">BrowsePage</text><text x="324.0" y="130.0" font-family="WenQuanYi Zen Hei, Microsoft YaHei, SimSun, sans-serif" font-size="11" text-anchor="middle" fill="#1f2328">/browse</text>
<rect x="422" y="90" width="168" height="58" rx="12" fill="#fff2cc" stroke="#d6b656" stroke-width="1.2"/><text x="506.0" y="116.0" font-family="WenQuanYi Zen Hei, Microsoft YaHei, SimSun, sans-serif" font-size="11" text-anchor="middle" fill="#1f2328">NoteDetailPage</text><text x="506.0" y="130.0" font-family="WenQuanYi Zen Hei, Microsoft YaHei, SimSun, sans-serif" font-size="11" text-anchor="middle" fill="#1f2328">/note/:id</text>
<rect x="604" y="90" width="168" height="58" rx="12" fill="#fff2cc" stroke="#d6b656" stroke-width="1.2"/><text x="688.0" y="116.0" font-family="WenQuanYi Zen Hei, Microsoft YaHei, SimSun, sans-serif" font-size="11" text-anchor="middle" fill="#1f2328">ProfilePage</text><text x="688.0" y="130.0" font-family="WenQuanYi Zen Hei, Microsoft YaHei, SimSun, sans-serif" font-size="11" text-anchor="middle" fill="#1f2328">/me</text>
<rect x="786" y="90" width="168" height="58" rx="12" fill="#fff2cc" stroke="#d6b656" stroke-width="1.2"/><text x="870.0" y="116.0" font-family="WenQuanYi Zen Hei, Microsoft YaHei, SimSun, sans-serif" font-size="11" text-anchor="middle" fill="#1f2328">AdminPage</text><text x="870.0" y="130.0" font-family="WenQuanYi Zen Hei, Microsoft YaHei, SimSun, sans-serif" font-size="11" text-anchor="middle" fill="#1f2328">/admin</text>
<rect x="58" y="166" width="880" height="52" rx="12" fill="#dfeafb" stroke="#6c8ebf" stroke-width="1.2"/><text x="498.0" y="196.0" font-family="WenQuanYi Zen Hei, Microsoft YaHei, SimSun, sans-serif" font-size="11" text-anchor="middle" fill="#1f2328">api/client.ts · 统一请求封装（TanStack Query 缓存 · Zod 边界校验 · Bearer JWT）</text>
<rect x="300" y="276" width="380" height="52" rx="12" fill="#f2f4f7" stroke="#8a94a6" stroke-width="1.2"/><text x="490.0" y="306.5" font-family="WenQuanYi Zen Hei, Microsoft YaHei, SimSun, sans-serif" font-size="12" text-anchor="middle" fill="#1f2328">nginx 反向代理（静态资源直出 + API 反向代理）</text>
<rect x="40" y="368" width="900" height="470" rx="12" fill="#fafbff" stroke="#c4ccd6" stroke-width="1.2"/>
<text x="56.0" y="390.0" font-family="WenQuanYi Zen Hei, Microsoft YaHei, SimSun, sans-serif" font-size="12" text-anchor="start" font-weight="bold" fill="#57606a">服务端 · FastAPI 单体后端 feiyue-backend.service（routes → services → db 单向依赖）</text>
<text x="58.0" y="421.0" font-family="WenQuanYi Zen Hei, Microsoft YaHei, SimSun, sans-serif" font-size="11" text-anchor="start" font-weight="bold" fill="#6c8ebf">路由层 routes</text>
<rect x="58" y="434" width="120" height="46" rx="12" fill="#dae8fc" stroke="#6c8ebf" stroke-width="1.2"/><text x="118.0" y="461.0" font-family="WenQuanYi Zen Hei, Microsoft YaHei, SimSun, sans-serif" font-size="11" text-anchor="middle" fill="#1f2328">notes</text>
<rect x="192" y="434" width="120" height="46" rx="12" fill="#dae8fc" stroke="#6c8ebf" stroke-width="1.2"/><text x="252.0" y="461.0" font-family="WenQuanYi Zen Hei, Microsoft YaHei, SimSun, sans-serif" font-size="11" text-anchor="middle" fill="#1f2328">drafts</text>
<rect x="326" y="434" width="168" height="46" rx="12" fill="#dae8fc" stroke="#6c8ebf" stroke-width="1.2"/><text x="410.0" y="461.0" font-family="WenQuanYi Zen Hei, Microsoft YaHei, SimSun, sans-serif" font-size="11" text-anchor="middle" fill="#1f2328">interactions</text>
<rect x="508" y="434" width="168" height="46" rx="12" fill="#dae8fc" stroke="#6c8ebf" stroke-width="1.2"/><text x="592.0" y="461.0" font-family="WenQuanYi Zen Hei, Microsoft YaHei, SimSun, sans-serif" font-size="11" text-anchor="middle" fill="#1f2328">collections</text>
<rect x="690" y="434" width="120" height="46" rx="12" fill="#dae8fc" stroke="#6c8ebf" stroke-width="1.2"/><text x="750.0" y="461.0" font-family="WenQuanYi Zen Hei, Microsoft YaHei, SimSun, sans-serif" font-size="11" text-anchor="middle" fill="#1f2328">ai</text>
<rect x="824" y="434" width="120" height="46" rx="12" fill="#dae8fc" stroke="#6c8ebf" stroke-width="1.2"/><text x="884.0" y="461.0" font-family="WenQuanYi Zen Hei, Microsoft YaHei, SimSun, sans-serif" font-size="11" text-anchor="middle" fill="#1f2328">auth</text>
<text x="58.0" y="523.0" font-family="WenQuanYi Zen Hei, Microsoft YaHei, SimSun, sans-serif" font-size="11" text-anchor="start" font-weight="bold" fill="#82b366">服务层 service</text><text x="58.0" y="538.0" font-family="WenQuanYi Zen Hei, Microsoft YaHei, SimSun, sans-serif" font-size="11" text-anchor="start" font-weight="bold" fill="#82b366">s</text>
<rect x="58" y="536" width="220" height="46" rx="12" fill="#d5e8d4" stroke="#82b366" stroke-width="1.2"/><text x="168.0" y="563.0" font-family="WenQuanYi Zen Hei, Microsoft YaHei, SimSun, sans-serif" font-size="11" text-anchor="middle" fill="#1f2328">notes（列表/详情/编辑）</text>
<rect x="300" y="536" width="240" height="46" rx="12" fill="#d5e8d4" stroke="#82b366" stroke-width="1.2"/><text x="420.0" y="563.0" font-family="WenQuanYi Zen Hei, Microsoft YaHei, SimSun, sans-serif" font-size="11" text-anchor="middle" fill="#1f2328">comments（评论 keyset 分页）</text>
<rect x="562" y="536" width="240" height="46" rx="12" fill="#d5e8d4" stroke="#82b366" stroke-width="1.2"/><text x="682.0" y="563.0" font-family="WenQuanYi Zen Hei, Microsoft YaHei, SimSun, sans-serif" font-size="11" text-anchor="middle" fill="#1f2328">ai_compose（润色/摘要降级）</text>
<text x="58.0" y="627.0" font-family="WenQuanYi Zen Hei, Microsoft YaHei, SimSun, sans-serif" font-size="11" text-anchor="start" font-weight="bold" fill="#9673a6">数据层 db</text>
<rect x="58" y="640" width="420" height="52" rx="12" fill="#e1d5e7" stroke="#9673a6" stroke-width="1.2"/><text x="268.0" y="670.0" font-family="WenQuanYi Zen Hei, Microsoft YaHei, SimSun, sans-serif" font-size="11" text-anchor="middle" fill="#1f2328">SQLAlchemy 2.x ORM 模型 + Alembic 迁移</text>
<path d="M530 636 L800 636 M530 696 L800 696 M530 636 L530 696" fill="none" stroke="#9673a6" stroke-width="1.2"/><rect x="520" y="636" width="280" height="60" fill="none" stroke="none"/><text x="666.0" y="670.5" font-family="WenQuanYi Zen Hei, Microsoft YaHei, SimSun, sans-serif" font-size="12" text-anchor="middle" fill="#1f2328">SQLite 主库 labnotes.db</text>
<text x="58.0" y="731.0" font-family="WenQuanYi Zen Hei, Microsoft YaHei, SimSun, sans-serif" font-size="11" text-anchor="start" fill="#57606a">发布为唯一建笔记路径（POST /notes/drafts/{id}/publish）；治理域 reports/blocks 仅数据模型预留。</text>
<rect x="1010" y="470" width="230" height="80" fill="#ffe6cc" stroke="#d79b00" stroke-width="1.2"/><line x1="1016" y1="470" x2="1016" y2="550" stroke="#d79b00" stroke-width="1"/><text x="1128.0" y="507.0" font-family="WenQuanYi Zen Hei, Microsoft YaHei, SimSun, sans-serif" font-size="12" text-anchor="middle" fill="#1f2328">外部 AI 服务</text><text x="1128.0" y="522.0" font-family="WenQuanYi Zen Hei, Microsoft YaHei, SimSun, sans-serif" font-size="12" text-anchor="middle" fill="#1f2328">DeepSeek · OpenAI 兼容</text>
<path d="M1020 636 L1240 636 M1020 696 L1240 696 M1020 636 L1020 696" fill="none" stroke="#8a94a6" stroke-width="1.2" stroke-dasharray="6 4"/><rect x="1010" y="636" width="230" height="60" fill="none" stroke="none"/><text x="1131.0" y="670.5" font-family="WenQuanYi Zen Hei, Microsoft YaHei, SimSun, sans-serif" font-size="12" text-anchor="middle" fill="#1f2328">HF 私有 Dataset · cron 灾备</text>
<path d="M496.1 218.0 L491.9 276.0" fill="none" stroke="#5b6b7b" stroke-width="1.3"/><polygon points="491.9,276.0 489.6,264.2 495.8,264.7" fill="#5b6b7b"/><rect x="473.5" y="238.0" width="41.0" height="18.0" fill="#ffffff" opacity="0.9" rx="3"/><text x="494.0" y="249.0" font-family="WenQuanYi Zen Hei, Microsoft YaHei, SimSun, sans-serif" font-size="11" text-anchor="middle" fill="#57606a">HTTPS</text>
<path d="M490.0 328.0 L490.0 360.0 L330.0 420.0 L360.3 434.0" fill="none" stroke="#5b6b7b" stroke-width="1.3"/><polygon points="360.3,434.0 348.4,432.0 351.1,426.3" fill="#5b6b7b"/><rect x="355.9" y="381.2" width="107.0" height="18.0" fill="#ffffff" opacity="0.9" rx="3"/><text x="409.4" y="392.2" font-family="WenQuanYi Zen Hei, Microsoft YaHei, SimSun, sans-serif" font-size="11" text-anchor="middle" fill="#57606a">REST JSON · JWT</text>
<path d="M129.3 480.0 L156.7 536.0" fill="none" stroke="#5b6b7b" stroke-width="1.3"/><polygon points="156.7,536.0 148.8,527.0 154.4,524.2" fill="#5b6b7b"/>
<path d="M415.3 480.0 L420.0 500.0 L420.0 536.0" fill="none" stroke="#5b6b7b" stroke-width="1.3"/><polygon points="420.0,536.0 416.9,524.4 423.1,524.4" fill="#5b6b7b"/><rect x="389.6" y="498.7" width="60.8" height="18.0" fill="#ffffff" opacity="0.9" rx="3"/><text x="420.0" y="509.7" font-family="WenQuanYi Zen Hei, Microsoft YaHei, SimSun, sans-serif" font-size="11" text-anchor="middle" fill="#57606a">复用查询</text>
<path d="M754.8 480.0 L760.0 505.0 L680.0 520.0 L680.8 536.0" fill="none" stroke="#5b6b7b" stroke-width="1.3"/><polygon points="680.8,536.0 677.1,524.6 683.3,524.3" fill="#5b6b7b"/><rect x="697.6" y="502.6" width="54.2" height="18.0" fill="#ffffff" opacity="0.9" rx="3"/><text x="724.7" y="513.6" font-family="WenQuanYi Zen Hei, Microsoft YaHei, SimSun, sans-serif" font-size="11" text-anchor="middle" fill="#57606a">AI 编排</text>
<path d="M189.5 582.0 L243.7 640.0" fill="none" stroke="#5b6b7b" stroke-width="1.3"/><polygon points="243.7,640.0 233.5,633.7 238.1,629.4" fill="#5b6b7b"/><rect x="186.2" y="602.0" width="60.8" height="18.0" fill="#ffffff" opacity="0.9" rx="3"/><text x="216.6" y="613.0" font-family="WenQuanYi Zen Hei, Microsoft YaHei, SimSun, sans-serif" font-size="11" text-anchor="middle" fill="#57606a">ORM 查询</text>
<path d="M357.3 480.0 L300.0 505.0 L270.0 630.0 L269.4 640.0" fill="none" stroke="#5b6b7b" stroke-width="1.3"/><polygon points="269.4,640.0 267.0,628.3 273.2,628.6" fill="#5b6b7b"/><rect x="260.7" y="533.0" width="60.8" height="18.0" fill="#ffffff" opacity="0.9" rx="3"/><text x="291.1" y="544.0" font-family="WenQuanYi Zen Hei, Microsoft YaHei, SimSun, sans-serif" font-size="11" text-anchor="middle" fill="#57606a">轻量写入</text>
<path d="M478.0 666.0 L520.0 666.0" fill="none" stroke="#5b6b7b" stroke-width="1.3"/><polygon points="520.0,666.0 508.4,669.1 508.4,662.9" fill="#5b6b7b"/><rect x="481.8" y="657.0" width="34.4" height="18.0" fill="#ffffff" opacity="0.9" rx="3"/><text x="499.0" y="668.0" font-family="WenQuanYi Zen Hei, Microsoft YaHei, SimSun, sans-serif" font-size="11" text-anchor="middle" fill="#57606a">读写</text>
<path d="M802.0 559.0 L920.0 559.0 L1000.0 510.0 L1010.0 510.0" fill="none" stroke="#5b6b7b" stroke-width="1.3"/><polygon points="1010.0,510.0 998.4,513.1 998.4,506.9" fill="#5b6b7b"/><rect x="879.2" y="550.0" width="67.4" height="18.0" fill="#ffffff" opacity="0.9" rx="3"/><text x="912.9" y="561.0" font-family="WenQuanYi Zen Hei, Microsoft YaHei, SimSun, sans-serif" font-size="11" text-anchor="middle" fill="#57606a">润色/摘要</text>
<path d="M800.0 666.0 L1010.0 666.0" fill="none" stroke="#57606a" stroke-width="1.3" stroke-dasharray="6 4"/><polygon points="1010.0,666.0 998.4,669.1 998.4,662.9" fill="#57606a"/><rect x="887.8" y="657.0" width="34.4" height="18.0" fill="#ffffff" opacity="0.9" rx="3"/><text x="905.0" y="668.0" font-family="WenQuanYi Zen Hei, Microsoft YaHei, SimSun, sans-serif" font-size="11" text-anchor="middle" fill="#57606a">快照</text>
</svg>