<svg xmlns="http://www.w3.org/2000/svg" width="1540" height="1400" viewBox="0 0 1540 1400" font-family="WenQuanYi Zen Hei, Microsoft YaHei, SimSun, sans-serif">
<rect x="0" y="0" width="1540" height="1400" fill="#ffffff"/>
<rect x="70" y="55" width="250" height="152" rx="3" fill="#ffffff" stroke="#6c8ebf" stroke-width="1.3"/><path d="M70 95 L70 58 Q70 55 73 55 L317 55 Q320 55 320 58 L320 95 Z" fill="#dae8fc" stroke="#6c8ebf" stroke-width="1.3"/><text x="195.0" y="78.0" font-family="WenQuanYi Zen Hei, Microsoft YaHei, SimSun, sans-serif" font-size="11" text-anchor="middle" font-style="italic" fill="#1f2328">«entity»</text><text x="195.0" y="93.0" font-family="WenQuanYi Zen Hei, Microsoft YaHei, SimSun, sans-serif" font-size="13" text-anchor="middle" font-weight="bold" fill="#1f2328">Draft 草稿</text><text x="78.0" y="110.0" font-family="WenQuanYi Zen Hei, Microsoft YaHei, SimSun, sans-serif" font-size="12" text-anchor="start" fill="#1f2328">+ id: str {PK}</text><text x="78.0" y="130.0" font-family="WenQuanYi Zen Hei, Microsoft YaHei, SimSun, sans-serif" font-size="12" text-anchor="start" fill="#1f2328">+ owner_sid: str {FK}</text><text x="78.0" y="150.0" font-family="WenQuanYi Zen Hei, Microsoft YaHei, SimSun, sans-serif" font-size="12" text-anchor="start" fill="#1f2328">+ title / content / category</text><line x1="70" y1="159.0" x2="320" y2="159.0" stroke="#6c8ebf" stroke-width="1"/><text x="78.0" y="178.0" font-family="WenQuanYi Zen Hei, Microsoft YaHei, SimSun, sans-serif" font-size="12" text-anchor="start" font-style="italic" fill="#1f2328">+ autosave()</text><text x="78.0" y="198.0" font-family="WenQuanYi Zen Hei, Microsoft YaHei, SimSun, sans-serif" font-size="12" text-anchor="start" font-style="italic" fill="#1f2328">+ publish(): Note</text>
<rect x="500" y="55" width="235" height="172" rx="3" fill="#ffffff" stroke="#d6b656" stroke-width="1.3"/><path d="M500 95 L500 58 Q500 55 503 55 L732 55 Q735 55 735 58 L735 95 Z" fill="#fff2cc" stroke="#d6b656" stroke-width="1.3"/><text x="617.5" y="78.0" font-family="WenQuanYi Zen Hei, Microsoft YaHei, SimSun, sans-serif" font-size="11" text-anchor="middle" font-style="italic" fill="#1f2328">«entity»</text><text x="617.5" y="93.0" font-family="WenQuanYi Zen Hei, Microsoft YaHei, SimSun, sans-serif" font-size="13" text-anchor="middle" font-weight="bold" fill="#1f2328">Collection 合集</text><text x="508.0" y="110.0" font-family="WenQuanYi Zen Hei, Microsoft YaHei, SimSun, sans-serif" font-size="12" text-anchor="start" fill="#1f2328">+ id: str {PK}</text><text x="508.0" y="130.0" font-family="WenQuanYi Zen Hei, Microsoft YaHei, SimSun, sans-serif" font-size="12" text-anchor="start" fill="#1f2328">+ owner_sid: str {FK}</text><text x="508.0" y="150.0" font-family="WenQuanYi Zen Hei, Microsoft YaHei, SimSun, sans-serif" font-size="12" text-anchor="start" fill="#1f2328">+ title / description</text><line x1="500" y1="159.0" x2="735" y2="159.0" stroke="#d6b656" stroke-width="1"/><text x="508.0" y="178.0" font-family="WenQuanYi Zen Hei, Microsoft YaHei, SimSun, sans-serif" font-size="12" text-anchor="start" font-style="italic" fill="#1f2328">+ addEntry(note)</text><text x="508.0" y="198.0" font-family="WenQuanYi Zen Hei, Microsoft YaHei, SimSun, sans-serif" font-size="12" text-anchor="start" font-style="italic" fill="#1f2328">+ removeEntry(note)</text><text x="508.0" y="218.0" font-family="WenQuanYi Zen Hei, Microsoft YaHei, SimSun, sans-serif" font-size="12" text-anchor="start" font-style="italic" fill="#1f2328">+ reorder()</text>
<rect x="835" y="55" width="255" height="132" rx="3" fill="#ffffff" stroke="#d6b656" stroke-width="1.3"/><path d="M835 95 L835 58 Q835 55 838 55 L1087 55 Q1090 55 1090 58 L1090 95 Z" fill="#fff2cc" stroke="#d6b656" stroke-width="1.3"/><text x="962.5" y="78.0" font-family="WenQuanYi Zen Hei, Microsoft YaHei, SimSun, sans-serif" font-size="11" text-anchor="middle" font-style="italic" fill="#1f2328">«entity»</text><text x="962.5" y="93.0" font-family="WenQuanYi Zen Hei, Microsoft YaHei, SimSun, sans-serif" font-size="13" text-anchor="middle" font-weight="bold" fill="#1f2328">CollectionEntry 合集条目</text><text x="843.0" y="110.0" font-family="WenQuanYi Zen Hei, Microsoft YaHei, SimSun, sans-serif" font-size="12" text-anchor="start" fill="#1f2328">+ collection_id: str {PK,FK}</text><text x="843.0" y="130.0" font-family="WenQuanYi Zen Hei, Microsoft YaHei, SimSun, sans-serif" font-size="12" text-anchor="start" fill="#1f2328">+ note_id: str {PK,FK,U}</text><text x="843.0" y="150.0" font-family="WenQuanYi Zen Hei, Microsoft YaHei, SimSun, sans-serif" font-size="12" text-anchor="start" fill="#1f2328">+ sort_order: int</text><line x1="835" y1="159.0" x2="1090" y2="159.0" stroke="#d6b656" stroke-width="1"/><text x="843.0" y="178.0" font-family="WenQuanYi Zen Hei, Microsoft YaHei, SimSun, sans-serif" font-size="12" text-anchor="start" font-style="italic" fill="#1f2328">+ moveTo(order)</text>
<rect x="1205" y="45" width="265" height="212" rx="3" fill="#ffffff" stroke="#8a94a6" stroke-width="1.3"/><path d="M1205 85 L1205 48 Q1205 45 1208 45 L1467 45 Q1470 45 1470 48 L1470 85 Z" fill="#f2f4f7" stroke="#8a94a6" stroke-width="1.3"/><text x="1337.5" y="68.0" font-family="WenQuanYi Zen Hei, Microsoft YaHei, SimSun, sans-serif" font-size="11" text-anchor="middle" font-style="italic" fill="#1f2328">«规划·entity»</text><text x="1337.5" y="83.0" font-family="WenQuanYi Zen Hei, Microsoft YaHei, SimSun, sans-serif" font-size="13" text-anchor="middle" font-weight="bold" fill="#1f2328">Report 举报工单</text><text x="1213.0" y="100.0" font-family="WenQuanYi Zen Hei, Microsoft YaHei, SimSun, sans-serif" font-size="12" text-anchor="start" fill="#1f2328">+ id: str {PK}</text><text x="1213.0" y="120.0" font-family="WenQuanYi Zen Hei, Microsoft YaHei, SimSun, sans-serif" font-size="12" text-anchor="start" fill="#1f2328">+ reporter_sid: str {FK}</text><text x="1213.0" y="140.0" font-family="WenQuanYi Zen Hei, Microsoft YaHei, SimSun, sans-serif" font-size="12" text-anchor="start" fill="#1f2328">+ target_type: str</text><text x="1213.0" y="160.0" font-family="WenQuanYi Zen Hei, Microsoft YaHei, SimSun, sans-serif" font-size="12" text-anchor="start" fill="#1f2328">+ reason / status: str</text><text x="1213.0" y="180.0" font-family="WenQuanYi Zen Hei, Microsoft YaHei, SimSun, sans-serif" font-size="12" text-anchor="start" fill="#1f2328">+ ai_label / ai_confidence</text><line x1="1205" y1="189.0" x2="1470" y2="189.0" stroke="#8a94a6" stroke-width="1"/><text x="1213.0" y="208.0" font-family="WenQuanYi Zen Hei, Microsoft YaHei, SimSun, sans-serif" font-size="12" text-anchor="start" font-style="italic" fill="#1f2328">+ submit()</text><text x="1213.0" y="228.0" font-family="WenQuanYi Zen Hei, Microsoft YaHei, SimSun, sans-serif" font-size="12" text-anchor="start" font-style="italic" fill="#1f2328">+ aiClassify()</text><text x="1213.0" y="248.0" font-family="WenQuanYi Zen Hei, Microsoft YaHei, SimSun, sans-serif" font-size="12" text-anchor="start" font-style="italic" fill="#1f2328">+ resolve(action)</text>
<rect x="1205" y="305" width="235" height="132" rx="3" fill="#ffffff" stroke="#8a94a6" stroke-width="1.3"/><path d="M1205 345 L1205 308 Q1205 305 1208 305 L1437 305 Q1440 305 1440 308 L1440 345 Z" fill="#f2f4f7" stroke="#8a94a6" stroke-width="1.3"/><text x="1322.5" y="328.0" font-family="WenQuanYi Zen Hei, Microsoft YaHei, SimSun, sans-serif" font-size="11" text-anchor="middle" font-style="italic" fill="#1f2328">«规划·entity»</text><text x="1322.5" y="343.0" font-family="WenQuanYi Zen Hei, Microsoft YaHei, SimSun, sans-serif" font-size="13" text-anchor="middle" font-weight="bold" fill="#1f2328">Block 拉黑</text><text x="1213.0" y="360.0" font-family="WenQuanYi Zen Hei, Microsoft YaHei, SimSun, sans-serif" font-size="12" text-anchor="start" fill="#1f2328">+ blocker_sid: str {PK,FK}</text><text x="1213.0" y="380.0" font-family="WenQuanYi Zen Hei, Microsoft YaHei, SimSun, sans-serif" font-size="12" text-anchor="start" fill="#1f2328">+ blocked_sid: str {PK,FK}</text><line x1="1205" y1="389.0" x2="1440" y2="389.0" stroke="#8a94a6" stroke-width="1"/><text x="1213.0" y="408.0" font-family="WenQuanYi Zen Hei, Microsoft YaHei, SimSun, sans-serif" font-size="12" text-anchor="start" font-style="italic" fill="#1f2328">+ block()</text><text x="1213.0" y="428.0" font-family="WenQuanYi Zen Hei, Microsoft YaHei, SimSun, sans-serif" font-size="12" text-anchor="start" font-style="italic" fill="#1f2328">+ unblock()</text>
<rect x="70" y="560" width="250" height="172" rx="3" fill="#ffffff" stroke="#6c8ebf" stroke-width="1.3"/><path d="M70 600 L70 563 Q70 560 73 560 L317 560 Q320 560 320 563 L320 600 Z" fill="#c7dbf5" stroke="#6c8ebf" stroke-width="1.3"/><text x="195.0" y="583.0" font-family="WenQuanYi Zen Hei, Microsoft YaHei, SimSun, sans-serif" font-size="11" text-anchor="middle" font-style="italic" fill="#1f2328">«entity»</text><text x="195.0" y="598.0" font-family="WenQuanYi Zen Hei, Microsoft YaHei, SimSun, sans-serif" font-size="13" text-anchor="middle" font-weight="bold" fill="#1f2328">User 用户</text><text x="78.0" y="615.0" font-family="WenQuanYi Zen Hei, Microsoft YaHei, SimSun, sans-serif" font-size="12" text-anchor="start" fill="#1f2328">+ sid: str {PK}</text><text x="78.0" y="635.0" font-family="WenQuanYi Zen Hei, Microsoft YaHei, SimSun, sans-serif" font-size="12" text-anchor="start" fill="#1f2328">+ nickname / preferred_name</text><text x="78.0" y="655.0" font-family="WenQuanYi Zen Hei, Microsoft YaHei, SimSun, sans-serif" font-size="12" text-anchor="start" fill="#1f2328">+ role / exp / level</text><line x1="70" y1="664.0" x2="320" y2="664.0" stroke="#6c8ebf" stroke-width="1"/><text x="78.0" y="683.0" font-family="WenQuanYi Zen Hei, Microsoft YaHei, SimSun, sans-serif" font-size="12" text-anchor="start" font-style="italic" fill="#1f2328">+ checkIn()</text><text x="78.0" y="703.0" font-family="WenQuanYi Zen Hei, Microsoft YaHei, SimSun, sans-serif" font-size="12" text-anchor="start" font-style="italic" fill="#1f2328">+ gainExp(delta)</text><text x="78.0" y="723.0" font-family="WenQuanYi Zen Hei, Microsoft YaHei, SimSun, sans-serif" font-size="12" text-anchor="start" font-style="italic" fill="#1f2328">+ promote(role)</text>
<rect x="500" y="540" width="255" height="212" rx="3" fill="#ffffff" stroke="#6c8ebf" stroke-width="1.3"/><path d="M500 580 L500 543 Q500 540 503 540 L752 540 Q755 540 755 543 L755 580 Z" fill="#c7dbf5" stroke="#6c8ebf" stroke-width="1.3"/><text x="627.5" y="563.0" font-family="WenQuanYi Zen Hei, Microsoft YaHei, SimSun, sans-serif" font-size="11" text-anchor="middle" font-style="italic" fill="#1f2328">«entity»</text><text x="627.5" y="578.0" font-family="WenQuanYi Zen Hei, Microsoft YaHei, SimSun, sans-serif" font-size="13" text-anchor="middle" font-weight="bold" fill="#1f2328">Note 笔记</text><text x="508.0" y="595.0" font-family="WenQuanYi Zen Hei, Microsoft YaHei, SimSun, sans-serif" font-size="12" text-anchor="start" fill="#1f2328">+ id: str {PK}</text><text x="508.0" y="615.0" font-family="WenQuanYi Zen Hei, Microsoft YaHei, SimSun, sans-serif" font-size="12" text-anchor="start" fill="#1f2328">+ author_sid: str {FK}</text><text x="508.0" y="635.0" font-family="WenQuanYi Zen Hei, Microsoft YaHei, SimSun, sans-serif" font-size="12" text-anchor="start" fill="#1f2328">+ title / summary / content</text><text x="508.0" y="655.0" font-family="WenQuanYi Zen Hei, Microsoft YaHei, SimSun, sans-serif" font-size="12" text-anchor="start" fill="#1f2328">+ category / tags</text><text x="508.0" y="675.0" font-family="WenQuanYi Zen Hei, Microsoft YaHei, SimSun, sans-serif" font-size="12" text-anchor="start" fill="#1f2328">+ status: str</text><line x1="500" y1="684.0" x2="755" y2="684.0" stroke="#6c8ebf" stroke-width="1"/><text x="508.0" y="703.0" font-family="WenQuanYi Zen Hei, Microsoft YaHei, SimSun, sans-serif" font-size="12" text-anchor="start" font-style="italic" fill="#1f2328">+ publishFrom(draft)</text><text x="508.0" y="723.0" font-family="WenQuanYi Zen Hei, Microsoft YaHei, SimSun, sans-serif" font-size="12" text-anchor="start" font-style="italic" fill="#1f2328">+ edit()</text><text x="508.0" y="743.0" font-family="WenQuanYi Zen Hei, Microsoft YaHei, SimSun, sans-serif" font-size="12" text-anchor="start" font-style="italic" fill="#1f2328">+ softDelete()</text>
<rect x="885" y="510" width="270" height="232" rx="3" fill="#ffffff" stroke="#6c8ebf" stroke-width="1.3"/><path d="M885 550 L885 513 Q885 510 888 510 L1152 510 Q1155 510 1155 513 L1155 550 Z" fill="#dae8fc" stroke="#6c8ebf" stroke-width="1.3"/><text x="1020.0" y="533.0" font-family="WenQuanYi Zen Hei, Microsoft YaHei, SimSun, sans-serif" font-size="11" text-anchor="middle" font-style="italic" fill="#1f2328">«entity»</text><text x="1020.0" y="548.0" font-family="WenQuanYi Zen Hei, Microsoft YaHei, SimSun, sans-serif" font-size="13" text-anchor="middle" font-weight="bold" fill="#1f2328">Comment 评论</text><text x="893.0" y="565.0" font-family="WenQuanYi Zen Hei, Microsoft YaHei, SimSun, sans-serif" font-size="12" text-anchor="start" fill="#1f2328">+ id: str {PK}</text><text x="893.0" y="585.0" font-family="WenQuanYi Zen Hei, Microsoft YaHei, SimSun, sans-serif" font-size="12" text-anchor="start" fill="#1f2328">+ note_id: str {FK}</text><text x="893.0" y="605.0" font-family="WenQuanYi Zen Hei, Microsoft YaHei, SimSun, sans-serif" font-size="12" text-anchor="start" fill="#1f2328">+ parent_id: str {FK}</text><text x="893.0" y="625.0" font-family="WenQuanYi Zen Hei, Microsoft YaHei, SimSun, sans-serif" font-size="12" text-anchor="start" fill="#1f2328">+ reply_to_sid: str {FK}</text><text x="893.0" y="645.0" font-family="WenQuanYi Zen Hei, Microsoft YaHei, SimSun, sans-serif" font-size="12" text-anchor="start" fill="#1f2328">+ content / images</text><text x="893.0" y="665.0" font-family="WenQuanYi Zen Hei, Microsoft YaHei, SimSun, sans-serif" font-size="12" text-anchor="start" fill="#1f2328">+ anchor_text: str</text><line x1="885" y1="674.0" x2="1155" y2="674.0" stroke="#6c8ebf" stroke-width="1"/><text x="893.0" y="693.0" font-family="WenQuanYi Zen Hei, Microsoft YaHei, SimSun, sans-serif" font-size="12" text-anchor="start" font-style="italic" fill="#1f2328">+ reply(parent)</text><text x="893.0" y="713.0" font-family="WenQuanYi Zen Hei, Microsoft YaHei, SimSun, sans-serif" font-size="12" text-anchor="start" font-style="italic" fill="#1f2328">+ react(kind)</text><text x="893.0" y="733.0" font-family="WenQuanYi Zen Hei, Microsoft YaHei, SimSun, sans-serif" font-size="12" text-anchor="start" font-style="italic" fill="#1f2328">+ delete()</text>
<rect x="1210" y="560" width="235" height="112" rx="3" fill="#ffffff" stroke="#9673a6" stroke-width="1.3"/><path d="M1210 600 L1210 563 Q1210 560 1213 560 L1442 560 Q1445 560 1445 563 L1445 600 Z" fill="#e1d5e7" stroke="#9673a6" stroke-width="1.3"/><text x="1327.5" y="583.0" font-family="WenQuanYi Zen Hei, Microsoft YaHei, SimSun, sans-serif" font-size="11" text-anchor="middle" font-style="italic" fill="#1f2328">«entity»</text><text x="1327.5" y="598.0" font-family="WenQuanYi Zen Hei, Microsoft YaHei, SimSun, sans-serif" font-size="13" text-anchor="middle" font-weight="bold" fill="#1f2328">CheckIn 签到</text><text x="1218.0" y="615.0" font-family="WenQuanYi Zen Hei, Microsoft YaHei, SimSun, sans-serif" font-size="12" text-anchor="start" fill="#1f2328">+ user_sid: str {PK,FK}</text><text x="1218.0" y="635.0" font-family="WenQuanYi Zen Hei, Microsoft YaHei, SimSun, sans-serif" font-size="12" text-anchor="start" fill="#1f2328">+ checkin_date: date {PK}</text><line x1="1210" y1="644.0" x2="1445" y2="644.0" stroke="#9673a6" stroke-width="1"/><text x="1218.0" y="663.0" font-family="WenQuanYi Zen Hei, Microsoft YaHei, SimSun, sans-serif" font-size="12" text-anchor="start" font-style="italic" fill="#1f2328">+ create()</text>
<rect x="1210" y="765" width="255" height="132" rx="3" fill="#ffffff" stroke="#9673a6" stroke-width="1.3"/><path d="M1210 805 L1210 768 Q1210 765 1213 765 L1462 765 Q1465 765 1465 768 L1465 805 Z" fill="#e1d5e7" stroke="#9673a6" stroke-width="1.3"/><text x="1337.5" y="788.0" font-family="WenQuanYi Zen Hei, Microsoft YaHei, SimSun, sans-serif" font-size="11" text-anchor="middle" font-style="italic" fill="#1f2328">«entity»</text><text x="1337.5" y="803.0" font-family="WenQuanYi Zen Hei, Microsoft YaHei, SimSun, sans-serif" font-size="13" text-anchor="middle" font-weight="bold" fill="#1f2328">XpEvent 经验流水</text><text x="1218.0" y="820.0" font-family="WenQuanYi Zen Hei, Microsoft YaHei, SimSun, sans-serif" font-size="12" text-anchor="start" fill="#1f2328">+ id: int {PK}</text><text x="1218.0" y="840.0" font-family="WenQuanYi Zen Hei, Microsoft YaHei, SimSun, sans-serif" font-size="12" text-anchor="start" fill="#1f2328">+ user_sid: str {FK}</text><text x="1218.0" y="860.0" font-family="WenQuanYi Zen Hei, Microsoft YaHei, SimSun, sans-serif" font-size="12" text-anchor="start" fill="#1f2328">+ source_type / delta</text><line x1="1210" y1="869.0" x2="1465" y2="869.0" stroke="#9673a6" stroke-width="1"/><text x="1218.0" y="888.0" font-family="WenQuanYi Zen Hei, Microsoft YaHei, SimSun, sans-serif" font-size="12" text-anchor="start" font-style="italic" fill="#1f2328">+ record()</text>
<rect x="1210" y="1010" width="235" height="132" rx="3" fill="#ffffff" stroke="#8a94a6" stroke-width="1.3"/><path d="M1210 1050 L1210 1013 Q1210 1010 1213 1010 L1442 1010 Q1445 1010 1445 1013 L1445 1050 Z" fill="#f2f4f7" stroke="#8a94a6" stroke-width="1.3"/><text x="1327.5" y="1033.0" font-family="WenQuanYi Zen Hei, Microsoft YaHei, SimSun, sans-serif" font-size="11" text-anchor="middle" font-style="italic" fill="#1f2328">«entity»</text><text x="1327.5" y="1048.0" font-family="WenQuanYi Zen Hei, Microsoft YaHei, SimSun, sans-serif" font-size="13" text-anchor="middle" font-weight="bold" fill="#1f2328">LoginEvent 登录事件</text><text x="1218.0" y="1065.0" font-family="WenQuanYi Zen Hei, Microsoft YaHei, SimSun, sans-serif" font-size="12" text-anchor="start" fill="#1f2328">+ id: int {PK}</text><text x="1218.0" y="1085.0" font-family="WenQuanYi Zen Hei, Microsoft YaHei, SimSun, sans-serif" font-size="12" text-anchor="start" fill="#1f2328">+ user_sid: str {FK}</text><text x="1218.0" y="1105.0" font-family="WenQuanYi Zen Hei, Microsoft YaHei, SimSun, sans-serif" font-size="12" text-anchor="start" fill="#1f2328">+ ip / user_agent</text><line x1="1210" y1="1114.0" x2="1445" y2="1114.0" stroke="#8a94a6" stroke-width="1"/><text x="1218.0" y="1133.0" font-family="WenQuanYi Zen Hei, Microsoft YaHei, SimSun, sans-serif" font-size="12" text-anchor="start" font-style="italic" fill="#1f2328">+ record()</text>
<rect x="70" y="995" width="220" height="112" rx="3" fill="#ffffff" stroke="#82b366" stroke-width="1.3"/><path d="M70 1035 L70 998 Q70 995 73 995 L287 995 Q290 995 290 998 L290 1035 Z" fill="#d5e8d4" stroke="#82b366" stroke-width="1.3"/><text x="180.0" y="1018.0" font-family="WenQuanYi Zen Hei, Microsoft YaHei, SimSun, sans-serif" font-size="11" text-anchor="middle" font-style="italic" fill="#1f2328">«entity»</text><text x="180.0" y="1033.0" font-family="WenQuanYi Zen Hei, Microsoft YaHei, SimSun, sans-serif" font-size="13" text-anchor="middle" font-weight="bold" fill="#1f2328">Like 点赞</text><text x="78.0" y="1050.0" font-family="WenQuanYi Zen Hei, Microsoft YaHei, SimSun, sans-serif" font-size="12" text-anchor="start" fill="#1f2328">+ note_id: str {PK,FK}</text><text x="78.0" y="1070.0" font-family="WenQuanYi Zen Hei, Microsoft YaHei, SimSun, sans-serif" font-size="12" text-anchor="start" fill="#1f2328">+ user_sid: str {PK,FK}</text><line x1="70" y1="1079.0" x2="290" y2="1079.0" stroke="#82b366" stroke-width="1"/><text x="78.0" y="1098.0" font-family="WenQuanYi Zen Hei, Microsoft YaHei, SimSun, sans-serif" font-size="12" text-anchor="start" font-style="italic" fill="#1f2328">+ toggle()</text>
<rect x="330" y="995" width="235" height="112" rx="3" fill="#ffffff" stroke="#82b366" stroke-width="1.3"/><path d="M330 1035 L330 998 Q330 995 333 995 L562 995 Q565 995 565 998 L565 1035 Z" fill="#d5e8d4" stroke="#82b366" stroke-width="1.3"/><text x="447.5" y="1018.0" font-family="WenQuanYi Zen Hei, Microsoft YaHei, SimSun, sans-serif" font-size="11" text-anchor="middle" font-style="italic" fill="#1f2328">«entity»</text><text x="447.5" y="1033.0" font-family="WenQuanYi Zen Hei, Microsoft YaHei, SimSun, sans-serif" font-size="13" text-anchor="middle" font-weight="bold" fill="#1f2328">NoteDislike 点踩</text><text x="338.0" y="1050.0" font-family="WenQuanYi Zen Hei, Microsoft YaHei, SimSun, sans-serif" font-size="12" text-anchor="start" fill="#1f2328">+ note_id: str {PK,FK}</text><text x="338.0" y="1070.0" font-family="WenQuanYi Zen Hei, Microsoft YaHei, SimSun, sans-serif" font-size="12" text-anchor="start" fill="#1f2328">+ user_sid: str {PK,FK}</text><line x1="330" y1="1079.0" x2="565" y2="1079.0" stroke="#82b366" stroke-width="1"/><text x="338.0" y="1098.0" font-family="WenQuanYi Zen Hei, Microsoft YaHei, SimSun, sans-serif" font-size="12" text-anchor="start" font-style="italic" fill="#1f2328">+ toggle()</text>
<rect x="610" y="995" width="220" height="112" rx="3" fill="#ffffff" stroke="#82b366" stroke-width="1.3"/><path d="M610 1035 L610 998 Q610 995 613 995 L827 995 Q830 995 830 998 L830 1035 Z" fill="#d5e8d4" stroke="#82b366" stroke-width="1.3"/><text x="720.0" y="1018.0" font-family="WenQuanYi Zen Hei, Microsoft YaHei, SimSun, sans-serif" font-size="11" text-anchor="middle" font-style="italic" fill="#1f2328">«entity»</text><text x="720.0" y="1033.0" font-family="WenQuanYi Zen Hei, Microsoft YaHei, SimSun, sans-serif" font-size="13" text-anchor="middle" font-weight="bold" fill="#1f2328">Favorite 收藏</text><text x="618.0" y="1050.0" font-family="WenQuanYi Zen Hei, Microsoft YaHei, SimSun, sans-serif" font-size="12" text-anchor="start" fill="#1f2328">+ note_id: str {PK,FK}</text><text x="618.0" y="1070.0" font-family="WenQuanYi Zen Hei, Microsoft YaHei, SimSun, sans-serif" font-size="12" text-anchor="start" fill="#1f2328">+ user_sid: str {PK,FK}</text><line x1="610" y1="1079.0" x2="830" y2="1079.0" stroke="#82b366" stroke-width="1"/><text x="618.0" y="1098.0" font-family="WenQuanYi Zen Hei, Microsoft YaHei, SimSun, sans-serif" font-size="12" text-anchor="start" font-style="italic" fill="#1f2328">+ toggle()</text>
<rect x="885" y="995" width="265" height="132" rx="3" fill="#ffffff" stroke="#82b366" stroke-width="1.3"/><path d="M885 1035 L885 998 Q885 995 888 995 L1147 995 Q1150 995 1150 998 L1150 1035 Z" fill="#d5e8d4" stroke="#82b366" stroke-width="1.3"/><text x="1017.5" y="1018.0" font-family="WenQuanYi Zen Hei, Microsoft YaHei, SimSun, sans-serif" font-size="11" text-anchor="middle" font-style="italic" fill="#1f2328">«entity»</text><text x="1017.5" y="1033.0" font-family="WenQuanYi Zen Hei, Microsoft YaHei, SimSun, sans-serif" font-size="13" text-anchor="middle" font-weight="bold" fill="#1f2328">CommentReaction 评论表态</text><text x="893.0" y="1050.0" font-family="WenQuanYi Zen Hei, Microsoft YaHei, SimSun, sans-serif" font-size="12" text-anchor="start" fill="#1f2328">+ comment_id: str {PK,FK}</text><text x="893.0" y="1070.0" font-family="WenQuanYi Zen Hei, Microsoft YaHei, SimSun, sans-serif" font-size="12" text-anchor="start" fill="#1f2328">+ user_sid: str {PK,FK}</text><text x="893.0" y="1090.0" font-family="WenQuanYi Zen Hei, Microsoft YaHei, SimSun, sans-serif" font-size="12" text-anchor="start" fill="#1f2328">+ kind: str</text><line x1="885" y1="1099.0" x2="1150" y2="1099.0" stroke="#82b366" stroke-width="1"/><text x="893.0" y="1118.0" font-family="WenQuanYi Zen Hei, Microsoft YaHei, SimSun, sans-serif" font-size="12" text-anchor="start" font-style="italic" fill="#1f2328">+ toggle(kind)</text>
<path d="M195.0 560.0 L195.0 207.0" fill="none" stroke="#5b6b7b" stroke-width="1.3"/><rect x="177.8" y="374.5" width="34.4" height="18.0" fill="#ffffff" opacity="0.9" rx="3"/><text x="195.0" y="385.5" font-family="WenQuanYi Zen Hei, Microsoft YaHei, SimSun, sans-serif" font-size="11" text-anchor="middle" fill="#57606a">拥有</text><text x="201.0" y="544.0" font-family="WenQuanYi Zen Hei, Microsoft YaHei, SimSun, sans-serif" font-size="11" text-anchor="middle" fill="#57606a">1</text><text x="195.0" y="221.0" font-family="WenQuanYi Zen Hei, Microsoft YaHei, SimSun, sans-serif" font-size="11" text-anchor="middle" fill="#57606a">0..*</text>
<path d="M320.0 646.0 L500.0 646.0" fill="none" stroke="#5b6b7b" stroke-width="1.3"/><rect x="392.8" y="637.0" width="34.4" height="18.0" fill="#ffffff" opacity="0.9" rx="3"/><text x="410.0" y="648.0" font-family="WenQuanYi Zen Hei, Microsoft YaHei, SimSun, sans-serif" font-size="11" text-anchor="middle" fill="#57606a">发布</text><text x="342.0" y="646.0" font-family="WenQuanYi Zen Hei, Microsoft YaHei, SimSun, sans-serif" font-size="11" text-anchor="middle" fill="#57606a">1</text><text x="482.0" y="642.0" font-family="WenQuanYi Zen Hei, Microsoft YaHei, SimSun, sans-serif" font-size="11" text-anchor="middle" fill="#57606a">0..*</text>
<path d="M755.0 639.5 L885.0 632.9" fill="none" stroke="#5b6b7b" stroke-width="1.3"/><rect x="802.8" y="627.2" width="34.4" height="18.0" fill="#ffffff" opacity="0.9" rx="3"/><text x="820.0" y="638.2" font-family="WenQuanYi Zen Hei, Microsoft YaHei, SimSun, sans-serif" font-size="11" text-anchor="middle" fill="#57606a">包含</text><text x="777.0" y="638.7" font-family="WenQuanYi Zen Hei, Microsoft YaHei, SimSun, sans-serif" font-size="11" text-anchor="middle" fill="#57606a">1</text><text x="867.0" y="629.8" font-family="WenQuanYi Zen Hei, Microsoft YaHei, SimSun, sans-serif" font-size="11" text-anchor="middle" fill="#57606a">0..*</text>
<path d="M267.0 560.0 L545.5 227.0" fill="none" stroke="#5b6b7b" stroke-width="1.3"/><rect x="389.1" y="384.5" width="34.4" height="18.0" fill="#ffffff" opacity="0.9" rx="3"/><text x="406.2" y="395.5" font-family="WenQuanYi Zen Hei, Microsoft YaHei, SimSun, sans-serif" font-size="11" text-anchor="middle" fill="#57606a">创建</text><text x="283.2" y="547.7" font-family="WenQuanYi Zen Hei, Microsoft YaHei, SimSun, sans-serif" font-size="11" text-anchor="middle" fill="#57606a">1</text><text x="534.0" y="236.8" font-family="WenQuanYi Zen Hei, Microsoft YaHei, SimSun, sans-serif" font-size="11" text-anchor="middle" fill="#57606a">0..*</text>
<path d="M191.8 732.0 L182.1 995.0" fill="none" stroke="#5b6b7b" stroke-width="1.3"/><text x="182.7" y="973.0" font-family="WenQuanYi Zen Hei, Microsoft YaHei, SimSun, sans-serif" font-size="11" text-anchor="middle" fill="#57606a">0..*</text>
<path d="M241.9 995.0 L510.4 752.0" fill="none" stroke="#5b6b7b" stroke-width="1.3"/><rect x="358.9" y="864.5" width="34.4" height="18.0" fill="#ffffff" opacity="0.9" rx="3"/><text x="376.1" y="875.5" font-family="WenQuanYi Zen Hei, Microsoft YaHei, SimSun, sans-serif" font-size="11" text-anchor="middle" fill="#57606a">点赞</text><text x="259.7" y="984.3" font-family="WenQuanYi Zen Hei, Microsoft YaHei, SimSun, sans-serif" font-size="11" text-anchor="middle" fill="#57606a">0..*</text><text x="497.0" y="760.1" font-family="WenQuanYi Zen Hei, Microsoft YaHei, SimSun, sans-serif" font-size="11" text-anchor="middle" fill="#57606a">1</text>
<path d="M248.6 732.0 L412.6 995.0" fill="none" stroke="#5b6b7b" stroke-width="1.3"/><text x="403.1" y="975.7" font-family="WenQuanYi Zen Hei, Microsoft YaHei, SimSun, sans-serif" font-size="11" text-anchor="middle" fill="#57606a">0..*</text>
<path d="M472.4 995.0 L580.4 752.0" fill="none" stroke="#5b6b7b" stroke-width="1.3"/><rect x="509.2" y="864.5" width="34.4" height="18.0" fill="#ffffff" opacity="0.9" rx="3"/><text x="526.4" y="875.5" font-family="WenQuanYi Zen Hei, Microsoft YaHei, SimSun, sans-serif" font-size="11" text-anchor="middle" fill="#57606a">点踩</text><text x="484.9" y="980.4" font-family="WenQuanYi Zen Hei, Microsoft YaHei, SimSun, sans-serif" font-size="11" text-anchor="middle" fill="#57606a">0..*</text><text x="573.1" y="764.4" font-family="WenQuanYi Zen Hei, Microsoft YaHei, SimSun, sans-serif" font-size="11" text-anchor="middle" fill="#57606a">1</text>
<path d="M306.5 732.0 L647.4 995.0" fill="none" stroke="#5b6b7b" stroke-width="1.3"/><text x="633.2" y="980.0" font-family="WenQuanYi Zen Hei, Microsoft YaHei, SimSun, sans-serif" font-size="11" text-anchor="middle" fill="#57606a">0..*</text>
<path d="M707.2 995.0 L651.7 752.0" fill="none" stroke="#5b6b7b" stroke-width="1.3"/><rect x="662.3" y="864.5" width="34.4" height="18.0" fill="#ffffff" opacity="0.9" rx="3"/><text x="679.5" y="875.5" font-family="WenQuanYi Zen Hei, Microsoft YaHei, SimSun, sans-serif" font-size="11" text-anchor="middle" fill="#57606a">收藏</text><text x="709.6" y="979.4" font-family="WenQuanYi Zen Hei, Microsoft YaHei, SimSun, sans-serif" font-size="11" text-anchor="middle" fill="#57606a">0..*</text><text x="655.7" y="765.5" font-family="WenQuanYi Zen Hei, Microsoft YaHei, SimSun, sans-serif" font-size="11" text-anchor="middle" fill="#57606a">1</text>
<path d="M735.0 134.2 L835.0 128.4" fill="none" stroke="#5b6b7b" stroke-width="1.3"/><rect x="767.8" y="122.3" width="34.4" height="18.0" fill="#ffffff" opacity="0.9" rx="3"/><text x="785.0" y="133.3" font-family="WenQuanYi Zen Hei, Microsoft YaHei, SimSun, sans-serif" font-size="11" text-anchor="middle" fill="#57606a">包含</text><text x="757.0" y="133.3" font-family="WenQuanYi Zen Hei, Microsoft YaHei, SimSun, sans-serif" font-size="11" text-anchor="middle" fill="#57606a">1</text><text x="817.0" y="125.4" font-family="WenQuanYi Zen Hei, Microsoft YaHei, SimSun, sans-serif" font-size="11" text-anchor="middle" fill="#57606a">0..*</text>
<path d="M920.4 187.0 L695.1 540.0" fill="none" stroke="#5b6b7b" stroke-width="1.3"/><rect x="790.6" y="354.5" width="34.4" height="18.0" fill="#ffffff" opacity="0.9" rx="3"/><text x="807.8" y="365.5" font-family="WenQuanYi Zen Hei, Microsoft YaHei, SimSun, sans-serif" font-size="11" text-anchor="middle" fill="#57606a">收录</text><text x="917.8" y="200.5" font-family="WenQuanYi Zen Hei, Microsoft YaHei, SimSun, sans-serif" font-size="11" text-anchor="middle" fill="#57606a">0..1</text><text x="704.8" y="520.8" font-family="WenQuanYi Zen Hei, Microsoft YaHei, SimSun, sans-serif" font-size="11" text-anchor="middle" fill="#57606a">1</text>
<path d="M1017.9 995.0 L1019.3 742.0" fill="none" stroke="#5b6b7b" stroke-width="1.3"/><rect x="1001.4" y="859.5" width="34.4" height="18.0" fill="#ffffff" opacity="0.9" rx="3"/><text x="1018.6" y="870.5" font-family="WenQuanYi Zen Hei, Microsoft YaHei, SimSun, sans-serif" font-size="11" text-anchor="middle" fill="#57606a">表态</text><text x="1024.0" y="979.0" font-family="WenQuanYi Zen Hei, Microsoft YaHei, SimSun, sans-serif" font-size="11" text-anchor="middle" fill="#57606a">0..*</text><text x="1019.2" y="756.0" font-family="WenQuanYi Zen Hei, Microsoft YaHei, SimSun, sans-serif" font-size="11" text-anchor="middle" fill="#57606a">1</text>
<path d="M200.3 560.0 L205.0 484.0 L1010.0 484.0 L1011.8 510.0" fill="none" stroke="#5b6b7b" stroke-width="1.3"/><rect x="565.3" y="475.0" width="34.4" height="18.0" fill="#ffffff" opacity="0.9" rx="3"/><text x="582.5" y="486.0" font-family="WenQuanYi Zen Hei, Microsoft YaHei, SimSun, sans-serif" font-size="11" text-anchor="middle" fill="#57606a">发表</text><text x="207.3" y="544.0" font-family="WenQuanYi Zen Hei, Microsoft YaHei, SimSun, sans-serif" font-size="11" text-anchor="middle" fill="#57606a">1</text><text x="1010.6" y="488.0" font-family="WenQuanYi Zen Hei, Microsoft YaHei, SimSun, sans-serif" font-size="11" text-anchor="middle" fill="#57606a">0..*</text>
<path d="M995.0 510.0 L995.0 466.0 L1125.0 466.0 L1125.0 510.0" fill="none" stroke="#5b6b7b" stroke-width="1.3"/><rect x="999.9" y="457.0" width="120.2" height="18.0" fill="#ffffff" opacity="0.9" rx="3"/><text x="1060.0" y="468.0" font-family="WenQuanYi Zen Hei, Microsoft YaHei, SimSun, sans-serif" font-size="11" text-anchor="middle" fill="#57606a">父 / 回复(楼中楼)</text><text x="1001.0" y="494.0" font-family="WenQuanYi Zen Hei, Microsoft YaHei, SimSun, sans-serif" font-size="11" text-anchor="middle" fill="#57606a">0..1</text><text x="1125.0" y="488.0" font-family="WenQuanYi Zen Hei, Microsoft YaHei, SimSun, sans-serif" font-size="11" text-anchor="middle" fill="#57606a">0..*</text>
<path d="M230.6 732.0 L300.0 900.0 L1000.0 900.0 L1010.3 995.0" fill="none" stroke="#5b6b7b" stroke-width="1.3"/><rect x="576.5" y="891.0" width="60.8" height="18.0" fill="#ffffff" opacity="0.9" rx="3"/><text x="606.9" y="902.0" font-family="WenQuanYi Zen Hei, Microsoft YaHei, SimSun, sans-serif" font-size="11" text-anchor="middle" fill="#57606a">评论表态</text><text x="1008.4" y="973.1" font-family="WenQuanYi Zen Hei, Microsoft YaHei, SimSun, sans-serif" font-size="11" text-anchor="middle" fill="#57606a">0..*</text>
<path d="M263.3 732.0 L322.0 806.0 L1178.0 806.0 L1178.0 606.0 L1210.0 608.1" fill="none" stroke="#5b6b7b" stroke-width="1.3"/><rect x="801.6" y="797.0" width="34.4" height="18.0" fill="#ffffff" opacity="0.9" rx="3"/><text x="818.8" y="808.0" font-family="WenQuanYi Zen Hei, Microsoft YaHei, SimSun, sans-serif" font-size="11" text-anchor="middle" fill="#57606a">签到</text><text x="1192.0" y="602.9" font-family="WenQuanYi Zen Hei, Microsoft YaHei, SimSun, sans-serif" font-size="11" text-anchor="middle" fill="#57606a">0..*</text>
<path d="M256.4 732.0 L322.0 824.0 L1186.0 824.0 L1210.0 825.1" fill="none" stroke="#5b6b7b" stroke-width="1.3"/><rect x="692.3" y="815.0" width="34.4" height="18.0" fill="#ffffff" opacity="0.9" rx="3"/><text x="709.5" y="826.0" font-family="WenQuanYi Zen Hei, Microsoft YaHei, SimSun, sans-serif" font-size="11" text-anchor="middle" fill="#57606a">经验</text><text x="1192.0" y="820.3" font-family="WenQuanYi Zen Hei, Microsoft YaHei, SimSun, sans-serif" font-size="11" text-anchor="middle" fill="#57606a">0..*</text>
<path d="M250.7 732.0 L322.0 842.0 L1194.0 842.0 L1194.0 1052.0 L1210.0 1054.9" fill="none" stroke="#5b6b7b" stroke-width="1.3"/><rect x="788.4" y="833.0" width="34.4" height="18.0" fill="#ffffff" opacity="0.9" rx="3"/><text x="805.6" y="844.0" font-family="WenQuanYi Zen Hei, Microsoft YaHei, SimSun, sans-serif" font-size="11" text-anchor="middle" fill="#57606a">登录</text><text x="1192.3" y="1047.7" font-family="WenQuanYi Zen Hei, Microsoft YaHei, SimSun, sans-serif" font-size="11" text-anchor="middle" fill="#57606a">0..*</text>
<path d="M222.4 560.0 L255.0 458.0 L1350.0 458.0 L1341.8 257.0" fill="none" stroke="#8a94a6" stroke-width="1.3" stroke-dasharray="6 4"/><rect x="812.5" y="449.0" width="74.0" height="18.0" fill="#ffffff" opacity="0.9" rx="3"/><text x="849.5" y="460.0" font-family="WenQuanYi Zen Hei, Microsoft YaHei, SimSun, sans-serif" font-size="11" text-anchor="middle" fill="#57606a">举报(规划)</text><text x="233.3" y="544.8" font-family="WenQuanYi Zen Hei, Microsoft YaHei, SimSun, sans-serif" font-size="11" text-anchor="middle" fill="#57606a">1</text><text x="1342.5" y="271.0" font-family="WenQuanYi Zen Hei, Microsoft YaHei, SimSun, sans-serif" font-size="11" text-anchor="middle" fill="#57606a">0..*</text>
<path d="M211.7 560.0 L235.0 440.0 L1170.0 440.0 L1170.0 372.0 L1205.0 371.8" fill="none" stroke="#8a94a6" stroke-width="1.3" stroke-dasharray="6 4"/><rect x="655.9" y="431.0" width="74.0" height="18.0" fill="#ffffff" opacity="0.9" rx="3"/><text x="692.9" y="442.0" font-family="WenQuanYi Zen Hei, Microsoft YaHei, SimSun, sans-serif" font-size="11" text-anchor="middle" fill="#57606a">拉黑(规划)</text><text x="220.7" y="544.3" font-family="WenQuanYi Zen Hei, Microsoft YaHei, SimSun, sans-serif" font-size="11" text-anchor="middle" fill="#57606a">1</text><text x="1187.0" y="367.9" font-family="WenQuanYi Zen Hei, Microsoft YaHei, SimSun, sans-serif" font-size="11" text-anchor="middle" fill="#57606a">0..*</text>
</svg>