<svg xmlns="http://www.w3.org/2000/svg" width="1500" height="1280" viewBox="0 0 1500 1280" font-family="WenQuanYi Zen Hei, Microsoft YaHei, SimSun, sans-serif">
<rect x="0" y="0" width="1500" height="1280" fill="#ffffff"/>
<rect x="70" y="60" width="250" height="152" rx="3" fill="#ffffff" stroke="#6c8ebf" stroke-width="1.3"/><path d="M70 86 L70 63 Q70 60 73 60 L317 60 Q320 60 320 63 L320 86 Z" fill="#dae8fc" stroke="#6c8ebf" stroke-width="1.3"/><text x="195.0" y="83.0" font-family="WenQuanYi Zen Hei, Microsoft YaHei, SimSun, sans-serif" font-size="13" text-anchor="middle" font-weight="bold" fill="#1f2328">Draft 草稿</text><text x="78.0" y="101.0" font-family="WenQuanYi Zen Hei, Microsoft YaHei, SimSun, sans-serif" font-size="12" text-anchor="start" fill="#1f2328">+ id: str {PK}</text><text x="78.0" y="121.0" font-family="WenQuanYi Zen Hei, Microsoft YaHei, SimSun, sans-serif" font-size="12" text-anchor="start" fill="#1f2328">+ owner_sid: str {FK}</text><text x="78.0" y="141.0" font-family="WenQuanYi Zen Hei, Microsoft YaHei, SimSun, sans-serif" font-size="12" text-anchor="start" fill="#1f2328">+ title / summary: str</text><text x="78.0" y="161.0" font-family="WenQuanYi Zen Hei, Microsoft YaHei, SimSun, sans-serif" font-size="12" text-anchor="start" fill="#1f2328">+ content: text</text><text x="78.0" y="181.0" font-family="WenQuanYi Zen Hei, Microsoft YaHei, SimSun, sans-serif" font-size="12" text-anchor="start" fill="#1f2328">+ category / tags</text><text x="78.0" y="201.0" font-family="WenQuanYi Zen Hei, Microsoft YaHei, SimSun, sans-serif" font-size="12" text-anchor="start" fill="#1f2328">+ updated_at: datetime</text>
<rect x="500" y="60" width="230" height="132" rx="3" fill="#ffffff" stroke="#d6b656" stroke-width="1.3"/><path d="M500 86 L500 63 Q500 60 503 60 L727 60 Q730 60 730 63 L730 86 Z" fill="#fff2cc" stroke="#d6b656" stroke-width="1.3"/><text x="615.0" y="83.0" font-family="WenQuanYi Zen Hei, Microsoft YaHei, SimSun, sans-serif" font-size="13" text-anchor="middle" font-weight="bold" fill="#1f2328">Collection 合集</text><text x="508.0" y="101.0" font-family="WenQuanYi Zen Hei, Microsoft YaHei, SimSun, sans-serif" font-size="12" text-anchor="start" fill="#1f2328">+ id: str {PK}</text><text x="508.0" y="121.0" font-family="WenQuanYi Zen Hei, Microsoft YaHei, SimSun, sans-serif" font-size="12" text-anchor="start" fill="#1f2328">+ owner_sid: str {FK}</text><text x="508.0" y="141.0" font-family="WenQuanYi Zen Hei, Microsoft YaHei, SimSun, sans-serif" font-size="12" text-anchor="start" fill="#1f2328">+ title: str</text><text x="508.0" y="161.0" font-family="WenQuanYi Zen Hei, Microsoft YaHei, SimSun, sans-serif" font-size="12" text-anchor="start" fill="#1f2328">+ description: text</text><text x="508.0" y="181.0" font-family="WenQuanYi Zen Hei, Microsoft YaHei, SimSun, sans-serif" font-size="12" text-anchor="start" fill="#1f2328">+ created_at / updated_at</text>
<rect x="830" y="60" width="250" height="112" rx="3" fill="#ffffff" stroke="#d6b656" stroke-width="1.3"/><path d="M830 86 L830 63 Q830 60 833 60 L1077 60 Q1080 60 1080 63 L1080 86 Z" fill="#fff2cc" stroke="#d6b656" stroke-width="1.3"/><text x="955.0" y="83.0" font-family="WenQuanYi Zen Hei, Microsoft YaHei, SimSun, sans-serif" font-size="13" text-anchor="middle" font-weight="bold" fill="#1f2328">CollectionEntry 合集条目</text><text x="838.0" y="101.0" font-family="WenQuanYi Zen Hei, Microsoft YaHei, SimSun, sans-serif" font-size="12" text-anchor="start" fill="#1f2328">+ collection_id: str {PK,FK}</text><text x="838.0" y="121.0" font-family="WenQuanYi Zen Hei, Microsoft YaHei, SimSun, sans-serif" font-size="12" text-anchor="start" fill="#1f2328">+ note_id: str {PK,FK,U}</text><text x="838.0" y="141.0" font-family="WenQuanYi Zen Hei, Microsoft YaHei, SimSun, sans-serif" font-size="12" text-anchor="start" fill="#1f2328">+ sort_order: int</text><text x="838.0" y="161.0" font-family="WenQuanYi Zen Hei, Microsoft YaHei, SimSun, sans-serif" font-size="12" text-anchor="start" fill="#1f2328">+ created_at</text>
<rect x="1190" y="60" width="270" height="146" rx="3" fill="#ffffff" stroke="#8a94a6" stroke-width="1.3"/><path d="M1190 100 L1190 63 Q1190 60 1193 60 L1457 60 Q1460 60 1460 63 L1460 100 Z" fill="#f2f4f7" stroke="#8a94a6" stroke-width="1.3"/><text x="1325.0" y="83.0" font-family="WenQuanYi Zen Hei, Microsoft YaHei, SimSun, sans-serif" font-size="13" text-anchor="middle" font-weight="bold" fill="#1f2328">«规划·预留»</text><text x="1325.0" y="97.0" font-family="WenQuanYi Zen Hei, Microsoft YaHei, SimSun, sans-serif" font-size="13" text-anchor="middle" font-weight="bold" fill="#1f2328">Report 举报工单</text><text x="1198.0" y="115.0" font-family="WenQuanYi Zen Hei, Microsoft YaHei, SimSun, sans-serif" font-size="12" text-anchor="start" fill="#1f2328">+ id: str {PK}</text><text x="1198.0" y="135.0" font-family="WenQuanYi Zen Hei, Microsoft YaHei, SimSun, sans-serif" font-size="12" text-anchor="start" fill="#1f2328">+ reporter_sid: str {FK}</text><text x="1198.0" y="155.0" font-family="WenQuanYi Zen Hei, Microsoft YaHei, SimSun, sans-serif" font-size="12" text-anchor="start" fill="#1f2328">+ target_type: str</text><text x="1198.0" y="175.0" font-family="WenQuanYi Zen Hei, Microsoft YaHei, SimSun, sans-serif" font-size="12" text-anchor="start" fill="#1f2328">+ reason / status: str</text><text x="1198.0" y="195.0" font-family="WenQuanYi Zen Hei, Microsoft YaHei, SimSun, sans-serif" font-size="12" text-anchor="start" fill="#1f2328">+ ai_label / ai_confidence</text>
<rect x="1190" y="320" width="230" height="106" rx="3" fill="#ffffff" stroke="#8a94a6" stroke-width="1.3"/><path d="M1190 360 L1190 323 Q1190 320 1193 320 L1417 320 Q1420 320 1420 323 L1420 360 Z" fill="#f2f4f7" stroke="#8a94a6" stroke-width="1.3"/><text x="1305.0" y="343.0" font-family="WenQuanYi Zen Hei, Microsoft YaHei, SimSun, sans-serif" font-size="13" text-anchor="middle" font-weight="bold" fill="#1f2328">«规划·预留»</text><text x="1305.0" y="357.0" font-family="WenQuanYi Zen Hei, Microsoft YaHei, SimSun, sans-serif" font-size="13" text-anchor="middle" font-weight="bold" fill="#1f2328">Block 拉黑</text><text x="1198.0" y="375.0" font-family="WenQuanYi Zen Hei, Microsoft YaHei, SimSun, sans-serif" font-size="12" text-anchor="start" fill="#1f2328">+ blocker_sid: str {PK,FK}</text><text x="1198.0" y="395.0" font-family="WenQuanYi Zen Hei, Microsoft YaHei, SimSun, sans-serif" font-size="12" text-anchor="start" fill="#1f2328">+ blocked_sid: str {PK,FK}</text><text x="1198.0" y="415.0" font-family="WenQuanYi Zen Hei, Microsoft YaHei, SimSun, sans-serif" font-size="12" text-anchor="start" fill="#1f2328">+ created_at</text>
<rect x="70" y="500" width="250" height="152" rx="3" fill="#ffffff" stroke="#6c8ebf" stroke-width="1.3"/><path d="M70 526 L70 503 Q70 500 73 500 L317 500 Q320 500 320 503 L320 526 Z" fill="#c7dbf5" stroke="#6c8ebf" stroke-width="1.3"/><text x="195.0" y="523.0" font-family="WenQuanYi Zen Hei, Microsoft YaHei, SimSun, sans-serif" font-size="13" text-anchor="middle" font-weight="bold" fill="#1f2328">User 用户</text><text x="78.0" y="541.0" font-family="WenQuanYi Zen Hei, Microsoft YaHei, SimSun, sans-serif" font-size="12" text-anchor="start" fill="#1f2328">+ sid: str {PK}</text><text x="78.0" y="561.0" font-family="WenQuanYi Zen Hei, Microsoft YaHei, SimSun, sans-serif" font-size="12" text-anchor="start" fill="#1f2328">+ name / nickname: str</text><text x="78.0" y="581.0" font-family="WenQuanYi Zen Hei, Microsoft YaHei, SimSun, sans-serif" font-size="12" text-anchor="start" fill="#1f2328">+ preferred_name: str</text><text x="78.0" y="601.0" font-family="WenQuanYi Zen Hei, Microsoft YaHei, SimSun, sans-serif" font-size="12" text-anchor="start" fill="#1f2328">+ role: str  {user/admin}</text><text x="78.0" y="621.0" font-family="WenQuanYi Zen Hei, Microsoft YaHei, SimSun, sans-serif" font-size="12" text-anchor="start" fill="#1f2328">+ exp / level: int</text><text x="78.0" y="641.0" font-family="WenQuanYi Zen Hei, Microsoft YaHei, SimSun, sans-serif" font-size="12" text-anchor="start" fill="#1f2328">+ created_at: datetime</text>
<rect x="500" y="490" width="250" height="192" rx="3" fill="#ffffff" stroke="#6c8ebf" stroke-width="1.3"/><path d="M500 516 L500 493 Q500 490 503 490 L747 490 Q750 490 750 493 L750 516 Z" fill="#c7dbf5" stroke="#6c8ebf" stroke-width="1.3"/><text x="625.0" y="513.0" font-family="WenQuanYi Zen Hei, Microsoft YaHei, SimSun, sans-serif" font-size="13" text-anchor="middle" font-weight="bold" fill="#1f2328">Note 笔记</text><text x="508.0" y="531.0" font-family="WenQuanYi Zen Hei, Microsoft YaHei, SimSun, sans-serif" font-size="12" text-anchor="start" fill="#1f2328">+ id: str {PK}</text><text x="508.0" y="551.0" font-family="WenQuanYi Zen Hei, Microsoft YaHei, SimSun, sans-serif" font-size="12" text-anchor="start" fill="#1f2328">+ author_sid: str {FK}</text><text x="508.0" y="571.0" font-family="WenQuanYi Zen Hei, Microsoft YaHei, SimSun, sans-serif" font-size="12" text-anchor="start" fill="#1f2328">+ title / summary: str</text><text x="508.0" y="591.0" font-family="WenQuanYi Zen Hei, Microsoft YaHei, SimSun, sans-serif" font-size="12" text-anchor="start" fill="#1f2328">+ content: text</text><text x="508.0" y="611.0" font-family="WenQuanYi Zen Hei, Microsoft YaHei, SimSun, sans-serif" font-size="12" text-anchor="start" fill="#1f2328">+ category: str</text><text x="508.0" y="631.0" font-family="WenQuanYi Zen Hei, Microsoft YaHei, SimSun, sans-serif" font-size="12" text-anchor="start" fill="#1f2328">+ tags: list[str]</text><text x="508.0" y="651.0" font-family="WenQuanYi Zen Hei, Microsoft YaHei, SimSun, sans-serif" font-size="12" text-anchor="start" fill="#1f2328">+ status: str</text><text x="508.0" y="671.0" font-family="WenQuanYi Zen Hei, Microsoft YaHei, SimSun, sans-serif" font-size="12" text-anchor="start" fill="#1f2328">+ created_at: datetime</text>
<rect x="880" y="460" width="270" height="212" rx="3" fill="#ffffff" stroke="#6c8ebf" stroke-width="1.3"/><path d="M880 486 L880 463 Q880 460 883 460 L1147 460 Q1150 460 1150 463 L1150 486 Z" fill="#dae8fc" stroke="#6c8ebf" stroke-width="1.3"/><text x="1015.0" y="483.0" font-family="WenQuanYi Zen Hei, Microsoft YaHei, SimSun, sans-serif" font-size="13" text-anchor="middle" font-weight="bold" fill="#1f2328">Comment 评论</text><text x="888.0" y="501.0" font-family="WenQuanYi Zen Hei, Microsoft YaHei, SimSun, sans-serif" font-size="12" text-anchor="start" fill="#1f2328">+ id: str {PK}</text><text x="888.0" y="521.0" font-family="WenQuanYi Zen Hei, Microsoft YaHei, SimSun, sans-serif" font-size="12" text-anchor="start" fill="#1f2328">+ note_id: str {FK}</text><text x="888.0" y="541.0" font-family="WenQuanYi Zen Hei, Microsoft YaHei, SimSun, sans-serif" font-size="12" text-anchor="start" fill="#1f2328">+ author_sid: str {FK}</text><text x="888.0" y="561.0" font-family="WenQuanYi Zen Hei, Microsoft YaHei, SimSun, sans-serif" font-size="12" text-anchor="start" fill="#1f2328">+ parent_id: str {FK}</text><text x="888.0" y="581.0" font-family="WenQuanYi Zen Hei, Microsoft YaHei, SimSun, sans-serif" font-size="12" text-anchor="start" fill="#1f2328">+ reply_to_sid: str {FK}</text><text x="888.0" y="601.0" font-family="WenQuanYi Zen Hei, Microsoft YaHei, SimSun, sans-serif" font-size="12" text-anchor="start" fill="#1f2328">+ content: text</text><text x="888.0" y="621.0" font-family="WenQuanYi Zen Hei, Microsoft YaHei, SimSun, sans-serif" font-size="12" text-anchor="start" fill="#1f2328">+ images: list[str]</text><text x="888.0" y="641.0" font-family="WenQuanYi Zen Hei, Microsoft YaHei, SimSun, sans-serif" font-size="12" text-anchor="start" fill="#1f2328">+ anchor_text: str</text><text x="888.0" y="661.0" font-family="WenQuanYi Zen Hei, Microsoft YaHei, SimSun, sans-serif" font-size="12" text-anchor="start" fill="#1f2328">+ status: str</text>
<rect x="1210" y="500" width="230" height="92" rx="3" fill="#ffffff" stroke="#9673a6" stroke-width="1.3"/><path d="M1210 526 L1210 503 Q1210 500 1213 500 L1437 500 Q1440 500 1440 503 L1440 526 Z" fill="#e1d5e7" stroke="#9673a6" stroke-width="1.3"/><text x="1325.0" y="523.0" font-family="WenQuanYi Zen Hei, Microsoft YaHei, SimSun, sans-serif" font-size="13" text-anchor="middle" font-weight="bold" fill="#1f2328">CheckIn 签到</text><text x="1218.0" y="541.0" font-family="WenQuanYi Zen Hei, Microsoft YaHei, SimSun, sans-serif" font-size="12" text-anchor="start" fill="#1f2328">+ user_sid: str {PK,FK}</text><text x="1218.0" y="561.0" font-family="WenQuanYi Zen Hei, Microsoft YaHei, SimSun, sans-serif" font-size="12" text-anchor="start" fill="#1f2328">+ checkin_date: date {PK}</text><text x="1218.0" y="581.0" font-family="WenQuanYi Zen Hei, Microsoft YaHei, SimSun, sans-serif" font-size="12" text-anchor="start" fill="#1f2328">+ created_at</text>
<rect x="1210" y="700" width="250" height="152" rx="3" fill="#ffffff" stroke="#9673a6" stroke-width="1.3"/><path d="M1210 726 L1210 703 Q1210 700 1213 700 L1457 700 Q1460 700 1460 703 L1460 726 Z" fill="#e1d5e7" stroke="#9673a6" stroke-width="1.3"/><text x="1335.0" y="723.0" font-family="WenQuanYi Zen Hei, Microsoft YaHei, SimSun, sans-serif" font-size="13" text-anchor="middle" font-weight="bold" fill="#1f2328">XpEvent 经验流水</text><text x="1218.0" y="741.0" font-family="WenQuanYi Zen Hei, Microsoft YaHei, SimSun, sans-serif" font-size="12" text-anchor="start" fill="#1f2328">+ id: int {PK}</text><text x="1218.0" y="761.0" font-family="WenQuanYi Zen Hei, Microsoft YaHei, SimSun, sans-serif" font-size="12" text-anchor="start" fill="#1f2328">+ user_sid: str {FK}</text><text x="1218.0" y="781.0" font-family="WenQuanYi Zen Hei, Microsoft YaHei, SimSun, sans-serif" font-size="12" text-anchor="start" fill="#1f2328">+ source_type: str</text><text x="1218.0" y="801.0" font-family="WenQuanYi Zen Hei, Microsoft YaHei, SimSun, sans-serif" font-size="12" text-anchor="start" fill="#1f2328">+ delta: int</text><text x="1218.0" y="821.0" font-family="WenQuanYi Zen Hei, Microsoft YaHei, SimSun, sans-serif" font-size="12" text-anchor="start" fill="#1f2328">+ ref_type / ref_id</text><text x="1218.0" y="841.0" font-family="WenQuanYi Zen Hei, Microsoft YaHei, SimSun, sans-serif" font-size="12" text-anchor="start" fill="#1f2328">+ created_at</text>
<rect x="1210" y="950" width="230" height="112" rx="3" fill="#ffffff" stroke="#8a94a6" stroke-width="1.3"/><path d="M1210 976 L1210 953 Q1210 950 1213 950 L1437 950 Q1440 950 1440 953 L1440 976 Z" fill="#f2f4f7" stroke="#8a94a6" stroke-width="1.3"/><text x="1325.0" y="973.0" font-family="WenQuanYi Zen Hei, Microsoft YaHei, SimSun, sans-serif" font-size="13" text-anchor="middle" font-weight="bold" fill="#1f2328">LoginEvent 登录事件</text><text x="1218.0" y="991.0" font-family="WenQuanYi Zen Hei, Microsoft YaHei, SimSun, sans-serif" font-size="12" text-anchor="start" fill="#1f2328">+ id: int {PK}</text><text x="1218.0" y="1011.0" font-family="WenQuanYi Zen Hei, Microsoft YaHei, SimSun, sans-serif" font-size="12" text-anchor="start" fill="#1f2328">+ user_sid: str {FK}</text><text x="1218.0" y="1031.0" font-family="WenQuanYi Zen Hei, Microsoft YaHei, SimSun, sans-serif" font-size="12" text-anchor="start" fill="#1f2328">+ ip / user_agent</text><text x="1218.0" y="1051.0" font-family="WenQuanYi Zen Hei, Microsoft YaHei, SimSun, sans-serif" font-size="12" text-anchor="start" fill="#1f2328">+ created_at</text>
<rect x="70" y="910" width="220" height="92" rx="3" fill="#ffffff" stroke="#82b366" stroke-width="1.3"/><path d="M70 936 L70 913 Q70 910 73 910 L287 910 Q290 910 290 913 L290 936 Z" fill="#d5e8d4" stroke="#82b366" stroke-width="1.3"/><text x="180.0" y="933.0" font-family="WenQuanYi Zen Hei, Microsoft YaHei, SimSun, sans-serif" font-size="13" text-anchor="middle" font-weight="bold" fill="#1f2328">Like 点赞</text><text x="78.0" y="951.0" font-family="WenQuanYi Zen Hei, Microsoft YaHei, SimSun, sans-serif" font-size="12" text-anchor="start" fill="#1f2328">+ note_id: str {PK,FK}</text><text x="78.0" y="971.0" font-family="WenQuanYi Zen Hei, Microsoft YaHei, SimSun, sans-serif" font-size="12" text-anchor="start" fill="#1f2328">+ user_sid: str {PK,FK}</text><text x="78.0" y="991.0" font-family="WenQuanYi Zen Hei, Microsoft YaHei, SimSun, sans-serif" font-size="12" text-anchor="start" fill="#1f2328">+ created_at</text>
<rect x="330" y="910" width="230" height="92" rx="3" fill="#ffffff" stroke="#82b366" stroke-width="1.3"/><path d="M330 936 L330 913 Q330 910 333 910 L557 910 Q560 910 560 913 L560 936 Z" fill="#d5e8d4" stroke="#82b366" stroke-width="1.3"/><text x="445.0" y="933.0" font-family="WenQuanYi Zen Hei, Microsoft YaHei, SimSun, sans-serif" font-size="13" text-anchor="middle" font-weight="bold" fill="#1f2328">NoteDislike 点踩</text><text x="338.0" y="951.0" font-family="WenQuanYi Zen Hei, Microsoft YaHei, SimSun, sans-serif" font-size="12" text-anchor="start" fill="#1f2328">+ note_id: str {PK,FK}</text><text x="338.0" y="971.0" font-family="WenQuanYi Zen Hei, Microsoft YaHei, SimSun, sans-serif" font-size="12" text-anchor="start" fill="#1f2328">+ user_sid: str {PK,FK}</text><text x="338.0" y="991.0" font-family="WenQuanYi Zen Hei, Microsoft YaHei, SimSun, sans-serif" font-size="12" text-anchor="start" fill="#1f2328">+ created_at</text>
<rect x="600" y="910" width="220" height="92" rx="3" fill="#ffffff" stroke="#82b366" stroke-width="1.3"/><path d="M600 936 L600 913 Q600 910 603 910 L817 910 Q820 910 820 913 L820 936 Z" fill="#d5e8d4" stroke="#82b366" stroke-width="1.3"/><text x="710.0" y="933.0" font-family="WenQuanYi Zen Hei, Microsoft YaHei, SimSun, sans-serif" font-size="13" text-anchor="middle" font-weight="bold" fill="#1f2328">Favorite 收藏</text><text x="608.0" y="951.0" font-family="WenQuanYi Zen Hei, Microsoft YaHei, SimSun, sans-serif" font-size="12" text-anchor="start" fill="#1f2328">+ note_id: str {PK,FK}</text><text x="608.0" y="971.0" font-family="WenQuanYi Zen Hei, Microsoft YaHei, SimSun, sans-serif" font-size="12" text-anchor="start" fill="#1f2328">+ user_sid: str {PK,FK}</text><text x="608.0" y="991.0" font-family="WenQuanYi Zen Hei, Microsoft YaHei, SimSun, sans-serif" font-size="12" text-anchor="start" fill="#1f2328">+ created_at</text>
<rect x="880" y="910" width="260" height="112" rx="3" fill="#ffffff" stroke="#82b366" stroke-width="1.3"/><path d="M880 936 L880 913 Q880 910 883 910 L1137 910 Q1140 910 1140 913 L1140 936 Z" fill="#d5e8d4" stroke="#82b366" stroke-width="1.3"/><text x="1010.0" y="933.0" font-family="WenQuanYi Zen Hei, Microsoft YaHei, SimSun, sans-serif" font-size="13" text-anchor="middle" font-weight="bold" fill="#1f2328">CommentReaction 评论表态</text><text x="888.0" y="951.0" font-family="WenQuanYi Zen Hei, Microsoft YaHei, SimSun, sans-serif" font-size="12" text-anchor="start" fill="#1f2328">+ comment_id: str {PK,FK}</text><text x="888.0" y="971.0" font-family="WenQuanYi Zen Hei, Microsoft YaHei, SimSun, sans-serif" font-size="12" text-anchor="start" fill="#1f2328">+ user_sid: str {PK,FK}</text><text x="888.0" y="991.0" font-family="WenQuanYi Zen Hei, Microsoft YaHei, SimSun, sans-serif" font-size="12" text-anchor="start" fill="#1f2328">+ kind: str  {like/dislike}</text><text x="888.0" y="1011.0" font-family="WenQuanYi Zen Hei, Microsoft YaHei, SimSun, sans-serif" font-size="12" text-anchor="start" fill="#1f2328">+ created_at</text>
<path d="M195.0 500.0 L195.0 212.0" fill="none" stroke="#5b6b7b" stroke-width="1.3"/><rect x="177.8" y="347.0" width="34.4" height="18.0" fill="#ffffff" opacity="0.9" rx="3"/><text x="195.0" y="358.0" font-family="WenQuanYi Zen Hei, Microsoft YaHei, SimSun, sans-serif" font-size="11" text-anchor="middle" fill="#57606a">拥有</text><text x="201.0" y="484.0" font-family="WenQuanYi Zen Hei, Microsoft YaHei, SimSun, sans-serif" font-size="11" text-anchor="middle" fill="#57606a">1</text><text x="195.0" y="226.0" font-family="WenQuanYi Zen Hei, Microsoft YaHei, SimSun, sans-serif" font-size="11" text-anchor="middle" fill="#57606a">0..*</text>
<path d="M320.0 578.9 L500.0 583.1" fill="none" stroke="#5b6b7b" stroke-width="1.3"/><rect x="392.8" y="572.0" width="34.4" height="18.0" fill="#ffffff" opacity="0.9" rx="3"/><text x="410.0" y="583.0" font-family="WenQuanYi Zen Hei, Microsoft YaHei, SimSun, sans-serif" font-size="11" text-anchor="middle" fill="#57606a">发布</text><text x="342.0" y="579.3" font-family="WenQuanYi Zen Hei, Microsoft YaHei, SimSun, sans-serif" font-size="11" text-anchor="middle" fill="#57606a">1</text><text x="482.0" y="578.7" font-family="WenQuanYi Zen Hei, Microsoft YaHei, SimSun, sans-serif" font-size="11" text-anchor="middle" fill="#57606a">0..*</text>
<path d="M750.0 579.6 L880.0 572.9" fill="none" stroke="#5b6b7b" stroke-width="1.3"/><rect x="797.8" y="567.3" width="34.4" height="18.0" fill="#ffffff" opacity="0.9" rx="3"/><text x="815.0" y="578.3" font-family="WenQuanYi Zen Hei, Microsoft YaHei, SimSun, sans-serif" font-size="11" text-anchor="middle" fill="#57606a">包含</text><text x="772.0" y="578.8" font-family="WenQuanYi Zen Hei, Microsoft YaHei, SimSun, sans-serif" font-size="11" text-anchor="middle" fill="#57606a">1</text><text x="862.0" y="569.8" font-family="WenQuanYi Zen Hei, Microsoft YaHei, SimSun, sans-serif" font-size="11" text-anchor="middle" fill="#57606a">0..*</text>
<path d="M265.9 500.0 L553.4 192.0" fill="none" stroke="#5b6b7b" stroke-width="1.3"/><rect x="392.5" y="337.0" width="34.4" height="18.0" fill="#ffffff" opacity="0.9" rx="3"/><text x="409.7" y="348.0" font-family="WenQuanYi Zen Hei, Microsoft YaHei, SimSun, sans-serif" font-size="11" text-anchor="middle" fill="#57606a">创建</text><text x="282.9" y="488.3" font-family="WenQuanYi Zen Hei, Microsoft YaHei, SimSun, sans-serif" font-size="11" text-anchor="middle" fill="#57606a">1</text><text x="541.1" y="201.2" font-family="WenQuanYi Zen Hei, Microsoft YaHei, SimSun, sans-serif" font-size="11" text-anchor="middle" fill="#57606a">0..*</text>
<path d="M192.0 652.0 L181.8 910.0" fill="none" stroke="#5b6b7b" stroke-width="1.3"/><text x="182.5" y="888.0" font-family="WenQuanYi Zen Hei, Microsoft YaHei, SimSun, sans-serif" font-size="11" text-anchor="middle" fill="#57606a">0..*</text>
<path d="M235.3 910.0 L509.5 682.0" fill="none" stroke="#5b6b7b" stroke-width="1.3"/><rect x="355.2" y="787.0" width="34.4" height="18.0" fill="#ffffff" opacity="0.9" rx="3"/><text x="372.4" y="798.0" font-family="WenQuanYi Zen Hei, Microsoft YaHei, SimSun, sans-serif" font-size="11" text-anchor="middle" fill="#57606a">点赞</text><text x="253.6" y="899.8" font-family="WenQuanYi Zen Hei, Microsoft YaHei, SimSun, sans-serif" font-size="11" text-anchor="middle" fill="#57606a">0..*</text><text x="495.7" y="689.5" font-family="WenQuanYi Zen Hei, Microsoft YaHei, SimSun, sans-serif" font-size="11" text-anchor="middle" fill="#57606a">1</text>
<path d="M245.0 652.0 L414.7 910.0" fill="none" stroke="#5b6b7b" stroke-width="1.3"/><text x="404.8" y="891.0" font-family="WenQuanYi Zen Hei, Microsoft YaHei, SimSun, sans-serif" font-size="11" text-anchor="middle" fill="#57606a">0..*</text>
<path d="M467.4 910.0 L578.3 682.0" fill="none" stroke="#5b6b7b" stroke-width="1.3"/><rect x="505.6" y="787.0" width="34.4" height="18.0" fill="#ffffff" opacity="0.9" rx="3"/><text x="522.8" y="798.0" font-family="WenQuanYi Zen Hei, Microsoft YaHei, SimSun, sans-serif" font-size="11" text-anchor="middle" fill="#57606a">点踩</text><text x="480.4" y="895.6" font-family="WenQuanYi Zen Hei, Microsoft YaHei, SimSun, sans-serif" font-size="11" text-anchor="middle" fill="#57606a">0..*</text><text x="570.4" y="694.2" font-family="WenQuanYi Zen Hei, Microsoft YaHei, SimSun, sans-serif" font-size="11" text-anchor="middle" fill="#57606a">1</text>
<path d="M298.0 652.0 L647.7 910.0" fill="none" stroke="#5b6b7b" stroke-width="1.3"/><text x="633.2" y="895.3" font-family="WenQuanYi Zen Hei, Microsoft YaHei, SimSun, sans-serif" font-size="11" text-anchor="middle" fill="#57606a">0..*</text>
<path d="M699.4 910.0 L647.1 682.0" fill="none" stroke="#5b6b7b" stroke-width="1.3"/><rect x="656.0" y="787.0" width="34.4" height="18.0" fill="#ffffff" opacity="0.9" rx="3"/><text x="673.2" y="798.0" font-family="WenQuanYi Zen Hei, Microsoft YaHei, SimSun, sans-serif" font-size="11" text-anchor="middle" fill="#57606a">收藏</text><text x="701.9" y="894.4" font-family="WenQuanYi Zen Hei, Microsoft YaHei, SimSun, sans-serif" font-size="11" text-anchor="middle" fill="#57606a">0..*</text><text x="651.1" y="695.5" font-family="WenQuanYi Zen Hei, Microsoft YaHei, SimSun, sans-serif" font-size="11" text-anchor="middle" fill="#57606a">1</text>
<path d="M730.0 122.6 L830.0 119.7" fill="none" stroke="#5b6b7b" stroke-width="1.3"/><rect x="762.8" y="112.1" width="34.4" height="18.0" fill="#ffffff" opacity="0.9" rx="3"/><text x="780.0" y="123.1" font-family="WenQuanYi Zen Hei, Microsoft YaHei, SimSun, sans-serif" font-size="11" text-anchor="middle" fill="#57606a">包含</text><text x="752.0" y="122.1" font-family="WenQuanYi Zen Hei, Microsoft YaHei, SimSun, sans-serif" font-size="11" text-anchor="middle" fill="#57606a">1</text><text x="812.0" y="116.2" font-family="WenQuanYi Zen Hei, Microsoft YaHei, SimSun, sans-serif" font-size="11" text-anchor="middle" fill="#57606a">0..*</text>
<path d="M915.7 172.0 L692.4 490.0" fill="none" stroke="#5b6b7b" stroke-width="1.3"/><rect x="786.8" y="322.0" width="34.4" height="18.0" fill="#ffffff" opacity="0.9" rx="3"/><text x="804.0" y="333.0" font-family="WenQuanYi Zen Hei, Microsoft YaHei, SimSun, sans-serif" font-size="11" text-anchor="middle" fill="#57606a">收录</text><text x="912.5" y="185.1" font-family="WenQuanYi Zen Hei, Microsoft YaHei, SimSun, sans-serif" font-size="11" text-anchor="middle" fill="#57606a">0..1</text><text x="702.7" y="471.3" font-family="WenQuanYi Zen Hei, Microsoft YaHei, SimSun, sans-serif" font-size="11" text-anchor="middle" fill="#57606a">1</text>
<path d="M1010.7 910.0 L1013.7 672.0" fill="none" stroke="#5b6b7b" stroke-width="1.3"/><rect x="995.0" y="782.0" width="34.4" height="18.0" fill="#ffffff" opacity="0.9" rx="3"/><text x="1012.2" y="793.0" font-family="WenQuanYi Zen Hei, Microsoft YaHei, SimSun, sans-serif" font-size="11" text-anchor="middle" fill="#57606a">表态</text><text x="1016.9" y="894.0" font-family="WenQuanYi Zen Hei, Microsoft YaHei, SimSun, sans-serif" font-size="11" text-anchor="middle" fill="#57606a">0..*</text><text x="1013.5" y="686.0" font-family="WenQuanYi Zen Hei, Microsoft YaHei, SimSun, sans-serif" font-size="11" text-anchor="middle" fill="#57606a">1</text>
<path d="M200.9 500.0 L205.0 448.0 L1010.0 448.0 L1010.5 460.0" fill="none" stroke="#5b6b7b" stroke-width="1.3"/><rect x="570.2" y="439.0" width="34.4" height="18.0" fill="#ffffff" opacity="0.9" rx="3"/><text x="587.4" y="450.0" font-family="WenQuanYi Zen Hei, Microsoft YaHei, SimSun, sans-serif" font-size="11" text-anchor="middle" fill="#57606a">发表</text><text x="208.2" y="484.0" font-family="WenQuanYi Zen Hei, Microsoft YaHei, SimSun, sans-serif" font-size="11" text-anchor="middle" fill="#57606a">1</text><text x="1009.7" y="438.0" font-family="WenQuanYi Zen Hei, Microsoft YaHei, SimSun, sans-serif" font-size="11" text-anchor="middle" fill="#57606a">0..*</text>
<path d="M990.0 460.0 L990.0 424.0 L1120.0 424.0 L1120.0 460.0" fill="none" stroke="#5b6b7b" stroke-width="1.3"/><rect x="994.9" y="415.0" width="120.2" height="18.0" fill="#ffffff" opacity="0.9" rx="3"/><text x="1055.0" y="426.0" font-family="WenQuanYi Zen Hei, Microsoft YaHei, SimSun, sans-serif" font-size="11" text-anchor="middle" fill="#57606a">父 / 回复(楼中楼)</text><text x="996.0" y="444.0" font-family="WenQuanYi Zen Hei, Microsoft YaHei, SimSun, sans-serif" font-size="11" text-anchor="middle" fill="#57606a">0..1</text><text x="1120.0" y="438.0" font-family="WenQuanYi Zen Hei, Microsoft YaHei, SimSun, sans-serif" font-size="11" text-anchor="middle" fill="#57606a">0..*</text>
<path d="M225.5 652.0 L300.0 838.0 L995.0 838.0 L1003.4 910.0" fill="none" stroke="#5b6b7b" stroke-width="1.3"/><rect x="553.2" y="829.0" width="60.8" height="18.0" fill="#ffffff" opacity="0.9" rx="3"/><text x="583.6" y="840.0" font-family="WenQuanYi Zen Hei, Microsoft YaHei, SimSun, sans-serif" font-size="11" text-anchor="middle" fill="#57606a">评论表态</text><text x="1001.3" y="888.1" font-family="WenQuanYi Zen Hei, Microsoft YaHei, SimSun, sans-serif" font-size="11" text-anchor="middle" fill="#57606a">0..*</text>
<path d="M253.1 652.0 L322.0 742.0 L1178.0 742.0 L1178.0 545.0 L1210.0 545.2" fill="none" stroke="#5b6b7b" stroke-width="1.3"/><rect x="790.6" y="733.0" width="34.4" height="18.0" fill="#ffffff" opacity="0.9" rx="3"/><text x="807.8" y="744.0" font-family="WenQuanYi Zen Hei, Microsoft YaHei, SimSun, sans-serif" font-size="11" text-anchor="middle" fill="#57606a">签到</text><text x="1192.0" y="541.1" font-family="WenQuanYi Zen Hei, Microsoft YaHei, SimSun, sans-serif" font-size="11" text-anchor="middle" fill="#57606a">0..*</text>
<path d="M247.5 652.0 L322.0 760.0 L1186.0 760.0 L1210.0 762.6" fill="none" stroke="#5b6b7b" stroke-width="1.3"/><rect x="683.3" y="751.0" width="34.4" height="18.0" fill="#ffffff" opacity="0.9" rx="3"/><text x="700.5" y="762.0" font-family="WenQuanYi Zen Hei, Microsoft YaHei, SimSun, sans-serif" font-size="11" text-anchor="middle" fill="#57606a">经验</text><text x="1192.1" y="756.7" font-family="WenQuanYi Zen Hei, Microsoft YaHei, SimSun, sans-serif" font-size="11" text-anchor="middle" fill="#57606a">0..*</text>
<path d="M242.8 652.0 L322.0 778.0 L1194.0 778.0 L1194.0 988.0 L1210.0 990.2" fill="none" stroke="#5b6b7b" stroke-width="1.3"/><rect x="779.5" y="769.0" width="34.4" height="18.0" fill="#ffffff" opacity="0.9" rx="3"/><text x="796.7" y="780.0" font-family="WenQuanYi Zen Hei, Microsoft YaHei, SimSun, sans-serif" font-size="11" text-anchor="middle" fill="#57606a">登录</text><text x="1192.2" y="983.7" font-family="WenQuanYi Zen Hei, Microsoft YaHei, SimSun, sans-serif" font-size="11" text-anchor="middle" fill="#57606a">0..*</text>
<path d="M226.2 500.0 L255.0 430.0 L1330.0 430.0 L1326.2 206.0" fill="none" stroke="#8a94a6" stroke-width="1.3" stroke-dasharray="6 4"/><rect x="829.7" y="421.0" width="74.0" height="18.0" fill="#ffffff" opacity="0.9" rx="3"/><text x="866.7" y="432.0" font-family="WenQuanYi Zen Hei, Microsoft YaHei, SimSun, sans-serif" font-size="11" text-anchor="middle" fill="#57606a">举报(规划)</text><text x="238.3" y="485.2" font-family="WenQuanYi Zen Hei, Microsoft YaHei, SimSun, sans-serif" font-size="11" text-anchor="middle" fill="#57606a">1</text><text x="1326.5" y="220.0" font-family="WenQuanYi Zen Hei, Microsoft YaHei, SimSun, sans-serif" font-size="11" text-anchor="middle" fill="#57606a">0..*</text>
<path d="M213.5 500.0 L235.0 412.0 L1165.0 412.0 L1165.0 360.0 L1190.0 362.3" fill="none" stroke="#8a94a6" stroke-width="1.3" stroke-dasharray="6 4"/><rect x="656.3" y="403.0" width="74.0" height="18.0" fill="#ffffff" opacity="0.9" rx="3"/><text x="693.3" y="414.0" font-family="WenQuanYi Zen Hei, Microsoft YaHei, SimSun, sans-serif" font-size="11" text-anchor="middle" fill="#57606a">拉黑(规划)</text><text x="223.3" y="484.5" font-family="WenQuanYi Zen Hei, Microsoft YaHei, SimSun, sans-serif" font-size="11" text-anchor="middle" fill="#57606a">1</text><text x="1172.1" y="356.7" font-family="WenQuanYi Zen Hei, Microsoft YaHei, SimSun, sans-serif" font-size="11" text-anchor="middle" fill="#57606a">0..*</text>
</svg>