<svg xmlns="http://www.w3.org/2000/svg" width="3627" height="2550" viewBox="0 0 3627 2550" font-family="WenQuanYi Zen Hei, Microsoft YaHei, SimSun, sans-serif">
<rect width="3627" height="2550" fill="#ffffff"/>
<rect x="113.0" y="130.0" width="2550.0" height="538.0" rx="12" fill="#ffffff" stroke="#000000" stroke-width="1.2"/>
<text x="163.0" y="203.5" font-family="WenQuanYi Zen Hei, Microsoft YaHei, SimSun, sans-serif" font-size="34" text-anchor="start" font-weight="bold" fill="#000000">客户层 · 浏览器 React 18 SPA（前端 features 纵切）</text>
<rect x="164.0" y="255.0" width="476.0" height="164.0" rx="12" fill="#ffffff" stroke="#000000" stroke-width="1.2"/><text x="402.0" y="353.0" font-family="WenQuanYi Zen Hei, Microsoft YaHei, SimSun, sans-serif" font-size="34" text-anchor="middle" fill="#1f2328">WritePage /write</text>
<rect x="680.0" y="255.0" width="476.0" height="164.0" rx="12" fill="#ffffff" stroke="#000000" stroke-width="1.2"/><text x="918.0" y="353.0" font-family="WenQuanYi Zen Hei, Microsoft YaHei, SimSun, sans-serif" font-size="34" text-anchor="middle" fill="#1f2328">BrowsePage /browse</text>
<rect x="1196.0" y="255.0" width="476.0" height="164.0" rx="12" fill="#ffffff" stroke="#000000" stroke-width="1.2"/><text x="1434.0" y="335.0" font-family="WenQuanYi Zen Hei, Microsoft YaHei, SimSun, sans-serif" font-size="34" text-anchor="middle" fill="#1f2328">NoteDetailPage /note/:i</text><text x="1434.0" y="371.0" font-family="WenQuanYi Zen Hei, Microsoft YaHei, SimSun, sans-serif" font-size="34" text-anchor="middle" fill="#1f2328">d</text>
<rect x="1711.0" y="255.0" width="476.0" height="164.0" rx="12" fill="#ffffff" stroke="#000000" stroke-width="1.2"/><text x="1949.0" y="353.0" font-family="WenQuanYi Zen Hei, Microsoft YaHei, SimSun, sans-serif" font-size="34" text-anchor="middle" fill="#1f2328">ProfilePage /me</text>
<rect x="2227.0" y="255.0" width="476.0" height="164.0" rx="12" fill="#ffffff" stroke="#000000" stroke-width="1.2"/><text x="2465.0" y="353.0" font-family="WenQuanYi Zen Hei, Microsoft YaHei, SimSun, sans-serif" font-size="34" text-anchor="middle" fill="#1f2328">AdminPage /admin</text>
<rect x="164.0" y="470.0" width="2493.0" height="147.0" rx="12" fill="#ffffff" stroke="#000000" stroke-width="1.2"/><text x="1410.5" y="559.5" font-family="WenQuanYi Zen Hei, Microsoft YaHei, SimSun, sans-serif" font-size="34" text-anchor="middle" fill="#1f2328">api/client.ts · 统一请求封装（TanStack Query 缓存 · Zod 边界校验 · Bearer JWT）</text>
<rect x="850.0" y="782.0" width="1077.0" height="147.0" rx="12" fill="#ffffff" stroke="#000000" stroke-width="1.2"/><text x="1388.5" y="871.5" font-family="WenQuanYi Zen Hei, Microsoft YaHei, SimSun, sans-serif" font-size="34" text-anchor="middle" fill="#1f2328">nginx 反向代理（静态资源直出 + API 反向代理）</text>
<rect x="113.0" y="1043.0" width="2550.0" height="1332.0" rx="12" fill="#ffffff" stroke="#000000" stroke-width="1.2"/>
<text x="163.0" y="1115.5" font-family="WenQuanYi Zen Hei, Microsoft YaHei, SimSun, sans-serif" font-size="34" text-anchor="start" font-weight="bold" fill="#000000">服务端 · FastAPI 单体后端（分层单向依赖）</text>
<text x="168.0" y="1203.5" font-family="WenQuanYi Zen Hei, Microsoft YaHei, SimSun, sans-serif" font-size="34" text-anchor="start" font-weight="bold" fill="#000000">路由层 routes</text>
<rect x="164.0" y="1230.0" width="340.0" height="130.0" rx="12" fill="#ffffff" stroke="#000000" stroke-width="1.2"/><text x="334.0" y="1311.0" font-family="WenQuanYi Zen Hei, Microsoft YaHei, SimSun, sans-serif" font-size="34" text-anchor="middle" fill="#1f2328">notes</text>
<rect x="544.0" y="1230.0" width="340.0" height="130.0" rx="12" fill="#ffffff" stroke="#000000" stroke-width="1.2"/><text x="714.0" y="1311.0" font-family="WenQuanYi Zen Hei, Microsoft YaHei, SimSun, sans-serif" font-size="34" text-anchor="middle" fill="#1f2328">drafts</text>
<rect x="924.0" y="1230.0" width="476.0" height="130.0" rx="12" fill="#ffffff" stroke="#000000" stroke-width="1.2"/><text x="1162.0" y="1311.0" font-family="WenQuanYi Zen Hei, Microsoft YaHei, SimSun, sans-serif" font-size="34" text-anchor="middle" fill="#1f2328">interactions</text>
<rect x="1439.0" y="1230.0" width="476.0" height="130.0" rx="12" fill="#ffffff" stroke="#000000" stroke-width="1.2"/><text x="1677.0" y="1311.0" font-family="WenQuanYi Zen Hei, Microsoft YaHei, SimSun, sans-serif" font-size="34" text-anchor="middle" fill="#1f2328">collections</text>
<rect x="1955.0" y="1230.0" width="340.0" height="130.0" rx="12" fill="#ffffff" stroke="#000000" stroke-width="1.2"/><text x="2125.0" y="1311.0" font-family="WenQuanYi Zen Hei, Microsoft YaHei, SimSun, sans-serif" font-size="34" text-anchor="middle" fill="#1f2328">ai</text>
<rect x="2335.0" y="1230.0" width="340.0" height="130.0" rx="12" fill="#ffffff" stroke="#000000" stroke-width="1.2"/><text x="2505.0" y="1311.0" font-family="WenQuanYi Zen Hei, Microsoft YaHei, SimSun, sans-serif" font-size="34" text-anchor="middle" fill="#1f2328">auth</text>
<text x="168.0" y="1492.5" font-family="WenQuanYi Zen Hei, Microsoft YaHei, SimSun, sans-serif" font-size="34" text-anchor="start" font-weight="bold" fill="#000000">服务层 services</text>
<rect x="164.0" y="1519.0" width="623.0" height="130.0" rx="12" fill="#ffffff" stroke="#000000" stroke-width="1.2"/><text x="475.5" y="1600.0" font-family="WenQuanYi Zen Hei, Microsoft YaHei, SimSun, sans-serif" font-size="34" text-anchor="middle" fill="#1f2328">notes（列表/详情/编辑）</text>
<rect x="850.0" y="1519.0" width="680.0" height="130.0" rx="12" fill="#ffffff" stroke="#000000" stroke-width="1.2"/><text x="1190.0" y="1600.0" font-family="WenQuanYi Zen Hei, Microsoft YaHei, SimSun, sans-serif" font-size="34" text-anchor="middle" fill="#1f2328">comments（评论 keyset 分页）</text>
<rect x="1592.0" y="1519.0" width="680.0" height="130.0" rx="12" fill="#ffffff" stroke="#000000" stroke-width="1.2"/><text x="1932.0" y="1600.0" font-family="WenQuanYi Zen Hei, Microsoft YaHei, SimSun, sans-serif" font-size="34" text-anchor="middle" fill="#1f2328">ai_compose（润色/摘要降级）</text>
<text x="168.0" y="1786.5" font-family="WenQuanYi Zen Hei, Microsoft YaHei, SimSun, sans-serif" font-size="34" text-anchor="start" font-weight="bold" fill="#000000">数据层 db</text>
<rect x="164.0" y="1813.0" width="1190.0" height="147.0" rx="12" fill="#ffffff" stroke="#000000" stroke-width="1.2"/><text x="759.0" y="1902.5" font-family="WenQuanYi Zen Hei, Microsoft YaHei, SimSun, sans-serif" font-size="34" text-anchor="middle" fill="#1f2328">SQLAlchemy 2.x ORM 模型 + Alembic 迁移</text>
<path d="M1483.0 1802.0 L2266.0 1802.0 M1483.0 1972.0 L2266.0 1972.0 M1483.0 1802.0 L1483.0 1972.0" fill="none" stroke="#000000" stroke-width="1.2"/><text x="1879.5" y="1903.0" font-family="WenQuanYi Zen Hei, Microsoft YaHei, SimSun, sans-serif" font-size="34" text-anchor="middle" fill="#1f2328">SQLite 主库 labnotes.db</text>
<text x="168.0" y="2112.5" font-family="WenQuanYi Zen Hei, Microsoft YaHei, SimSun, sans-serif" font-size="34" text-anchor="start" font-weight="bold" fill="#000000">发布为唯一建笔记路径（POST /notes/drafts/{id}/publish）；治理域 reports/blocks 仅数据模型预留。</text>
<rect x="2862.0" y="1332.0" width="652.0" height="227.0" rx="12" fill="#ffffff" stroke="#000000" stroke-width="1.2"/><text x="3188.0" y="1443.5" font-family="WenQuanYi Zen Hei, Microsoft YaHei, SimSun, sans-serif" font-size="34" text-anchor="middle" fill="#1f2328">外部 AI 服务 DeepSeek · OpenAI </text><text x="3188.0" y="1479.5" font-family="WenQuanYi Zen Hei, Microsoft YaHei, SimSun, sans-serif" font-size="34" text-anchor="middle" fill="#1f2328">兼容</text>
<path d="M2872.0 1802.0 L3514.0 1802.0 M2872.0 1972.0 L3514.0 1972.0 M2872.0 1802.0 L2872.0 1972.0" fill="none" stroke="#000000" stroke-width="1.2" stroke-dasharray="6 4"/><text x="3198.0" y="1903.0" font-family="WenQuanYi Zen Hei, Microsoft YaHei, SimSun, sans-serif" font-size="34" text-anchor="middle" fill="#1f2328">HF 私有 Dataset · cron 灾备</text>
<path d="M1405.3 617.0 L1393.7 782.0" fill="none" stroke="#000000" stroke-width="1.3"/><polygon points="1393.7,782.0 1390.8,770.4 1398.2,770.9" fill="#000000" stroke="#000000" stroke-width="1"/><rect x="1378.5" y="691.0" width="42.1" height="17.0" fill="#ffffff" opacity="0.85" rx="3"/><text x="1399.5" y="703.0" font-family="WenQuanYi Zen Hei, Microsoft YaHei, SimSun, sans-serif" font-size="11" text-anchor="middle" fill="#000000">HTTPS</text>
<path d="M1350.6 929.0 L1195.5 1230.0" fill="none" stroke="#000000" stroke-width="1.3"/><polygon points="1195.5,1230.0 1197.4,1218.2 1204.0,1221.6" fill="#000000" stroke="#000000" stroke-width="1"/><rect x="1235.0" y="1071.0" width="76.2" height="17.0" fill="#ffffff" opacity="0.85" rx="3"/><text x="1273.1" y="1083.0" font-family="WenQuanYi Zen Hei, Microsoft YaHei, SimSun, sans-serif" font-size="11" text-anchor="middle" fill="#000000">REST · JWT</text>
<path d="M365.8 1360.0 L443.7 1519.0" fill="none" stroke="#000000" stroke-width="1.3"/><polygon points="443.7,1519.0 435.3,1510.4 442.0,1507.1" fill="#000000" stroke="#000000" stroke-width="1"/>
<path d="M1176.9 1360.0 L1190.0 1417.0 L1190.0 1519.0" fill="none" stroke="#000000" stroke-width="1.3"/><polygon points="1190.0,1519.0 1186.3,1507.6 1193.7,1507.6" fill="#000000" stroke="#000000" stroke-width="1"/><rect x="1158.7" y="1430.3" width="62.6" height="17.0" fill="#ffffff" opacity="0.85" rx="3"/><text x="1190.0" y="1442.3" font-family="WenQuanYi Zen Hei, Microsoft YaHei, SimSun, sans-serif" font-size="11" text-anchor="middle" fill="#000000">复用查询</text>
<path d="M2138.4 1360.0 L2153.0 1431.0 L1927.0 1473.0 L1929.1 1519.0" fill="none" stroke="#000000" stroke-width="1.3"/><polygon points="1929.1,1519.0 1924.9,1507.8 1932.3,1507.4" fill="#000000" stroke="#000000" stroke-width="1"/><rect x="2025.1" y="1441.1" width="55.7" height="17.0" fill="#ffffff" opacity="0.85" rx="3"/><text x="2053.0" y="1453.1" font-family="WenQuanYi Zen Hei, Microsoft YaHei, SimSun, sans-serif" font-size="11" text-anchor="middle" fill="#000000">AI 编排</text>
<path d="M536.4 1649.0 L690.1 1813.0" fill="none" stroke="#000000" stroke-width="1.3"/><polygon points="690.1,1813.0 679.6,1807.2 685.0,1802.1" fill="#000000" stroke="#000000" stroke-width="1"/><rect x="582.0" y="1722.5" width="62.6" height="17.0" fill="#ffffff" opacity="0.85" rx="3"/><text x="613.3" y="1734.5" font-family="WenQuanYi Zen Hei, Microsoft YaHei, SimSun, sans-serif" font-size="11" text-anchor="middle" fill="#000000">ORM 查询</text>
<path d="M1012.9 1360.0 L850.0 1431.0 L765.0 1785.0 L763.3 1813.0" fill="none" stroke="#000000" stroke-width="1.3"/><polygon points="763.3,1813.0 760.3,1801.4 767.7,1801.8" fill="#000000" stroke="#000000" stroke-width="1"/><rect x="793.7" y="1526.8" width="62.6" height="17.0" fill="#ffffff" opacity="0.85" rx="3"/><text x="825.0" y="1538.8" font-family="WenQuanYi Zen Hei, Microsoft YaHei, SimSun, sans-serif" font-size="11" text-anchor="middle" fill="#000000">轻量写入</text>
<path d="M1354.0 1886.8 L1473.0 1886.8" fill="none" stroke="#000000" stroke-width="1.3"/><polygon points="1473.0,1886.8 1461.6,1890.5 1461.6,1883.1" fill="#000000" stroke="#000000" stroke-width="1"/><rect x="1395.9" y="1878.3" width="35.3" height="17.0" fill="#ffffff" opacity="0.85" rx="3"/><text x="1413.5" y="1890.3" font-family="WenQuanYi Zen Hei, Microsoft YaHei, SimSun, sans-serif" font-size="11" text-anchor="middle" fill="#000000">读写</text>
<path d="M2272.0 1584.0 L2607.0 1584.0 L2833.0 1445.0 L2862.0 1445.0" fill="none" stroke="#000000" stroke-width="1.3"/><polygon points="2862.0,1445.0 2850.6,1448.7 2850.6,1441.3" fill="#000000" stroke="#000000" stroke-width="1"/><rect x="2552.0" y="1575.5" width="69.4" height="17.0" fill="#ffffff" opacity="0.85" rx="3"/><text x="2586.7" y="1587.5" font-family="WenQuanYi Zen Hei, Microsoft YaHei, SimSun, sans-serif" font-size="11" text-anchor="middle" fill="#000000">润色/摘要</text>
<path d="M2266.0 1887.0 L2862.0 1887.0" fill="none" stroke="#000000" stroke-width="1.3" stroke-dasharray="6 4"/><polygon points="2862.0,1887.0 2850.6,1890.7 2850.6,1883.3" fill="#000000" stroke="#000000" stroke-width="1"/><rect x="2546.4" y="1878.5" width="35.3" height="17.0" fill="#ffffff" opacity="0.85" rx="3"/><text x="2564.0" y="1890.5" font-family="WenQuanYi Zen Hei, Microsoft YaHei, SimSun, sans-serif" font-size="11" text-anchor="middle" fill="#000000">快照</text>
</svg>