<svg xmlns="http://www.w3.org/2000/svg" width="4363" height="3967" viewBox="0 0 4363 3967" font-family="WenQuanYi Zen Hei, Microsoft YaHei, SimSun, sans-serif">
<rect width="4363" height="3967" fill="#ffffff"/>
<rect x="198.0" y="156.0" width="708.0" height="431.0" rx="3" fill="#ffffff" stroke="#000000" stroke-width="1.3"/><path d="M198.0 196.0 L198.0 159.0 Q198.0 156.0 201.0 156.0 L903.0 156.0 Q906.0 156.0 906.0 159.0 L906.0 196.0 Z" fill="#ffffff" stroke="#000000" stroke-width="1.3"/><text x="552.0" y="172.0" font-family="WenQuanYi Zen Hei, Microsoft YaHei, SimSun, sans-serif" font-size="24" text-anchor="middle" font-style="italic" fill="#1f2328">«entity»</text><text x="552.0" y="188.0" font-family="WenQuanYi Zen Hei, Microsoft YaHei, SimSun, sans-serif" font-size="34" text-anchor="middle" font-weight="bold" fill="#1f2328">Draft 草稿</text>
<text x="204.0" y="313.5" font-family="WenQuanYi Zen Hei, Microsoft YaHei, SimSun, sans-serif" font-size="34" text-anchor="start" fill="#1f2328">+ id: str {PK}</text>
<text x="204.0" y="370.5" font-family="WenQuanYi Zen Hei, Microsoft YaHei, SimSun, sans-serif" font-size="34" text-anchor="start" fill="#1f2328">+ owner_sid: str {FK}</text>
<text x="204.0" y="427.5" font-family="WenQuanYi Zen Hei, Microsoft YaHei, SimSun, sans-serif" font-size="34" text-anchor="start" fill="#1f2328">+ title / content / category</text>
<line x1="198.0" y1="450.5" x2="906.0" y2="450.5" stroke="#000000" stroke-width="1"/>
<text x="204.0" y="506.5" font-family="WenQuanYi Zen Hei, Microsoft YaHei, SimSun, sans-serif" font-size="34" text-anchor="start" fill="#1f2328">+ autosave()</text>
<text x="204.0" y="563.5" font-family="WenQuanYi Zen Hei, Microsoft YaHei, SimSun, sans-serif" font-size="34" text-anchor="start" fill="#1f2328">+ publish(): Note</text>
<rect x="1417.0" y="156.0" width="666.0" height="487.0" rx="3" fill="#ffffff" stroke="#000000" stroke-width="1.3"/><path d="M1417.0 196.0 L1417.0 159.0 Q1417.0 156.0 1420.0 156.0 L2080.0 156.0 Q2083.0 156.0 2083.0 159.0 L2083.0 196.0 Z" fill="#ffffff" stroke="#000000" stroke-width="1.3"/><text x="1750.0" y="172.0" font-family="WenQuanYi Zen Hei, Microsoft YaHei, SimSun, sans-serif" font-size="24" text-anchor="middle" font-style="italic" fill="#1f2328">«entity»</text><text x="1750.0" y="188.0" font-family="WenQuanYi Zen Hei, Microsoft YaHei, SimSun, sans-serif" font-size="34" text-anchor="middle" font-weight="bold" fill="#1f2328">Collection 合集</text>
<text x="1423.0" y="313.5" font-family="WenQuanYi Zen Hei, Microsoft YaHei, SimSun, sans-serif" font-size="34" text-anchor="start" fill="#1f2328">+ id: str {PK}</text>
<text x="1423.0" y="370.5" font-family="WenQuanYi Zen Hei, Microsoft YaHei, SimSun, sans-serif" font-size="34" text-anchor="start" fill="#1f2328">+ owner_sid: str {FK}</text>
<text x="1423.0" y="427.5" font-family="WenQuanYi Zen Hei, Microsoft YaHei, SimSun, sans-serif" font-size="34" text-anchor="start" fill="#1f2328">+ title / description</text>
<line x1="1417.0" y1="450.5" x2="2083.0" y2="450.5" stroke="#000000" stroke-width="1"/>
<text x="1423.0" y="506.5" font-family="WenQuanYi Zen Hei, Microsoft YaHei, SimSun, sans-serif" font-size="34" text-anchor="start" fill="#1f2328">+ addEntry(note)</text>
<text x="1423.0" y="563.5" font-family="WenQuanYi Zen Hei, Microsoft YaHei, SimSun, sans-serif" font-size="34" text-anchor="start" fill="#1f2328">+ removeEntry(note)</text>
<text x="1423.0" y="619.5" font-family="WenQuanYi Zen Hei, Microsoft YaHei, SimSun, sans-serif" font-size="34" text-anchor="start" fill="#1f2328">+ reorder()</text>
<rect x="2366.0" y="156.0" width="722.0" height="374.0" rx="3" fill="#ffffff" stroke="#000000" stroke-width="1.3"/><path d="M2366.0 196.0 L2366.0 159.0 Q2366.0 156.0 2369.0 156.0 L3085.0 156.0 Q3088.0 156.0 3088.0 159.0 L3088.0 196.0 Z" fill="#ffffff" stroke="#000000" stroke-width="1.3"/><text x="2727.0" y="172.0" font-family="WenQuanYi Zen Hei, Microsoft YaHei, SimSun, sans-serif" font-size="24" text-anchor="middle" font-style="italic" fill="#1f2328">«entity»</text><text x="2727.0" y="188.0" font-family="WenQuanYi Zen Hei, Microsoft YaHei, SimSun, sans-serif" font-size="34" text-anchor="middle" font-weight="bold" fill="#1f2328">CollectionEntry 合集条目</text>
<text x="2372.0" y="313.5" font-family="WenQuanYi Zen Hei, Microsoft YaHei, SimSun, sans-serif" font-size="34" text-anchor="start" fill="#1f2328">+ collection_id: str {PK,FK}</text>
<text x="2372.0" y="370.5" font-family="WenQuanYi Zen Hei, Microsoft YaHei, SimSun, sans-serif" font-size="34" text-anchor="start" fill="#1f2328">+ note_id: str {PK,FK,U}</text>
<text x="2372.0" y="427.5" font-family="WenQuanYi Zen Hei, Microsoft YaHei, SimSun, sans-serif" font-size="34" text-anchor="start" fill="#1f2328">+ sort_order: int</text>
<line x1="2366.0" y1="450.5" x2="3088.0" y2="450.5" stroke="#000000" stroke-width="1"/>
<text x="2372.0" y="506.5" font-family="WenQuanYi Zen Hei, Microsoft YaHei, SimSun, sans-serif" font-size="34" text-anchor="start" fill="#1f2328">+ moveTo(order)</text>
<rect x="3414.0" y="128.0" width="751.0" height="601.0" rx="3" fill="#ffffff" stroke="#000000" stroke-width="1.3"/><path d="M3414.0 168.0 L3414.0 131.0 Q3414.0 128.0 3417.0 128.0 L4162.0 128.0 Q4165.0 128.0 4165.0 131.0 L4165.0 168.0 Z" fill="#ffffff" stroke="#000000" stroke-width="1.3"/><text x="3789.5" y="144.0" font-family="WenQuanYi Zen Hei, Microsoft YaHei, SimSun, sans-serif" font-size="24" text-anchor="middle" font-style="italic" fill="#1f2328">«规划·entity»</text><text x="3789.5" y="160.0" font-family="WenQuanYi Zen Hei, Microsoft YaHei, SimSun, sans-serif" font-size="34" text-anchor="middle" font-weight="bold" fill="#1f2328">Report 举报工单</text>
<text x="3420.0" y="285.5" font-family="WenQuanYi Zen Hei, Microsoft YaHei, SimSun, sans-serif" font-size="34" text-anchor="start" fill="#1f2328">+ id: str {PK}</text>
<text x="3420.0" y="342.5" font-family="WenQuanYi Zen Hei, Microsoft YaHei, SimSun, sans-serif" font-size="34" text-anchor="start" fill="#1f2328">+ reporter_sid: str {FK}</text>
<text x="3420.0" y="399.5" font-family="WenQuanYi Zen Hei, Microsoft YaHei, SimSun, sans-serif" font-size="34" text-anchor="start" fill="#1f2328">+ target_type: str</text>
<text x="3420.0" y="455.5" font-family="WenQuanYi Zen Hei, Microsoft YaHei, SimSun, sans-serif" font-size="34" text-anchor="start" fill="#1f2328">+ reason / status: str</text>
<text x="3420.0" y="512.5" font-family="WenQuanYi Zen Hei, Microsoft YaHei, SimSun, sans-serif" font-size="34" text-anchor="start" fill="#1f2328">+ ai_label / ai_confidence</text>
<line x1="3414.0" y1="536.5" x2="4165.0" y2="536.5" stroke="#000000" stroke-width="1"/>
<text x="3420.0" y="591.5" font-family="WenQuanYi Zen Hei, Microsoft YaHei, SimSun, sans-serif" font-size="34" text-anchor="start" fill="#1f2328">+ submit()</text>
<text x="3420.0" y="648.5" font-family="WenQuanYi Zen Hei, Microsoft YaHei, SimSun, sans-serif" font-size="34" text-anchor="start" fill="#1f2328">+ aiClassify()</text>
<text x="3420.0" y="705.5" font-family="WenQuanYi Zen Hei, Microsoft YaHei, SimSun, sans-serif" font-size="34" text-anchor="start" fill="#1f2328">+ resolve(action)</text>
<rect x="3414.0" y="864.0" width="666.0" height="374.0" rx="3" fill="#ffffff" stroke="#000000" stroke-width="1.3"/><path d="M3414.0 904.0 L3414.0 867.0 Q3414.0 864.0 3417.0 864.0 L4077.0 864.0 Q4080.0 864.0 4080.0 867.0 L4080.0 904.0 Z" fill="#ffffff" stroke="#000000" stroke-width="1.3"/><text x="3747.0" y="880.0" font-family="WenQuanYi Zen Hei, Microsoft YaHei, SimSun, sans-serif" font-size="24" text-anchor="middle" font-style="italic" fill="#1f2328">«规划·entity»</text><text x="3747.0" y="896.0" font-family="WenQuanYi Zen Hei, Microsoft YaHei, SimSun, sans-serif" font-size="34" text-anchor="middle" font-weight="bold" fill="#1f2328">Block 拉黑</text>
<text x="3420.0" y="1021.5" font-family="WenQuanYi Zen Hei, Microsoft YaHei, SimSun, sans-serif" font-size="34" text-anchor="start" fill="#1f2328">+ blocker_sid: str {PK,FK}</text>
<text x="3420.0" y="1078.5" font-family="WenQuanYi Zen Hei, Microsoft YaHei, SimSun, sans-serif" font-size="34" text-anchor="start" fill="#1f2328">+ blocked_sid: str {PK,FK}</text>
<line x1="3414.0" y1="1102.5" x2="4080.0" y2="1102.5" stroke="#000000" stroke-width="1"/>
<text x="3420.0" y="1157.5" font-family="WenQuanYi Zen Hei, Microsoft YaHei, SimSun, sans-serif" font-size="34" text-anchor="start" fill="#1f2328">+ block()</text>
<text x="3420.0" y="1214.5" font-family="WenQuanYi Zen Hei, Microsoft YaHei, SimSun, sans-serif" font-size="34" text-anchor="start" fill="#1f2328">+ unblock()</text>
<rect x="198.0" y="1587.0" width="708.0" height="487.0" rx="3" fill="#ffffff" stroke="#000000" stroke-width="1.3"/><path d="M198.0 1627.0 L198.0 1590.0 Q198.0 1587.0 201.0 1587.0 L903.0 1587.0 Q906.0 1587.0 906.0 1590.0 L906.0 1627.0 Z" fill="#ffffff" stroke="#000000" stroke-width="1.3"/><text x="552.0" y="1603.0" font-family="WenQuanYi Zen Hei, Microsoft YaHei, SimSun, sans-serif" font-size="24" text-anchor="middle" font-style="italic" fill="#1f2328">«entity»</text><text x="552.0" y="1619.0" font-family="WenQuanYi Zen Hei, Microsoft YaHei, SimSun, sans-serif" font-size="34" text-anchor="middle" font-weight="bold" fill="#1f2328">User 用户</text>
<text x="204.0" y="1744.5" font-family="WenQuanYi Zen Hei, Microsoft YaHei, SimSun, sans-serif" font-size="34" text-anchor="start" fill="#1f2328">+ sid: str {PK}</text>
<text x="204.0" y="1801.5" font-family="WenQuanYi Zen Hei, Microsoft YaHei, SimSun, sans-serif" font-size="34" text-anchor="start" fill="#1f2328">+ nickname / preferred_name</text>
<text x="204.0" y="1858.5" font-family="WenQuanYi Zen Hei, Microsoft YaHei, SimSun, sans-serif" font-size="34" text-anchor="start" fill="#1f2328">+ role / exp / level</text>
<line x1="198.0" y1="1881.5" x2="906.0" y2="1881.5" stroke="#000000" stroke-width="1"/>
<text x="204.0" y="1937.5" font-family="WenQuanYi Zen Hei, Microsoft YaHei, SimSun, sans-serif" font-size="34" text-anchor="start" fill="#1f2328">+ checkIn()</text>
<text x="204.0" y="1994.5" font-family="WenQuanYi Zen Hei, Microsoft YaHei, SimSun, sans-serif" font-size="34" text-anchor="start" fill="#1f2328">+ gainExp(delta)</text>
<text x="204.0" y="2050.5" font-family="WenQuanYi Zen Hei, Microsoft YaHei, SimSun, sans-serif" font-size="34" text-anchor="start" fill="#1f2328">+ promote(role)</text>
<rect x="1417.0" y="1530.0" width="722.0" height="601.0" rx="3" fill="#ffffff" stroke="#000000" stroke-width="1.3"/><path d="M1417.0 1570.0 L1417.0 1533.0 Q1417.0 1530.0 1420.0 1530.0 L2136.0 1530.0 Q2139.0 1530.0 2139.0 1533.0 L2139.0 1570.0 Z" fill="#ffffff" stroke="#000000" stroke-width="1.3"/><text x="1778.0" y="1546.0" font-family="WenQuanYi Zen Hei, Microsoft YaHei, SimSun, sans-serif" font-size="24" text-anchor="middle" font-style="italic" fill="#1f2328">«entity»</text><text x="1778.0" y="1562.0" font-family="WenQuanYi Zen Hei, Microsoft YaHei, SimSun, sans-serif" font-size="34" text-anchor="middle" font-weight="bold" fill="#1f2328">Note 笔记</text>
<text x="1423.0" y="1687.5" font-family="WenQuanYi Zen Hei, Microsoft YaHei, SimSun, sans-serif" font-size="34" text-anchor="start" fill="#1f2328">+ id: str {PK}</text>
<text x="1423.0" y="1744.5" font-family="WenQuanYi Zen Hei, Microsoft YaHei, SimSun, sans-serif" font-size="34" text-anchor="start" fill="#1f2328">+ author_sid: str {FK}</text>
<text x="1423.0" y="1801.5" font-family="WenQuanYi Zen Hei, Microsoft YaHei, SimSun, sans-serif" font-size="34" text-anchor="start" fill="#1f2328">+ title / summary / content</text>
<text x="1423.0" y="1857.5" font-family="WenQuanYi Zen Hei, Microsoft YaHei, SimSun, sans-serif" font-size="34" text-anchor="start" fill="#1f2328">+ category / tags</text>
<text x="1423.0" y="1914.5" font-family="WenQuanYi Zen Hei, Microsoft YaHei, SimSun, sans-serif" font-size="34" text-anchor="start" fill="#1f2328">+ status: str</text>
<line x1="1417.0" y1="1938.5" x2="2139.0" y2="1938.5" stroke="#000000" stroke-width="1"/>
<text x="1423.0" y="1993.5" font-family="WenQuanYi Zen Hei, Microsoft YaHei, SimSun, sans-serif" font-size="34" text-anchor="start" fill="#1f2328">+ publishFrom(draft)</text>
<text x="1423.0" y="2050.5" font-family="WenQuanYi Zen Hei, Microsoft YaHei, SimSun, sans-serif" font-size="34" text-anchor="start" fill="#1f2328">+ edit()</text>
<text x="1423.0" y="2107.5" font-family="WenQuanYi Zen Hei, Microsoft YaHei, SimSun, sans-serif" font-size="34" text-anchor="start" fill="#1f2328">+ softDelete()</text>
<rect x="2508.0" y="1445.0" width="765.0" height="657.0" rx="3" fill="#ffffff" stroke="#000000" stroke-width="1.3"/><path d="M2508.0 1485.0 L2508.0 1448.0 Q2508.0 1445.0 2511.0 1445.0 L3270.0 1445.0 Q3273.0 1445.0 3273.0 1448.0 L3273.0 1485.0 Z" fill="#ffffff" stroke="#000000" stroke-width="1.3"/><text x="2890.5" y="1461.0" font-family="WenQuanYi Zen Hei, Microsoft YaHei, SimSun, sans-serif" font-size="24" text-anchor="middle" font-style="italic" fill="#1f2328">«entity»</text><text x="2890.5" y="1477.0" font-family="WenQuanYi Zen Hei, Microsoft YaHei, SimSun, sans-serif" font-size="34" text-anchor="middle" font-weight="bold" fill="#1f2328">Comment 评论</text>
<text x="2514.0" y="1602.5" font-family="WenQuanYi Zen Hei, Microsoft YaHei, SimSun, sans-serif" font-size="34" text-anchor="start" fill="#1f2328">+ id: str {PK}</text>
<text x="2514.0" y="1659.5" font-family="WenQuanYi Zen Hei, Microsoft YaHei, SimSun, sans-serif" font-size="34" text-anchor="start" fill="#1f2328">+ note_id: str {FK}</text>
<text x="2514.0" y="1716.5" font-family="WenQuanYi Zen Hei, Microsoft YaHei, SimSun, sans-serif" font-size="34" text-anchor="start" fill="#1f2328">+ parent_id: str {FK}</text>
<text x="2514.0" y="1772.5" font-family="WenQuanYi Zen Hei, Microsoft YaHei, SimSun, sans-serif" font-size="34" text-anchor="start" fill="#1f2328">+ reply_to_sid: str {FK}</text>
<text x="2514.0" y="1829.5" font-family="WenQuanYi Zen Hei, Microsoft YaHei, SimSun, sans-serif" font-size="34" text-anchor="start" fill="#1f2328">+ content / images</text>
<text x="2514.0" y="1886.5" font-family="WenQuanYi Zen Hei, Microsoft YaHei, SimSun, sans-serif" font-size="34" text-anchor="start" fill="#1f2328">+ anchor_text: str</text>
<line x1="2508.0" y1="1909.5" x2="3273.0" y2="1909.5" stroke="#000000" stroke-width="1"/>
<text x="2514.0" y="1965.5" font-family="WenQuanYi Zen Hei, Microsoft YaHei, SimSun, sans-serif" font-size="34" text-anchor="start" fill="#1f2328">+ reply(parent)</text>
<text x="2514.0" y="2022.5" font-family="WenQuanYi Zen Hei, Microsoft YaHei, SimSun, sans-serif" font-size="34" text-anchor="start" fill="#1f2328">+ react(kind)</text>
<text x="2514.0" y="2078.5" font-family="WenQuanYi Zen Hei, Microsoft YaHei, SimSun, sans-serif" font-size="34" text-anchor="start" fill="#1f2328">+ delete()</text>
<rect x="3428.0" y="1587.0" width="666.0" height="317.0" rx="3" fill="#ffffff" stroke="#000000" stroke-width="1.3"/><path d="M3428.0 1627.0 L3428.0 1590.0 Q3428.0 1587.0 3431.0 1587.0 L4091.0 1587.0 Q4094.0 1587.0 4094.0 1590.0 L4094.0 1627.0 Z" fill="#ffffff" stroke="#000000" stroke-width="1.3"/><text x="3761.0" y="1603.0" font-family="WenQuanYi Zen Hei, Microsoft YaHei, SimSun, sans-serif" font-size="24" text-anchor="middle" font-style="italic" fill="#1f2328">«entity»</text><text x="3761.0" y="1619.0" font-family="WenQuanYi Zen Hei, Microsoft YaHei, SimSun, sans-serif" font-size="34" text-anchor="middle" font-weight="bold" fill="#1f2328">CheckIn 签到</text>
<text x="3434.0" y="1744.5" font-family="WenQuanYi Zen Hei, Microsoft YaHei, SimSun, sans-serif" font-size="34" text-anchor="start" fill="#1f2328">+ user_sid: str {PK,FK}</text>
<text x="3434.0" y="1801.5" font-family="WenQuanYi Zen Hei, Microsoft YaHei, SimSun, sans-serif" font-size="34" text-anchor="start" fill="#1f2328">+ checkin_date: date {PK}</text>
<line x1="3428.0" y1="1825.5" x2="4094.0" y2="1825.5" stroke="#000000" stroke-width="1"/>
<text x="3434.0" y="1880.5" font-family="WenQuanYi Zen Hei, Microsoft YaHei, SimSun, sans-serif" font-size="34" text-anchor="start" fill="#1f2328">+ create()</text>
<rect x="3428.0" y="2168.0" width="722.0" height="374.0" rx="3" fill="#ffffff" stroke="#000000" stroke-width="1.3"/><path d="M3428.0 2208.0 L3428.0 2171.0 Q3428.0 2168.0 3431.0 2168.0 L4147.0 2168.0 Q4150.0 2168.0 4150.0 2171.0 L4150.0 2208.0 Z" fill="#ffffff" stroke="#000000" stroke-width="1.3"/><text x="3789.0" y="2184.0" font-family="WenQuanYi Zen Hei, Microsoft YaHei, SimSun, sans-serif" font-size="24" text-anchor="middle" font-style="italic" fill="#1f2328">«entity»</text><text x="3789.0" y="2200.0" font-family="WenQuanYi Zen Hei, Microsoft YaHei, SimSun, sans-serif" font-size="34" text-anchor="middle" font-weight="bold" fill="#1f2328">XpEvent 经验流水</text>
<text x="3434.0" y="2325.5" font-family="WenQuanYi Zen Hei, Microsoft YaHei, SimSun, sans-serif" font-size="34" text-anchor="start" fill="#1f2328">+ id: int {PK}</text>
<text x="3434.0" y="2382.5" font-family="WenQuanYi Zen Hei, Microsoft YaHei, SimSun, sans-serif" font-size="34" text-anchor="start" fill="#1f2328">+ user_sid: str {FK}</text>
<text x="3434.0" y="2439.5" font-family="WenQuanYi Zen Hei, Microsoft YaHei, SimSun, sans-serif" font-size="34" text-anchor="start" fill="#1f2328">+ source_type / delta</text>
<line x1="3428.0" y1="2462.5" x2="4150.0" y2="2462.5" stroke="#000000" stroke-width="1"/>
<text x="3434.0" y="2518.5" font-family="WenQuanYi Zen Hei, Microsoft YaHei, SimSun, sans-serif" font-size="34" text-anchor="start" fill="#1f2328">+ record()</text>
<rect x="3428.0" y="2862.0" width="666.0" height="374.0" rx="3" fill="#ffffff" stroke="#000000" stroke-width="1.3"/><path d="M3428.0 2902.0 L3428.0 2865.0 Q3428.0 2862.0 3431.0 2862.0 L4091.0 2862.0 Q4094.0 2862.0 4094.0 2865.0 L4094.0 2902.0 Z" fill="#ffffff" stroke="#000000" stroke-width="1.3"/><text x="3761.0" y="2878.0" font-family="WenQuanYi Zen Hei, Microsoft YaHei, SimSun, sans-serif" font-size="24" text-anchor="middle" font-style="italic" fill="#1f2328">«entity»</text><text x="3761.0" y="2894.0" font-family="WenQuanYi Zen Hei, Microsoft YaHei, SimSun, sans-serif" font-size="34" text-anchor="middle" font-weight="bold" fill="#1f2328">LoginEvent 登录事件</text>
<text x="3434.0" y="3019.5" font-family="WenQuanYi Zen Hei, Microsoft YaHei, SimSun, sans-serif" font-size="34" text-anchor="start" fill="#1f2328">+ id: int {PK}</text>
<text x="3434.0" y="3076.5" font-family="WenQuanYi Zen Hei, Microsoft YaHei, SimSun, sans-serif" font-size="34" text-anchor="start" fill="#1f2328">+ user_sid: str {FK}</text>
<text x="3434.0" y="3133.5" font-family="WenQuanYi Zen Hei, Microsoft YaHei, SimSun, sans-serif" font-size="34" text-anchor="start" fill="#1f2328">+ ip / user_agent</text>
<line x1="3428.0" y1="3156.5" x2="4094.0" y2="3156.5" stroke="#000000" stroke-width="1"/>
<text x="3434.0" y="3212.5" font-family="WenQuanYi Zen Hei, Microsoft YaHei, SimSun, sans-serif" font-size="34" text-anchor="start" fill="#1f2328">+ record()</text>
<rect x="198.0" y="2819.0" width="623.0" height="317.0" rx="3" fill="#ffffff" stroke="#000000" stroke-width="1.3"/><path d="M198.0 2859.0 L198.0 2822.0 Q198.0 2819.0 201.0 2819.0 L818.0 2819.0 Q821.0 2819.0 821.0 2822.0 L821.0 2859.0 Z" fill="#ffffff" stroke="#000000" stroke-width="1.3"/><text x="509.5" y="2835.0" font-family="WenQuanYi Zen Hei, Microsoft YaHei, SimSun, sans-serif" font-size="24" text-anchor="middle" font-style="italic" fill="#1f2328">«entity»</text><text x="509.5" y="2851.0" font-family="WenQuanYi Zen Hei, Microsoft YaHei, SimSun, sans-serif" font-size="34" text-anchor="middle" font-weight="bold" fill="#1f2328">Like 点赞</text>
<text x="204.0" y="2976.5" font-family="WenQuanYi Zen Hei, Microsoft YaHei, SimSun, sans-serif" font-size="34" text-anchor="start" fill="#1f2328">+ note_id: str {PK,FK}</text>
<text x="204.0" y="3033.5" font-family="WenQuanYi Zen Hei, Microsoft YaHei, SimSun, sans-serif" font-size="34" text-anchor="start" fill="#1f2328">+ user_sid: str {PK,FK}</text>
<line x1="198.0" y1="3057.5" x2="821.0" y2="3057.5" stroke="#000000" stroke-width="1"/>
<text x="204.0" y="3112.5" font-family="WenQuanYi Zen Hei, Microsoft YaHei, SimSun, sans-serif" font-size="34" text-anchor="start" fill="#1f2328">+ toggle()</text>
<rect x="935.0" y="2819.0" width="666.0" height="317.0" rx="3" fill="#ffffff" stroke="#000000" stroke-width="1.3"/><path d="M935.0 2859.0 L935.0 2822.0 Q935.0 2819.0 938.0 2819.0 L1598.0 2819.0 Q1601.0 2819.0 1601.0 2822.0 L1601.0 2859.0 Z" fill="#ffffff" stroke="#000000" stroke-width="1.3"/><text x="1268.0" y="2835.0" font-family="WenQuanYi Zen Hei, Microsoft YaHei, SimSun, sans-serif" font-size="24" text-anchor="middle" font-style="italic" fill="#1f2328">«entity»</text><text x="1268.0" y="2851.0" font-family="WenQuanYi Zen Hei, Microsoft YaHei, SimSun, sans-serif" font-size="34" text-anchor="middle" font-weight="bold" fill="#1f2328">NoteDislike 点踩</text>
<text x="941.0" y="2976.5" font-family="WenQuanYi Zen Hei, Microsoft YaHei, SimSun, sans-serif" font-size="34" text-anchor="start" fill="#1f2328">+ note_id: str {PK,FK}</text>
<text x="941.0" y="3033.5" font-family="WenQuanYi Zen Hei, Microsoft YaHei, SimSun, sans-serif" font-size="34" text-anchor="start" fill="#1f2328">+ user_sid: str {PK,FK}</text>
<line x1="935.0" y1="3057.5" x2="1601.0" y2="3057.5" stroke="#000000" stroke-width="1"/>
<text x="941.0" y="3112.5" font-family="WenQuanYi Zen Hei, Microsoft YaHei, SimSun, sans-serif" font-size="34" text-anchor="start" fill="#1f2328">+ toggle()</text>
<rect x="1728.0" y="2819.0" width="623.0" height="317.0" rx="3" fill="#ffffff" stroke="#000000" stroke-width="1.3"/><path d="M1728.0 2859.0 L1728.0 2822.0 Q1728.0 2819.0 1731.0 2819.0 L2348.0 2819.0 Q2351.0 2819.0 2351.0 2822.0 L2351.0 2859.0 Z" fill="#ffffff" stroke="#000000" stroke-width="1.3"/><text x="2039.5" y="2835.0" font-family="WenQuanYi Zen Hei, Microsoft YaHei, SimSun, sans-serif" font-size="24" text-anchor="middle" font-style="italic" fill="#1f2328">«entity»</text><text x="2039.5" y="2851.0" font-family="WenQuanYi Zen Hei, Microsoft YaHei, SimSun, sans-serif" font-size="34" text-anchor="middle" font-weight="bold" fill="#1f2328">Favorite 收藏</text>
<text x="1734.0" y="2976.5" font-family="WenQuanYi Zen Hei, Microsoft YaHei, SimSun, sans-serif" font-size="34" text-anchor="start" fill="#1f2328">+ note_id: str {PK,FK}</text>
<text x="1734.0" y="3033.5" font-family="WenQuanYi Zen Hei, Microsoft YaHei, SimSun, sans-serif" font-size="34" text-anchor="start" fill="#1f2328">+ user_sid: str {PK,FK}</text>
<line x1="1728.0" y1="3057.5" x2="2351.0" y2="3057.5" stroke="#000000" stroke-width="1"/>
<text x="1734.0" y="3112.5" font-family="WenQuanYi Zen Hei, Microsoft YaHei, SimSun, sans-serif" font-size="34" text-anchor="start" fill="#1f2328">+ toggle()</text>
<rect x="2508.0" y="2819.0" width="751.0" height="374.0" rx="3" fill="#ffffff" stroke="#000000" stroke-width="1.3"/><path d="M2508.0 2859.0 L2508.0 2822.0 Q2508.0 2819.0 2511.0 2819.0 L3256.0 2819.0 Q3259.0 2819.0 3259.0 2822.0 L3259.0 2859.0 Z" fill="#ffffff" stroke="#000000" stroke-width="1.3"/><text x="2883.5" y="2835.0" font-family="WenQuanYi Zen Hei, Microsoft YaHei, SimSun, sans-serif" font-size="24" text-anchor="middle" font-style="italic" fill="#1f2328">«entity»</text><text x="2883.5" y="2851.0" font-family="WenQuanYi Zen Hei, Microsoft YaHei, SimSun, sans-serif" font-size="34" text-anchor="middle" font-weight="bold" fill="#1f2328">CommentReaction 评论表态</text>
<text x="2514.0" y="2976.5" font-family="WenQuanYi Zen Hei, Microsoft YaHei, SimSun, sans-serif" font-size="34" text-anchor="start" fill="#1f2328">+ comment_id: str {PK,FK}</text>
<text x="2514.0" y="3033.5" font-family="WenQuanYi Zen Hei, Microsoft YaHei, SimSun, sans-serif" font-size="34" text-anchor="start" fill="#1f2328">+ user_sid: str {PK,FK}</text>
<text x="2514.0" y="3090.5" font-family="WenQuanYi Zen Hei, Microsoft YaHei, SimSun, sans-serif" font-size="34" text-anchor="start" fill="#1f2328">+ kind: str</text>
<line x1="2508.0" y1="3113.5" x2="3259.0" y2="3113.5" stroke="#000000" stroke-width="1"/>
<text x="2514.0" y="3169.5" font-family="WenQuanYi Zen Hei, Microsoft YaHei, SimSun, sans-serif" font-size="34" text-anchor="start" fill="#1f2328">+ toggle(kind)</text>
<path d="M552.0 1587.0 L552.0 587.0" fill="none" stroke="#000000" stroke-width="1.3"/><rect x="534.4" y="1078.5" width="35.3" height="17.0" fill="#ffffff" opacity="0.85" rx="3"/><text x="552.0" y="1090.5" font-family="WenQuanYi Zen Hei, Microsoft YaHei, SimSun, sans-serif" font-size="11" text-anchor="middle" fill="#000000">拥有</text>
<path d="M906.0 1830.5 L1417.0 1830.5" fill="none" stroke="#000000" stroke-width="1.3"/><rect x="1143.9" y="1822.0" width="35.3" height="17.0" fill="#ffffff" opacity="0.85" rx="3"/><text x="1161.5" y="1834.0" font-family="WenQuanYi Zen Hei, Microsoft YaHei, SimSun, sans-serif" font-size="11" text-anchor="middle" fill="#000000">发布</text>
<path d="M2139.0 1812.0 L2508.0 1793.1" fill="none" stroke="#000000" stroke-width="1.3"/><rect x="2305.9" y="1794.1" width="35.3" height="17.0" fill="#ffffff" opacity="0.85" rx="3"/><text x="2323.5" y="1806.1" font-family="WenQuanYi Zen Hei, Microsoft YaHei, SimSun, sans-serif" font-size="11" text-anchor="middle" fill="#000000">包含</text>
<path d="M755.9 1587.0 L1546.1 643.0" fill="none" stroke="#000000" stroke-width="1.3"/><rect x="1133.4" y="1106.5" width="35.3" height="17.0" fill="#ffffff" opacity="0.85" rx="3"/><text x="1151.0" y="1118.5" font-family="WenQuanYi Zen Hei, Microsoft YaHei, SimSun, sans-serif" font-size="11" text-anchor="middle" fill="#000000">创建</text>
<path d="M543.0 2074.0 L515.4 2819.0" fill="none" stroke="#000000" stroke-width="1.3"/>
<path d="M684.8 2819.0 L1445.7 2131.0" fill="none" stroke="#000000" stroke-width="1.3"/><rect x="1047.6" y="2466.5" width="35.3" height="17.0" fill="#ffffff" opacity="0.85" rx="3"/><text x="1065.2" y="2478.5" font-family="WenQuanYi Zen Hei, Microsoft YaHei, SimSun, sans-serif" font-size="11" text-anchor="middle" fill="#000000">点赞</text>
<path d="M704.0 2074.0 L1169.1 2819.0" fill="none" stroke="#000000" stroke-width="1.3"/>
<path d="M1338.5 2819.0 L1644.4 2131.0" fill="none" stroke="#000000" stroke-width="1.3"/><rect x="1473.8" y="2466.5" width="35.3" height="17.0" fill="#ffffff" opacity="0.85" rx="3"/><text x="1491.4" y="2478.5" font-family="WenQuanYi Zen Hei, Microsoft YaHei, SimSun, sans-serif" font-size="11" text-anchor="middle" fill="#000000">点踩</text>
<path d="M867.8 2074.0 L1833.9 2819.0" fill="none" stroke="#000000" stroke-width="1.3"/>
<path d="M2003.4 2819.0 L1846.5 2131.0" fill="none" stroke="#000000" stroke-width="1.3"/><rect x="1907.3" y="2466.5" width="35.3" height="17.0" fill="#ffffff" opacity="0.85" rx="3"/><text x="1924.9" y="2478.5" font-family="WenQuanYi Zen Hei, Microsoft YaHei, SimSun, sans-serif" font-size="11" text-anchor="middle" fill="#000000">收藏</text>
<path d="M2083.0 380.2 L2366.0 363.9" fill="none" stroke="#000000" stroke-width="1.3"/><rect x="2206.9" y="363.6" width="35.3" height="17.0" fill="#ffffff" opacity="0.85" rx="3"/><text x="2224.5" y="375.6" font-family="WenQuanYi Zen Hei, Microsoft YaHei, SimSun, sans-serif" font-size="11" text-anchor="middle" fill="#000000">包含</text>
<path d="M2607.7 530.0 L1969.7 1530.0" fill="none" stroke="#000000" stroke-width="1.3"/><rect x="2271.1" y="1021.5" width="35.3" height="17.0" fill="#ffffff" opacity="0.85" rx="3"/><text x="2288.7" y="1033.5" font-family="WenQuanYi Zen Hei, Microsoft YaHei, SimSun, sans-serif" font-size="11" text-anchor="middle" fill="#000000">收录</text>
<path d="M2884.6 2819.0 L2888.6 2102.0" fill="none" stroke="#000000" stroke-width="1.3"/><rect x="2869.0" y="2452.0" width="35.3" height="17.0" fill="#ffffff" opacity="0.85" rx="3"/><text x="2886.6" y="2464.0" font-family="WenQuanYi Zen Hei, Microsoft YaHei, SimSun, sans-serif" font-size="11" text-anchor="middle" fill="#000000">表态</text>
<path d="M567.4 1587.0 L581.0 1371.0 L2862.0 1371.0 L2867.2 1445.0" fill="none" stroke="#000000" stroke-width="1.3"/><rect x="1632.7" y="1362.5" width="35.3" height="17.0" fill="#ffffff" opacity="0.85" rx="3"/><text x="1650.4" y="1374.5" font-family="WenQuanYi Zen Hei, Microsoft YaHei, SimSun, sans-serif" font-size="11" text-anchor="middle" fill="#000000">发表</text>
<path d="M2819.0 1445.0 L2819.0 1320.0 L3188.0 1320.0 L3188.0 1445.0" fill="none" stroke="#000000" stroke-width="1.3"/><rect x="2941.5" y="1311.5" width="123.9" height="17.0" fill="#ffffff" opacity="0.85" rx="3"/><text x="3003.5" y="1323.5" font-family="WenQuanYi Zen Hei, Microsoft YaHei, SimSun, sans-serif" font-size="11" text-anchor="middle" fill="#000000">父 / 回复(楼中楼)</text>
<path d="M652.9 2074.0 L850.0 2550.0 L2833.0 2550.0 L2862.8 2819.0" fill="none" stroke="#000000" stroke-width="1.3"/><rect x="1687.9" y="2541.5" width="62.6" height="17.0" fill="#ffffff" opacity="0.85" rx="3"/><text x="1719.2" y="2553.5" font-family="WenQuanYi Zen Hei, Microsoft YaHei, SimSun, sans-serif" font-size="11" text-anchor="middle" fill="#000000">评论表态</text>
<path d="M745.3 2074.0 L912.0 2284.0 L3338.0 2284.0 L3338.0 1717.0 L3428.0 1723.1" fill="none" stroke="#000000" stroke-width="1.3"/><rect x="2301.9" y="2275.5" width="35.3" height="17.0" fill="#ffffff" opacity="0.85" rx="3"/><text x="2319.5" y="2287.5" font-family="WenQuanYi Zen Hei, Microsoft YaHei, SimSun, sans-serif" font-size="11" text-anchor="middle" fill="#000000">签到</text>
<path d="M725.8 2074.0 L912.0 2335.0 L3360.0 2335.0 L3428.0 2338.2" fill="none" stroke="#000000" stroke-width="1.3"/><rect x="1992.1" y="2326.5" width="35.3" height="17.0" fill="#ffffff" opacity="0.85" rx="3"/><text x="2009.7" y="2338.5" font-family="WenQuanYi Zen Hei, Microsoft YaHei, SimSun, sans-serif" font-size="11" text-anchor="middle" fill="#000000">经验</text>
<path d="M709.8 2074.0 L912.0 2386.0 L3383.0 2386.0 L3383.0 2981.0 L3428.0 2989.1" fill="none" stroke="#000000" stroke-width="1.3"/><rect x="2264.3" y="2377.5" width="35.3" height="17.0" fill="#ffffff" opacity="0.85" rx="3"/><text x="2282.0" y="2389.5" font-family="WenQuanYi Zen Hei, Microsoft YaHei, SimSun, sans-serif" font-size="11" text-anchor="middle" fill="#000000">登录</text>
<path d="M629.7 1587.0 L722.0 1298.0 L3825.0 1298.0 L3801.8 729.0" fill="none" stroke="#000000" stroke-width="1.3" stroke-dasharray="6 4"/><rect x="2368.5" y="1289.5" width="76.2" height="17.0" fill="#ffffff" opacity="0.85" rx="3"/><text x="2406.6" y="1301.5" font-family="WenQuanYi Zen Hei, Microsoft YaHei, SimSun, sans-serif" font-size="11" text-anchor="middle" fill="#000000">举报(规划)</text>
<path d="M599.6 1587.0 L666.0 1247.0 L3315.0 1247.0 L3315.0 1054.0 L3414.0 1053.3" fill="none" stroke="#000000" stroke-width="1.3" stroke-dasharray="6 4"/><rect x="1925.2" y="1238.5" width="76.2" height="17.0" fill="#ffffff" opacity="0.85" rx="3"/><text x="1963.3" y="1250.5" font-family="WenQuanYi Zen Hei, Microsoft YaHei, SimSun, sans-serif" font-size="11" text-anchor="middle" fill="#000000">拉黑(规划)</text>
<rect x="544.5" y="1578.0" width="15.0" height="16" fill="#ffffff" opacity="0.9" rx="2"/>
<text x="552.0" y="1590.0" font-family="WenQuanYi Zen Hei, Microsoft YaHei, SimSun, sans-serif" font-size="11" text-anchor="middle" fill="#000000">1</text>
<rect x="531.0" y="578.0" width="42.0" height="16" fill="#ffffff" opacity="0.9" rx="2"/>
<text x="552.0" y="590.0" font-family="WenQuanYi Zen Hei, Microsoft YaHei, SimSun, sans-serif" font-size="11" text-anchor="middle" fill="#000000">0..*</text>
<rect x="898.5" y="1821.5" width="15.0" height="16" fill="#ffffff" opacity="0.9" rx="2"/>
<text x="906.0" y="1833.5" font-family="WenQuanYi Zen Hei, Microsoft YaHei, SimSun, sans-serif" font-size="11" text-anchor="middle" fill="#000000">1</text>
<rect x="1396.0" y="1821.5" width="42.0" height="16" fill="#ffffff" opacity="0.9" rx="2"/>
<text x="1417.0" y="1833.5" font-family="WenQuanYi Zen Hei, Microsoft YaHei, SimSun, sans-serif" font-size="11" text-anchor="middle" fill="#000000">0..*</text>
<rect x="2131.5" y="1803.0" width="15.0" height="16" fill="#ffffff" opacity="0.9" rx="2"/>
<text x="2139.0" y="1815.0" font-family="WenQuanYi Zen Hei, Microsoft YaHei, SimSun, sans-serif" font-size="11" text-anchor="middle" fill="#000000">1</text>
<rect x="2487.0" y="1784.1" width="42.0" height="16" fill="#ffffff" opacity="0.9" rx="2"/>
<text x="2508.0" y="1796.1" font-family="WenQuanYi Zen Hei, Microsoft YaHei, SimSun, sans-serif" font-size="11" text-anchor="middle" fill="#000000">0..*</text>
<rect x="748.4" y="1578.0" width="15.0" height="16" fill="#ffffff" opacity="0.9" rx="2"/>
<text x="755.9" y="1590.0" font-family="WenQuanYi Zen Hei, Microsoft YaHei, SimSun, sans-serif" font-size="11" text-anchor="middle" fill="#000000">1</text>
<rect x="1525.1" y="634.0" width="42.0" height="16" fill="#ffffff" opacity="0.9" rx="2"/>
<text x="1546.1" y="646.0" font-family="WenQuanYi Zen Hei, Microsoft YaHei, SimSun, sans-serif" font-size="11" text-anchor="middle" fill="#000000">0..*</text>
<rect x="494.4" y="2810.0" width="42.0" height="16" fill="#ffffff" opacity="0.9" rx="2"/>
<text x="515.4" y="2822.0" font-family="WenQuanYi Zen Hei, Microsoft YaHei, SimSun, sans-serif" font-size="11" text-anchor="middle" fill="#000000">0..*</text>
<rect x="663.8" y="2810.0" width="42.0" height="16" fill="#ffffff" opacity="0.9" rx="2"/>
<text x="684.8" y="2822.0" font-family="WenQuanYi Zen Hei, Microsoft YaHei, SimSun, sans-serif" font-size="11" text-anchor="middle" fill="#000000">0..*</text>
<rect x="1438.2" y="2122.0" width="15.0" height="16" fill="#ffffff" opacity="0.9" rx="2"/>
<text x="1445.7" y="2134.0" font-family="WenQuanYi Zen Hei, Microsoft YaHei, SimSun, sans-serif" font-size="11" text-anchor="middle" fill="#000000">1</text>
<rect x="1148.1" y="2810.0" width="42.0" height="16" fill="#ffffff" opacity="0.9" rx="2"/>
<text x="1169.1" y="2822.0" font-family="WenQuanYi Zen Hei, Microsoft YaHei, SimSun, sans-serif" font-size="11" text-anchor="middle" fill="#000000">0..*</text>
<rect x="1317.5" y="2810.0" width="42.0" height="16" fill="#ffffff" opacity="0.9" rx="2"/>
<text x="1338.5" y="2822.0" font-family="WenQuanYi Zen Hei, Microsoft YaHei, SimSun, sans-serif" font-size="11" text-anchor="middle" fill="#000000">0..*</text>
<rect x="1636.9" y="2122.0" width="15.0" height="16" fill="#ffffff" opacity="0.9" rx="2"/>
<text x="1644.4" y="2134.0" font-family="WenQuanYi Zen Hei, Microsoft YaHei, SimSun, sans-serif" font-size="11" text-anchor="middle" fill="#000000">1</text>
<rect x="1812.9" y="2810.0" width="42.0" height="16" fill="#ffffff" opacity="0.9" rx="2"/>
<text x="1833.9" y="2822.0" font-family="WenQuanYi Zen Hei, Microsoft YaHei, SimSun, sans-serif" font-size="11" text-anchor="middle" fill="#000000">0..*</text>
<rect x="1982.4" y="2810.0" width="42.0" height="16" fill="#ffffff" opacity="0.9" rx="2"/>
<text x="2003.4" y="2822.0" font-family="WenQuanYi Zen Hei, Microsoft YaHei, SimSun, sans-serif" font-size="11" text-anchor="middle" fill="#000000">0..*</text>
<rect x="1839.0" y="2122.0" width="15.0" height="16" fill="#ffffff" opacity="0.9" rx="2"/>
<text x="1846.5" y="2134.0" font-family="WenQuanYi Zen Hei, Microsoft YaHei, SimSun, sans-serif" font-size="11" text-anchor="middle" fill="#000000">1</text>
<rect x="2075.5" y="371.2" width="15.0" height="16" fill="#ffffff" opacity="0.9" rx="2"/>
<text x="2083.0" y="383.2" font-family="WenQuanYi Zen Hei, Microsoft YaHei, SimSun, sans-serif" font-size="11" text-anchor="middle" fill="#000000">1</text>
<rect x="2345.0" y="354.9" width="42.0" height="16" fill="#ffffff" opacity="0.9" rx="2"/>
<text x="2366.0" y="366.9" font-family="WenQuanYi Zen Hei, Microsoft YaHei, SimSun, sans-serif" font-size="11" text-anchor="middle" fill="#000000">0..*</text>
<rect x="2586.7" y="521.0" width="42.0" height="16" fill="#ffffff" opacity="0.9" rx="2"/>
<text x="2607.7" y="533.0" font-family="WenQuanYi Zen Hei, Microsoft YaHei, SimSun, sans-serif" font-size="11" text-anchor="middle" fill="#000000">0..1</text>
<rect x="1962.2" y="1521.0" width="15.0" height="16" fill="#ffffff" opacity="0.9" rx="2"/>
<text x="1969.7" y="1533.0" font-family="WenQuanYi Zen Hei, Microsoft YaHei, SimSun, sans-serif" font-size="11" text-anchor="middle" fill="#000000">1</text>
<rect x="2863.6" y="2810.0" width="42.0" height="16" fill="#ffffff" opacity="0.9" rx="2"/>
<text x="2884.6" y="2822.0" font-family="WenQuanYi Zen Hei, Microsoft YaHei, SimSun, sans-serif" font-size="11" text-anchor="middle" fill="#000000">0..*</text>
<rect x="2881.1" y="2093.0" width="15.0" height="16" fill="#ffffff" opacity="0.9" rx="2"/>
<text x="2888.6" y="2105.0" font-family="WenQuanYi Zen Hei, Microsoft YaHei, SimSun, sans-serif" font-size="11" text-anchor="middle" fill="#000000">1</text>
<rect x="559.9" y="1578.0" width="15.0" height="16" fill="#ffffff" opacity="0.9" rx="2"/>
<text x="567.4" y="1590.0" font-family="WenQuanYi Zen Hei, Microsoft YaHei, SimSun, sans-serif" font-size="11" text-anchor="middle" fill="#000000">1</text>
<rect x="2846.2" y="1436.0" width="42.0" height="16" fill="#ffffff" opacity="0.9" rx="2"/>
<text x="2867.2" y="1448.0" font-family="WenQuanYi Zen Hei, Microsoft YaHei, SimSun, sans-serif" font-size="11" text-anchor="middle" fill="#000000">0..*</text>
<rect x="2798.0" y="1436.0" width="42.0" height="16" fill="#ffffff" opacity="0.9" rx="2"/>
<text x="2819.0" y="1448.0" font-family="WenQuanYi Zen Hei, Microsoft YaHei, SimSun, sans-serif" font-size="11" text-anchor="middle" fill="#000000">0..1</text>
<rect x="3167.0" y="1436.0" width="42.0" height="16" fill="#ffffff" opacity="0.9" rx="2"/>
<text x="3188.0" y="1448.0" font-family="WenQuanYi Zen Hei, Microsoft YaHei, SimSun, sans-serif" font-size="11" text-anchor="middle" fill="#000000">0..*</text>
<rect x="2841.8" y="2810.0" width="42.0" height="16" fill="#ffffff" opacity="0.9" rx="2"/>
<text x="2862.8" y="2822.0" font-family="WenQuanYi Zen Hei, Microsoft YaHei, SimSun, sans-serif" font-size="11" text-anchor="middle" fill="#000000">0..*</text>
<rect x="3407.0" y="1714.1" width="42.0" height="16" fill="#ffffff" opacity="0.9" rx="2"/>
<text x="3428.0" y="1726.1" font-family="WenQuanYi Zen Hei, Microsoft YaHei, SimSun, sans-serif" font-size="11" text-anchor="middle" fill="#000000">0..*</text>
<rect x="3407.0" y="2329.2" width="42.0" height="16" fill="#ffffff" opacity="0.9" rx="2"/>
<text x="3428.0" y="2341.2" font-family="WenQuanYi Zen Hei, Microsoft YaHei, SimSun, sans-serif" font-size="11" text-anchor="middle" fill="#000000">0..*</text>
<rect x="3407.0" y="2980.1" width="42.0" height="16" fill="#ffffff" opacity="0.9" rx="2"/>
<text x="3428.0" y="2992.1" font-family="WenQuanYi Zen Hei, Microsoft YaHei, SimSun, sans-serif" font-size="11" text-anchor="middle" fill="#000000">0..*</text>
<rect x="622.2" y="1578.0" width="15.0" height="16" fill="#ffffff" opacity="0.9" rx="2"/>
<text x="629.7" y="1590.0" font-family="WenQuanYi Zen Hei, Microsoft YaHei, SimSun, sans-serif" font-size="11" text-anchor="middle" fill="#000000">1</text>
<rect x="3780.8" y="720.0" width="42.0" height="16" fill="#ffffff" opacity="0.9" rx="2"/>
<text x="3801.8" y="732.0" font-family="WenQuanYi Zen Hei, Microsoft YaHei, SimSun, sans-serif" font-size="11" text-anchor="middle" fill="#000000">0..*</text>
<rect x="592.1" y="1578.0" width="15.0" height="16" fill="#ffffff" opacity="0.9" rx="2"/>
<text x="599.6" y="1590.0" font-family="WenQuanYi Zen Hei, Microsoft YaHei, SimSun, sans-serif" font-size="11" text-anchor="middle" fill="#000000">1</text>
<rect x="3393.0" y="1044.3" width="42.0" height="16" fill="#ffffff" opacity="0.9" rx="2"/>
<text x="3414.0" y="1056.3" font-family="WenQuanYi Zen Hei, Microsoft YaHei, SimSun, sans-serif" font-size="11" text-anchor="middle" fill="#000000">0..*</text>
</svg>