<svg xmlns="http://www.w3.org/2000/svg" width="1540" height="1400" viewBox="0 0 1540 1400" font-family="WenQuanYi Zen Hei, Microsoft YaHei, SimSun, sans-serif">
<rect width="1540" height="1400" fill="#ffffff"/>
<rect x="70.0" y="55.0" width="250.0" height="152.0" rx="3" fill="#ffffff" stroke="#6c8ebf" stroke-width="1.3"/><path d="M70.0 95.0 L70.0 58.0 Q70.0 55.0 73.0 55.0 L317.0 55.0 Q320.0 55.0 320.0 58.0 L320.0 95.0 Z" fill="#dae8fc" stroke="#6c8ebf" stroke-width="1.3"/><text x="195.0" y="72.0" font-family="WenQuanYi Zen Hei, Microsoft YaHei, SimSun, sans-serif" font-size="11" text-anchor="middle" font-style="italic" fill="#1f2328">«entity»</text><text x="195.0" y="88.0" font-family="WenQuanYi Zen Hei, Microsoft YaHei, SimSun, sans-serif" font-size="13" text-anchor="middle" font-weight="bold" fill="#1f2328">Draft 草稿</text>
<text x="76.0" y="110.0" font-family="WenQuanYi Zen Hei, Microsoft YaHei, SimSun, sans-serif" font-size="12" text-anchor="start" fill="#1f2328">+ id: str {PK}</text>
<text x="76.0" y="130.0" font-family="WenQuanYi Zen Hei, Microsoft YaHei, SimSun, sans-serif" font-size="12" text-anchor="start" fill="#1f2328">+ owner_sid: str {FK}</text>
<text x="76.0" y="150.0" font-family="WenQuanYi Zen Hei, Microsoft YaHei, SimSun, sans-serif" font-size="12" text-anchor="start" fill="#1f2328">+ title / content / category</text>
<line x1="70.0" y1="159.0" x2="320.0" y2="159.0" stroke="#6c8ebf" stroke-width="1"/>
<text x="76.0" y="178.0" font-family="WenQuanYi Zen Hei, Microsoft YaHei, SimSun, sans-serif" font-size="12" text-anchor="start" fill="#1f2328">+ autosave()</text>
<text x="76.0" y="198.0" font-family="WenQuanYi Zen Hei, Microsoft YaHei, SimSun, sans-serif" font-size="12" text-anchor="start" fill="#1f2328">+ publish(): Note</text>
<rect x="500.0" y="55.0" width="235.0" height="172.0" rx="3" fill="#ffffff" stroke="#d6b656" stroke-width="1.3"/><path d="M500.0 95.0 L500.0 58.0 Q500.0 55.0 503.0 55.0 L732.0 55.0 Q735.0 55.0 735.0 58.0 L735.0 95.0 Z" fill="#fff2cc" stroke="#d6b656" stroke-width="1.3"/><text x="617.5" y="72.0" font-family="WenQuanYi Zen Hei, Microsoft YaHei, SimSun, sans-serif" font-size="11" text-anchor="middle" font-style="italic" fill="#1f2328">«entity»</text><text x="617.5" y="88.0" font-family="WenQuanYi Zen Hei, Microsoft YaHei, SimSun, sans-serif" font-size="13" text-anchor="middle" font-weight="bold" fill="#1f2328">Collection 合集</text>
<text x="506.0" y="110.0" font-family="WenQuanYi Zen Hei, Microsoft YaHei, SimSun, sans-serif" font-size="12" text-anchor="start" fill="#1f2328">+ id: str {PK}</text>
<text x="506.0" y="130.0" font-family="WenQuanYi Zen Hei, Microsoft YaHei, SimSun, sans-serif" font-size="12" text-anchor="start" fill="#1f2328">+ owner_sid: str {FK}</text>
<text x="506.0" y="150.0" font-family="WenQuanYi Zen Hei, Microsoft YaHei, SimSun, sans-serif" font-size="12" text-anchor="start" fill="#1f2328">+ title / description</text>
<line x1="500.0" y1="159.0" x2="735.0" y2="159.0" stroke="#d6b656" stroke-width="1"/>
<text x="506.0" y="178.0" font-family="WenQuanYi Zen Hei, Microsoft YaHei, SimSun, sans-serif" font-size="12" text-anchor="start" fill="#1f2328">+ addEntry(note)</text>
<text x="506.0" y="198.0" font-family="WenQuanYi Zen Hei, Microsoft YaHei, SimSun, sans-serif" font-size="12" text-anchor="start" fill="#1f2328">+ removeEntry(note)</text>
<text x="506.0" y="218.0" font-family="WenQuanYi Zen Hei, Microsoft YaHei, SimSun, sans-serif" font-size="12" text-anchor="start" fill="#1f2328">+ reorder()</text>
<rect x="835.0" y="55.0" width="255.0" height="132.0" rx="3" fill="#ffffff" stroke="#d6b656" stroke-width="1.3"/><path d="M835.0 95.0 L835.0 58.0 Q835.0 55.0 838.0 55.0 L1087.0 55.0 Q1090.0 55.0 1090.0 58.0 L1090.0 95.0 Z" fill="#fff2cc" stroke="#d6b656" stroke-width="1.3"/><text x="962.5" y="72.0" font-family="WenQuanYi Zen Hei, Microsoft YaHei, SimSun, sans-serif" font-size="11" text-anchor="middle" font-style="italic" fill="#1f2328">«entity»</text><text x="962.5" y="88.0" font-family="WenQuanYi Zen Hei, Microsoft YaHei, SimSun, sans-serif" font-size="13" text-anchor="middle" font-weight="bold" fill="#1f2328">CollectionEntry 合集条目</text>
<text x="841.0" y="110.0" font-family="WenQuanYi Zen Hei, Microsoft YaHei, SimSun, sans-serif" font-size="12" text-anchor="start" fill="#1f2328">+ collection_id: str {PK,FK}</text>
<text x="841.0" y="130.0" font-family="WenQuanYi Zen Hei, Microsoft YaHei, SimSun, sans-serif" font-size="12" text-anchor="start" fill="#1f2328">+ note_id: str {PK,FK,U}</text>
<text x="841.0" y="150.0" font-family="WenQuanYi Zen Hei, Microsoft YaHei, SimSun, sans-serif" font-size="12" text-anchor="start" fill="#1f2328">+ sort_order: int</text>
<line x1="835.0" y1="159.0" x2="1090.0" y2="159.0" stroke="#d6b656" stroke-width="1"/>
<text x="841.0" y="178.0" font-family="WenQuanYi Zen Hei, Microsoft YaHei, SimSun, sans-serif" font-size="12" text-anchor="start" fill="#1f2328">+ moveTo(order)</text>
<rect x="1205.0" y="45.0" width="265.0" height="212.0" rx="3" fill="#ffffff" stroke="#8a94a6" stroke-width="1.3"/><path d="M1205.0 85.0 L1205.0 48.0 Q1205.0 45.0 1208.0 45.0 L1467.0 45.0 Q1470.0 45.0 1470.0 48.0 L1470.0 85.0 Z" fill="#f2f4f7" stroke="#8a94a6" stroke-width="1.3"/><text x="1337.5" y="62.0" font-family="WenQuanYi Zen Hei, Microsoft YaHei, SimSun, sans-serif" font-size="11" text-anchor="middle" font-style="italic" fill="#1f2328">«规划·entity»</text><text x="1337.5" y="78.0" font-family="WenQuanYi Zen Hei, Microsoft YaHei, SimSun, sans-serif" font-size="13" text-anchor="middle" font-weight="bold" fill="#1f2328">Report 举报工单</text>
<text x="1211.0" y="100.0" font-family="WenQuanYi Zen Hei, Microsoft YaHei, SimSun, sans-serif" font-size="12" text-anchor="start" fill="#1f2328">+ id: str {PK}</text>
<text x="1211.0" y="120.0" font-family="WenQuanYi Zen Hei, Microsoft YaHei, SimSun, sans-serif" font-size="12" text-anchor="start" fill="#1f2328">+ reporter_sid: str {FK}</text>
<text x="1211.0" y="140.0" font-family="WenQuanYi Zen Hei, Microsoft YaHei, SimSun, sans-serif" font-size="12" text-anchor="start" fill="#1f2328">+ target_type: str</text>
<text x="1211.0" y="160.0" font-family="WenQuanYi Zen Hei, Microsoft YaHei, SimSun, sans-serif" font-size="12" text-anchor="start" fill="#1f2328">+ reason / status: str</text>
<text x="1211.0" y="180.0" font-family="WenQuanYi Zen Hei, Microsoft YaHei, SimSun, sans-serif" font-size="12" text-anchor="start" fill="#1f2328">+ ai_label / ai_confidence</text>
<line x1="1205.0" y1="189.0" x2="1470.0" y2="189.0" stroke="#8a94a6" stroke-width="1"/>
<text x="1211.0" y="208.0" font-family="WenQuanYi Zen Hei, Microsoft YaHei, SimSun, sans-serif" font-size="12" text-anchor="start" fill="#1f2328">+ submit()</text>
<text x="1211.0" y="228.0" font-family="WenQuanYi Zen Hei, Microsoft YaHei, SimSun, sans-serif" font-size="12" text-anchor="start" fill="#1f2328">+ aiClassify()</text>
<text x="1211.0" y="248.0" font-family="WenQuanYi Zen Hei, Microsoft YaHei, SimSun, sans-serif" font-size="12" text-anchor="start" fill="#1f2328">+ resolve(action)</text>
<rect x="1205.0" y="305.0" width="235.0" height="132.0" rx="3" fill="#ffffff" stroke="#8a94a6" stroke-width="1.3"/><path d="M1205.0 345.0 L1205.0 308.0 Q1205.0 305.0 1208.0 305.0 L1437.0 305.0 Q1440.0 305.0 1440.0 308.0 L1440.0 345.0 Z" fill="#f2f4f7" stroke="#8a94a6" stroke-width="1.3"/><text x="1322.5" y="322.0" font-family="WenQuanYi Zen Hei, Microsoft YaHei, SimSun, sans-serif" font-size="11" text-anchor="middle" font-style="italic" fill="#1f2328">«规划·entity»</text><text x="1322.5" y="338.0" font-family="WenQuanYi Zen Hei, Microsoft YaHei, SimSun, sans-serif" font-size="13" text-anchor="middle" font-weight="bold" fill="#1f2328">Block 拉黑</text>
<text x="1211.0" y="360.0" font-family="WenQuanYi Zen Hei, Microsoft YaHei, SimSun, sans-serif" font-size="12" text-anchor="start" fill="#1f2328">+ blocker_sid: str {PK,FK}</text>
<text x="1211.0" y="380.0" font-family="WenQuanYi Zen Hei, Microsoft YaHei, SimSun, sans-serif" font-size="12" text-anchor="start" fill="#1f2328">+ blocked_sid: str {PK,FK}</text>
<line x1="1205.0" y1="389.0" x2="1440.0" y2="389.0" stroke="#8a94a6" stroke-width="1"/>
<text x="1211.0" y="408.0" font-family="WenQuanYi Zen Hei, Microsoft YaHei, SimSun, sans-serif" font-size="12" text-anchor="start" fill="#1f2328">+ block()</text>
<text x="1211.0" y="428.0" font-family="WenQuanYi Zen Hei, Microsoft YaHei, SimSun, sans-serif" font-size="12" text-anchor="start" fill="#1f2328">+ unblock()</text>
<rect x="70.0" y="560.0" width="250.0" height="172.0" rx="3" fill="#ffffff" stroke="#6c8ebf" stroke-width="1.3"/><path d="M70.0 600.0 L70.0 563.0 Q70.0 560.0 73.0 560.0 L317.0 560.0 Q320.0 560.0 320.0 563.0 L320.0 600.0 Z" fill="#c7dbf5" stroke="#6c8ebf" stroke-width="1.3"/><text x="195.0" y="577.0" font-family="WenQuanYi Zen Hei, Microsoft YaHei, SimSun, sans-serif" font-size="11" text-anchor="middle" font-style="italic" fill="#1f2328">«entity»</text><text x="195.0" y="593.0" font-family="WenQuanYi Zen Hei, Microsoft YaHei, SimSun, sans-serif" font-size="13" text-anchor="middle" font-weight="bold" fill="#1f2328">User 用户</text>
<text x="76.0" y="615.0" font-family="WenQuanYi Zen Hei, Microsoft YaHei, SimSun, sans-serif" font-size="12" text-anchor="start" fill="#1f2328">+ sid: str {PK}</text>
<text x="76.0" y="635.0" font-family="WenQuanYi Zen Hei, Microsoft YaHei, SimSun, sans-serif" font-size="12" text-anchor="start" fill="#1f2328">+ nickname / preferred_name</text>
<text x="76.0" y="655.0" font-family="WenQuanYi Zen Hei, Microsoft YaHei, SimSun, sans-serif" font-size="12" text-anchor="start" fill="#1f2328">+ role / exp / level</text>
<line x1="70.0" y1="664.0" x2="320.0" y2="664.0" stroke="#6c8ebf" stroke-width="1"/>
<text x="76.0" y="683.0" font-family="WenQuanYi Zen Hei, Microsoft YaHei, SimSun, sans-serif" font-size="12" text-anchor="start" fill="#1f2328">+ checkIn()</text>
<text x="76.0" y="703.0" font-family="WenQuanYi Zen Hei, Microsoft YaHei, SimSun, sans-serif" font-size="12" text-anchor="start" fill="#1f2328">+ gainExp(delta)</text>
<text x="76.0" y="723.0" font-family="WenQuanYi Zen Hei, Microsoft YaHei, SimSun, sans-serif" font-size="12" text-anchor="start" fill="#1f2328">+ promote(role)</text>
<rect x="500.0" y="540.0" width="255.0" height="212.0" rx="3" fill="#ffffff" stroke="#6c8ebf" stroke-width="1.3"/><path d="M500.0 580.0 L500.0 543.0 Q500.0 540.0 503.0 540.0 L752.0 540.0 Q755.0 540.0 755.0 543.0 L755.0 580.0 Z" fill="#c7dbf5" stroke="#6c8ebf" stroke-width="1.3"/><text x="627.5" y="557.0" font-family="WenQuanYi Zen Hei, Microsoft YaHei, SimSun, sans-serif" font-size="11" text-anchor="middle" font-style="italic" fill="#1f2328">«entity»</text><text x="627.5" y="573.0" font-family="WenQuanYi Zen Hei, Microsoft YaHei, SimSun, sans-serif" font-size="13" text-anchor="middle" font-weight="bold" fill="#1f2328">Note 笔记</text>
<text x="506.0" y="595.0" font-family="WenQuanYi Zen Hei, Microsoft YaHei, SimSun, sans-serif" font-size="12" text-anchor="start" fill="#1f2328">+ id: str {PK}</text>
<text x="506.0" y="615.0" font-family="WenQuanYi Zen Hei, Microsoft YaHei, SimSun, sans-serif" font-size="12" text-anchor="start" fill="#1f2328">+ author_sid: str {FK}</text>
<text x="506.0" y="635.0" font-family="WenQuanYi Zen Hei, Microsoft YaHei, SimSun, sans-serif" font-size="12" text-anchor="start" fill="#1f2328">+ title / summary / content</text>
<text x="506.0" y="655.0" font-family="WenQuanYi Zen Hei, Microsoft YaHei, SimSun, sans-serif" font-size="12" text-anchor="start" fill="#1f2328">+ category / tags</text>
<text x="506.0" y="675.0" font-family="WenQuanYi Zen Hei, Microsoft YaHei, SimSun, sans-serif" font-size="12" text-anchor="start" fill="#1f2328">+ status: str</text>
<line x1="500.0" y1="684.0" x2="755.0" y2="684.0" stroke="#6c8ebf" stroke-width="1"/>
<text x="506.0" y="703.0" font-family="WenQuanYi Zen Hei, Microsoft YaHei, SimSun, sans-serif" font-size="12" text-anchor="start" fill="#1f2328">+ publishFrom(draft)</text>
<text x="506.0" y="723.0" font-family="WenQuanYi Zen Hei, Microsoft YaHei, SimSun, sans-serif" font-size="12" text-anchor="start" fill="#1f2328">+ edit()</text>
<text x="506.0" y="743.0" font-family="WenQuanYi Zen Hei, Microsoft YaHei, SimSun, sans-serif" font-size="12" text-anchor="start" fill="#1f2328">+ softDelete()</text>
<rect x="885.0" y="510.0" width="270.0" height="232.0" rx="3" fill="#ffffff" stroke="#6c8ebf" stroke-width="1.3"/><path d="M885.0 550.0 L885.0 513.0 Q885.0 510.0 888.0 510.0 L1152.0 510.0 Q1155.0 510.0 1155.0 513.0 L1155.0 550.0 Z" fill="#dae8fc" stroke="#6c8ebf" stroke-width="1.3"/><text x="1020.0" y="527.0" font-family="WenQuanYi Zen Hei, Microsoft YaHei, SimSun, sans-serif" font-size="11" text-anchor="middle" font-style="italic" fill="#1f2328">«entity»</text><text x="1020.0" y="543.0" font-family="WenQuanYi Zen Hei, Microsoft YaHei, SimSun, sans-serif" font-size="13" text-anchor="middle" font-weight="bold" fill="#1f2328">Comment 评论</text>
<text x="891.0" y="565.0" font-family="WenQuanYi Zen Hei, Microsoft YaHei, SimSun, sans-serif" font-size="12" text-anchor="start" fill="#1f2328">+ id: str {PK}</text>
<text x="891.0" y="585.0" font-family="WenQuanYi Zen Hei, Microsoft YaHei, SimSun, sans-serif" font-size="12" text-anchor="start" fill="#1f2328">+ note_id: str {FK}</text>
<text x="891.0" y="605.0" font-family="WenQuanYi Zen Hei, Microsoft YaHei, SimSun, sans-serif" font-size="12" text-anchor="start" fill="#1f2328">+ parent_id: str {FK}</text>
<text x="891.0" y="625.0" font-family="WenQuanYi Zen Hei, Microsoft YaHei, SimSun, sans-serif" font-size="12" text-anchor="start" fill="#1f2328">+ reply_to_sid: str {FK}</text>
<text x="891.0" y="645.0" font-family="WenQuanYi Zen Hei, Microsoft YaHei, SimSun, sans-serif" font-size="12" text-anchor="start" fill="#1f2328">+ content / images</text>
<text x="891.0" y="665.0" font-family="WenQuanYi Zen Hei, Microsoft YaHei, SimSun, sans-serif" font-size="12" text-anchor="start" fill="#1f2328">+ anchor_text: str</text>
<line x1="885.0" y1="674.0" x2="1155.0" y2="674.0" stroke="#6c8ebf" stroke-width="1"/>
<text x="891.0" y="693.0" font-family="WenQuanYi Zen Hei, Microsoft YaHei, SimSun, sans-serif" font-size="12" text-anchor="start" fill="#1f2328">+ reply(parent)</text>
<text x="891.0" y="713.0" font-family="WenQuanYi Zen Hei, Microsoft YaHei, SimSun, sans-serif" font-size="12" text-anchor="start" fill="#1f2328">+ react(kind)</text>
<text x="891.0" y="733.0" font-family="WenQuanYi Zen Hei, Microsoft YaHei, SimSun, sans-serif" font-size="12" text-anchor="start" fill="#1f2328">+ delete()</text>
<rect x="1210.0" y="560.0" width="235.0" height="112.0" rx="3" fill="#ffffff" stroke="#9673a6" stroke-width="1.3"/><path d="M1210.0 600.0 L1210.0 563.0 Q1210.0 560.0 1213.0 560.0 L1442.0 560.0 Q1445.0 560.0 1445.0 563.0 L1445.0 600.0 Z" fill="#e1d5e7" stroke="#9673a6" stroke-width="1.3"/><text x="1327.5" y="577.0" font-family="WenQuanYi Zen Hei, Microsoft YaHei, SimSun, sans-serif" font-size="11" text-anchor="middle" font-style="italic" fill="#1f2328">«entity»</text><text x="1327.5" y="593.0" font-family="WenQuanYi Zen Hei, Microsoft YaHei, SimSun, sans-serif" font-size="13" text-anchor="middle" font-weight="bold" fill="#1f2328">CheckIn 签到</text>
<text x="1216.0" y="615.0" font-family="WenQuanYi Zen Hei, Microsoft YaHei, SimSun, sans-serif" font-size="12" text-anchor="start" fill="#1f2328">+ user_sid: str {PK,FK}</text>
<text x="1216.0" y="635.0" font-family="WenQuanYi Zen Hei, Microsoft YaHei, SimSun, sans-serif" font-size="12" text-anchor="start" fill="#1f2328">+ checkin_date: date {PK}</text>
<line x1="1210.0" y1="644.0" x2="1445.0" y2="644.0" stroke="#9673a6" stroke-width="1"/>
<text x="1216.0" y="663.0" font-family="WenQuanYi Zen Hei, Microsoft YaHei, SimSun, sans-serif" font-size="12" text-anchor="start" fill="#1f2328">+ create()</text>
<rect x="1210.0" y="765.0" width="255.0" height="132.0" rx="3" fill="#ffffff" stroke="#9673a6" stroke-width="1.3"/><path d="M1210.0 805.0 L1210.0 768.0 Q1210.0 765.0 1213.0 765.0 L1462.0 765.0 Q1465.0 765.0 1465.0 768.0 L1465.0 805.0 Z" fill="#e1d5e7" stroke="#9673a6" stroke-width="1.3"/><text x="1337.5" y="782.0" font-family="WenQuanYi Zen Hei, Microsoft YaHei, SimSun, sans-serif" font-size="11" text-anchor="middle" font-style="italic" fill="#1f2328">«entity»</text><text x="1337.5" y="798.0" font-family="WenQuanYi Zen Hei, Microsoft YaHei, SimSun, sans-serif" font-size="13" text-anchor="middle" font-weight="bold" fill="#1f2328">XpEvent 经验流水</text>
<text x="1216.0" y="820.0" font-family="WenQuanYi Zen Hei, Microsoft YaHei, SimSun, sans-serif" font-size="12" text-anchor="start" fill="#1f2328">+ id: int {PK}</text>
<text x="1216.0" y="840.0" font-family="WenQuanYi Zen Hei, Microsoft YaHei, SimSun, sans-serif" font-size="12" text-anchor="start" fill="#1f2328">+ user_sid: str {FK}</text>
<text x="1216.0" y="860.0" font-family="WenQuanYi Zen Hei, Microsoft YaHei, SimSun, sans-serif" font-size="12" text-anchor="start" fill="#1f2328">+ source_type / delta</text>
<line x1="1210.0" y1="869.0" x2="1465.0" y2="869.0" stroke="#9673a6" stroke-width="1"/>
<text x="1216.0" y="888.0" font-family="WenQuanYi Zen Hei, Microsoft YaHei, SimSun, sans-serif" font-size="12" text-anchor="start" fill="#1f2328">+ record()</text>
<rect x="1210.0" y="1010.0" width="235.0" height="132.0" rx="3" fill="#ffffff" stroke="#8a94a6" stroke-width="1.3"/><path d="M1210.0 1050.0 L1210.0 1013.0 Q1210.0 1010.0 1213.0 1010.0 L1442.0 1010.0 Q1445.0 1010.0 1445.0 1013.0 L1445.0 1050.0 Z" fill="#f2f4f7" stroke="#8a94a6" stroke-width="1.3"/><text x="1327.5" y="1027.0" font-family="WenQuanYi Zen Hei, Microsoft YaHei, SimSun, sans-serif" font-size="11" text-anchor="middle" font-style="italic" fill="#1f2328">«entity»</text><text x="1327.5" y="1043.0" font-family="WenQuanYi Zen Hei, Microsoft YaHei, SimSun, sans-serif" font-size="13" text-anchor="middle" font-weight="bold" fill="#1f2328">LoginEvent 登录事件</text>
<text x="1216.0" y="1065.0" font-family="WenQuanYi Zen Hei, Microsoft YaHei, SimSun, sans-serif" font-size="12" text-anchor="start" fill="#1f2328">+ id: int {PK}</text>
<text x="1216.0" y="1085.0" font-family="WenQuanYi Zen Hei, Microsoft YaHei, SimSun, sans-serif" font-size="12" text-anchor="start" fill="#1f2328">+ user_sid: str {FK}</text>
<text x="1216.0" y="1105.0" font-family="WenQuanYi Zen Hei, Microsoft YaHei, SimSun, sans-serif" font-size="12" text-anchor="start" fill="#1f2328">+ ip / user_agent</text>
<line x1="1210.0" y1="1114.0" x2="1445.0" y2="1114.0" stroke="#8a94a6" stroke-width="1"/>
<text x="1216.0" y="1133.0" font-family="WenQuanYi Zen Hei, Microsoft YaHei, SimSun, sans-serif" font-size="12" text-anchor="start" fill="#1f2328">+ record()</text>
<rect x="70.0" y="995.0" width="220.0" height="112.0" rx="3" fill="#ffffff" stroke="#82b366" stroke-width="1.3"/><path d="M70.0 1035.0 L70.0 998.0 Q70.0 995.0 73.0 995.0 L287.0 995.0 Q290.0 995.0 290.0 998.0 L290.0 1035.0 Z" fill="#d5e8d4" stroke="#82b366" stroke-width="1.3"/><text x="180.0" y="1012.0" font-family="WenQuanYi Zen Hei, Microsoft YaHei, SimSun, sans-serif" font-size="11" text-anchor="middle" font-style="italic" fill="#1f2328">«entity»</text><text x="180.0" y="1028.0" font-family="WenQuanYi Zen Hei, Microsoft YaHei, SimSun, sans-serif" font-size="13" text-anchor="middle" font-weight="bold" fill="#1f2328">Like 点赞</text>
<text x="76.0" y="1050.0" font-family="WenQuanYi Zen Hei, Microsoft YaHei, SimSun, sans-serif" font-size="12" text-anchor="start" fill="#1f2328">+ note_id: str {PK,FK}</text>
<text x="76.0" y="1070.0" font-family="WenQuanYi Zen Hei, Microsoft YaHei, SimSun, sans-serif" font-size="12" text-anchor="start" fill="#1f2328">+ user_sid: str {PK,FK}</text>
<line x1="70.0" y1="1079.0" x2="290.0" y2="1079.0" stroke="#82b366" stroke-width="1"/>
<text x="76.0" y="1098.0" font-family="WenQuanYi Zen Hei, Microsoft YaHei, SimSun, sans-serif" font-size="12" text-anchor="start" fill="#1f2328">+ toggle()</text>
<rect x="330.0" y="995.0" width="235.0" height="112.0" rx="3" fill="#ffffff" stroke="#82b366" stroke-width="1.3"/><path d="M330.0 1035.0 L330.0 998.0 Q330.0 995.0 333.0 995.0 L562.0 995.0 Q565.0 995.0 565.0 998.0 L565.0 1035.0 Z" fill="#d5e8d4" stroke="#82b366" stroke-width="1.3"/><text x="447.5" y="1012.0" font-family="WenQuanYi Zen Hei, Microsoft YaHei, SimSun, sans-serif" font-size="11" text-anchor="middle" font-style="italic" fill="#1f2328">«entity»</text><text x="447.5" y="1028.0" font-family="WenQuanYi Zen Hei, Microsoft YaHei, SimSun, sans-serif" font-size="13" text-anchor="middle" font-weight="bold" fill="#1f2328">NoteDislike 点踩</text>
<text x="336.0" y="1050.0" font-family="WenQuanYi Zen Hei, Microsoft YaHei, SimSun, sans-serif" font-size="12" text-anchor="start" fill="#1f2328">+ note_id: str {PK,FK}</text>
<text x="336.0" y="1070.0" font-family="WenQuanYi Zen Hei, Microsoft YaHei, SimSun, sans-serif" font-size="12" text-anchor="start" fill="#1f2328">+ user_sid: str {PK,FK}</text>
<line x1="330.0" y1="1079.0" x2="565.0" y2="1079.0" stroke="#82b366" stroke-width="1"/>
<text x="336.0" y="1098.0" font-family="WenQuanYi Zen Hei, Microsoft YaHei, SimSun, sans-serif" font-size="12" text-anchor="start" fill="#1f2328">+ toggle()</text>
<rect x="610.0" y="995.0" width="220.0" height="112.0" rx="3" fill="#ffffff" stroke="#82b366" stroke-width="1.3"/><path d="M610.0 1035.0 L610.0 998.0 Q610.0 995.0 613.0 995.0 L827.0 995.0 Q830.0 995.0 830.0 998.0 L830.0 1035.0 Z" fill="#d5e8d4" stroke="#82b366" stroke-width="1.3"/><text x="720.0" y="1012.0" font-family="WenQuanYi Zen Hei, Microsoft YaHei, SimSun, sans-serif" font-size="11" text-anchor="middle" font-style="italic" fill="#1f2328">«entity»</text><text x="720.0" y="1028.0" font-family="WenQuanYi Zen Hei, Microsoft YaHei, SimSun, sans-serif" font-size="13" text-anchor="middle" font-weight="bold" fill="#1f2328">Favorite 收藏</text>
<text x="616.0" y="1050.0" font-family="WenQuanYi Zen Hei, Microsoft YaHei, SimSun, sans-serif" font-size="12" text-anchor="start" fill="#1f2328">+ note_id: str {PK,FK}</text>
<text x="616.0" y="1070.0" font-family="WenQuanYi Zen Hei, Microsoft YaHei, SimSun, sans-serif" font-size="12" text-anchor="start" fill="#1f2328">+ user_sid: str {PK,FK}</text>
<line x1="610.0" y1="1079.0" x2="830.0" y2="1079.0" stroke="#82b366" stroke-width="1"/>
<text x="616.0" y="1098.0" font-family="WenQuanYi Zen Hei, Microsoft YaHei, SimSun, sans-serif" font-size="12" text-anchor="start" fill="#1f2328">+ toggle()</text>
<rect x="885.0" y="995.0" width="265.0" height="132.0" rx="3" fill="#ffffff" stroke="#82b366" stroke-width="1.3"/><path d="M885.0 1035.0 L885.0 998.0 Q885.0 995.0 888.0 995.0 L1147.0 995.0 Q1150.0 995.0 1150.0 998.0 L1150.0 1035.0 Z" fill="#d5e8d4" stroke="#82b366" stroke-width="1.3"/><text x="1017.5" y="1012.0" font-family="WenQuanYi Zen Hei, Microsoft YaHei, SimSun, sans-serif" font-size="11" text-anchor="middle" font-style="italic" fill="#1f2328">«entity»</text><text x="1017.5" y="1028.0" font-family="WenQuanYi Zen Hei, Microsoft YaHei, SimSun, sans-serif" font-size="13" text-anchor="middle" font-weight="bold" fill="#1f2328">CommentReaction 评论表态</text>
<text x="891.0" y="1050.0" font-family="WenQuanYi Zen Hei, Microsoft YaHei, SimSun, sans-serif" font-size="12" text-anchor="start" fill="#1f2328">+ comment_id: str {PK,FK}</text>
<text x="891.0" y="1070.0" font-family="WenQuanYi Zen Hei, Microsoft YaHei, SimSun, sans-serif" font-size="12" text-anchor="start" fill="#1f2328">+ user_sid: str {PK,FK}</text>
<text x="891.0" y="1090.0" font-family="WenQuanYi Zen Hei, Microsoft YaHei, SimSun, sans-serif" font-size="12" text-anchor="start" fill="#1f2328">+ kind: str</text>
<line x1="885.0" y1="1099.0" x2="1150.0" y2="1099.0" stroke="#82b366" stroke-width="1"/>
<text x="891.0" y="1118.0" font-family="WenQuanYi Zen Hei, Microsoft YaHei, SimSun, sans-serif" font-size="12" text-anchor="start" fill="#1f2328">+ toggle(kind)</text>
<path d="M195.0 560.0 L195.0 207.0" fill="none" stroke="#5b6b7b" stroke-width="1.3"/><rect x="177.4" y="375.0" width="35.3" height="17.0" fill="#ffffff" opacity="0.85" rx="3"/><text x="195.0" y="387.0" font-family="WenQuanYi Zen Hei, Microsoft YaHei, SimSun, sans-serif" font-size="11" text-anchor="middle" fill="#57606a">拥有</text>
<path d="M320.0 646.0 L500.0 646.0" fill="none" stroke="#5b6b7b" stroke-width="1.3"/><rect x="392.4" y="637.5" width="35.3" height="17.0" fill="#ffffff" opacity="0.85" rx="3"/><text x="410.0" y="649.5" font-family="WenQuanYi Zen Hei, Microsoft YaHei, SimSun, sans-serif" font-size="11" text-anchor="middle" fill="#57606a">发布</text>
<path d="M755.0 639.5 L885.0 632.9" fill="none" stroke="#5b6b7b" stroke-width="1.3"/><rect x="802.4" y="627.7" width="35.3" height="17.0" fill="#ffffff" opacity="0.85" rx="3"/><text x="820.0" y="639.7" font-family="WenQuanYi Zen Hei, Microsoft YaHei, SimSun, sans-serif" font-size="11" text-anchor="middle" fill="#57606a">包含</text>
<path d="M267.0 560.0 L545.5 227.0" fill="none" stroke="#5b6b7b" stroke-width="1.3"/><rect x="388.6" y="385.0" width="35.3" height="17.0" fill="#ffffff" opacity="0.85" rx="3"/><text x="406.2" y="397.0" font-family="WenQuanYi Zen Hei, Microsoft YaHei, SimSun, sans-serif" font-size="11" text-anchor="middle" fill="#57606a">创建</text>
<path d="M191.8 732.0 L182.1 995.0" fill="none" stroke="#5b6b7b" stroke-width="1.3"/>
<path d="M241.9 995.0 L510.4 752.0" fill="none" stroke="#5b6b7b" stroke-width="1.3"/><rect x="358.5" y="865.0" width="35.3" height="17.0" fill="#ffffff" opacity="0.85" rx="3"/><text x="376.1" y="877.0" font-family="WenQuanYi Zen Hei, Microsoft YaHei, SimSun, sans-serif" font-size="11" text-anchor="middle" fill="#57606a">点赞</text>
<path d="M248.6 732.0 L412.6 995.0" fill="none" stroke="#5b6b7b" stroke-width="1.3"/>
<path d="M472.4 995.0 L580.4 752.0" fill="none" stroke="#5b6b7b" stroke-width="1.3"/><rect x="508.7" y="865.0" width="35.3" height="17.0" fill="#ffffff" opacity="0.85" rx="3"/><text x="526.4" y="877.0" font-family="WenQuanYi Zen Hei, Microsoft YaHei, SimSun, sans-serif" font-size="11" text-anchor="middle" fill="#57606a">点踩</text>
<path d="M306.5 732.0 L647.4 995.0" fill="none" stroke="#5b6b7b" stroke-width="1.3"/>
<path d="M707.2 995.0 L651.7 752.0" fill="none" stroke="#5b6b7b" stroke-width="1.3"/><rect x="661.8" y="865.0" width="35.3" height="17.0" fill="#ffffff" opacity="0.85" rx="3"/><text x="679.5" y="877.0" font-family="WenQuanYi Zen Hei, Microsoft YaHei, SimSun, sans-serif" font-size="11" text-anchor="middle" fill="#57606a">收藏</text>
<path d="M735.0 134.2 L835.0 128.4" fill="none" stroke="#5b6b7b" stroke-width="1.3"/><rect x="767.4" y="122.8" width="35.3" height="17.0" fill="#ffffff" opacity="0.85" rx="3"/><text x="785.0" y="134.8" font-family="WenQuanYi Zen Hei, Microsoft YaHei, SimSun, sans-serif" font-size="11" text-anchor="middle" fill="#57606a">包含</text>
<path d="M920.4 187.0 L695.1 540.0" fill="none" stroke="#5b6b7b" stroke-width="1.3"/><rect x="790.1" y="355.0" width="35.3" height="17.0" fill="#ffffff" opacity="0.85" rx="3"/><text x="807.8" y="367.0" font-family="WenQuanYi Zen Hei, Microsoft YaHei, SimSun, sans-serif" font-size="11" text-anchor="middle" fill="#57606a">收录</text>
<path d="M1017.9 995.0 L1019.3 742.0" fill="none" stroke="#5b6b7b" stroke-width="1.3"/><rect x="1001.0" y="860.0" width="35.3" height="17.0" fill="#ffffff" opacity="0.85" rx="3"/><text x="1018.6" y="872.0" font-family="WenQuanYi Zen Hei, Microsoft YaHei, SimSun, sans-serif" font-size="11" text-anchor="middle" fill="#57606a">表态</text>
<path d="M200.3 560.0 L205.0 484.0 L1010.0 484.0 L1011.8 510.0" fill="none" stroke="#5b6b7b" stroke-width="1.3"/><rect x="564.8" y="475.5" width="35.3" height="17.0" fill="#ffffff" opacity="0.85" rx="3"/><text x="582.5" y="487.5" font-family="WenQuanYi Zen Hei, Microsoft YaHei, SimSun, sans-serif" font-size="11" text-anchor="middle" fill="#57606a">发表</text>
<path d="M1039.9 510.0 L1033.0 466.0 L1163.0 466.0 L1134.1 510.0" fill="none" stroke="#5b6b7b" stroke-width="1.3"/><rect x="1040.1" y="457.5" width="123.9" height="17.0" fill="#ffffff" opacity="0.85" rx="3"/><text x="1102.0" y="469.5" font-family="WenQuanYi Zen Hei, Microsoft YaHei, SimSun, sans-serif" font-size="11" text-anchor="middle" fill="#57606a">父 / 回复(楼中楼)</text>
<path d="M230.6 732.0 L300.0 900.0 L1000.0 900.0 L1010.3 995.0" fill="none" stroke="#5b6b7b" stroke-width="1.3"/><rect x="575.6" y="891.5" width="62.6" height="17.0" fill="#ffffff" opacity="0.85" rx="3"/><text x="606.9" y="903.5" font-family="WenQuanYi Zen Hei, Microsoft YaHei, SimSun, sans-serif" font-size="11" text-anchor="middle" fill="#57606a">评论表态</text>
<path d="M263.3 732.0 L322.0 806.0 L1178.0 806.0 L1178.0 606.0 L1210.0 608.1" fill="none" stroke="#5b6b7b" stroke-width="1.3"/><rect x="801.2" y="797.5" width="35.3" height="17.0" fill="#ffffff" opacity="0.85" rx="3"/><text x="818.8" y="809.5" font-family="WenQuanYi Zen Hei, Microsoft YaHei, SimSun, sans-serif" font-size="11" text-anchor="middle" fill="#57606a">签到</text>
<path d="M256.4 732.0 L322.0 824.0 L1186.0 824.0 L1210.0 825.1" fill="none" stroke="#5b6b7b" stroke-width="1.3"/><rect x="691.9" y="815.5" width="35.3" height="17.0" fill="#ffffff" opacity="0.85" rx="3"/><text x="709.5" y="827.5" font-family="WenQuanYi Zen Hei, Microsoft YaHei, SimSun, sans-serif" font-size="11" text-anchor="middle" fill="#57606a">经验</text>
<path d="M250.7 732.0 L322.0 842.0 L1194.0 842.0 L1194.0 1052.0 L1210.0 1054.9" fill="none" stroke="#5b6b7b" stroke-width="1.3"/><rect x="788.0" y="833.5" width="35.3" height="17.0" fill="#ffffff" opacity="0.85" rx="3"/><text x="805.6" y="845.5" font-family="WenQuanYi Zen Hei, Microsoft YaHei, SimSun, sans-serif" font-size="11" text-anchor="middle" fill="#57606a">登录</text>
<path d="M222.4 560.0 L255.0 458.0 L1495.0 458.0 L1344.8 253.0" fill="none" stroke="#8a94a6" stroke-width="1.3" stroke-dasharray="6 4"/><rect x="910.4" y="449.5" width="76.2" height="17.0" fill="#ffffff" opacity="0.85" rx="3"/><text x="948.5" y="461.5" font-family="WenQuanYi Zen Hei, Microsoft YaHei, SimSun, sans-serif" font-size="11" text-anchor="middle" fill="#57606a">举报(规划)</text>
<path d="M211.7 560.0 L235.0 440.0 L1170.0 440.0 L1170.0 372.0 L1205.0 371.8" fill="none" stroke="#8a94a6" stroke-width="1.3" stroke-dasharray="6 4"/><rect x="654.8" y="431.5" width="76.2" height="17.0" fill="#ffffff" opacity="0.85" rx="3"/><text x="692.9" y="443.5" font-family="WenQuanYi Zen Hei, Microsoft YaHei, SimSun, sans-serif" font-size="11" text-anchor="middle" fill="#57606a">拉黑(规划)</text>
<rect x="187.5" y="496.3" width="15.0" height="16" fill="#ffffff" opacity="0.9" rx="2"/>
<text x="195.0" y="508.3" font-family="WenQuanYi Zen Hei, Microsoft YaHei, SimSun, sans-serif" font-size="11" text-anchor="middle" fill="#57606a">1</text>
<rect x="174.0" y="224.5" width="42.0" height="16" fill="#ffffff" opacity="0.9" rx="2"/>
<text x="195.0" y="236.5" font-family="WenQuanYi Zen Hei, Microsoft YaHei, SimSun, sans-serif" font-size="11" text-anchor="middle" fill="#57606a">0..*</text>
<rect x="340.4" y="637.0" width="15.0" height="16" fill="#ffffff" opacity="0.9" rx="2"/>
<text x="347.9" y="649.0" font-family="WenQuanYi Zen Hei, Microsoft YaHei, SimSun, sans-serif" font-size="11" text-anchor="middle" fill="#57606a">1</text>
<rect x="465.5" y="637.0" width="42.0" height="16" fill="#ffffff" opacity="0.9" rx="2"/>
<text x="486.5" y="649.0" font-family="WenQuanYi Zen Hei, Microsoft YaHei, SimSun, sans-serif" font-size="11" text-anchor="middle" fill="#57606a">0..*</text>
<rect x="767.6" y="629.5" width="15.0" height="16" fill="#ffffff" opacity="0.9" rx="2"/>
<text x="775.1" y="641.5" font-family="WenQuanYi Zen Hei, Microsoft YaHei, SimSun, sans-serif" font-size="11" text-anchor="middle" fill="#57606a">1</text>
<rect x="854.2" y="624.4" width="42.0" height="16" fill="#ffffff" opacity="0.9" rx="2"/>
<text x="875.2" y="636.4" font-family="WenQuanYi Zen Hei, Microsoft YaHei, SimSun, sans-serif" font-size="11" text-anchor="middle" fill="#57606a">0..*</text>
<rect x="302.6" y="499.4" width="15.0" height="16" fill="#ffffff" opacity="0.9" rx="2"/>
<text x="310.1" y="511.4" font-family="WenQuanYi Zen Hei, Microsoft YaHei, SimSun, sans-serif" font-size="11" text-anchor="middle" fill="#57606a">1</text>
<rect x="503.7" y="243.0" width="42.0" height="16" fill="#ffffff" opacity="0.9" rx="2"/>
<text x="524.7" y="255.0" font-family="WenQuanYi Zen Hei, Microsoft YaHei, SimSun, sans-serif" font-size="11" text-anchor="middle" fill="#57606a">0..*</text>
<rect x="161.8" y="966.3" width="42.0" height="16" fill="#ffffff" opacity="0.9" rx="2"/>
<text x="182.8" y="978.3" font-family="WenQuanYi Zen Hei, Microsoft YaHei, SimSun, sans-serif" font-size="11" text-anchor="middle" fill="#57606a">0..*</text>
<rect x="262.5" y="948.3" width="42.0" height="16" fill="#ffffff" opacity="0.9" rx="2"/>
<text x="283.5" y="960.3" font-family="WenQuanYi Zen Hei, Microsoft YaHei, SimSun, sans-serif" font-size="11" text-anchor="middle" fill="#57606a">0..*</text>
<rect x="482.7" y="761.2" width="15.0" height="16" fill="#ffffff" opacity="0.9" rx="2"/>
<text x="490.2" y="773.2" font-family="WenQuanYi Zen Hei, Microsoft YaHei, SimSun, sans-serif" font-size="11" text-anchor="middle" fill="#57606a">1</text>
<rect x="379.3" y="966.3" width="42.0" height="16" fill="#ffffff" opacity="0.9" rx="2"/>
<text x="400.3" y="978.3" font-family="WenQuanYi Zen Hei, Microsoft YaHei, SimSun, sans-serif" font-size="11" text-anchor="middle" fill="#57606a">0..*</text>
<rect x="468.1" y="948.3" width="42.0" height="16" fill="#ffffff" opacity="0.9" rx="2"/>
<text x="489.1" y="960.3" font-family="WenQuanYi Zen Hei, Microsoft YaHei, SimSun, sans-serif" font-size="11" text-anchor="middle" fill="#57606a">0..*</text>
<rect x="564.8" y="761.2" width="15.0" height="16" fill="#ffffff" opacity="0.9" rx="2"/>
<text x="572.3" y="773.2" font-family="WenQuanYi Zen Hei, Microsoft YaHei, SimSun, sans-serif" font-size="11" text-anchor="middle" fill="#57606a">1</text>
<rect x="600.8" y="966.3" width="42.0" height="16" fill="#ffffff" opacity="0.9" rx="2"/>
<text x="621.8" y="978.3" font-family="WenQuanYi Zen Hei, Microsoft YaHei, SimSun, sans-serif" font-size="11" text-anchor="middle" fill="#57606a">0..*</text>
<rect x="677.6" y="948.3" width="42.0" height="16" fill="#ffffff" opacity="0.9" rx="2"/>
<text x="698.6" y="960.3" font-family="WenQuanYi Zen Hei, Microsoft YaHei, SimSun, sans-serif" font-size="11" text-anchor="middle" fill="#57606a">0..*</text>
<rect x="648.4" y="761.2" width="15.0" height="16" fill="#ffffff" opacity="0.9" rx="2"/>
<text x="655.9" y="773.2" font-family="WenQuanYi Zen Hei, Microsoft YaHei, SimSun, sans-serif" font-size="11" text-anchor="middle" fill="#57606a">1</text>
<rect x="743.0" y="124.3" width="15.0" height="16" fill="#ffffff" opacity="0.9" rx="2"/>
<text x="750.5" y="136.3" font-family="WenQuanYi Zen Hei, Microsoft YaHei, SimSun, sans-serif" font-size="11" text-anchor="middle" fill="#57606a">1</text>
<rect x="806.5" y="119.8" width="42.0" height="16" fill="#ffffff" opacity="0.9" rx="2"/>
<text x="827.5" y="131.8" font-family="WenQuanYi Zen Hei, Microsoft YaHei, SimSun, sans-serif" font-size="11" text-anchor="middle" fill="#57606a">0..*</text>
<rect x="864.5" y="232.7" width="42.0" height="16" fill="#ffffff" opacity="0.9" rx="2"/>
<text x="885.5" y="244.7" font-family="WenQuanYi Zen Hei, Microsoft YaHei, SimSun, sans-serif" font-size="11" text-anchor="middle" fill="#57606a">0..1</text>
<rect x="704.5" y="504.5" width="15.0" height="16" fill="#ffffff" opacity="0.9" rx="2"/>
<text x="712.0" y="516.5" font-family="WenQuanYi Zen Hei, Microsoft YaHei, SimSun, sans-serif" font-size="11" text-anchor="middle" fill="#57606a">1</text>
<rect x="997.1" y="946.8" width="42.0" height="16" fill="#ffffff" opacity="0.9" rx="2"/>
<text x="1018.1" y="958.8" font-family="WenQuanYi Zen Hei, Microsoft YaHei, SimSun, sans-serif" font-size="11" text-anchor="middle" fill="#57606a">0..*</text>
<rect x="1011.7" y="752.0" width="15.0" height="16" fill="#ffffff" opacity="0.9" rx="2"/>
<text x="1019.2" y="764.0" font-family="WenQuanYi Zen Hei, Microsoft YaHei, SimSun, sans-serif" font-size="11" text-anchor="middle" fill="#57606a">1</text>
<rect x="262.0" y="475.0" width="15.0" height="16" fill="#ffffff" opacity="0.9" rx="2"/>
<text x="269.5" y="487.0" font-family="WenQuanYi Zen Hei, Microsoft YaHei, SimSun, sans-serif" font-size="11" text-anchor="middle" fill="#57606a">1</text>
<rect x="947.0" y="475.0" width="42.0" height="16" fill="#ffffff" opacity="0.9" rx="2"/>
<text x="968.0" y="487.0" font-family="WenQuanYi Zen Hei, Microsoft YaHei, SimSun, sans-serif" font-size="11" text-anchor="middle" fill="#57606a">0..*</text>
<rect x="1013.4" y="466.2" width="42.0" height="16" fill="#ffffff" opacity="0.9" rx="2"/>
<text x="1034.4" y="478.2" font-family="WenQuanYi Zen Hei, Microsoft YaHei, SimSun, sans-serif" font-size="11" text-anchor="middle" fill="#57606a">0..1</text>
<rect x="1122.5" y="486.8" width="42.0" height="16" fill="#ffffff" opacity="0.9" rx="2"/>
<text x="1143.5" y="498.8" font-family="WenQuanYi Zen Hei, Microsoft YaHei, SimSun, sans-serif" font-size="11" text-anchor="middle" fill="#57606a">0..*</text>
<rect x="981.4" y="913.1" width="42.0" height="16" fill="#ffffff" opacity="0.9" rx="2"/>
<text x="1002.4" y="925.1" font-family="WenQuanYi Zen Hei, Microsoft YaHei, SimSun, sans-serif" font-size="11" text-anchor="middle" fill="#57606a">0..*</text>
<rect x="1157.0" y="653.6" width="42.0" height="16" fill="#ffffff" opacity="0.9" rx="2"/>
<text x="1178.0" y="665.6" font-family="WenQuanYi Zen Hei, Microsoft YaHei, SimSun, sans-serif" font-size="11" text-anchor="middle" fill="#57606a">0..*</text>
<rect x="1113.9" y="815.0" width="42.0" height="16" fill="#ffffff" opacity="0.9" rx="2"/>
<text x="1134.9" y="827.0" font-family="WenQuanYi Zen Hei, Microsoft YaHei, SimSun, sans-serif" font-size="11" text-anchor="middle" fill="#57606a">0..*</text>
<rect x="1173.0" y="967.1" width="42.0" height="16" fill="#ffffff" opacity="0.9" rx="2"/>
<text x="1194.0" y="979.1" font-family="WenQuanYi Zen Hei, Microsoft YaHei, SimSun, sans-serif" font-size="11" text-anchor="middle" fill="#57606a">0..*</text>
<rect x="388.6" y="449.0" width="15.0" height="16" fill="#ffffff" opacity="0.9" rx="2"/>
<text x="396.1" y="461.0" font-family="WenQuanYi Zen Hei, Microsoft YaHei, SimSun, sans-serif" font-size="11" text-anchor="middle" fill="#57606a">1</text>
<rect x="1389.8" y="338.9" width="42.0" height="16" fill="#ffffff" opacity="0.9" rx="2"/>
<text x="1410.8" y="350.9" font-family="WenQuanYi Zen Hei, Microsoft YaHei, SimSun, sans-serif" font-size="11" text-anchor="middle" fill="#57606a">0..*</text>
<rect x="285.1" y="431.0" width="15.0" height="16" fill="#ffffff" opacity="0.9" rx="2"/>
<text x="292.6" y="443.0" font-family="WenQuanYi Zen Hei, Microsoft YaHei, SimSun, sans-serif" font-size="11" text-anchor="middle" fill="#57606a">1</text>
<rect x="1149.0" y="415.0" width="42.0" height="16" fill="#ffffff" opacity="0.9" rx="2"/>
<text x="1170.0" y="427.0" font-family="WenQuanYi Zen Hei, Microsoft YaHei, SimSun, sans-serif" font-size="11" text-anchor="middle" fill="#57606a">0..*</text>
</svg>