<svg xmlns="http://www.w3.org/2000/svg" width="1080" height="440" viewBox="0 0 1080 440" font-family="WenQuanYi Zen Hei, Microsoft YaHei, SimSun, sans-serif">
<rect x="0" y="0" width="1080" height="440" fill="#ffffff"/>
<circle cx="82.0" cy="202.0" r="12.0" fill="#1f2328"/>
<rect x="200" y="168" width="200" height="66" rx="12" fill="#dae8fc" stroke="#6c8ebf" stroke-width="1.2"/><text x="300.0" y="205.5" font-family="WenQuanYi Zen Hei, Microsoft YaHei, SimSun, sans-serif" font-size="12" text-anchor="middle" fill="#1f2328">可见 visible</text>
<circle cx="633.0" cy="201.0" r="13.0" fill="none" stroke="#1f2328" stroke-width="1.4"/><circle cx="633.0" cy="201.0" r="9.0" fill="#1f2328"/>
<rect x="200" y="320" width="200" height="62" rx="12" fill="#f2f4f7" stroke="#8a94a6" stroke-width="1.2" stroke-dasharray="6 4"/><text x="300.0" y="355.5" font-family="WenQuanYi Zen Hei, Microsoft YaHei, SimSun, sans-serif" font-size="12" text-anchor="middle" fill="#1f2328">隐藏 pending</text>
<text x="60.0" y="409.0" font-family="WenQuanYi Zen Hei, Microsoft YaHei, SimSun, sans-serif" font-size="11" text-anchor="start" fill="#57606a">已实现：创建(visible) → 删除；pending 隐藏态与治理裁决为后续规划（虚线）。</text>
<path d="M94.0 201.9 L200.0 201.5" fill="none" stroke="#5b6b7b" stroke-width="1.3"/><polygon points="200.0,201.5 188.4,204.6 188.4,198.4" fill="#5b6b7b"/><rect x="57.2" y="192.7" width="179.6" height="18.0" fill="#ffffff" opacity="0.9" rx="3"/><text x="147.0" y="203.7" font-family="WenQuanYi Zen Hei, Microsoft YaHei, SimSun, sans-serif" font-size="11" text-anchor="middle" fill="#57606a">创建（含锚点/楼中楼/图片）</text>
<path d="M400.0 201.0 L620.0 201.0" fill="none" stroke="#5b6b7b" stroke-width="1.3"/><polygon points="620.0,201.0 608.4,204.1 608.4,197.9" fill="#5b6b7b"/><rect x="430.1" y="185.0" width="159.8" height="32.0" fill="#ffffff" opacity="0.9" rx="3"/><text x="510.0" y="196.0" font-family="WenQuanYi Zen Hei, Microsoft YaHei, SimSun, sans-serif" font-size="11" text-anchor="middle" fill="#57606a">评论作者 / 笔记作者删除</text><text x="510.0" y="210.0" font-family="WenQuanYi Zen Hei, Microsoft YaHei, SimSun, sans-serif" font-size="11" text-anchor="middle" fill="#57606a">（顶层删除级联楼内）</text>
<path d="M300.0 234.0 L300.0 320.0" fill="none" stroke="#57606a" stroke-width="1.3" stroke-dasharray="6 4"/><polygon points="300.0,320.0 296.9,308.4 303.1,308.4" fill="#57606a"/><rect x="197.0" y="268.0" width="206.0" height="18.0" fill="#ffffff" opacity="0.9" rx="3"/><text x="300.0" y="279.0" font-family="WenQuanYi Zen Hei, Microsoft YaHei, SimSun, sans-serif" font-size="11" text-anchor="middle" fill="#57606a">AI 高置信 / 管理员裁决（规划）</text>
<path d="M200.0 351.0 L160.0 351.0 L160.0 234.0 L200.0 224.6" fill="none" stroke="#57606a" stroke-width="1.3" stroke-dasharray="6 4"/><polygon points="200.0,224.6 189.4,230.3 188.0,224.2" fill="#57606a"/><rect x="116.4" y="283.0" width="87.2" height="18.0" fill="#ffffff" opacity="0.9" rx="3"/><text x="160.0" y="294.0" font-family="WenQuanYi Zen Hei, Microsoft YaHei, SimSun, sans-serif" font-size="11" text-anchor="middle" fill="#57606a">恢复（规划）</text>
</svg>