<svg xmlns="http://www.w3.org/2000/svg" width="1200" height="900" viewBox="0 0 1200 900" font-family="WenQuanYi Zen Hei, Microsoft YaHei, SimSun, sans-serif">
<rect x="0" y="0" width="1200" height="900" fill="#ffffff"/>
<circle cx="132.0" cy="72.0" r="12.0" fill="#1f2328"/>
<rect x="60" y="130" width="200" height="50" rx="12" fill="#d5e8d4" stroke="#82b366" stroke-width="1.2"/><text x="160.0" y="159.5" font-family="WenQuanYi Zen Hei, Microsoft YaHei, SimSun, sans-serif" font-size="12" text-anchor="middle" fill="#1f2328">触发生成摘要</text>
<rect x="60" y="220" width="200" height="50" rx="12" fill="#d5e8d4" stroke="#82b366" stroke-width="1.2"/><text x="160.0" y="249.5" font-family="WenQuanYi Zen Hei, Microsoft YaHei, SimSun, sans-serif" font-size="12" text-anchor="middle" fill="#1f2328">SSE 流式接收</text>
<polygon points="160.0,310 250,360.0 160.0,410 70,360.0" fill="#fff2cc" stroke="#d6b656" stroke-width="1.2"/><text x="160.0" y="357.0" font-family="WenQuanYi Zen Hei, Microsoft YaHei, SimSun, sans-serif" font-size="11" text-anchor="middle" fill="#1f2328">首个 chunk</text><text x="160.0" y="371.0" font-family="WenQuanYi Zen Hei, Microsoft YaHei, SimSun, sans-serif" font-size="11" text-anchor="middle" fill="#1f2328">到达？</text>
<rect x="60" y="460" width="200" height="50" rx="12" fill="#d5e8d4" stroke="#82b366" stroke-width="1.2"/><text x="160.0" y="489.5" font-family="WenQuanYi Zen Hei, Microsoft YaHei, SimSun, sans-serif" font-size="12" text-anchor="middle" fill="#1f2328">逐字写入展示</text>
<rect x="470" y="720" width="220" height="56" rx="12" fill="#d5e8d4" stroke="#82b366" stroke-width="1.2"/><text x="580.0" y="752.5" font-family="WenQuanYi Zen Hei, Microsoft YaHei, SimSun, sans-serif" font-size="12" text-anchor="middle" fill="#1f2328">完成：回填摘要</text>
<circle cx="573.0" cy="833.0" r="13.0" fill="none" stroke="#1f2328" stroke-width="1.4"/><circle cx="573.0" cy="833.0" r="9.0" fill="#1f2328"/>
<rect x="380" y="320" width="220" height="50" rx="12" fill="#d5e8d4" stroke="#82b366" stroke-width="1.2"/><text x="490.0" y="349.5" font-family="WenQuanYi Zen Hei, Microsoft YaHei, SimSun, sans-serif" font-size="12" text-anchor="middle" fill="#1f2328">回退 one-shot 生成</text>
<polygon points="490.0,420 580,470.0 490.0,520 400,470.0" fill="#fff2cc" stroke="#d6b656" stroke-width="1.2"/><text x="490.0" y="467.0" font-family="WenQuanYi Zen Hei, Microsoft YaHei, SimSun, sans-serif" font-size="11" text-anchor="middle" fill="#1f2328">one-shot</text><text x="490.0" y="481.0" font-family="WenQuanYi Zen Hei, Microsoft YaHei, SimSun, sans-serif" font-size="11" text-anchor="middle" fill="#1f2328">成功？</text>
<rect x="380" y="560" width="220" height="50" rx="12" fill="#d5e8d4" stroke="#82b366" stroke-width="1.2"/><text x="490.0" y="589.5" font-family="WenQuanYi Zen Hei, Microsoft YaHei, SimSun, sans-serif" font-size="12" text-anchor="middle" fill="#1f2328">回填结果</text>
<rect x="720" y="420" width="220" height="50" rx="12" fill="#d5e8d4" stroke="#82b366" stroke-width="1.2"/><text x="830.0" y="449.5" font-family="WenQuanYi Zen Hei, Microsoft YaHei, SimSun, sans-serif" font-size="12" text-anchor="middle" fill="#1f2328">mock 伪流式</text>
<rect x="720" y="510" width="220" height="50" rx="12" fill="#d5e8d4" stroke="#82b366" stroke-width="1.2"/><text x="830.0" y="539.5" font-family="WenQuanYi Zen Hei, Microsoft YaHei, SimSun, sans-serif" font-size="12" text-anchor="middle" fill="#1f2328">生成静态兜底文本</text>
<text x="60.0" y="861.0" font-family="WenQuanYi Zen Hei, Microsoft YaHei, SimSun, sans-serif" font-size="11" text-anchor="start" fill="#57606a">三层降级：SSE 流式 → one-shot → mock 伪流式；「AI 永不硬失败」，任一层成功即回填。</text>
<path d="M135.8 83.4 L151.6 130.0" fill="none" stroke="#5b6b7b" stroke-width="1.3"/><polygon points="151.6,130.0 144.9,120.0 150.8,118.0" fill="#5b6b7b"/>
<path d="M160.0 180.0 L160.0 220.0" fill="none" stroke="#5b6b7b" stroke-width="1.3"/><polygon points="160.0,220.0 156.9,208.4 163.1,208.4" fill="#5b6b7b"/>
<path d="M160.0 270.0 L160.0 310.0" fill="none" stroke="#5b6b7b" stroke-width="1.3"/><polygon points="160.0,310.0 156.9,298.4 163.1,298.4" fill="#5b6b7b"/>
<path d="M160.0 410.0 L160.0 460.0" fill="none" stroke="#5b6b7b" stroke-width="1.3"/><polygon points="160.0,460.0 156.9,448.4 163.1,448.4" fill="#5b6b7b"/><rect x="149.4" y="426.0" width="21.2" height="18.0" fill="#ffffff" opacity="0.9" rx="3"/><text x="160.0" y="437.0" font-family="WenQuanYi Zen Hei, Microsoft YaHei, SimSun, sans-serif" font-size="11" text-anchor="middle" fill="#57606a">是</text>
<path d="M160.0 510.0 L160.0 510.0 L160.0 748.0 L470.0 748.0 L470.0 748.0" fill="none" stroke="#5b6b7b" stroke-width="1.3"/><polygon points="470.0,748.0 458.4,751.1 458.4,744.9" fill="#5b6b7b"/>
<path d="M250.0 360.0 L380.0 350.0" fill="none" stroke="#b85450" stroke-width="1.3"/><polygon points="380.0,350.0 368.7,354.0 368.2,347.8" fill="#b85450"/><rect x="258.2" y="346.0" width="113.6" height="18.0" fill="#ffffff" opacity="0.9" rx="3"/><text x="315.0" y="357.0" font-family="WenQuanYi Zen Hei, Microsoft YaHei, SimSun, sans-serif" font-size="11" text-anchor="middle" fill="#57606a">否 / Stream 失败</text>
<path d="M490.0 370.0 L490.0 420.0" fill="none" stroke="#5b6b7b" stroke-width="1.3"/><polygon points="490.0,420.0 486.9,408.4 493.1,408.4" fill="#5b6b7b"/>
<path d="M490.0 520.0 L490.0 560.0" fill="none" stroke="#5b6b7b" stroke-width="1.3"/><polygon points="490.0,560.0 486.9,548.4 493.1,548.4" fill="#5b6b7b"/><rect x="479.4" y="531.0" width="21.2" height="18.0" fill="#ffffff" opacity="0.9" rx="3"/><text x="490.0" y="542.0" font-family="WenQuanYi Zen Hei, Microsoft YaHei, SimSun, sans-serif" font-size="11" text-anchor="middle" fill="#57606a">是</text>
<path d="M490.0 610.0 L490.0 610.0 L490.0 720.0 L490.0 720.0" fill="none" stroke="#5b6b7b" stroke-width="1.3"/><polygon points="490.0,720.0 478.4,723.1 478.4,716.9" fill="#5b6b7b"/>
<path d="M580.0 470.0 L720.0 453.1" fill="none" stroke="#b85450" stroke-width="1.3"/><polygon points="720.0,453.1 708.9,457.6 708.1,451.4" fill="#b85450"/><rect x="639.4" y="452.5" width="21.2" height="18.0" fill="#ffffff" opacity="0.9" rx="3"/><text x="650.0" y="463.5" font-family="WenQuanYi Zen Hei, Microsoft YaHei, SimSun, sans-serif" font-size="11" text-anchor="middle" fill="#57606a">否</text>
<path d="M830.0 470.0 L830.0 510.0" fill="none" stroke="#5b6b7b" stroke-width="1.3"/><polygon points="830.0,510.0 826.9,498.4 833.1,498.4" fill="#5b6b7b"/>
<path d="M830.0 560.0 L830.0 570.0 L830.0 748.0 L690.0 748.0 L690.0 748.0" fill="none" stroke="#5b6b7b" stroke-width="1.3"/><polygon points="690.0,748.0 678.4,751.1 678.4,744.9" fill="#5b6b7b"/><rect x="799.6" y="715.0" width="60.8" height="18.0" fill="#ffffff" opacity="0.9" rx="3"/><text x="830.0" y="726.0" font-family="WenQuanYi Zen Hei, Microsoft YaHei, SimSun, sans-serif" font-size="11" text-anchor="middle" fill="#57606a">兜底摘要</text>
<path d="M577.7 776.0 L574.1 820.0" fill="none" stroke="#5b6b7b" stroke-width="1.3"/><polygon points="574.1,820.0 571.9,808.2 578.1,808.7" fill="#5b6b7b"/>
</svg>