<svg xmlns="http://www.w3.org/2000/svg" width="1380" height="860" viewBox="0 0 1380 860" font-family="WenQuanYi Zen Hei, Microsoft YaHei, SimSun, sans-serif">
<rect x="0" y="0" width="1380" height="860" fill="#ffffff"/>
<line x1="95.0" y1="78" x2="95.0" y2="790" stroke="#57606a" stroke-width="1" stroke-dasharray="5 4"/><circle cx="95.0" cy="27" r="11" fill="#ffffff" stroke="#1f2328" stroke-width="1.4"/><line x1="95.0" y1="38" x2="95.0" y2="64" stroke="#1f2328" stroke-width="1.4"/><line x1="79.0" y1="48" x2="111.0" y2="48" stroke="#1f2328" stroke-width="1.4"/><line x1="95.0" y1="64" x2="81.0" y2="86" stroke="#1f2328" stroke-width="1.4"/><line x1="95.0" y1="64" x2="109.0" y2="86" stroke="#1f2328" stroke-width="1.4"/><text x="95.0" y="76.0" font-family="WenQuanYi Zen Hei, Microsoft YaHei, SimSun, sans-serif" font-size="12" text-anchor="middle" font-weight="bold" fill="#1f2328">注册用户</text>
<line x1="330.0" y1="78" x2="330.0" y2="790" stroke="#57606a" stroke-width="1" stroke-dasharray="5 4"/><rect x="235" y="44" width="190" height="34" rx="3" fill="#dae8fc" stroke="#6c8ebf" stroke-width="1.2"/><text x="330.0" y="65.5" font-family="WenQuanYi Zen Hei, Microsoft YaHei, SimSun, sans-serif" font-size="12" text-anchor="middle" fill="#1f2328">WritePage 前端</text>
<line x1="585.0" y1="78" x2="585.0" y2="790" stroke="#57606a" stroke-width="1" stroke-dasharray="5 4"/><rect x="490" y="44" width="190" height="34" rx="3" fill="#dae8fc" stroke="#6c8ebf" stroke-width="1.2"/><text x="585.0" y="65.5" font-family="WenQuanYi Zen Hei, Microsoft YaHei, SimSun, sans-serif" font-size="12" text-anchor="middle" fill="#1f2328">DraftsRoutes·发布</text>
<line x1="840.0" y1="78" x2="840.0" y2="790" stroke="#57606a" stroke-width="1" stroke-dasharray="5 4"/><rect x="745" y="44" width="190" height="34" rx="3" fill="#dae8fc" stroke="#6c8ebf" stroke-width="1.2"/><text x="840.0" y="65.5" font-family="WenQuanYi Zen Hei, Microsoft YaHei, SimSun, sans-serif" font-size="12" text-anchor="middle" fill="#1f2328">AiComposeService</text>
<line x1="1080.0" y1="78" x2="1080.0" y2="790" stroke="#57606a" stroke-width="1" stroke-dasharray="5 4"/><rect x="985" y="44" width="190" height="34" rx="3" fill="#dae8fc" stroke="#6c8ebf" stroke-width="1.2"/><text x="1080.0" y="65.5" font-family="WenQuanYi Zen Hei, Microsoft YaHei, SimSun, sans-serif" font-size="12" text-anchor="middle" fill="#1f2328">外部 AI 服务</text>
<line x1="1290.0" y1="78" x2="1290.0" y2="790" stroke="#57606a" stroke-width="1" stroke-dasharray="5 4"/><rect x="1195" y="44" width="190" height="34" rx="3" fill="#dae8fc" stroke="#6c8ebf" stroke-width="1.2"/><text x="1290.0" y="65.5" font-family="WenQuanYi Zen Hei, Microsoft YaHei, SimSun, sans-serif" font-size="12" text-anchor="middle" fill="#1f2328">DB · SQLite</text>
<text x="212.5" y="122.0" font-family="WenQuanYi Zen Hei, Microsoft YaHei, SimSun, sans-serif" font-size="11" text-anchor="middle" fill="#1f2328">点击「发布」</text>
<text x="412.0" y="173.0" font-family="WenQuanYi Zen Hei, Microsoft YaHei, SimSun, sans-serif" font-size="11" text-anchor="start" fill="#1f2328">校验标题 / 正文 / 分类非空</text>
<text x="457.5" y="224.0" font-family="WenQuanYi Zen Hei, Microsoft YaHei, SimSun, sans-serif" font-size="11" text-anchor="middle" fill="#1f2328">POST /notes/drafts/{id}/publish</text>
<text x="937.5" y="264.0" font-family="WenQuanYi Zen Hei, Microsoft YaHei, SimSun, sans-serif" font-size="11" text-anchor="middle" fill="#1f2328">读取草稿</text>
<text x="937.5" y="302.0" font-family="WenQuanYi Zen Hei, Microsoft YaHei, SimSun, sans-serif" font-size="11" text-anchor="middle" fill="#1f2328">草稿数据</text>
<rect x="540" y="336" width="600" height="254" rx="2" fill="none" stroke="#57606a" stroke-width="1.2" stroke-dasharray="6 4"/>
<rect x="540" y="336" width="120" height="22" rx="2" fill="#eef2f7" stroke="#57606a" stroke-width="1.2"/>
<text x="548.0" y="350.0" font-family="WenQuanYi Zen Hei, Microsoft YaHei, SimSun, sans-serif" font-size="11" text-anchor="start" font-weight="bold" fill="#57606a">opt [摘要为空]</text>
<text x="712.5" y="364.0" font-family="WenQuanYi Zen Hei, Microsoft YaHei, SimSun, sans-serif" font-size="11" text-anchor="middle" fill="#1f2328">请求生成一句话摘要</text>
<text x="960.0" y="402.0" font-family="WenQuanYi Zen Hei, Microsoft YaHei, SimSun, sans-serif" font-size="11" text-anchor="middle" fill="#1f2328">chat.completions</text>
<rect x="800" y="432" width="320" height="128" rx="2" fill="none" stroke="#57606a" stroke-width="1.2" stroke-dasharray="6 4"/>
<rect x="800" y="432" width="120" height="22" rx="2" fill="#eef2f7" stroke="#57606a" stroke-width="1.2"/>
<text x="808.0" y="446.0" font-family="WenQuanYi Zen Hei, Microsoft YaHei, SimSun, sans-serif" font-size="11" text-anchor="start" font-weight="bold" fill="#57606a">alt [超时/失败]</text>
<text x="960.0" y="460.0" font-family="WenQuanYi Zen Hei, Microsoft YaHei, SimSun, sans-serif" font-size="11" text-anchor="middle" fill="#1f2328">摘要文本 / 超时</text>
<text x="922.0" y="513.0" font-family="WenQuanYi Zen Hei, Microsoft YaHei, SimSun, sans-serif" font-size="11" text-anchor="start" fill="#1f2328">首段截断兜底（永不失败）</text>
<text x="712.5" y="567.0" font-family="WenQuanYi Zen Hei, Microsoft YaHei, SimSun, sans-serif" font-size="11" text-anchor="middle" fill="#1f2328">最终摘要文本</text>
<text x="937.5" y="620.0" font-family="WenQuanYi Zen Hei, Microsoft YaHei, SimSun, sans-serif" font-size="11" text-anchor="middle" fill="#1f2328">单事务：建笔记 + 删草稿</text>
<text x="937.5" y="660.0" font-family="WenQuanYi Zen Hei, Microsoft YaHei, SimSun, sans-serif" font-size="11" text-anchor="middle" fill="#1f2328">新笔记</text>
<text x="457.5" y="700.0" font-family="WenQuanYi Zen Hei, Microsoft YaHei, SimSun, sans-serif" font-size="11" text-anchor="middle" fill="#1f2328">201 新笔记</text>
<text x="212.5" y="740.0" font-family="WenQuanYi Zen Hei, Microsoft YaHei, SimSun, sans-serif" font-size="11" text-anchor="middle" fill="#1f2328">跳转笔记详情页</text>
<path d="M95.0 130.0 L330.0 130.0" fill="none" stroke="#5b6b7b" stroke-width="1.3"/><polygon points="330.0,130.0 318.4,133.1 318.4,126.9" fill="#5b6b7b"/>
<path d="M330.0 160.0 L404.0 160.0 L404.0 186.0 L336.0 186.0" fill="none" stroke="#5b6b7b" stroke-width="1.3"/><polygon points="336.0,186.0 347.6,182.9 347.6,189.1" fill="#5b6b7b"/>
<path d="M330.0 232.0 L585.0 232.0" fill="none" stroke="#5b6b7b" stroke-width="1.3"/><polygon points="585.0,232.0 573.4,235.1 573.4,228.9" fill="#5b6b7b"/>
<path d="M585.0 272.0 L1290.0 272.0" fill="none" stroke="#5b6b7b" stroke-width="1.3"/><polygon points="1290.0,272.0 1278.4,275.1 1278.4,268.9" fill="#5b6b7b"/>
<path d="M1290.0 310.0 L585.0 310.0" fill="none" stroke="#5b6b7b" stroke-width="1.3" stroke-dasharray="6 4"/><line x1="596.4" y1="306.3" x2="585.0" y2="310.0" stroke="#5b6b7b" stroke-width="1.3"/><line x1="596.4" y1="313.7" x2="585.0" y2="310.0" stroke="#5b6b7b" stroke-width="1.3"/>
<path d="M585.0 372.0 L840.0 372.0" fill="none" stroke="#5b6b7b" stroke-width="1.3"/><polygon points="840.0,372.0 828.4,375.1 828.4,368.9" fill="#5b6b7b"/>
<path d="M840.0 410.0 L1080.0 410.0" fill="none" stroke="#5b6b7b" stroke-width="1.3"/><polygon points="1080.0,410.0 1068.4,413.1 1068.4,406.9" fill="#5b6b7b"/>
<path d="M1080.0 468.0 L840.0 468.0" fill="none" stroke="#5b6b7b" stroke-width="1.3" stroke-dasharray="6 4"/><line x1="851.4" y1="464.3" x2="840.0" y2="468.0" stroke="#5b6b7b" stroke-width="1.3"/><line x1="851.4" y1="471.7" x2="840.0" y2="468.0" stroke="#5b6b7b" stroke-width="1.3"/>
<path d="M840.0 500.0 L914.0 500.0 L914.0 526.0 L846.0 526.0" fill="none" stroke="#5b6b7b" stroke-width="1.3"/><polygon points="846.0,526.0 857.6,522.9 857.6,529.1" fill="#5b6b7b"/>
<path d="M840.0 575.0 L585.0 575.0" fill="none" stroke="#5b6b7b" stroke-width="1.3" stroke-dasharray="6 4"/><line x1="596.4" y1="571.3" x2="585.0" y2="575.0" stroke="#5b6b7b" stroke-width="1.3"/><line x1="596.4" y1="578.7" x2="585.0" y2="575.0" stroke="#5b6b7b" stroke-width="1.3"/>
<path d="M585.0 628.0 L1290.0 628.0" fill="none" stroke="#5b6b7b" stroke-width="1.3"/><polygon points="1290.0,628.0 1278.4,631.1 1278.4,624.9" fill="#5b6b7b"/>
<path d="M1290.0 668.0 L585.0 668.0" fill="none" stroke="#5b6b7b" stroke-width="1.3" stroke-dasharray="6 4"/><line x1="596.4" y1="664.3" x2="585.0" y2="668.0" stroke="#5b6b7b" stroke-width="1.3"/><line x1="596.4" y1="671.7" x2="585.0" y2="668.0" stroke="#5b6b7b" stroke-width="1.3"/>
<path d="M585.0 708.0 L330.0 708.0" fill="none" stroke="#5b6b7b" stroke-width="1.3" stroke-dasharray="6 4"/><line x1="341.4" y1="704.3" x2="330.0" y2="708.0" stroke="#5b6b7b" stroke-width="1.3"/><line x1="341.4" y1="711.7" x2="330.0" y2="708.0" stroke="#5b6b7b" stroke-width="1.3"/>
<path d="M330.0 748.0 L95.0 748.0" fill="none" stroke="#5b6b7b" stroke-width="1.3" stroke-dasharray="6 4"/><line x1="106.4" y1="744.3" x2="95.0" y2="748.0" stroke="#5b6b7b" stroke-width="1.3"/><line x1="106.4" y1="751.7" x2="95.0" y2="748.0" stroke="#5b6b7b" stroke-width="1.3"/>
</svg>