<svg xmlns="http://www.w3.org/2000/svg" width="3060" height="1247" viewBox="0 0 3060 1247" font-family="WenQuanYi Zen Hei, Microsoft YaHei, SimSun, sans-serif">
<rect width="3060" height="1247" fill="#ffffff"/>
<ellipse cx="232.0" cy="572.0" rx="34.0" ry="34.0" fill="#000000" stroke="#000000" stroke-width="1.2"/>
<rect x="567.0" y="476.0" width="567.0" height="187.0" rx="12" fill="#ffffff" stroke="#000000" stroke-width="1.2"/><text x="850.5" y="585.5" font-family="WenQuanYi Zen Hei, Microsoft YaHei, SimSun, sans-serif" font-size="34" text-anchor="middle" fill="#1f2328">可见 visible</text>
<ellipse cx="1794.0" cy="570.0" rx="37.0" ry="37.0" fill="#000000" stroke="#000000" stroke-width="1.2"/>
<rect x="567.0" y="907.0" width="567.0" height="176.0" rx="12" fill="#ffffff" stroke="#000000" stroke-width="1.2" stroke-dasharray="6 4"/><text x="850.5" y="1011.0" font-family="WenQuanYi Zen Hei, Microsoft YaHei, SimSun, sans-serif" font-size="34" text-anchor="middle" fill="#1f2328">隐藏 pending</text>
<text x="174.0" y="1172.5" font-family="WenQuanYi Zen Hei, Microsoft YaHei, SimSun, sans-serif" font-size="34" text-anchor="start" font-weight="bold" fill="#000000">已实现：创建(visible) → 删除；pending 隐藏态与治理裁决为后续规划（虚线）。</text>
<path d="M266.0 571.9 L567.0 570.6" fill="none" stroke="#000000" stroke-width="1.3"/><polygon points="567.0,570.6 555.6,574.4 555.6,567.0" fill="#000000" stroke="#000000" stroke-width="1"/><rect x="323.8" y="562.8" width="185.3" height="17.0" fill="#ffffff" opacity="0.85" rx="3"/><text x="416.5" y="574.8" font-family="WenQuanYi Zen Hei, Microsoft YaHei, SimSun, sans-serif" font-size="11" text-anchor="middle" fill="#000000">创建（含锚点/楼中楼/图片）</text>
<path d="M1134.0 569.7 L1757.0 570.0" fill="none" stroke="#000000" stroke-width="1.3"/><polygon points="1757.0,570.0 1745.6,573.7 1745.6,566.3" fill="#000000" stroke="#000000" stroke-width="1"/><rect x="1291.5" y="561.3" width="308.1" height="17.0" fill="#ffffff" opacity="0.85" rx="3"/><text x="1445.5" y="573.3" font-family="WenQuanYi Zen Hei, Microsoft YaHei, SimSun, sans-serif" font-size="11" text-anchor="middle" fill="#000000">评论作者 / 笔记作者删除 （顶层删除级联楼内）</text>
<path d="M850.5 663.0 L850.5 907.0" fill="none" stroke="#000000" stroke-width="1.3" stroke-dasharray="6 4"/><polygon points="850.5,907.0 846.8,895.6 854.2,895.6" fill="#000000" stroke="#000000" stroke-width="1"/><rect x="744.2" y="776.5" width="212.6" height="17.0" fill="#ffffff" opacity="0.85" rx="3"/><text x="850.5" y="788.5" font-family="WenQuanYi Zen Hei, Microsoft YaHei, SimSun, sans-serif" font-size="11" text-anchor="middle" fill="#000000">AI 高置信 / 管理员裁决（规划）</text>
<path d="M567.0 994.3 L453.0 994.0 L453.0 663.0 L567.0 636.2" fill="none" stroke="#000000" stroke-width="1.3" stroke-dasharray="6 4"/><polygon points="567.0,636.2 556.7,642.4 555.0,635.2" fill="#000000" stroke="#000000" stroke-width="1"/><rect x="408.1" y="818.4" width="89.8" height="17.0" fill="#ffffff" opacity="0.85" rx="3"/><text x="453.0" y="830.4" font-family="WenQuanYi Zen Hei, Microsoft YaHei, SimSun, sans-serif" font-size="11" text-anchor="middle" fill="#000000">恢复（规划）</text>
</svg>