<svg xmlns="http://www.w3.org/2000/svg" width="1380" height="820" viewBox="0 0 1380 820" font-family="WenQuanYi Zen Hei, Microsoft YaHei, SimSun, sans-serif">
<rect x="0" y="0" width="1380" height="820" fill="#ffffff"/>
<line x1="95.0" y1="78" x2="95.0" y2="750" stroke="#57606a" stroke-width="1" stroke-dasharray="5 4"/><circle cx="95.0" cy="27" r="11" fill="#ffffff" stroke="#1f2328" stroke-width="1.4"/><line x1="95.0" y1="38" x2="95.0" y2="64" stroke="#1f2328" stroke-width="1.4"/><line x1="79.0" y1="48" x2="111.0" y2="48" stroke="#1f2328" stroke-width="1.4"/><line x1="95.0" y1="64" x2="81.0" y2="86" stroke="#1f2328" stroke-width="1.4"/><line x1="95.0" y1="64" x2="109.0" y2="86" stroke="#1f2328" stroke-width="1.4"/><text x="95.0" y="76.0" font-family="WenQuanYi Zen Hei, Microsoft YaHei, SimSun, sans-serif" font-size="12" text-anchor="middle" font-weight="bold" fill="#1f2328">注册用户</text>
<line x1="300.0" y1="78" x2="300.0" y2="750" stroke="#57606a" stroke-width="1" stroke-dasharray="5 4"/><rect x="205" y="44" width="190" height="34" rx="3" fill="#dae8fc" stroke="#6c8ebf" stroke-width="1.2"/><text x="300.0" y="65.5" font-family="WenQuanYi Zen Hei, Microsoft YaHei, SimSun, sans-serif" font-size="12" text-anchor="middle" fill="#1f2328">前端</text>
<line x1="540.0" y1="78" x2="540.0" y2="750" stroke="#57606a" stroke-width="1" stroke-dasharray="5 4"/><rect x="445" y="44" width="190" height="34" rx="3" fill="#dae8fc" stroke="#6c8ebf" stroke-width="1.2"/><text x="540.0" y="65.5" font-family="WenQuanYi Zen Hei, Microsoft YaHei, SimSun, sans-serif" font-size="12" text-anchor="middle" fill="#1f2328">ReportsRoutes（规划）</text>
<line x1="760.0" y1="78" x2="760.0" y2="750" stroke="#57606a" stroke-width="1" stroke-dasharray="5 4"/><rect x="665" y="44" width="190" height="34" rx="3" fill="#dae8fc" stroke="#6c8ebf" stroke-width="1.2"/><text x="760.0" y="65.5" font-family="WenQuanYi Zen Hei, Microsoft YaHei, SimSun, sans-serif" font-size="12" text-anchor="middle" fill="#1f2328">DB · reports</text>
<line x1="980.0" y1="78" x2="980.0" y2="750" stroke="#57606a" stroke-width="1" stroke-dasharray="5 4"/><rect x="885" y="44" width="190" height="34" rx="3" fill="#dae8fc" stroke="#6c8ebf" stroke-width="1.2"/><text x="980.0" y="65.5" font-family="WenQuanYi Zen Hei, Microsoft YaHei, SimSun, sans-serif" font-size="12" text-anchor="middle" fill="#1f2328">AI 审查任务（规划）</text>
<line x1="1230.0" y1="78" x2="1230.0" y2="750" stroke="#57606a" stroke-width="1" stroke-dasharray="5 4"/><circle cx="1230.0" cy="27" r="11" fill="#ffffff" stroke="#1f2328" stroke-width="1.4"/><line x1="1230.0" y1="38" x2="1230.0" y2="64" stroke="#1f2328" stroke-width="1.4"/><line x1="1214.0" y1="48" x2="1246.0" y2="48" stroke="#1f2328" stroke-width="1.4"/><line x1="1230.0" y1="64" x2="1216.0" y2="86" stroke="#1f2328" stroke-width="1.4"/><line x1="1230.0" y1="64" x2="1244.0" y2="86" stroke="#1f2328" stroke-width="1.4"/><text x="1230.0" y="76.0" font-family="WenQuanYi Zen Hei, Microsoft YaHei, SimSun, sans-serif" font-size="12" text-anchor="middle" font-weight="bold" fill="#1f2328">管理员</text>
<text x="300.0" y="107.0" font-family="WenQuanYi Zen Hei, Microsoft YaHei, SimSun, sans-serif" font-size="11" text-anchor="start" font-weight="bold" fill="#b85450">★ 本链路为后续治理能力设计，当前代码尚未实现（虚线=规划）</text>
<text x="197.5" y="142.0" font-family="WenQuanYi Zen Hei, Microsoft YaHei, SimSun, sans-serif" font-size="11" text-anchor="middle" fill="#1f2328">点击「举报」，选择类型</text>
<text x="420.0" y="182.0" font-family="WenQuanYi Zen Hei, Microsoft YaHei, SimSun, sans-serif" font-size="11" text-anchor="middle" fill="#1f2328">POST /reports</text>
<text x="650.0" y="220.0" font-family="WenQuanYi Zen Hei, Microsoft YaHei, SimSun, sans-serif" font-size="11" text-anchor="middle" fill="#1f2328">创建工单 pending</text>
<text x="420.0" y="258.0" font-family="WenQuanYi Zen Hei, Microsoft YaHei, SimSun, sans-serif" font-size="11" text-anchor="middle" fill="#1f2328">已受理</text>
<text x="760.0" y="314.0" font-family="WenQuanYi Zen Hei, Microsoft YaHei, SimSun, sans-serif" font-size="11" text-anchor="middle" fill="#1f2328">异步送审（不阻塞受理）</text>

<text x="1062.0" y="365.0" font-family="WenQuanYi Zen Hei, Microsoft YaHei, SimSun, sans-serif" font-size="11" text-anchor="start" fill="#1f2328">AI 分类 {label, confidence, reason}</text>
<text x="870.0" y="422.0" font-family="WenQuanYi Zen Hei, Microsoft YaHei, SimSun, sans-serif" font-size="11" text-anchor="middle" fill="#1f2328">写回结论；高置信→自动隐藏目标</text>
<text x="885.0" y="492.0" font-family="WenQuanYi Zen Hei, Microsoft YaHei, SimSun, sans-serif" font-size="11" text-anchor="middle" fill="#1f2328">打开举报队列</text>
<text x="650.0" y="532.0" font-family="WenQuanYi Zen Hei, Microsoft YaHei, SimSun, sans-serif" font-size="11" text-anchor="middle" fill="#1f2328">查工单 + AI 结论</text>
<text x="995.0" y="570.0" font-family="WenQuanYi Zen Hei, Microsoft YaHei, SimSun, sans-serif" font-size="11" text-anchor="middle" fill="#1f2328">工单列表 + 快照 + 置信度</text>
<text x="885.0" y="628.0" font-family="WenQuanYi Zen Hei, Microsoft YaHei, SimSun, sans-serif" font-size="11" text-anchor="middle" fill="#1f2328">裁决：删除 / 恢复</text>
<text x="650.0" y="666.0" font-family="WenQuanYi Zen Hei, Microsoft YaHei, SimSun, sans-serif" font-size="11" text-anchor="middle" fill="#1f2328">更新工单 resolved / dismissed</text>
<path d="M95.0 150.0 L300.0 150.0" fill="none" stroke="#57606a" stroke-width="1.3" stroke-dasharray="6 4"/><polygon points="300.0,150.0 288.4,153.1 288.4,146.9" fill="#57606a"/>
<path d="M300.0 190.0 L540.0 190.0" fill="none" stroke="#57606a" stroke-width="1.3" stroke-dasharray="6 4"/><polygon points="540.0,190.0 528.4,193.1 528.4,186.9" fill="#57606a"/>
<path d="M540.0 228.0 L760.0 228.0" fill="none" stroke="#57606a" stroke-width="1.3" stroke-dasharray="6 4"/><polygon points="760.0,228.0 748.4,231.1 748.4,224.9" fill="#57606a"/>
<path d="M540.0 266.0 L300.0 266.0" fill="none" stroke="#57606a" stroke-width="1.3" stroke-dasharray="6 4"/><line x1="311.4" y1="262.3" x2="300.0" y2="266.0" stroke="#57606a" stroke-width="1.3"/><line x1="311.4" y1="269.7" x2="300.0" y2="266.0" stroke="#57606a" stroke-width="1.3"/>
<path d="M540.0 322.0 L980.0 322.0" fill="none" stroke="#57606a" stroke-width="1.3" stroke-dasharray="6 4"/><polygon points="980.0,322.0 968.4,325.1 968.4,318.9" fill="#57606a"/>
<path d="M980.0 360.0 L980.0 360.0" fill="none" stroke="#57606a" stroke-width="1.3" stroke-dasharray="6 4"/><polygon points="980.0,360.0 968.4,363.1 968.4,356.9" fill="#57606a"/>
<path d="M980.0 352.0 L1054.0 352.0 L1054.0 378.0 L986.0 378.0" fill="none" stroke="#57606a" stroke-width="1.3" stroke-dasharray="6 4"/><polygon points="986.0,378.0 997.6,374.9 997.6,381.1" fill="#57606a"/>
<path d="M980.0 430.0 L760.0 430.0" fill="none" stroke="#57606a" stroke-width="1.3" stroke-dasharray="6 4"/><polygon points="760.0,430.0 771.6,426.9 771.6,433.1" fill="#57606a"/>
<path d="M1230.0 500.0 L540.0 500.0" fill="none" stroke="#57606a" stroke-width="1.3" stroke-dasharray="6 4"/><polygon points="540.0,500.0 551.6,496.9 551.6,503.1" fill="#57606a"/>
<path d="M540.0 540.0 L760.0 540.0" fill="none" stroke="#57606a" stroke-width="1.3" stroke-dasharray="6 4"/><polygon points="760.0,540.0 748.4,543.1 748.4,536.9" fill="#57606a"/>
<path d="M760.0 578.0 L1230.0 578.0" fill="none" stroke="#57606a" stroke-width="1.3" stroke-dasharray="6 4"/><line x1="1218.6" y1="581.7" x2="1230.0" y2="578.0" stroke="#57606a" stroke-width="1.3"/><line x1="1218.6" y1="574.3" x2="1230.0" y2="578.0" stroke="#57606a" stroke-width="1.3"/>
<path d="M1230.0 636.0 L540.0 636.0" fill="none" stroke="#57606a" stroke-width="1.3" stroke-dasharray="6 4"/><polygon points="540.0,636.0 551.6,632.9 551.6,639.1" fill="#57606a"/>
<path d="M540.0 674.0 L760.0 674.0" fill="none" stroke="#57606a" stroke-width="1.3" stroke-dasharray="6 4"/><polygon points="760.0,674.0 748.4,677.1 748.4,670.9" fill="#57606a"/>
</svg>