<svg xmlns="http://www.w3.org/2000/svg" width="1000" height="660" viewBox="0 0 1000 660" font-family="WenQuanYi Zen Hei, Microsoft YaHei, SimSun, sans-serif">
<rect x="0" y="0" width="1000" height="660" fill="#ffffff"/>
<rect x="30" y="30" width="940" height="600" rx="8" fill="#ffffff" stroke="#c4ccd6" stroke-width="1.4"/><path d="M30 60 L30 38 Q30 30 38 30 L962 30 Q970 30 970 38 L970 60 Z" fill="#eef2f7" stroke="#c4ccd6" stroke-width="1.4"/><circle cx="46" cy="45" r="5" fill="#ff6159"/><circle cx="62" cy="45" r="5" fill="#febc2e"/><circle cx="78" cy="45" r="5" fill="#28c840"/><text x="500.0" y="50.0" font-family="WenQuanYi Zen Hei, Microsoft YaHei, SimSun, sans-serif" font-size="12" text-anchor="middle" font-weight="bold" fill="#57606a">飞跃 · 写作页  /write</text>
<rect x="55" y="92" width="470" height="38" rx="4" fill="#ffffff" stroke="#c4ccd6" stroke-width="1.1"/><text x="63.0" y="107.0" font-family="WenQuanYi Zen Hei, Microsoft YaHei, SimSun, sans-serif" font-size="11" text-anchor="start" fill="#1f2328">标题：飞跃·保研经验与时间线</text>
<rect x="540" y="92" width="170" height="38" rx="4" fill="#ffffff" stroke="#c4ccd6" stroke-width="1.1"/><text x="548.0" y="107.0" font-family="WenQuanYi Zen Hei, Microsoft YaHei, SimSun, sans-serif" font-size="11" text-anchor="start" fill="#1f2328">分类：research  ▼</text>
<rect x="725" y="92" width="220" height="38" rx="4" fill="#ffffff" stroke="#c4ccd6" stroke-width="1.1"/><text x="733.0" y="107.0" font-family="WenQuanYi Zen Hei, Microsoft YaHei, SimSun, sans-serif" font-size="11" text-anchor="start" fill="#1f2328">标签：#保研 #经验 +</text>
<text x="55.0" y="151.0" font-family="WenQuanYi Zen Hei, Microsoft YaHei, SimSun, sans-serif" font-size="11" text-anchor="start" fill="#3a9a5a">● 已自动保存 12:04（草稿）</text>
<rect x="55" y="168" width="545" height="400" rx="8" fill="#fcfdff" stroke="#d7dee8" stroke-width="1.1"/>
<text x="66.0" y="187.0" font-family="WenQuanYi Zen Hei, Microsoft YaHei, SimSun, sans-serif" font-size="11" text-anchor="start" fill="#8a94a6">正文（Markdown 编辑器）</text>
<text x="74.0" y="226.0" font-family="WenQuanYi Zen Hei, Microsoft YaHei, SimSun, sans-serif" font-size="12" text-anchor="start" fill="#1f2328">## 一、初试与择校</text>
<text x="74.0" y="256.0" font-family="WenQuanYi Zen Hei, Microsoft YaHei, SimSun, sans-serif" font-size="12" text-anchor="start" fill="#1f2328">复习节奏与资料清单如下：</text>
<text x="74.0" y="286.0" font-family="WenQuanYi Zen Hei, Microsoft YaHei, SimSun, sans-serif" font-size="12" text-anchor="start" fill="#1f2328">- 数学：强化 + 真题…</text>
<text x="74.0" y="316.0" font-family="WenQuanYi Zen Hei, Microsoft YaHei, SimSun, sans-serif" font-size="12" text-anchor="start" fill="#1f2328">&gt; 选段将被 AI 改写</text>
<rect x="150" y="330" width="400" height="40" rx="8" fill="#eef4ff" stroke="#6c8ebf" stroke-width="1.1"/>
<rect x="160" y="338" width="58" height="24" rx="6" fill="#2f6bd6" stroke="#2f6bd6" stroke-width="1.1"/><text x="189.0" y="354.0" font-family="WenQuanYi Zen Hei, Microsoft YaHei, SimSun, sans-serif" font-size="10" text-anchor="middle" font-weight="bold" fill="#ffffff">润色</text>
<rect x="224" y="338" width="58" height="24" rx="6" fill="#eef2f8" stroke="#c4ccd6" stroke-width="1.1"/><text x="253.0" y="354.0" font-family="WenQuanYi Zen Hei, Microsoft YaHei, SimSun, sans-serif" font-size="10" text-anchor="middle" font-weight="bold" fill="#1f2328">缩写</text>
<rect x="288" y="338" width="58" height="24" rx="6" fill="#eef2f8" stroke="#c4ccd6" stroke-width="1.1"/><text x="317.0" y="354.0" font-family="WenQuanYi Zen Hei, Microsoft YaHei, SimSun, sans-serif" font-size="10" text-anchor="middle" font-weight="bold" fill="#1f2328">扩写</text>
<rect x="352" y="338" width="58" height="24" rx="6" fill="#eef2f8" stroke="#c4ccd6" stroke-width="1.1"/><text x="381.0" y="354.0" font-family="WenQuanYi Zen Hei, Microsoft YaHei, SimSun, sans-serif" font-size="10" text-anchor="middle" font-weight="bold" fill="#1f2328">改语气</text>
<rect x="416" y="338" width="58" height="24" rx="6" fill="#eef2f8" stroke="#c4ccd6" stroke-width="1.1"/><text x="445.0" y="354.0" font-family="WenQuanYi Zen Hei, Microsoft YaHei, SimSun, sans-serif" font-size="10" text-anchor="middle" font-weight="bold" fill="#1f2328">翻译</text>
<rect x="480" y="338" width="58" height="24" rx="6" fill="#eef2f8" stroke="#c4ccd6" stroke-width="1.1"/><text x="509.0" y="354.0" font-family="WenQuanYi Zen Hei, Microsoft YaHei, SimSun, sans-serif" font-size="10" text-anchor="middle" font-weight="bold" fill="#1f2328">自定义</text>
<rect x="150" y="384" width="400" height="150" rx="8" fill="#fbfbfb" stroke="#d7dee8" stroke-width="1.1" stroke-dasharray="6 4"/>
<text x="162.0" y="403.0" font-family="WenQuanYi Zen Hei, Microsoft YaHei, SimSun, sans-serif" font-size="11" text-anchor="start" fill="#8a94a6">AI 改写差异对照</text>
<text x="162.0" y="429.0" font-family="WenQuanYi Zen Hei, Microsoft YaHei, SimSun, sans-serif" font-size="11" text-anchor="start" fill="#3a9a5a">＋ 新增文本…</text>
<text x="162.0" y="453.0" font-family="WenQuanYi Zen Hei, Microsoft YaHei, SimSun, sans-serif" font-size="11" text-anchor="start" fill="#b85450">－ 删除文本…</text>
<text x="162.0" y="477.0" font-family="WenQuanYi Zen Hei, Microsoft YaHei, SimSun, sans-serif" font-size="11" text-anchor="start" fill="#1f2328">  不变文本…</text>
<rect x="300" y="498" width="110" height="28" rx="6" fill="#2f6bd6" stroke="#2f6bd6" stroke-width="1.1"/><text x="355.0" y="516.0" font-family="WenQuanYi Zen Hei, Microsoft YaHei, SimSun, sans-serif" font-size="10" text-anchor="middle" font-weight="bold" fill="#ffffff">全部采纳</text>
<rect x="420" y="498" width="110" height="28" rx="6" fill="#eef2f8" stroke="#c4ccd6" stroke-width="1.1"/><text x="475.0" y="516.0" font-family="WenQuanYi Zen Hei, Microsoft YaHei, SimSun, sans-serif" font-size="10" text-anchor="middle" font-weight="bold" fill="#1f2328">全部拒绝</text>
<rect x="620" y="168" width="325" height="250" rx="8" fill="#fcfdff" stroke="#d7dee8" stroke-width="1.1"/>
<text x="632.0" y="187.0" font-family="WenQuanYi Zen Hei, Microsoft YaHei, SimSun, sans-serif" font-size="11" text-anchor="start" fill="#8a94a6">AI 一句话摘要（SSE 流式）</text>
<rect x="632" y="202" width="300" height="120" rx="8" fill="#ffffff" stroke="#e3e8f0" stroke-width="1.1"/>
<text x="644.0" y="225.0" font-family="WenQuanYi Zen Hei, Microsoft YaHei, SimSun, sans-serif" font-size="11" text-anchor="start" fill="#1f2328">正在生成：面向保研的复习节奏与择校…▍</text>
<rect x="632" y="336" width="160" height="34" rx="6" fill="#2f6bd6" stroke="#2f6bd6" stroke-width="1.1"/><text x="712.0" y="357.5" font-family="WenQuanYi Zen Hei, Microsoft YaHei, SimSun, sans-serif" font-size="11" text-anchor="middle" font-weight="bold" fill="#ffffff">AI 生成摘要</text>
<text x="632.0" y="390.0" font-family="WenQuanYi Zen Hei, Microsoft YaHei, SimSun, sans-serif" font-size="10" text-anchor="start" fill="#8a94a6">失败自动回退首段截断，发布不阻塞</text>
<rect x="620" y="470" width="325" height="96" rx="8" fill="#f6f8fb" stroke="#d7dee8" stroke-width="1.1"/>
<text x="632.0" y="495.0" font-family="WenQuanYi Zen Hei, Microsoft YaHei, SimSun, sans-serif" font-size="11" text-anchor="start" fill="#8a94a6">发布前校验：标题 / 正文 / 分类必填</text>
<rect x="790" y="512" width="140" height="42" rx="6" fill="#2f6bd6" stroke="#2f6bd6" stroke-width="1.1"/><text x="860.0" y="538.5" font-family="WenQuanYi Zen Hei, Microsoft YaHei, SimSun, sans-serif" font-size="13" text-anchor="middle" font-weight="bold" fill="#ffffff">发布笔记</text>
</svg>