<svg xmlns="http://www.w3.org/2000/svg" width="3513" height="1133" viewBox="0 0 3513 1133" font-family="WenQuanYi Zen Hei, Microsoft YaHei, SimSun, sans-serif">
<rect width="3513" height="1133" fill="#ffffff"/>
<ellipse cx="176.0" cy="533.0" rx="34.0" ry="34.0" fill="#000000" stroke="#000000" stroke-width="1.2"/>
<rect x="425.0" y="431.0" width="482.0" height="181.0" rx="12" fill="#ffffff" stroke="#000000" stroke-width="1.2" stroke-dasharray="6 4"/><text x="666.0" y="537.5" font-family="WenQuanYi Zen Hei, Microsoft YaHei, SimSun, sans-serif" font-size="34" text-anchor="middle" fill="#1f2328">pending 待处理</text>
<rect x="1218.0" y="431.0" width="538.0" height="181.0" rx="12" fill="#ffffff" stroke="#000000" stroke-width="1.2" stroke-dasharray="6 4"/><text x="1487.0" y="537.5" font-family="WenQuanYi Zen Hei, Microsoft YaHei, SimSun, sans-serif" font-size="34" text-anchor="middle" fill="#1f2328">ai_flagged 已标记</text>
<rect x="2097.0" y="198.0" width="538.0" height="181.0" rx="12" fill="#ffffff" stroke="#000000" stroke-width="1.2" stroke-dasharray="6 4"/><text x="2366.0" y="304.5" font-family="WenQuanYi Zen Hei, Microsoft YaHei, SimSun, sans-serif" font-size="34" text-anchor="middle" fill="#1f2328">resolved 已处置</text>
<rect x="2097.0" y="669.0" width="538.0" height="181.0" rx="12" fill="#ffffff" stroke="#000000" stroke-width="1.2" stroke-dasharray="6 4"/><text x="2366.0" y="775.5" font-family="WenQuanYi Zen Hei, Microsoft YaHei, SimSun, sans-serif" font-size="34" text-anchor="middle" fill="#1f2328">dismissed 驳回</text>
<ellipse cx="2984.0" cy="536.0" rx="37.0" ry="37.0" fill="#000000" stroke="#000000" stroke-width="1.2"/>
<text x="146.0" y="1036.5" font-family="WenQuanYi Zen Hei, Microsoft YaHei, SimSun, sans-serif" font-size="34" text-anchor="start" font-weight="bold" fill="#000000">整条链路为后续治理能力规划（虚线）：pending → ai_flagged → resolved / dismissed。</text>
<path d="M210.0 532.2 L425.0 527.2" fill="none" stroke="#000000" stroke-width="1.3" stroke-dasharray="6 4"/><polygon points="425.0,527.2 413.7,531.1 413.5,523.7" fill="#000000" stroke="#000000" stroke-width="1"/>
<path d="M907.0 521.5 L1218.0 521.5" fill="none" stroke="#000000" stroke-width="1.3" stroke-dasharray="6 4"/><polygon points="1218.0,521.5 1206.6,525.2 1206.6,517.8" fill="#000000" stroke="#000000" stroke-width="1"/><rect x="1021.0" y="513.0" width="83.0" height="17.0" fill="#ffffff" opacity="0.85" rx="3"/><text x="1062.5" y="525.0" font-family="WenQuanYi Zen Hei, Microsoft YaHei, SimSun, sans-serif" font-size="11" text-anchor="middle" fill="#000000">AI 审查标记</text>
<path d="M1756.0 521.2 L1927.0 521.0 L1927.0 289.0 L2097.0 288.8" fill="none" stroke="#000000" stroke-width="1.3" stroke-dasharray="6 4"/><polygon points="2097.0,288.8 2085.6,292.5 2085.6,285.1" fill="#000000" stroke="#000000" stroke-width="1"/><rect x="1851.4" y="397.0" width="151.2" height="17.0" fill="#ffffff" opacity="0.85" rx="3"/><text x="1927.0" y="409.0" font-family="WenQuanYi Zen Hei, Microsoft YaHei, SimSun, sans-serif" font-size="11" text-anchor="middle" fill="#000000">管理员裁决：删除/隐藏</text>
<path d="M1756.0 521.2 L1927.0 521.0 L1927.0 759.0 L2097.0 759.2" fill="none" stroke="#000000" stroke-width="1.3" stroke-dasharray="6 4"/><polygon points="2097.0,759.2 2085.6,762.9 2085.6,755.5" fill="#000000" stroke="#000000" stroke-width="1"/><rect x="1854.8" y="631.0" width="144.4" height="17.0" fill="#ffffff" opacity="0.85" rx="3"/><text x="1927.0" y="643.0" font-family="WenQuanYi Zen Hei, Microsoft YaHei, SimSun, sans-serif" font-size="11" text-anchor="middle" fill="#000000">管理员裁决：驳回恢复</text>
<path d="M2635.0 288.7 L2972.0 289.0 L2972.0 499.0 L2972.0 499.0" fill="none" stroke="#000000" stroke-width="1.3" stroke-dasharray="6 4"/><polygon points="2972.0,499.0 2960.6,502.7 2960.6,495.3" fill="#000000" stroke="#000000" stroke-width="1"/>
<path d="M2635.0 759.3 L2972.0 759.0 L2972.0 550.0 L2952.3 573.0" fill="none" stroke="#000000" stroke-width="1.3" stroke-dasharray="6 4"/><polygon points="2952.3,573.0 2956.9,561.9 2962.5,566.7" fill="#000000" stroke="#000000" stroke-width="1"/>
</svg>