<svg xmlns="http://www.w3.org/2000/svg" width="1380" height="860" viewBox="0 0 1380 860" font-family="WenQuanYi Zen Hei, Microsoft YaHei, SimSun, sans-serif">
<rect width="1380" height="860" fill="#ffffff"/>
<line x1="96.0" y1="90.0" x2="96.0" y2="796.0" stroke="#57606a" stroke-width="1" stroke-dasharray="5 4"/><circle cx="96.0" cy="63.0" r="11" fill="#ffffff" stroke="#d79b00" stroke-width="1.4"/><line x1="96.0" y1="74.0" x2="96.0" y2="96.0" stroke="#d79b00" stroke-width="1.4"/><line x1="81.0" y1="82.0" x2="111.0" y2="82.0" stroke="#d79b00" stroke-width="1.4"/><line x1="96.0" y1="96.0" x2="83.0" y2="114.0" stroke="#d79b00" stroke-width="1.4"/><line x1="96.0" y1="96.0" x2="109.0" y2="114.0" stroke="#d79b00" stroke-width="1.4"/><text x="96.0" y="92.0" font-family="WenQuanYi Zen Hei, Microsoft YaHei, SimSun, sans-serif" font-size="12" text-anchor="middle" font-weight="bold" fill="#1f2328">注册用户</text>
<line x1="330.0" y1="78.0" x2="330.0" y2="790.0" stroke="#57606a" stroke-width="1" stroke-dasharray="5 4"/><rect x="235.0" y="44.0" width="190.0" height="34.0" rx="3" fill="#dae8fc" stroke="#6c8ebf" stroke-width="1.2"/><text x="330.0" y="60.0" font-family="WenQuanYi Zen Hei, Microsoft YaHei, SimSun, sans-serif" font-size="12" text-anchor="middle" fill="#1f2328">WritePage 前端</text>
<rect x="325.0" y="127.0" width="10.0" height="643.0" rx="2" fill="#ffffff" stroke="#1f2328" stroke-width="1.2"/>
<line x1="585.0" y1="78.0" x2="585.0" y2="790.0" stroke="#57606a" stroke-width="1" stroke-dasharray="5 4"/><rect x="490.0" y="44.0" width="190.0" height="34.0" rx="3" fill="#dae8fc" stroke="#6c8ebf" stroke-width="1.2"/><text x="585.0" y="60.0" font-family="WenQuanYi Zen Hei, Microsoft YaHei, SimSun, sans-serif" font-size="12" text-anchor="middle" fill="#1f2328">DraftsRoutes·发布</text>
<line x1="840.0" y1="78.0" x2="840.0" y2="790.0" stroke="#57606a" stroke-width="1" stroke-dasharray="5 4"/><rect x="745.0" y="44.0" width="190.0" height="34.0" rx="3" fill="#dae8fc" stroke="#6c8ebf" stroke-width="1.2"/><text x="840.0" y="60.0" font-family="WenQuanYi Zen Hei, Microsoft YaHei, SimSun, sans-serif" font-size="12" text-anchor="middle" fill="#1f2328">AiComposeService</text>
<line x1="1080.0" y1="78.0" x2="1080.0" y2="790.0" stroke="#57606a" stroke-width="1" stroke-dasharray="5 4"/><rect x="985.0" y="44.0" width="190.0" height="34.0" rx="3" fill="#dae8fc" stroke="#6c8ebf" stroke-width="1.2"/><text x="1080.0" y="60.0" font-family="WenQuanYi Zen Hei, Microsoft YaHei, SimSun, sans-serif" font-size="12" text-anchor="middle" fill="#1f2328">外部 AI 服务</text>
<line x1="1290.0" y1="78.0" x2="1290.0" y2="790.0" stroke="#57606a" stroke-width="1" stroke-dasharray="5 4"/><rect x="1195.0" y="44.0" width="190.0" height="34.0" rx="3" fill="#dae8fc" stroke="#6c8ebf" stroke-width="1.2"/><text x="1290.0" y="60.0" font-family="WenQuanYi Zen Hei, Microsoft YaHei, SimSun, sans-serif" font-size="12" text-anchor="middle" fill="#1f2328">DB · SQLite</text>
<rect x="1285.0" y="269.0" width="10.0" height="407.0" rx="2" fill="#ffffff" stroke="#1f2328" stroke-width="1.2"/>
<text x="212.0" y="123.5" font-family="WenQuanYi Zen Hei, Microsoft YaHei, SimSun, sans-serif" font-size="11" text-anchor="middle" font-weight="bold" fill="#1f2328">点击「发布」</text>
<text x="416.0" y="181.5" font-family="WenQuanYi Zen Hei, Microsoft YaHei, SimSun, sans-serif" font-size="11" text-anchor="start" font-weight="bold" fill="#1f2328">校验标题 / 正文 / 分类非空</text>
<text x="457.0" y="225.5" font-family="WenQuanYi Zen Hei, Microsoft YaHei, SimSun, sans-serif" font-size="11" text-anchor="middle" font-weight="bold" fill="#1f2328">POST /notes/drafts/{id}/publish</text>
<text x="937.0" y="265.5" font-family="WenQuanYi Zen Hei, Microsoft YaHei, SimSun, sans-serif" font-size="11" text-anchor="middle" font-weight="bold" fill="#1f2328">读取草稿</text>
<text x="937.0" y="303.5" font-family="WenQuanYi Zen Hei, Microsoft YaHei, SimSun, sans-serif" font-size="11" text-anchor="middle" font-weight="bold" fill="#1f2328">草稿数据</text>
<rect x="414.0" y="336.0" width="726.0" height="254.0" rx="2" fill="none" stroke="#57606a" stroke-width="1.2" stroke-dasharray="6 4"/>
<rect x="414.0" y="336.0" width="120.0" height="22.0" rx="2" fill="#eef2f7" stroke="#57606a" stroke-width="1.2"/>
<text x="426.0" y="351.5" font-family="WenQuanYi Zen Hei, Microsoft YaHei, SimSun, sans-serif" font-size="11" text-anchor="start" font-weight="bold" fill="#57606a">opt [摘要为空]</text>
<text x="712.0" y="365.5" font-family="WenQuanYi Zen Hei, Microsoft YaHei, SimSun, sans-serif" font-size="11" text-anchor="middle" font-weight="bold" fill="#1f2328">请求生成一句话摘要</text>
<text x="960.0" y="403.5" font-family="WenQuanYi Zen Hei, Microsoft YaHei, SimSun, sans-serif" font-size="11" text-anchor="middle" font-weight="bold" fill="#1f2328">chat.completions</text>
<rect x="711.0" y="432.0" width="409.0" height="128.0" rx="2" fill="none" stroke="#57606a" stroke-width="1.2" stroke-dasharray="6 4"/>
<rect x="711.0" y="432.0" width="120.0" height="22.0" rx="2" fill="#eef2f7" stroke="#57606a" stroke-width="1.2"/>
<text x="722.0" y="447.5" font-family="WenQuanYi Zen Hei, Microsoft YaHei, SimSun, sans-serif" font-size="11" text-anchor="start" font-weight="bold" fill="#57606a">alt [超时/失败]</text>
<text x="960.0" y="461.5" font-family="WenQuanYi Zen Hei, Microsoft YaHei, SimSun, sans-serif" font-size="11" text-anchor="middle" font-weight="bold" fill="#1f2328">摘要文本 / 超时</text>
<text x="926.0" y="521.5" font-family="WenQuanYi Zen Hei, Microsoft YaHei, SimSun, sans-serif" font-size="11" text-anchor="start" font-weight="bold" fill="#1f2328">首段截断兜底（永不失败）</text>
<text x="712.0" y="568.5" font-family="WenQuanYi Zen Hei, Microsoft YaHei, SimSun, sans-serif" font-size="11" text-anchor="middle" font-weight="bold" fill="#1f2328">最终摘要文本</text>
<text x="937.0" y="621.5" font-family="WenQuanYi Zen Hei, Microsoft YaHei, SimSun, sans-serif" font-size="11" text-anchor="middle" font-weight="bold" fill="#1f2328">单事务：建笔记 + 删草稿</text>
<text x="937.0" y="661.5" font-family="WenQuanYi Zen Hei, Microsoft YaHei, SimSun, sans-serif" font-size="11" text-anchor="middle" font-weight="bold" fill="#1f2328">新笔记</text>
<text x="457.0" y="701.5" font-family="WenQuanYi Zen Hei, Microsoft YaHei, SimSun, sans-serif" font-size="11" text-anchor="middle" font-weight="bold" fill="#1f2328">201 新笔记</text>
<text x="212.0" y="741.5" font-family="WenQuanYi Zen Hei, Microsoft YaHei, SimSun, sans-serif" font-size="11" text-anchor="middle" font-weight="bold" fill="#1f2328">跳转笔记详情页</text>
<rect x="580.0" y="227.0" width="10.0" height="491.0" rx="2" fill="#ffffff" stroke="#1f2328" stroke-width="1.2"/>
<rect x="835.0" y="364.0" width="10.0" height="217.0" rx="2" fill="#ffffff" stroke="#1f2328" stroke-width="1.2"/>
<rect x="1075.0" y="401.5" width="10.0" height="69.5" rx="2" fill="#ffffff" stroke="#1f2328" stroke-width="1.2"/>
<path d="M95.0 130.0 L330.0 130.0" fill="none" stroke="#5b6b7b" stroke-width="1.3"/><polygon points="330.0,130.0 318.6,133.7 318.6,126.3" fill="#5b6b7b" stroke="#5b6b7b" stroke-width="1"/>
<path d="M336.0 160.0 L404.0 160.0 L404.0 186.0 L336.0 186.0" fill="none" stroke="#5b6b7b" stroke-width="1.3"/><polygon points="336.0,186.0 347.4,182.3 347.4,189.7" fill="#5b6b7b" stroke="#5b6b7b" stroke-width="1"/>
<path d="M330.0 232.0 L585.0 232.0" fill="none" stroke="#5b6b7b" stroke-width="1.3"/><polygon points="585.0,232.0 573.6,235.7 573.6,228.3" fill="#5b6b7b" stroke="#5b6b7b" stroke-width="1"/>
<path d="M585.0 272.0 L1285.0 272.0" fill="none" stroke="#5b6b7b" stroke-width="1.3"/><polygon points="1285.0,272.0 1273.6,275.7 1273.6,268.3" fill="#5b6b7b" stroke="#5b6b7b" stroke-width="1"/>
<path d="M1290.0 310.0 L585.0 310.0" fill="none" stroke="#5b6b7b" stroke-width="1.3" stroke-dasharray="6 4"/><line x1="596.4" y1="306.3" x2="585.0" y2="310.0" stroke="#5b6b7b" stroke-width="1.3"/><line x1="596.4" y1="313.7" x2="585.0" y2="310.0" stroke="#5b6b7b" stroke-width="1.3"/>
<path d="M585.0 372.0 L840.0 372.0" fill="none" stroke="#5b6b7b" stroke-width="1.3"/><polygon points="840.0,372.0 828.6,375.7 828.6,368.3" fill="#5b6b7b" stroke="#5b6b7b" stroke-width="1"/>
<path d="M840.0 410.0 L1080.0 410.0" fill="none" stroke="#5b6b7b" stroke-width="1.3"/><polygon points="1080.0,410.0 1068.6,413.7 1068.6,406.3" fill="#5b6b7b" stroke="#5b6b7b" stroke-width="1"/>
<path d="M1080.0 468.0 L840.0 468.0" fill="none" stroke="#5b6b7b" stroke-width="1.3" stroke-dasharray="6 4"/><line x1="851.4" y1="464.3" x2="840.0" y2="468.0" stroke="#5b6b7b" stroke-width="1.3"/><line x1="851.4" y1="471.7" x2="840.0" y2="468.0" stroke="#5b6b7b" stroke-width="1.3"/>
<path d="M840.0 500.0 L914.0 500.0 L914.0 526.0 L846.0 526.0" fill="none" stroke="#5b6b7b" stroke-width="1.3"/><polygon points="846.0,526.0 857.4,522.3 857.4,529.7" fill="#5b6b7b" stroke="#5b6b7b" stroke-width="1"/>
<path d="M840.0 575.0 L585.0 575.0" fill="none" stroke="#5b6b7b" stroke-width="1.3" stroke-dasharray="6 4"/><line x1="596.4" y1="571.3" x2="585.0" y2="575.0" stroke="#5b6b7b" stroke-width="1.3"/><line x1="596.4" y1="578.7" x2="585.0" y2="575.0" stroke="#5b6b7b" stroke-width="1.3"/>
<path d="M585.0 628.0 L1284.0 628.0" fill="none" stroke="#5b6b7b" stroke-width="1.3"/><polygon points="1284.0,628.0 1272.6,631.7 1272.6,624.3" fill="#5b6b7b" stroke="#5b6b7b" stroke-width="1"/>
<path d="M1290.0 668.0 L585.0 668.0" fill="none" stroke="#5b6b7b" stroke-width="1.3" stroke-dasharray="6 4"/><line x1="596.4" y1="664.3" x2="585.0" y2="668.0" stroke="#5b6b7b" stroke-width="1.3"/><line x1="596.4" y1="671.7" x2="585.0" y2="668.0" stroke="#5b6b7b" stroke-width="1.3"/>
<path d="M585.0 708.0 L335.0 706.0" fill="none" stroke="#5b6b7b" stroke-width="1.3" stroke-dasharray="6 4"/><line x1="346.4" y1="702.4" x2="335.0" y2="706.0" stroke="#5b6b7b" stroke-width="1.3"/><line x1="346.4" y1="709.8" x2="335.0" y2="706.0" stroke="#5b6b7b" stroke-width="1.3"/>
<path d="M323.0 748.0 L95.0 748.0" fill="none" stroke="#5b6b7b" stroke-width="1.3" stroke-dasharray="6 4"/><line x1="106.4" y1="744.3" x2="95.0" y2="748.0" stroke="#5b6b7b" stroke-width="1.3"/><line x1="106.4" y1="751.7" x2="95.0" y2="748.0" stroke="#5b6b7b" stroke-width="1.3"/>
<path d="M585.0 272.0 L1290.0 272.0" fill="none" stroke="#5b6b7b" stroke-width="1.3"/><polygon points="1290.0,272.0 1278.6,275.7 1278.6,268.3" fill="#5b6b7b" stroke="#5b6b7b" stroke-width="1"/>
<path d="M840.0 410.0 L1080.0 410.0" fill="none" stroke="#5b6b7b" stroke-width="1.3"/><polygon points="1080.0,410.0 1068.6,413.7 1068.6,406.3" fill="#5b6b7b" stroke="#5b6b7b" stroke-width="1"/>
</svg>