<svg xmlns="http://www.w3.org/2000/svg" width="900" height="620" viewBox="0 0 900 620" font-family="WenQuanYi Zen Hei, Microsoft YaHei, SimSun, sans-serif">
<rect x="0" y="0" width="900" height="620" fill="#ffffff"/>
<rect x="20" y="20" width="860" height="560" rx="8" fill="#ffffff" stroke="#c4ccd6" stroke-width="1.4"/><path d="M20 50 L20 28 Q20 20 28 20 L872 20 Q880 20 880 28 L880 50 Z" fill="#eef2f7" stroke="#c4ccd6" stroke-width="1.4"/><circle cx="36" cy="35" r="5" fill="#ff6159"/><circle cx="52" cy="35" r="5" fill="#febc2e"/><circle cx="68" cy="35" r="5" fill="#28c840"/><text x="450.0" y="40.0" font-family="WenQuanYi Zen Hei, Microsoft YaHei, SimSun, sans-serif" font-size="12" text-anchor="middle" font-weight="bold" fill="#57606a">飞跃 · 首页  /（每日首次上线）</text>
<rect x="40" y="70" width="820" height="490" rx="8" fill="#eef1f5" stroke="#e3e8f0" stroke-width="1.1"/>
<text x="60.0" y="101.0" font-family="WenQuanYi Zen Hei, Microsoft YaHei, SimSun, sans-serif" font-size="11" text-anchor="start" fill="#8a94a6">首页信息流（弹窗遮罩下）</text>
<rect x="270" y="150" width="360" height="340" rx="8" fill="#ffffff" stroke="#c4ccd6" stroke-width="1.1"/>
<text x="450.0" y="188.0" font-family="WenQuanYi Zen Hei, Microsoft YaHei, SimSun, sans-serif" font-size="16" text-anchor="middle" font-weight="bold" fill="#1f2328">每日签到</text>
<rect x="385" y="206" width="130" height="98" rx="8" fill="#eef4ff" stroke="#6c8ebf" stroke-width="1.1"/>
<text x="450.0" y="256.0" font-family="WenQuanYi Zen Hei, Microsoft YaHei, SimSun, sans-serif" font-size="20" text-anchor="middle" font-weight="bold" fill="#6c8ebf">＋5 EXP</text>
<text x="450.0" y="341.0" font-family="WenQuanYi Zen Hei, Microsoft YaHei, SimSun, sans-serif" font-size="15" text-anchor="middle" font-weight="bold" fill="#3a9a5a">经验 +5</text>
<text x="450.0" y="367.0" font-family="WenQuanYi Zen Hei, Microsoft YaHei, SimSun, sans-serif" font-size="11" text-anchor="middle" fill="#8a94a6">已连续签到 7 天 · 当前 Lv2（exp 155）</text>
<rect x="330" y="392" width="240" height="46" rx="6" fill="#2f6bd6" stroke="#2f6bd6" stroke-width="1.1"/><text x="450.0" y="421.0" font-family="WenQuanYi Zen Hei, Microsoft YaHei, SimSun, sans-serif" font-size="14" text-anchor="middle" font-weight="bold" fill="#ffffff">一键签到</text>
<text x="450.0" y="462.0" font-family="WenQuanYi Zen Hei, Microsoft YaHei, SimSun, sans-serif" font-size="10" text-anchor="middle" fill="#8a94a6">当日已签到则不再弹出（幂等，不重复加经验）</text>
</svg>