<svg xmlns="http://www.w3.org/2000/svg" width="3173" height="1303" viewBox="0 0 3173 1303" font-family="WenQuanYi Zen Hei, Microsoft YaHei, SimSun, sans-serif">
<rect width="3173" height="1303" fill="#ffffff"/>
<ellipse cx="204.0" cy="601.0" rx="34.0" ry="34.0" fill="#000000" stroke="#000000" stroke-width="1.2"/>
<rect x="482.0" y="504.0" width="482.0" height="187.0" rx="12" fill="#ffffff" stroke="#000000" stroke-width="1.2"/><text x="723.0" y="613.5" font-family="WenQuanYi Zen Hei, Microsoft YaHei, SimSun, sans-serif" font-size="34" text-anchor="middle" fill="#1f2328">草稿 Draft</text>
<rect x="1332.0" y="504.0" width="510.0" height="187.0" rx="12" fill="#ffffff" stroke="#000000" stroke-width="1.2"/><text x="1587.0" y="613.5" font-family="WenQuanYi Zen Hei, Microsoft YaHei, SimSun, sans-serif" font-size="34" text-anchor="middle" fill="#1f2328">可见 visible</text>
<ellipse cx="2389.0" cy="598.0" rx="37.0" ry="37.0" fill="#000000" stroke="#000000" stroke-width="1.2"/>
<rect x="1332.0" y="935.0" width="538.0" height="176.0" rx="12" fill="#ffffff" stroke="#000000" stroke-width="1.2" stroke-dasharray="6 4"/><text x="1601.0" y="1039.0" font-family="WenQuanYi Zen Hei, Microsoft YaHei, SimSun, sans-serif" font-size="34" text-anchor="middle" fill="#1f2328">隐藏 pending</text>
<text x="174.0" y="1206.5" font-family="WenQuanYi Zen Hei, Microsoft YaHei, SimSun, sans-serif" font-size="34" text-anchor="start" font-weight="bold" fill="#000000">已实现：草稿 → 发布(visible) → 作者删除；pending 隐藏态与治理裁决为后续规划（虚线）。</text>
<path d="M238.0 600.8 L482.0 599.1" fill="none" stroke="#000000" stroke-width="1.3"/><polygon points="482.0,599.1 470.6,602.9 470.6,595.5" fill="#000000" stroke="#000000" stroke-width="1"/>
<path d="M964.0 597.5 L1332.0 597.5" fill="none" stroke="#000000" stroke-width="1.3"/><polygon points="1332.0,597.5 1320.6,601.2 1320.6,593.8" fill="#000000" stroke="#000000" stroke-width="1"/><rect x="1089.4" y="589.0" width="117.1" height="17.0" fill="#ffffff" opacity="0.85" rx="3"/><text x="1148.0" y="601.0" font-family="WenQuanYi Zen Hei, Microsoft YaHei, SimSun, sans-serif" font-size="11" text-anchor="middle" fill="#000000">发布（唯一路径）</text>
<path d="M1842.0 597.7 L2352.0 598.0" fill="none" stroke="#000000" stroke-width="1.3"/><polygon points="2352.0,598.0 2340.6,601.7 2340.6,594.3" fill="#000000" stroke="#000000" stroke-width="1"/><rect x="2004.3" y="589.3" width="185.3" height="17.0" fill="#ffffff" opacity="0.85" rx="3"/><text x="2097.0" y="601.3" font-family="WenQuanYi Zen Hei, Microsoft YaHei, SimSun, sans-serif" font-size="11" text-anchor="middle" fill="#000000">作者删除 （级联清赞/评论）</text>
<path d="M1590.1 691.0 L1598.1 935.0" fill="none" stroke="#000000" stroke-width="1.3" stroke-dasharray="6 4"/><polygon points="1598.1,935.0 1594.0,923.7 1601.4,923.5" fill="#000000" stroke="#000000" stroke-width="1"/><rect x="1487.8" y="804.5" width="212.6" height="17.0" fill="#ffffff" opacity="0.85" rx="3"/><text x="1594.1" y="816.5" font-family="WenQuanYi Zen Hei, Microsoft YaHei, SimSun, sans-serif" font-size="11" text-anchor="middle" fill="#000000">AI 高置信 / 管理员裁决（规划）</text>
<path d="M1332.0 1023.0 L1218.0 1023.0 L1218.0 691.0 L1332.0 662.1" fill="none" stroke="#000000" stroke-width="1.3" stroke-dasharray="6 4"/><polygon points="1332.0,662.1 1321.8,668.5 1320.0,661.3" fill="#000000" stroke="#000000" stroke-width="1"/><rect x="1173.1" y="846.7" width="89.8" height="17.0" fill="#ffffff" opacity="0.85" rx="3"/><text x="1218.0" y="858.7" font-family="WenQuanYi Zen Hei, Microsoft YaHei, SimSun, sans-serif" font-size="11" text-anchor="middle" fill="#000000">恢复（规划）</text>
<path d="M1870.0 1023.0 L2153.0 1023.0 L2388.0 691.0 L2388.6 635.0" fill="none" stroke="#000000" stroke-width="1.3" stroke-dasharray="6 4"/><polygon points="2388.6,635.0 2392.2,646.5 2384.8,646.4" fill="#000000" stroke="#000000" stroke-width="1"/><rect x="2160.0" y="941.1" width="89.8" height="17.0" fill="#ffffff" opacity="0.85" rx="3"/><text x="2204.9" y="953.1" font-family="WenQuanYi Zen Hei, Microsoft YaHei, SimSun, sans-serif" font-size="11" text-anchor="middle" fill="#000000">删除（规划）</text>
</svg>