<svg xmlns="http://www.w3.org/2000/svg" width="1200" height="620" viewBox="0 0 1200 620" font-family="WenQuanYi Zen Hei, Microsoft YaHei, SimSun, sans-serif">
<rect width="1200" height="620" fill="#ffffff"/>
<line x1="158.0" y1="49.0" x2="158.0" y2="525.0" stroke="#57606a" stroke-width="1" stroke-dasharray="5 4"/><circle cx="158.0" cy="22.0" r="11" fill="#ffffff" stroke="#d79b00" stroke-width="1.4"/><line x1="158.0" y1="33.0" x2="158.0" y2="55.0" stroke="#d79b00" stroke-width="1.4"/><line x1="143.0" y1="41.0" x2="173.0" y2="41.0" stroke="#d79b00" stroke-width="1.4"/><line x1="158.0" y1="55.0" x2="145.0" y2="73.0" stroke="#d79b00" stroke-width="1.4"/><line x1="158.0" y1="55.0" x2="171.0" y2="73.0" stroke="#d79b00" stroke-width="1.4"/><text x="158.0" y="51.0" font-family="WenQuanYi Zen Hei, Microsoft YaHei, SimSun, sans-serif" font-size="12" text-anchor="middle" font-weight="bold" fill="#1f2328">前端 / 调试客户端</text>
<line x1="480.0" y1="78.0" x2="480.0" y2="560.0" stroke="#57606a" stroke-width="1" stroke-dasharray="5 4"/><rect x="385.0" y="44.0" width="190.0" height="34.0" rx="3" fill="#dae8fc" stroke="#6c8ebf" stroke-width="1.2"/><text x="480.0" y="60.0" font-family="WenQuanYi Zen Hei, Microsoft YaHei, SimSun, sans-serif" font-size="12" text-anchor="middle" fill="#1f2328">CollectionsRoutes</text>
<rect x="475.0" y="144.0" width="10.0" height="383.0" rx="2" fill="#ffffff" stroke="#1f2328" stroke-width="1.2"/>
<line x1="820.0" y1="78.0" x2="820.0" y2="560.0" stroke="#57606a" stroke-width="1" stroke-dasharray="5 4"/><rect x="725.0" y="44.0" width="190.0" height="34.0" rx="3" fill="#dae8fc" stroke="#6c8ebf" stroke-width="1.2"/><text x="820.0" y="60.0" font-family="WenQuanYi Zen Hei, Microsoft YaHei, SimSun, sans-serif" font-size="12" text-anchor="middle" fill="#1f2328">DB · entries 表</text>
<line x1="1090.0" y1="78.0" x2="1090.0" y2="560.0" stroke="#57606a" stroke-width="1" stroke-dasharray="5 4"/><rect x="995.0" y="44.0" width="190.0" height="34.0" rx="3" fill="#dae8fc" stroke="#6c8ebf" stroke-width="1.2"/><text x="1090.0" y="60.0" font-family="WenQuanYi Zen Hei, Microsoft YaHei, SimSun, sans-serif" font-size="12" text-anchor="middle" fill="#1f2328">DB · notes/users</text>
<text x="320.0" y="143.5" font-family="WenQuanYi Zen Hei, Microsoft YaHei, SimSun, sans-serif" font-size="11" text-anchor="middle" font-weight="bold" fill="#1f2328">GET /notes/{id}/collection</text>
<text x="650.0" y="189.5" font-family="WenQuanYi Zen Hei, Microsoft YaHei, SimSun, sans-serif" font-size="11" text-anchor="middle" font-weight="bold" fill="#1f2328">查 collection_entries[note_id]</text>
<rect x="314.0" y="224.0" width="586.0" height="64.0" rx="2" fill="none" stroke="#57606a" stroke-width="1.2" stroke-dasharray="6 4"/>
<rect x="314.0" y="224.0" width="120.0" height="22.0" rx="2" fill="#eef2f7" stroke="#57606a" stroke-width="1.2"/>
<text x="326.0" y="239.5" font-family="WenQuanYi Zen Hei, Microsoft YaHei, SimSun, sans-serif" font-size="11" text-anchor="start" font-weight="bold" fill="#57606a">alt [无归属]</text>
<text x="650.0" y="255.5" font-family="WenQuanYi Zen Hei, Microsoft YaHei, SimSun, sans-serif" font-size="11" text-anchor="middle" font-weight="bold" fill="#1f2328">无记录</text>
<text x="320.0" y="293.5" font-family="WenQuanYi Zen Hei, Microsoft YaHei, SimSun, sans-serif" font-size="11" text-anchor="middle" font-weight="bold" fill="#1f2328">200 / null</text>
<rect x="326.0" y="330.0" width="814.0" height="170.0" rx="2" fill="none" stroke="#57606a" stroke-width="1.2" stroke-dasharray="6 4"/>
<rect x="326.0" y="330.0" width="120.0" height="22.0" rx="2" fill="#eef2f7" stroke="#57606a" stroke-width="1.2"/>
<text x="338.0" y="345.5" font-family="WenQuanYi Zen Hei, Microsoft YaHei, SimSun, sans-serif" font-size="11" text-anchor="start" font-weight="bold" fill="#57606a">[已归属合集]</text>
<text x="650.0" y="361.5" font-family="WenQuanYi Zen Hei, Microsoft YaHei, SimSun, sans-serif" font-size="11" text-anchor="middle" font-weight="bold" fill="#1f2328">collection_id</text>
<text x="785.0" y="401.5" font-family="WenQuanYi Zen Hei, Microsoft YaHei, SimSun, sans-serif" font-size="11" text-anchor="middle" font-weight="bold" fill="#1f2328">JOIN 同合集 visible 条目（排序）</text>
<text x="785.0" y="441.5" font-family="WenQuanYi Zen Hei, Microsoft YaHei, SimSun, sans-serif" font-size="11" text-anchor="middle" font-weight="bold" fill="#1f2328">entries + author</text>
<text x="509.0" y="540.5" font-family="WenQuanYi Zen Hei, Microsoft YaHei, SimSun, sans-serif" font-size="11" text-anchor="start" font-weight="bold" fill="#1f2328">组装 currentIndex</text>
<text x="312.0" y="506.5" font-family="WenQuanYi Zen Hei, Microsoft YaHei, SimSun, sans-serif" font-size="11" text-anchor="middle" font-weight="bold" fill="#1f2328">collection + entries + currentIndex</text>
<rect x="815.0" y="193.0" width="10.0" height="182.0" rx="2" fill="#ffffff" stroke="#1f2328" stroke-width="1.2"/>
<rect x="1085.0" y="384.0" width="10.0" height="80.0" rx="2" fill="#ffffff" stroke="#1f2328" stroke-width="1.2"/>
<path d="M95.0 434.0 L169.0 434.0 L169.0 475.0 L134.0 475.0 L100.0 474.0" fill="none" stroke="#5b6b7b" stroke-width="1.3"/><polygon points="100.0,474.0 111.5,470.6 111.3,478.0" fill="#5b6b7b" stroke="#5b6b7b" stroke-width="1"/>
<path d="M160.0 150.0 L473.0 150.0" fill="none" stroke="#5b6b7b" stroke-width="1.3"/><polygon points="473.0,150.0 461.6,153.7 461.6,146.3" fill="#5b6b7b" stroke="#5b6b7b" stroke-width="1"/>
<path d="M480.0 196.0 L813.0 196.0" fill="none" stroke="#5b6b7b" stroke-width="1.3"/><polygon points="813.0,196.0 801.6,199.7 801.6,192.3" fill="#5b6b7b" stroke="#5b6b7b" stroke-width="1"/>
<path d="M820.0 262.0 L480.0 262.0" fill="none" stroke="#5b6b7b" stroke-width="1.3" stroke-dasharray="6 4"/><line x1="491.4" y1="258.3" x2="480.0" y2="262.0" stroke="#5b6b7b" stroke-width="1.3"/><line x1="491.4" y1="265.7" x2="480.0" y2="262.0" stroke="#5b6b7b" stroke-width="1.3"/>
<path d="M480.0 300.0 L160.0 300.0" fill="none" stroke="#5b6b7b" stroke-width="1.3" stroke-dasharray="6 4"/><line x1="171.4" y1="296.3" x2="160.0" y2="300.0" stroke="#5b6b7b" stroke-width="1.3"/><line x1="171.4" y1="303.7" x2="160.0" y2="300.0" stroke="#5b6b7b" stroke-width="1.3"/>
<path d="M820.0 368.0 L480.0 368.0" fill="none" stroke="#5b6b7b" stroke-width="1.3" stroke-dasharray="6 4"/><line x1="491.4" y1="364.3" x2="480.0" y2="368.0" stroke="#5b6b7b" stroke-width="1.3"/><line x1="491.4" y1="371.7" x2="480.0" y2="368.0" stroke="#5b6b7b" stroke-width="1.3"/>
<path d="M480.0 408.0 L1084.0 408.0" fill="none" stroke="#5b6b7b" stroke-width="1.3"/><polygon points="1084.0,408.0 1072.6,411.7 1072.6,404.3" fill="#5b6b7b" stroke="#5b6b7b" stroke-width="1"/>
<path d="M1090.0 448.0 L480.0 448.0" fill="none" stroke="#5b6b7b" stroke-width="1.3" stroke-dasharray="6 4"/><line x1="491.4" y1="444.3" x2="480.0" y2="448.0" stroke="#5b6b7b" stroke-width="1.3"/><line x1="491.4" y1="451.7" x2="480.0" y2="448.0" stroke="#5b6b7b" stroke-width="1.3"/>
<path d="M480.0 518.0 L160.0 518.0" fill="none" stroke="#5b6b7b" stroke-width="1.3" stroke-dasharray="6 4"/><line x1="171.4" y1="514.3" x2="160.0" y2="518.0" stroke="#5b6b7b" stroke-width="1.3"/><line x1="171.4" y1="521.7" x2="160.0" y2="518.0" stroke="#5b6b7b" stroke-width="1.3"/>
</svg>