<svg xmlns="http://www.w3.org/2000/svg" width="1000" height="680" viewBox="0 0 1000 680" font-family="WenQuanYi Zen Hei, Microsoft YaHei, SimSun, sans-serif">
<rect x="0" y="0" width="1000" height="680" fill="#ffffff"/>
<rect x="30" y="30" width="940" height="620" rx="8" fill="#ffffff" stroke="#c4ccd6" stroke-width="1.4"/><path d="M30 60 L30 38 Q30 30 38 30 L962 30 Q970 30 970 38 L970 60 Z" fill="#eef2f7" stroke="#c4ccd6" stroke-width="1.4"/><circle cx="46" cy="45" r="5" fill="#ff6159"/><circle cx="62" cy="45" r="5" fill="#febc2e"/><circle cx="78" cy="45" r="5" fill="#28c840"/><text x="500.0" y="50.0" font-family="WenQuanYi Zen Hei, Microsoft YaHei, SimSun, sans-serif" font-size="12" text-anchor="middle" font-weight="bold" fill="#57606a">飞跃 · 信息流  /browse</text>
<rect x="55" y="92" width="190" height="520" rx="8" fill="#f6f8fb" stroke="#d7dee8" stroke-width="1.1"/>
<text x="66.0" y="111.0" font-family="WenQuanYi Zen Hei, Microsoft YaHei, SimSun, sans-serif" font-size="11" text-anchor="start" fill="#8a94a6">分类</text>
<rect x="66" y="126" width="168" height="28" rx="6" fill="#2f6bd6" stroke="#2f6bd6" stroke-width="1.1"/><text x="150.0" y="144.0" font-family="WenQuanYi Zen Hei, Microsoft YaHei, SimSun, sans-serif" font-size="10" text-anchor="middle" font-weight="bold" fill="#ffffff">全部</text>
<rect x="66" y="160" width="168" height="28" rx="6" fill="#eef2f8" stroke="#c4ccd6" stroke-width="1.1"/><text x="150.0" y="178.0" font-family="WenQuanYi Zen Hei, Microsoft YaHei, SimSun, sans-serif" font-size="10" text-anchor="middle" font-weight="bold" fill="#1f2328">research 科研</text>
<rect x="66" y="194" width="168" height="28" rx="6" fill="#eef2f8" stroke="#c4ccd6" stroke-width="1.1"/><text x="150.0" y="212.0" font-family="WenQuanYi Zen Hei, Microsoft YaHei, SimSun, sans-serif" font-size="10" text-anchor="middle" font-weight="bold" fill="#1f2328">course 课程</text>
<rect x="66" y="228" width="168" height="28" rx="6" fill="#eef2f8" stroke="#c4ccd6" stroke-width="1.1"/><text x="150.0" y="246.0" font-family="WenQuanYi Zen Hei, Microsoft YaHei, SimSun, sans-serif" font-size="10" text-anchor="middle" font-weight="bold" fill="#1f2328">competition 竞赛</text>
<rect x="66" y="262" width="168" height="28" rx="6" fill="#eef2f8" stroke="#c4ccd6" stroke-width="1.1"/><text x="150.0" y="280.0" font-family="WenQuanYi Zen Hei, Microsoft YaHei, SimSun, sans-serif" font-size="10" text-anchor="middle" font-weight="bold" fill="#1f2328">kaggle</text>
<rect x="66" y="296" width="168" height="28" rx="6" fill="#eef2f8" stroke="#c4ccd6" stroke-width="1.1"/><text x="150.0" y="314.0" font-family="WenQuanYi Zen Hei, Microsoft YaHei, SimSun, sans-serif" font-size="10" text-anchor="middle" font-weight="bold" fill="#1f2328">tools 工具</text>
<rect x="66" y="330" width="168" height="28" rx="6" fill="#eef2f8" stroke="#c4ccd6" stroke-width="1.1"/><text x="150.0" y="348.0" font-family="WenQuanYi Zen Hei, Microsoft YaHei, SimSun, sans-serif" font-size="10" text-anchor="middle" font-weight="bold" fill="#1f2328">life 生活</text>
<text x="66.0" y="391.0" font-family="WenQuanYi Zen Hei, Microsoft YaHei, SimSun, sans-serif" font-size="11" text-anchor="start" fill="#8a94a6">热门标签</text>
<rect x="66" y="406" width="78" height="26" rx="6" fill="#eef2f8" stroke="#c4ccd6" stroke-width="1.1"/><text x="105.0" y="423.0" font-family="WenQuanYi Zen Hei, Microsoft YaHei, SimSun, sans-serif" font-size="10" text-anchor="middle" font-weight="bold" fill="#1f2328">#保研</text>
<rect x="150" y="406" width="78" height="26" rx="6" fill="#eef2f8" stroke="#c4ccd6" stroke-width="1.1"/><text x="189.0" y="423.0" font-family="WenQuanYi Zen Hei, Microsoft YaHei, SimSun, sans-serif" font-size="10" text-anchor="middle" font-weight="bold" fill="#1f2328">#夏令营</text>
<rect x="66" y="440" width="78" height="26" rx="6" fill="#eef2f8" stroke="#c4ccd6" stroke-width="1.1"/><text x="105.0" y="457.0" font-family="WenQuanYi Zen Hei, Microsoft YaHei, SimSun, sans-serif" font-size="10" text-anchor="middle" font-weight="bold" fill="#1f2328">#kaggle</text>
<rect x="150" y="440" width="78" height="26" rx="6" fill="#eef2f8" stroke="#c4ccd6" stroke-width="1.1"/><text x="189.0" y="457.0" font-family="WenQuanYi Zen Hei, Microsoft YaHei, SimSun, sans-serif" font-size="10" text-anchor="middle" font-weight="bold" fill="#1f2328">#简历</text>
<rect x="265" y="92" width="470" height="38" rx="4" fill="#ffffff" stroke="#c4ccd6" stroke-width="1.1"/><text x="273.0" y="107.0" font-family="WenQuanYi Zen Hei, Microsoft YaHei, SimSun, sans-serif" font-size="11" text-anchor="start" fill="#1f2328">搜索标题 / 标签 / 作者</text>
<rect x="750" y="93" width="60" height="36" rx="6" fill="#2f6bd6" stroke="#2f6bd6" stroke-width="1.1"/><text x="780.0" y="115.0" font-family="WenQuanYi Zen Hei, Microsoft YaHei, SimSun, sans-serif" font-size="10" text-anchor="middle" font-weight="bold" fill="#ffffff">最新</text>
<rect x="816" y="93" width="60" height="36" rx="6" fill="#eef2f8" stroke="#c4ccd6" stroke-width="1.1"/><text x="846.0" y="115.0" font-family="WenQuanYi Zen Hei, Microsoft YaHei, SimSun, sans-serif" font-size="10" text-anchor="middle" font-weight="bold" fill="#1f2328">热门</text>
<rect x="882" y="93" width="60" height="36" rx="6" fill="#eef2f8" stroke="#c4ccd6" stroke-width="1.1"/><text x="912.0" y="115.0" font-family="WenQuanYi Zen Hei, Microsoft YaHei, SimSun, sans-serif" font-size="10" text-anchor="middle" font-weight="bold" fill="#1f2328">我赞过</text>
<rect x="265" y="145" width="220" height="190" rx="8" fill="#ffffff" stroke="#dfe4ec" stroke-width="1.1"/>
<rect x="277" y="157" width="196" height="84" rx="4" fill="#eef1f5" stroke="#c4ccd6" stroke-width="1.1"/><path d="M277 157 L473 241 M473 157 L277 241" stroke="#c4ccd6" stroke-width="1" fill="none"/><text x="375.0" y="202.5" font-family="WenQuanYi Zen Hei, Microsoft YaHei, SimSun, sans-serif" font-size="10" text-anchor="middle" fill="#1f2328">封面</text>
<text x="277.0" y="260.0" font-family="WenQuanYi Zen Hei, Microsoft YaHei, SimSun, sans-serif" font-size="11" text-anchor="start" font-weight="bold" fill="#1f2328">保研经验：从择校到复试</text>
<text x="277.0" y="281.0" font-family="WenQuanYi Zen Hei, Microsoft YaHei, SimSun, sans-serif" font-size="10" text-anchor="start" fill="#8a94a6">一句话摘要文本……</text>
<text x="277.0" y="313.0" font-family="WenQuanYi Zen Hei, Microsoft YaHei, SimSun, sans-serif" font-size="10" text-anchor="start" fill="#8a94a6">@作者 · ♥ 128 · 评 20 · ★ 15</text>
<rect x="505" y="145" width="220" height="190" rx="8" fill="#ffffff" stroke="#dfe4ec" stroke-width="1.1"/>
<rect x="517" y="157" width="196" height="84" rx="4" fill="#eef1f5" stroke="#c4ccd6" stroke-width="1.1"/><path d="M517 157 L713 241 M713 157 L517 241" stroke="#c4ccd6" stroke-width="1" fill="none"/><text x="615.0" y="202.5" font-family="WenQuanYi Zen Hei, Microsoft YaHei, SimSun, sans-serif" font-size="10" text-anchor="middle" fill="#1f2328">封面</text>
<text x="517.0" y="260.0" font-family="WenQuanYi Zen Hei, Microsoft YaHei, SimSun, sans-serif" font-size="11" text-anchor="start" font-weight="bold" fill="#1f2328">保研经验：从择校到复试</text>
<text x="517.0" y="281.0" font-family="WenQuanYi Zen Hei, Microsoft YaHei, SimSun, sans-serif" font-size="10" text-anchor="start" fill="#8a94a6">一句话摘要文本……</text>
<text x="517.0" y="313.0" font-family="WenQuanYi Zen Hei, Microsoft YaHei, SimSun, sans-serif" font-size="10" text-anchor="start" fill="#8a94a6">@作者 · ♥ 128 · 评 20 · ★ 15</text>
<rect x="265" y="350" width="220" height="190" rx="8" fill="#ffffff" stroke="#dfe4ec" stroke-width="1.1"/>
<rect x="277" y="362" width="196" height="84" rx="4" fill="#eef1f5" stroke="#c4ccd6" stroke-width="1.1"/><path d="M277 362 L473 446 M473 362 L277 446" stroke="#c4ccd6" stroke-width="1" fill="none"/><text x="375.0" y="407.5" font-family="WenQuanYi Zen Hei, Microsoft YaHei, SimSun, sans-serif" font-size="10" text-anchor="middle" fill="#1f2328">封面</text>
<text x="277.0" y="465.0" font-family="WenQuanYi Zen Hei, Microsoft YaHei, SimSun, sans-serif" font-size="11" text-anchor="start" font-weight="bold" fill="#1f2328">保研经验：从择校到复试</text>
<text x="277.0" y="486.0" font-family="WenQuanYi Zen Hei, Microsoft YaHei, SimSun, sans-serif" font-size="10" text-anchor="start" fill="#8a94a6">一句话摘要文本……</text>
<text x="277.0" y="518.0" font-family="WenQuanYi Zen Hei, Microsoft YaHei, SimSun, sans-serif" font-size="10" text-anchor="start" fill="#8a94a6">@作者 · ♥ 128 · 评 20 · ★ 15</text>
<rect x="505" y="350" width="220" height="190" rx="8" fill="#ffffff" stroke="#dfe4ec" stroke-width="1.1"/>
<rect x="517" y="362" width="196" height="84" rx="4" fill="#eef1f5" stroke="#c4ccd6" stroke-width="1.1"/><path d="M517 362 L713 446 M713 362 L517 446" stroke="#c4ccd6" stroke-width="1" fill="none"/><text x="615.0" y="407.5" font-family="WenQuanYi Zen Hei, Microsoft YaHei, SimSun, sans-serif" font-size="10" text-anchor="middle" fill="#1f2328">封面</text>
<text x="517.0" y="465.0" font-family="WenQuanYi Zen Hei, Microsoft YaHei, SimSun, sans-serif" font-size="11" text-anchor="start" font-weight="bold" fill="#1f2328">保研经验：从择校到复试</text>
<text x="517.0" y="486.0" font-family="WenQuanYi Zen Hei, Microsoft YaHei, SimSun, sans-serif" font-size="10" text-anchor="start" fill="#8a94a6">一句话摘要文本……</text>
<text x="517.0" y="518.0" font-family="WenQuanYi Zen Hei, Microsoft YaHei, SimSun, sans-serif" font-size="10" text-anchor="start" fill="#8a94a6">@作者 · ♥ 128 · 评 20 · ★ 15</text>
<rect x="460" y="566" width="160" height="34" rx="6" fill="#eef2f8" stroke="#c4ccd6" stroke-width="1.1"/><text x="540.0" y="587.5" font-family="WenQuanYi Zen Hei, Microsoft YaHei, SimSun, sans-serif" font-size="11" text-anchor="middle" font-weight="bold" fill="#1f2328">加载更多（游标分页）</text>
</svg>