<svg xmlns="http://www.w3.org/2000/svg" width="1380" height="820" viewBox="0 0 1380 820" font-family="WenQuanYi Zen Hei, Microsoft YaHei, SimSun, sans-serif">
<rect width="1380" height="820" fill="#ffffff"/>
<line x1="93.0" y1="89.0" x2="93.0" y2="755.0" stroke="#57606a" stroke-width="1" stroke-dasharray="5 4"/><circle cx="93.0" cy="62.0" r="11" fill="#ffffff" stroke="#d79b00" stroke-width="1.4"/><line x1="93.0" y1="73.0" x2="93.0" y2="95.0" stroke="#d79b00" stroke-width="1.4"/><line x1="78.0" y1="81.0" x2="108.0" y2="81.0" stroke="#d79b00" stroke-width="1.4"/><line x1="93.0" y1="95.0" x2="80.0" y2="113.0" stroke="#d79b00" stroke-width="1.4"/><line x1="93.0" y1="95.0" x2="106.0" y2="113.0" stroke="#d79b00" stroke-width="1.4"/><text x="93.0" y="91.0" font-family="WenQuanYi Zen Hei, Microsoft YaHei, SimSun, sans-serif" font-size="12" text-anchor="middle" font-weight="bold" fill="#1f2328">注册用户</text>
<line x1="300.0" y1="78.0" x2="300.0" y2="750.0" stroke="#57606a" stroke-width="1" stroke-dasharray="5 4"/><rect x="205.0" y="44.0" width="190.0" height="34.0" rx="3" fill="#dae8fc" stroke="#6c8ebf" stroke-width="1.2"/><text x="300.0" y="60.0" font-family="WenQuanYi Zen Hei, Microsoft YaHei, SimSun, sans-serif" font-size="12" text-anchor="middle" fill="#1f2328">前端</text>
<rect x="295.0" y="141.0" width="10.0" height="132.0" rx="2" fill="#ffffff" stroke="#1f2328" stroke-width="1.2"/>
<line x1="540.0" y1="78.0" x2="540.0" y2="750.0" stroke="#57606a" stroke-width="1" stroke-dasharray="5 4"/><rect x="445.0" y="44.0" width="190.0" height="34.0" rx="3" fill="#dae8fc" stroke="#6c8ebf" stroke-width="1.2"/><text x="540.0" y="60.0" font-family="WenQuanYi Zen Hei, Microsoft YaHei, SimSun, sans-serif" font-size="12" text-anchor="middle" fill="#1f2328">ReportsRoutes（规划）</text>
<line x1="760.0" y1="78.0" x2="760.0" y2="750.0" stroke="#57606a" stroke-width="1" stroke-dasharray="5 4"/><rect x="665.0" y="44.0" width="190.0" height="34.0" rx="3" fill="#dae8fc" stroke="#6c8ebf" stroke-width="1.2"/><text x="760.0" y="60.0" font-family="WenQuanYi Zen Hei, Microsoft YaHei, SimSun, sans-serif" font-size="12" text-anchor="middle" fill="#1f2328">DB · reports</text>
<rect x="755.0" y="220.0" width="10.0" height="461.0" rx="2" fill="#ffffff" stroke="#1f2328" stroke-width="1.2"/>
<line x1="980.0" y1="78.0" x2="980.0" y2="750.0" stroke="#57606a" stroke-width="1" stroke-dasharray="5 4"/><rect x="885.0" y="44.0" width="190.0" height="34.0" rx="3" fill="#dae8fc" stroke="#6c8ebf" stroke-width="1.2"/><text x="980.0" y="60.0" font-family="WenQuanYi Zen Hei, Microsoft YaHei, SimSun, sans-serif" font-size="12" text-anchor="middle" fill="#1f2328">AI 审查任务（规划）</text>
<rect x="975.0" y="313.0" width="10.0" height="137.0" rx="2" fill="#ffffff" stroke="#1f2328" stroke-width="1.2"/>
<line x1="1230.5" y1="89.0" x2="1230.5" y2="755.0" stroke="#57606a" stroke-width="1" stroke-dasharray="5 4"/><circle cx="1230.5" cy="62.0" r="11" fill="#ffffff" stroke="#d79b00" stroke-width="1.4"/><line x1="1230.5" y1="73.0" x2="1230.5" y2="95.0" stroke="#d79b00" stroke-width="1.4"/><line x1="1215.5" y1="81.0" x2="1245.5" y2="81.0" stroke="#d79b00" stroke-width="1.4"/><line x1="1230.5" y1="95.0" x2="1217.5" y2="113.0" stroke="#d79b00" stroke-width="1.4"/><line x1="1230.5" y1="95.0" x2="1243.5" y2="113.0" stroke="#d79b00" stroke-width="1.4"/><text x="1230.5" y="91.0" font-family="WenQuanYi Zen Hei, Microsoft YaHei, SimSun, sans-serif" font-size="12" text-anchor="middle" font-weight="bold" fill="#1f2328">管理员</text>
<text x="197.0" y="143.5" font-family="WenQuanYi Zen Hei, Microsoft YaHei, SimSun, sans-serif" font-size="11" text-anchor="middle" font-weight="bold" fill="#1f2328">点击「举报」，选择类型</text>
<text x="420.0" y="183.5" font-family="WenQuanYi Zen Hei, Microsoft YaHei, SimSun, sans-serif" font-size="11" text-anchor="middle" font-weight="bold" fill="#1f2328">POST /reports</text>
<text x="650.0" y="221.5" font-family="WenQuanYi Zen Hei, Microsoft YaHei, SimSun, sans-serif" font-size="11" text-anchor="middle" font-weight="bold" fill="#1f2328">创建工单 pending</text>
<text x="420.0" y="259.5" font-family="WenQuanYi Zen Hei, Microsoft YaHei, SimSun, sans-serif" font-size="11" text-anchor="middle" font-weight="bold" fill="#1f2328">已受理</text>
<text x="760.0" y="315.5" font-family="WenQuanYi Zen Hei, Microsoft YaHei, SimSun, sans-serif" font-size="11" text-anchor="middle" font-weight="bold" fill="#1f2328">异步送审（不阻塞受理）</text>

<text x="1066.0" y="373.5" font-family="WenQuanYi Zen Hei, Microsoft YaHei, SimSun, sans-serif" font-size="11" text-anchor="start" font-weight="bold" fill="#1f2328">AI 分类 {label, confidence, reason}</text>
<text x="870.0" y="423.5" font-family="WenQuanYi Zen Hei, Microsoft YaHei, SimSun, sans-serif" font-size="11" text-anchor="middle" font-weight="bold" fill="#1f2328">写回结论；高置信→自动隐藏目标</text>
<text x="885.0" y="493.5" font-family="WenQuanYi Zen Hei, Microsoft YaHei, SimSun, sans-serif" font-size="11" text-anchor="middle" font-weight="bold" fill="#1f2328">打开举报队列</text>
<text x="650.0" y="533.5" font-family="WenQuanYi Zen Hei, Microsoft YaHei, SimSun, sans-serif" font-size="11" text-anchor="middle" font-weight="bold" fill="#1f2328">查工单 + AI 结论</text>
<text x="995.0" y="571.5" font-family="WenQuanYi Zen Hei, Microsoft YaHei, SimSun, sans-serif" font-size="11" text-anchor="middle" font-weight="bold" fill="#1f2328">工单列表 + 快照 + 置信度</text>
<text x="885.0" y="629.5" font-family="WenQuanYi Zen Hei, Microsoft YaHei, SimSun, sans-serif" font-size="11" text-anchor="middle" font-weight="bold" fill="#1f2328">裁决：删除 / 恢复</text>
<text x="650.0" y="667.5" font-family="WenQuanYi Zen Hei, Microsoft YaHei, SimSun, sans-serif" font-size="11" text-anchor="middle" font-weight="bold" fill="#1f2328">更新工单 resolved / dismissed</text>
<rect x="535.0" y="187.0" width="10.0" height="496.0" rx="2" fill="#ffffff" stroke="#1f2328" stroke-width="1.2"/>
<path d="M95.0 150.0 L294.0 150.0" fill="none" stroke="#57606a" stroke-width="1.3" stroke-dasharray="6 4"/><polygon points="294.0,150.0 282.6,153.7 282.6,146.3" fill="#57606a" stroke="#57606a" stroke-width="1"/>
<path d="M300.0 190.0 L540.0 190.0" fill="none" stroke="#57606a" stroke-width="1.3" stroke-dasharray="6 4"/><polygon points="540.0,190.0 528.6,193.7 528.6,186.3" fill="#57606a" stroke="#57606a" stroke-width="1"/>
<path d="M540.0 228.0 L753.0 228.0" fill="none" stroke="#57606a" stroke-width="1.3" stroke-dasharray="6 4"/><polygon points="753.0,228.0 741.6,231.7 741.6,224.3" fill="#57606a" stroke="#57606a" stroke-width="1"/>
<path d="M540.0 266.0 L306.0 266.0" fill="none" stroke="#57606a" stroke-width="1.3" stroke-dasharray="6 4"/><line x1="317.4" y1="262.3" x2="306.0" y2="266.0" stroke="#57606a" stroke-width="1.3"/><line x1="317.4" y1="269.7" x2="306.0" y2="266.0" stroke="#57606a" stroke-width="1.3"/>
<path d="M540.0 322.0 L980.0 322.0" fill="none" stroke="#57606a" stroke-width="1.3" stroke-dasharray="6 4"/><polygon points="980.0,322.0 968.6,325.7 968.6,318.3" fill="#57606a" stroke="#57606a" stroke-width="1"/>
<path d="M980.0 360.0 L980.0 360.0" fill="none" stroke="#57606a" stroke-width="1.3" stroke-dasharray="6 4"/><polygon points="980.0,360.0 968.6,363.7 968.6,356.3" fill="#57606a" stroke="#57606a" stroke-width="1"/>
<path d="M980.0 352.0 L1054.0 352.0 L1054.0 378.0 L986.0 378.0" fill="none" stroke="#57606a" stroke-width="1.3" stroke-dasharray="6 4"/><polygon points="986.0,378.0 997.4,374.3 997.4,381.7" fill="#57606a" stroke="#57606a" stroke-width="1"/>
<path d="M980.0 430.0 L760.0 430.0" fill="none" stroke="#57606a" stroke-width="1.3" stroke-dasharray="6 4"/><polygon points="760.0,430.0 771.4,426.3 771.4,433.7" fill="#57606a" stroke="#57606a" stroke-width="1"/>
<path d="M1230.0 500.0 L540.0 500.0" fill="none" stroke="#57606a" stroke-width="1.3" stroke-dasharray="6 4"/><polygon points="540.0,500.0 551.4,496.3 551.4,503.7" fill="#57606a" stroke="#57606a" stroke-width="1"/>
<path d="M540.0 540.0 L760.0 540.0" fill="none" stroke="#57606a" stroke-width="1.3" stroke-dasharray="6 4"/><polygon points="760.0,540.0 748.6,543.7 748.6,536.3" fill="#57606a" stroke="#57606a" stroke-width="1"/>
<path d="M760.0 578.0 L1230.0 578.0" fill="none" stroke="#57606a" stroke-width="1.3" stroke-dasharray="6 4"/><line x1="1218.6" y1="581.7" x2="1230.0" y2="578.0" stroke="#57606a" stroke-width="1.3"/><line x1="1218.6" y1="574.3" x2="1230.0" y2="578.0" stroke="#57606a" stroke-width="1.3"/>
<path d="M1230.0 636.0 L540.0 636.0" fill="none" stroke="#57606a" stroke-width="1.3" stroke-dasharray="6 4"/><polygon points="540.0,636.0 551.4,632.3 551.4,639.7" fill="#57606a" stroke="#57606a" stroke-width="1"/>
<path d="M540.0 674.0 L755.0 674.0" fill="none" stroke="#57606a" stroke-width="1.3" stroke-dasharray="6 4"/><polygon points="755.0,674.0 743.6,677.7 743.6,670.3" fill="#57606a" stroke="#57606a" stroke-width="1"/>
<path d="M540.0 228.0 L760.0 228.0" fill="none" stroke="#57606a" stroke-width="1.3" stroke-dasharray="6 4"/><polygon points="760.0,228.0 748.6,231.7 748.6,224.3" fill="#57606a" stroke="#57606a" stroke-width="1"/>
</svg>