<svg xmlns="http://www.w3.org/2000/svg" width="1240" height="400" viewBox="0 0 1240 400" font-family="WenQuanYi Zen Hei, Microsoft YaHei, SimSun, sans-serif">
<rect x="0" y="0" width="1240" height="400" fill="#ffffff"/>
<circle cx="62.0" cy="188.0" r="12.0" fill="#1f2328"/>
<rect x="150" y="152" width="170" height="64" rx="12" fill="#f2f4f7" stroke="#8a94a6" stroke-width="1.2" stroke-dasharray="6 4"/><text x="235.0" y="188.5" font-family="WenQuanYi Zen Hei, Microsoft YaHei, SimSun, sans-serif" font-size="12" text-anchor="middle" fill="#1f2328">pending 待处理</text>
<rect x="430" y="152" width="190" height="64" rx="12" fill="#f2f4f7" stroke="#8a94a6" stroke-width="1.2" stroke-dasharray="6 4"/><text x="525.0" y="188.5" font-family="WenQuanYi Zen Hei, Microsoft YaHei, SimSun, sans-serif" font-size="12" text-anchor="middle" fill="#1f2328">ai_flagged 已标记</text>
<rect x="740" y="70" width="190" height="64" rx="12" fill="#f2f4f7" stroke="#8a94a6" stroke-width="1.2" stroke-dasharray="6 4"/><text x="835.0" y="106.5" font-family="WenQuanYi Zen Hei, Microsoft YaHei, SimSun, sans-serif" font-size="12" text-anchor="middle" fill="#1f2328">resolved 已处置</text>
<rect x="740" y="236" width="190" height="64" rx="12" fill="#f2f4f7" stroke="#8a94a6" stroke-width="1.2" stroke-dasharray="6 4"/><text x="835.0" y="272.5" font-family="WenQuanYi Zen Hei, Microsoft YaHei, SimSun, sans-serif" font-size="12" text-anchor="middle" fill="#1f2328">dismissed 驳回</text>
<circle cx="1053.0" cy="189.0" r="13.0" fill="none" stroke="#1f2328" stroke-width="1.4"/><circle cx="1053.0" cy="189.0" r="9.0" fill="#1f2328"/>
<text x="50.0" y="361.0" font-family="WenQuanYi Zen Hei, Microsoft YaHei, SimSun, sans-serif" font-size="11" text-anchor="start" fill="#57606a">整条链路为后续治理能力规划（虚线）：pending → ai_flagged → resolved / dismissed。</text>
<path d="M74.0 187.7 L150.0 186.0" fill="none" stroke="#57606a" stroke-width="1.3" stroke-dasharray="6 4"/><polygon points="150.0,186.0 138.5,189.3 138.3,183.1" fill="#57606a"/>
<path d="M320.0 184.0 L430.0 184.0" fill="none" stroke="#57606a" stroke-width="1.3" stroke-dasharray="6 4"/><polygon points="430.0,184.0 418.4,187.1 418.4,180.9" fill="#57606a"/><rect x="334.7" y="175.0" width="80.6" height="18.0" fill="#ffffff" opacity="0.9" rx="3"/><text x="375.0" y="186.0" font-family="WenQuanYi Zen Hei, Microsoft YaHei, SimSun, sans-serif" font-size="11" text-anchor="middle" fill="#57606a">AI 审查标记</text>
<path d="M620.0 184.0 L680.0 184.0 L680.0 102.0 L740.0 102.0" fill="none" stroke="#57606a" stroke-width="1.3" stroke-dasharray="6 4"/><polygon points="740.0,102.0 728.4,105.1 728.4,98.9" fill="#57606a"/><rect x="606.7" y="134.0" width="146.6" height="18.0" fill="#ffffff" opacity="0.9" rx="3"/><text x="680.0" y="145.0" font-family="WenQuanYi Zen Hei, Microsoft YaHei, SimSun, sans-serif" font-size="11" text-anchor="middle" fill="#57606a">管理员裁决：删除/隐藏</text>
<path d="M620.0 184.0 L680.0 184.0 L680.0 268.0 L740.0 268.0" fill="none" stroke="#57606a" stroke-width="1.3" stroke-dasharray="6 4"/><polygon points="740.0,268.0 728.4,271.1 728.4,264.9" fill="#57606a"/><rect x="610.0" y="217.0" width="140.0" height="18.0" fill="#ffffff" opacity="0.9" rx="3"/><text x="680.0" y="228.0" font-family="WenQuanYi Zen Hei, Microsoft YaHei, SimSun, sans-serif" font-size="11" text-anchor="middle" fill="#57606a">管理员裁决：驳回恢复</text>
<path d="M930.0 102.0 L1049.0 102.0 L1049.0 176.0 L1049.2 176.6" fill="none" stroke="#57606a" stroke-width="1.3" stroke-dasharray="6 4"/><polygon points="1049.2,176.6 1042.8,166.4 1048.7,164.6" fill="#57606a"/>
<path d="M930.0 268.0 L1049.0 268.0 L1049.0 194.0 L1044.9 199.2" fill="none" stroke="#57606a" stroke-width="1.3" stroke-dasharray="6 4"/><polygon points="1044.9,199.2 1049.7,188.2 1054.5,192.0" fill="#57606a"/>
</svg>