<svg xmlns="http://www.w3.org/2000/svg" width="4420" height="4165" viewBox="0 0 4420 4165" font-family="WenQuanYi Zen Hei, Microsoft YaHei, SimSun, sans-serif">
<rect width="4420" height="4165" fill="#ffffff"/>
<rect x="85.0" y="128.0" width="4250.0" height="808.0" rx="12" fill="#ffffff" stroke="#000000" stroke-width="1.2"/>
<text x="129.0" y="194.5" font-family="WenQuanYi Zen Hei, Microsoft YaHei, SimSun, sans-serif" font-size="34" text-anchor="start" font-weight="bold" fill="#000000">① 前端表现层  React 组件（boundary）</text>
<rect x="85.0" y="1006.0" width="4250.0" height="581.0" rx="12" fill="#ffffff" stroke="#000000" stroke-width="1.2"/>
<text x="129.0" y="1072.5" font-family="WenQuanYi Zen Hei, Microsoft YaHei, SimSun, sans-serif" font-size="34" text-anchor="start" font-weight="bold" fill="#000000">② 前端接口层  API 封装 / 数据契约</text>
<rect x="85.0" y="1658.0" width="4250.0" height="949.0" rx="12" fill="#ffffff" stroke="#000000" stroke-width="1.2"/>
<text x="129.0" y="1724.5" font-family="WenQuanYi Zen Hei, Microsoft YaHei, SimSun, sans-serif" font-size="34" text-anchor="start" font-weight="bold" fill="#000000">③ 后端路由层  routes（control · FastAPI）</text>
<rect x="85.0" y="2678.0" width="3258.0" height="708.0" rx="12" fill="#ffffff" stroke="#000000" stroke-width="1.2"/>
<text x="129.0" y="2744.5" font-family="WenQuanYi Zen Hei, Microsoft YaHei, SimSun, sans-serif" font-size="34" text-anchor="start" font-weight="bold" fill="#000000">④ 后端服务层  services（control）</text>
<rect x="85.0" y="3457.0" width="4250.0" height="609.0" rx="12" fill="#ffffff" stroke="#000000" stroke-width="1.2"/>
<text x="129.0" y="3523.5" font-family="WenQuanYi Zen Hei, Microsoft YaHei, SimSun, sans-serif" font-size="34" text-anchor="start" font-weight="bold" fill="#000000">⑤ 数据层  models（entity · SQLAlchemy ORM）</text>
<rect x="156.0" y="283.0" width="623.0" height="431.0" rx="3" fill="#ffffff" stroke="#000000" stroke-width="1.3"/><path d="M156.0 323.0 L156.0 286.0 Q156.0 283.0 159.0 283.0 L776.0 283.0 Q779.0 283.0 779.0 286.0 L779.0 323.0 Z" fill="#ffffff" stroke="#000000" stroke-width="1.3"/><text x="467.5" y="299.0" font-family="WenQuanYi Zen Hei, Microsoft YaHei, SimSun, sans-serif" font-size="24" text-anchor="middle" font-style="italic" fill="#1f2328">«boundary»</text><text x="467.5" y="315.0" font-family="WenQuanYi Zen Hei, Microsoft YaHei, SimSun, sans-serif" font-size="34" text-anchor="middle" font-weight="bold" fill="#1f2328">WritePage</text>
<text x="162.0" y="440.5" font-family="WenQuanYi Zen Hei, Microsoft YaHei, SimSun, sans-serif" font-size="34" text-anchor="start" fill="#1f2328">- draftStore</text>
<text x="162.0" y="497.5" font-family="WenQuanYi Zen Hei, Microsoft YaHei, SimSun, sans-serif" font-size="34" text-anchor="start" fill="#1f2328">- aiState</text>
<line x1="156.0" y1="521.5" x2="779.0" y2="521.5" stroke="#000000" stroke-width="1"/>
<text x="162.0" y="576.5" font-family="WenQuanYi Zen Hei, Microsoft YaHei, SimSun, sans-serif" font-size="34" text-anchor="start" fill="#1f2328">+ autoSave()</text>
<text x="162.0" y="633.5" font-family="WenQuanYi Zen Hei, Microsoft YaHei, SimSun, sans-serif" font-size="34" text-anchor="start" fill="#1f2328">+ aiPolish()</text>
<text x="162.0" y="690.5" font-family="WenQuanYi Zen Hei, Microsoft YaHei, SimSun, sans-serif" font-size="34" text-anchor="start" fill="#1f2328">+ publish()</text>
<rect x="850.0" y="283.0" width="609.0" height="374.0" rx="3" fill="#ffffff" stroke="#000000" stroke-width="1.3"/><path d="M850.0 323.0 L850.0 286.0 Q850.0 283.0 853.0 283.0 L1456.0 283.0 Q1459.0 283.0 1459.0 286.0 L1459.0 323.0 Z" fill="#ffffff" stroke="#000000" stroke-width="1.3"/><text x="1154.5" y="299.0" font-family="WenQuanYi Zen Hei, Microsoft YaHei, SimSun, sans-serif" font-size="24" text-anchor="middle" font-style="italic" fill="#1f2328">«boundary»</text><text x="1154.5" y="315.0" font-family="WenQuanYi Zen Hei, Microsoft YaHei, SimSun, sans-serif" font-size="34" text-anchor="middle" font-weight="bold" fill="#1f2328">BrowsePage</text>
<text x="856.0" y="440.5" font-family="WenQuanYi Zen Hei, Microsoft YaHei, SimSun, sans-serif" font-size="34" text-anchor="start" fill="#1f2328">- filters</text>
<text x="856.0" y="497.5" font-family="WenQuanYi Zen Hei, Microsoft YaHei, SimSun, sans-serif" font-size="34" text-anchor="start" fill="#1f2328">- cursor</text>
<line x1="850.0" y1="521.5" x2="1459.0" y2="521.5" stroke="#000000" stroke-width="1"/>
<text x="856.0" y="576.5" font-family="WenQuanYi Zen Hei, Microsoft YaHei, SimSun, sans-serif" font-size="34" text-anchor="start" fill="#1f2328">+ filterSort()</text>
<text x="856.0" y="633.5" font-family="WenQuanYi Zen Hei, Microsoft YaHei, SimSun, sans-serif" font-size="34" text-anchor="start" fill="#1f2328">+ loadMore()</text>
<rect x="1530.0" y="283.0" width="638.0" height="374.0" rx="3" fill="#ffffff" stroke="#000000" stroke-width="1.3"/><path d="M1530.0 323.0 L1530.0 286.0 Q1530.0 283.0 1533.0 283.0 L2165.0 283.0 Q2168.0 283.0 2168.0 286.0 L2168.0 323.0 Z" fill="#ffffff" stroke="#000000" stroke-width="1.3"/><text x="1849.0" y="299.0" font-family="WenQuanYi Zen Hei, Microsoft YaHei, SimSun, sans-serif" font-size="24" text-anchor="middle" font-style="italic" fill="#1f2328">«boundary»</text><text x="1849.0" y="315.0" font-family="WenQuanYi Zen Hei, Microsoft YaHei, SimSun, sans-serif" font-size="34" text-anchor="middle" font-weight="bold" fill="#1f2328">NoteDetailPage</text>
<text x="1536.0" y="440.5" font-family="WenQuanYi Zen Hei, Microsoft YaHei, SimSun, sans-serif" font-size="34" text-anchor="start" fill="#1f2328">- noteId</text>
<text x="1536.0" y="497.5" font-family="WenQuanYi Zen Hei, Microsoft YaHei, SimSun, sans-serif" font-size="34" text-anchor="start" fill="#1f2328">- cmtMode</text>
<line x1="1530.0" y1="521.5" x2="2168.0" y2="521.5" stroke="#000000" stroke-width="1"/>
<text x="1536.0" y="576.5" font-family="WenQuanYi Zen Hei, Microsoft YaHei, SimSun, sans-serif" font-size="34" text-anchor="start" fill="#1f2328">+ like()</text>
<text x="1536.0" y="633.5" font-family="WenQuanYi Zen Hei, Microsoft YaHei, SimSun, sans-serif" font-size="34" text-anchor="start" fill="#1f2328">+ toggleCmtMode()</text>
<rect x="2238.0" y="283.0" width="666.0" height="431.0" rx="3" fill="#ffffff" stroke="#000000" stroke-width="1.3"/><path d="M2238.0 323.0 L2238.0 286.0 Q2238.0 283.0 2241.0 283.0 L2901.0 283.0 Q2904.0 283.0 2904.0 286.0 L2904.0 323.0 Z" fill="#ffffff" stroke="#000000" stroke-width="1.3"/><text x="2571.0" y="299.0" font-family="WenQuanYi Zen Hei, Microsoft YaHei, SimSun, sans-serif" font-size="24" text-anchor="middle" font-style="italic" fill="#1f2328">«boundary»</text><text x="2571.0" y="315.0" font-family="WenQuanYi Zen Hei, Microsoft YaHei, SimSun, sans-serif" font-size="34" text-anchor="middle" font-weight="bold" fill="#1f2328">CommentSection</text>
<text x="2244.0" y="440.5" font-family="WenQuanYi Zen Hei, Microsoft YaHei, SimSun, sans-serif" font-size="34" text-anchor="start" fill="#1f2328">- comments</text>
<text x="2244.0" y="497.5" font-family="WenQuanYi Zen Hei, Microsoft YaHei, SimSun, sans-serif" font-size="34" text-anchor="start" fill="#1f2328">- anchor</text>
<line x1="2238.0" y1="521.5" x2="2904.0" y2="521.5" stroke="#000000" stroke-width="1"/>
<text x="2244.0" y="576.5" font-family="WenQuanYi Zen Hei, Microsoft YaHei, SimSun, sans-serif" font-size="34" text-anchor="start" fill="#1f2328">+ createComment()</text>
<text x="2244.0" y="633.5" font-family="WenQuanYi Zen Hei, Microsoft YaHei, SimSun, sans-serif" font-size="34" text-anchor="start" fill="#1f2328">+ deleteComment()</text>
<text x="2244.0" y="690.5" font-family="WenQuanYi Zen Hei, Microsoft YaHei, SimSun, sans-serif" font-size="34" text-anchor="start" fill="#1f2328">+ anchorJump()</text>
<rect x="2975.0" y="283.0" width="609.0" height="317.0" rx="3" fill="#ffffff" stroke="#000000" stroke-width="1.3"/><path d="M2975.0 323.0 L2975.0 286.0 Q2975.0 283.0 2978.0 283.0 L3581.0 283.0 Q3584.0 283.0 3584.0 286.0 L3584.0 323.0 Z" fill="#ffffff" stroke="#000000" stroke-width="1.3"/><text x="3279.5" y="299.0" font-family="WenQuanYi Zen Hei, Microsoft YaHei, SimSun, sans-serif" font-size="24" text-anchor="middle" font-style="italic" fill="#1f2328">«boundary»</text><text x="3279.5" y="315.0" font-family="WenQuanYi Zen Hei, Microsoft YaHei, SimSun, sans-serif" font-size="34" text-anchor="middle" font-weight="bold" fill="#1f2328">ProfilePage</text>
<text x="2981.0" y="440.5" font-family="WenQuanYi Zen Hei, Microsoft YaHei, SimSun, sans-serif" font-size="34" text-anchor="start" fill="#1f2328">- activeTab</text>
<line x1="2975.0" y1="464.5" x2="3584.0" y2="464.5" stroke="#000000" stroke-width="1"/>
<text x="2981.0" y="520.5" font-family="WenQuanYi Zen Hei, Microsoft YaHei, SimSun, sans-serif" font-size="34" text-anchor="start" fill="#1f2328">+ notesTab()</text>
<text x="2981.0" y="576.5" font-family="WenQuanYi Zen Hei, Microsoft YaHei, SimSun, sans-serif" font-size="34" text-anchor="start" fill="#1f2328">+ draftsTab()</text>
<rect x="3655.0" y="283.0" width="609.0" height="317.0" rx="3" fill="#ffffff" stroke="#000000" stroke-width="1.3"/><path d="M3655.0 323.0 L3655.0 286.0 Q3655.0 283.0 3658.0 283.0 L4261.0 283.0 Q4264.0 283.0 4264.0 286.0 L4264.0 323.0 Z" fill="#ffffff" stroke="#000000" stroke-width="1.3"/><text x="3959.5" y="299.0" font-family="WenQuanYi Zen Hei, Microsoft YaHei, SimSun, sans-serif" font-size="24" text-anchor="middle" font-style="italic" fill="#1f2328">«boundary»</text><text x="3959.5" y="315.0" font-family="WenQuanYi Zen Hei, Microsoft YaHei, SimSun, sans-serif" font-size="34" text-anchor="middle" font-weight="bold" fill="#1f2328">AdminPage</text>
<text x="3661.0" y="440.5" font-family="WenQuanYi Zen Hei, Microsoft YaHei, SimSun, sans-serif" font-size="34" text-anchor="start" fill="#1f2328">- role</text>
<line x1="3655.0" y1="464.5" x2="4264.0" y2="464.5" stroke="#000000" stroke-width="1"/>
<text x="3661.0" y="520.5" font-family="WenQuanYi Zen Hei, Microsoft YaHei, SimSun, sans-serif" font-size="34" text-anchor="start" fill="#1f2328">+ manageUsers()</text>
<text x="3661.0" y="576.5" font-family="WenQuanYi Zen Hei, Microsoft YaHei, SimSun, sans-serif" font-size="34" text-anchor="start" fill="#1f2328">+ loginAudit()</text>
<rect x="156.0" y="1133.0" width="907.0" height="431.0" rx="3" fill="#ffffff" stroke="#000000" stroke-width="1.3"/><path d="M156.0 1173.0 L156.0 1136.0 Q156.0 1133.0 159.0 1133.0 L1060.0 1133.0 Q1063.0 1133.0 1063.0 1136.0 L1063.0 1173.0 Z" fill="#ffffff" stroke="#000000" stroke-width="1.3"/><text x="609.5" y="1149.0" font-family="WenQuanYi Zen Hei, Microsoft YaHei, SimSun, sans-serif" font-size="24" text-anchor="middle" font-style="italic" fill="#1f2328">«boundary»</text><text x="609.5" y="1165.0" font-family="WenQuanYi Zen Hei, Microsoft YaHei, SimSun, sans-serif" font-size="34" text-anchor="middle" font-weight="bold" fill="#1f2328">ApiClient</text>
<text x="162.0" y="1290.5" font-family="WenQuanYi Zen Hei, Microsoft YaHei, SimSun, sans-serif" font-size="34" text-anchor="start" fill="#1f2328">- baseURL: str</text>
<text x="162.0" y="1347.5" font-family="WenQuanYi Zen Hei, Microsoft YaHei, SimSun, sans-serif" font-size="34" text-anchor="start" fill="#1f2328">- token: JWT</text>
<line x1="156.0" y1="1371.5" x2="1063.0" y2="1371.5" stroke="#000000" stroke-width="1"/>
<text x="162.0" y="1426.5" font-family="WenQuanYi Zen Hei, Microsoft YaHei, SimSun, sans-serif" font-size="34" text-anchor="start" fill="#1f2328">+ get() / post() / put() / del()</text>
<text x="162.0" y="1483.5" font-family="WenQuanYi Zen Hei, Microsoft YaHei, SimSun, sans-serif" font-size="34" text-anchor="start" fill="#1f2328">+ authBearer()</text>
<text x="162.0" y="1540.5" font-family="WenQuanYi Zen Hei, Microsoft YaHei, SimSun, sans-serif" font-size="34" text-anchor="start" fill="#1f2328">+ zodParse(schema)</text>
<rect x="1218.0" y="1133.0" width="1360.0" height="408.0" rx="3" fill="#ffffff" stroke="#000000" stroke-width="1.3"/><path d="M1218.0 1173.0 L1218.0 1136.0 Q1218.0 1133.0 1221.0 1133.0 L2575.0 1133.0 Q2578.0 1133.0 2578.0 1136.0 L2578.0 1173.0 Z" fill="#ffffff" stroke="#000000" stroke-width="1.3"/><text x="1898.0" y="1149.0" font-family="WenQuanYi Zen Hei, Microsoft YaHei, SimSun, sans-serif" font-size="24" text-anchor="middle" font-style="italic" fill="#1f2328">«pydantic · Zod»</text><text x="1898.0" y="1165.0" font-family="WenQuanYi Zen Hei, Microsoft YaHei, SimSun, sans-serif" font-size="34" text-anchor="middle" font-weight="bold" fill="#1f2328">DTO / Schemas</text>
<text x="1224.0" y="1290.5" font-family="WenQuanYi Zen Hei, Microsoft YaHei, SimSun, sans-serif" font-size="34" text-anchor="start" fill="#1f2328">NoteOut · DraftOut · NoteCard</text>
<text x="1224.0" y="1347.5" font-family="WenQuanYi Zen Hei, Microsoft YaHei, SimSun, sans-serif" font-size="34" text-anchor="start" fill="#1f2328">CommentIn · CommentOut · PaginatedComments</text>
<text x="1224.0" y="1404.5" font-family="WenQuanYi Zen Hei, Microsoft YaHei, SimSun, sans-serif" font-size="34" text-anchor="start" fill="#1f2328">CollectionOut · CollectionDetailOut</text>
<text x="1224.0" y="1460.5" font-family="WenQuanYi Zen Hei, Microsoft YaHei, SimSun, sans-serif" font-size="34" text-anchor="start" fill="#1f2328">AIComposeIn/Out · CheckinOut · XpEventOut</text>
<line x1="1218.0" y1="1484.5" x2="2578.0" y2="1484.5" stroke="#000000" stroke-width="1"/>

<rect x="142.0" y="1842.0" width="638.0" height="487.0" rx="3" fill="#ffffff" stroke="#000000" stroke-width="1.3"/><path d="M142.0 1882.0 L142.0 1845.0 Q142.0 1842.0 145.0 1842.0 L777.0 1842.0 Q780.0 1842.0 780.0 1845.0 L780.0 1882.0 Z" fill="#ffffff" stroke="#000000" stroke-width="1.3"/><text x="461.0" y="1858.0" font-family="WenQuanYi Zen Hei, Microsoft YaHei, SimSun, sans-serif" font-size="24" text-anchor="middle" font-style="italic" fill="#1f2328">«control»</text><text x="461.0" y="1874.0" font-family="WenQuanYi Zen Hei, Microsoft YaHei, SimSun, sans-serif" font-size="34" text-anchor="middle" font-weight="bold" fill="#1f2328">NotesRoutes</text>
<text x="148.0" y="1999.5" font-family="WenQuanYi Zen Hei, Microsoft YaHei, SimSun, sans-serif" font-size="34" text-anchor="start" fill="#1f2328">- svc: NotesService</text>
<text x="148.0" y="2056.5" font-family="WenQuanYi Zen Hei, Microsoft YaHei, SimSun, sans-serif" font-size="34" text-anchor="start" fill="#1f2328">- db</text>
<line x1="142.0" y1="2080.5" x2="780.0" y2="2080.5" stroke="#000000" stroke-width="1"/>
<text x="148.0" y="2135.5" font-family="WenQuanYi Zen Hei, Microsoft YaHei, SimSun, sans-serif" font-size="34" text-anchor="start" fill="#1f2328">+ list()</text>
<text x="148.0" y="2192.5" font-family="WenQuanYi Zen Hei, Microsoft YaHei, SimSun, sans-serif" font-size="34" text-anchor="start" fill="#1f2328">+ detail()</text>
<text x="148.0" y="2249.5" font-family="WenQuanYi Zen Hei, Microsoft YaHei, SimSun, sans-serif" font-size="34" text-anchor="start" fill="#1f2328">+ edit()</text>
<text x="148.0" y="2305.5" font-family="WenQuanYi Zen Hei, Microsoft YaHei, SimSun, sans-serif" font-size="34" text-anchor="start" fill="#1f2328">+ delete()</text>
<rect x="850.0" y="1842.0" width="652.0" height="431.0" rx="3" fill="#ffffff" stroke="#000000" stroke-width="1.3"/><path d="M850.0 1882.0 L850.0 1845.0 Q850.0 1842.0 853.0 1842.0 L1499.0 1842.0 Q1502.0 1842.0 1502.0 1845.0 L1502.0 1882.0 Z" fill="#ffffff" stroke="#000000" stroke-width="1.3"/><text x="1176.0" y="1858.0" font-family="WenQuanYi Zen Hei, Microsoft YaHei, SimSun, sans-serif" font-size="24" text-anchor="middle" font-style="italic" fill="#1f2328">«control»</text><text x="1176.0" y="1874.0" font-family="WenQuanYi Zen Hei, Microsoft YaHei, SimSun, sans-serif" font-size="34" text-anchor="middle" font-weight="bold" fill="#1f2328">DraftsRoutes</text>
<text x="856.0" y="1999.5" font-family="WenQuanYi Zen Hei, Microsoft YaHei, SimSun, sans-serif" font-size="34" text-anchor="start" fill="#1f2328">- ai: AiComposeService</text>
<text x="856.0" y="2056.5" font-family="WenQuanYi Zen Hei, Microsoft YaHei, SimSun, sans-serif" font-size="34" text-anchor="start" fill="#1f2328">- db</text>
<line x1="850.0" y1="2080.5" x2="1502.0" y2="2080.5" stroke="#000000" stroke-width="1"/>
<text x="856.0" y="2135.5" font-family="WenQuanYi Zen Hei, Microsoft YaHei, SimSun, sans-serif" font-size="34" text-anchor="start" fill="#1f2328">+ create()</text>
<text x="856.0" y="2192.5" font-family="WenQuanYi Zen Hei, Microsoft YaHei, SimSun, sans-serif" font-size="34" text-anchor="start" fill="#1f2328">+ update()</text>
<text x="856.0" y="2249.5" font-family="WenQuanYi Zen Hei, Microsoft YaHei, SimSun, sans-serif" font-size="34" text-anchor="start" fill="#1f2328">+ publish()</text>
<rect x="1572.0" y="1842.0" width="722.0" height="487.0" rx="3" fill="#ffffff" stroke="#000000" stroke-width="1.3"/><path d="M1572.0 1882.0 L1572.0 1845.0 Q1572.0 1842.0 1575.0 1842.0 L2291.0 1842.0 Q2294.0 1842.0 2294.0 1845.0 L2294.0 1882.0 Z" fill="#ffffff" stroke="#000000" stroke-width="1.3"/><text x="1933.0" y="1858.0" font-family="WenQuanYi Zen Hei, Microsoft YaHei, SimSun, sans-serif" font-size="24" text-anchor="middle" font-style="italic" fill="#1f2328">«control»</text><text x="1933.0" y="1874.0" font-family="WenQuanYi Zen Hei, Microsoft YaHei, SimSun, sans-serif" font-size="34" text-anchor="middle" font-weight="bold" fill="#1f2328">InteractionsRoutes</text>
<text x="1578.0" y="1999.5" font-family="WenQuanYi Zen Hei, Microsoft YaHei, SimSun, sans-serif" font-size="34" text-anchor="start" fill="#1f2328">- cmt: CommentsService</text>
<text x="1578.0" y="2056.5" font-family="WenQuanYi Zen Hei, Microsoft YaHei, SimSun, sans-serif" font-size="34" text-anchor="start" fill="#1f2328">- db</text>
<line x1="1572.0" y1="2080.5" x2="2294.0" y2="2080.5" stroke="#000000" stroke-width="1"/>
<text x="1578.0" y="2135.5" font-family="WenQuanYi Zen Hei, Microsoft YaHei, SimSun, sans-serif" font-size="34" text-anchor="start" fill="#1f2328">+ like() / dislike()</text>
<text x="1578.0" y="2192.5" font-family="WenQuanYi Zen Hei, Microsoft YaHei, SimSun, sans-serif" font-size="34" text-anchor="start" fill="#1f2328">+ favorite()</text>
<text x="1578.0" y="2249.5" font-family="WenQuanYi Zen Hei, Microsoft YaHei, SimSun, sans-serif" font-size="34" text-anchor="start" fill="#1f2328">+ createComment()</text>
<text x="1578.0" y="2305.5" font-family="WenQuanYi Zen Hei, Microsoft YaHei, SimSun, sans-serif" font-size="34" text-anchor="start" fill="#1f2328">+ reactComment()</text>
<rect x="2366.0" y="1842.0" width="666.0" height="374.0" rx="3" fill="#ffffff" stroke="#000000" stroke-width="1.3"/><path d="M2366.0 1882.0 L2366.0 1845.0 Q2366.0 1842.0 2369.0 1842.0 L3029.0 1842.0 Q3032.0 1842.0 3032.0 1845.0 L3032.0 1882.0 Z" fill="#ffffff" stroke="#000000" stroke-width="1.3"/><text x="2699.0" y="1858.0" font-family="WenQuanYi Zen Hei, Microsoft YaHei, SimSun, sans-serif" font-size="24" text-anchor="middle" font-style="italic" fill="#1f2328">«control»</text><text x="2699.0" y="1874.0" font-family="WenQuanYi Zen Hei, Microsoft YaHei, SimSun, sans-serif" font-size="34" text-anchor="middle" font-weight="bold" fill="#1f2328">CollectionsRoutes</text>
<text x="2372.0" y="1999.5" font-family="WenQuanYi Zen Hei, Microsoft YaHei, SimSun, sans-serif" font-size="34" text-anchor="start" fill="#1f2328">- db</text>
<line x1="2366.0" y1="2023.5" x2="3032.0" y2="2023.5" stroke="#000000" stroke-width="1"/>
<text x="2372.0" y="2079.5" font-family="WenQuanYi Zen Hei, Microsoft YaHei, SimSun, sans-serif" font-size="34" text-anchor="start" fill="#1f2328">+ crud()</text>
<text x="2372.0" y="2135.5" font-family="WenQuanYi Zen Hei, Microsoft YaHei, SimSun, sans-serif" font-size="34" text-anchor="start" fill="#1f2328">+ addEntry()</text>
<text x="2372.0" y="2192.5" font-family="WenQuanYi Zen Hei, Microsoft YaHei, SimSun, sans-serif" font-size="34" text-anchor="start" fill="#1f2328">+ noteContext()</text>
<rect x="3102.0" y="1842.0" width="567.0" height="317.0" rx="3" fill="#ffffff" stroke="#000000" stroke-width="1.3"/><path d="M3102.0 1882.0 L3102.0 1845.0 Q3102.0 1842.0 3105.0 1842.0 L3666.0 1842.0 Q3669.0 1842.0 3669.0 1845.0 L3669.0 1882.0 Z" fill="#ffffff" stroke="#000000" stroke-width="1.3"/><text x="3385.5" y="1858.0" font-family="WenQuanYi Zen Hei, Microsoft YaHei, SimSun, sans-serif" font-size="24" text-anchor="middle" font-style="italic" fill="#1f2328">«control»</text><text x="3385.5" y="1874.0" font-family="WenQuanYi Zen Hei, Microsoft YaHei, SimSun, sans-serif" font-size="34" text-anchor="middle" font-weight="bold" fill="#1f2328">AiRoutes</text>
<text x="3108.0" y="1999.5" font-family="WenQuanYi Zen Hei, Microsoft YaHei, SimSun, sans-serif" font-size="34" text-anchor="start" fill="#1f2328">- ai: AiComposeService</text>
<line x1="3102.0" y1="2023.5" x2="3669.0" y2="2023.5" stroke="#000000" stroke-width="1"/>
<text x="3108.0" y="2079.5" font-family="WenQuanYi Zen Hei, Microsoft YaHei, SimSun, sans-serif" font-size="34" text-anchor="start" fill="#1f2328">+ compose()</text>
<text x="3108.0" y="2135.5" font-family="WenQuanYi Zen Hei, Microsoft YaHei, SimSun, sans-serif" font-size="34" text-anchor="start" fill="#1f2328">+ composeStream()</text>
<rect x="3726.0" y="1842.0" width="567.0" height="374.0" rx="3" fill="#ffffff" stroke="#000000" stroke-width="1.3"/><path d="M3726.0 1882.0 L3726.0 1845.0 Q3726.0 1842.0 3729.0 1842.0 L4290.0 1842.0 Q4293.0 1842.0 4293.0 1845.0 L4293.0 1882.0 Z" fill="#ffffff" stroke="#000000" stroke-width="1.3"/><text x="4009.5" y="1858.0" font-family="WenQuanYi Zen Hei, Microsoft YaHei, SimSun, sans-serif" font-size="24" text-anchor="middle" font-style="italic" fill="#1f2328">«control»</text><text x="4009.5" y="1874.0" font-family="WenQuanYi Zen Hei, Microsoft YaHei, SimSun, sans-serif" font-size="34" text-anchor="middle" font-weight="bold" fill="#1f2328">AuthRoutes</text>
<text x="3732.0" y="1999.5" font-family="WenQuanYi Zen Hei, Microsoft YaHei, SimSun, sans-serif" font-size="34" text-anchor="start" fill="#1f2328">- db</text>
<line x1="3726.0" y1="2023.5" x2="4293.0" y2="2023.5" stroke="#000000" stroke-width="1"/>
<text x="3732.0" y="2079.5" font-family="WenQuanYi Zen Hei, Microsoft YaHei, SimSun, sans-serif" font-size="34" text-anchor="start" fill="#1f2328">+ login() / register()</text>
<text x="3732.0" y="2135.5" font-family="WenQuanYi Zen Hei, Microsoft YaHei, SimSun, sans-serif" font-size="34" text-anchor="start" fill="#1f2328">+ dailyCheckin()</text>
<text x="3732.0" y="2192.5" font-family="WenQuanYi Zen Hei, Microsoft YaHei, SimSun, sans-serif" font-size="34" text-anchor="start" fill="#1f2328">+ xpEvents()</text>
<rect x="198.0" y="2833.0" width="708.0" height="374.0" rx="3" fill="#ffffff" stroke="#000000" stroke-width="1.3"/><path d="M198.0 2873.0 L198.0 2836.0 Q198.0 2833.0 201.0 2833.0 L903.0 2833.0 Q906.0 2833.0 906.0 2836.0 L906.0 2873.0 Z" fill="#ffffff" stroke="#000000" stroke-width="1.3"/><text x="552.0" y="2849.0" font-family="WenQuanYi Zen Hei, Microsoft YaHei, SimSun, sans-serif" font-size="24" text-anchor="middle" font-style="italic" fill="#1f2328">«control»</text><text x="552.0" y="2865.0" font-family="WenQuanYi Zen Hei, Microsoft YaHei, SimSun, sans-serif" font-size="34" text-anchor="middle" font-weight="bold" fill="#1f2328">NotesService</text>
<text x="204.0" y="2990.5" font-family="WenQuanYi Zen Hei, Microsoft YaHei, SimSun, sans-serif" font-size="34" text-anchor="start" fill="#1f2328">- db: AsyncSession</text>
<line x1="198.0" y1="3014.5" x2="906.0" y2="3014.5" stroke="#000000" stroke-width="1"/>
<text x="204.0" y="3070.5" font-family="WenQuanYi Zen Hei, Microsoft YaHei, SimSun, sans-serif" font-size="34" text-anchor="start" fill="#1f2328">+ listNotes()</text>
<text x="204.0" y="3126.5" font-family="WenQuanYi Zen Hei, Microsoft YaHei, SimSun, sans-serif" font-size="34" text-anchor="start" fill="#1f2328">+ detail()</text>
<text x="204.0" y="3183.5" font-family="WenQuanYi Zen Hei, Microsoft YaHei, SimSun, sans-serif" font-size="34" text-anchor="start" fill="#1f2328">+ edit() / delete()</text>
<rect x="1133.0" y="2833.0" width="694.0" height="261.0" rx="3" fill="#ffffff" stroke="#000000" stroke-width="1.3"/><path d="M1133.0 2873.0 L1133.0 2836.0 Q1133.0 2833.0 1136.0 2833.0 L1824.0 2833.0 Q1827.0 2833.0 1827.0 2836.0 L1827.0 2873.0 Z" fill="#ffffff" stroke="#000000" stroke-width="1.3"/><text x="1480.0" y="2849.0" font-family="WenQuanYi Zen Hei, Microsoft YaHei, SimSun, sans-serif" font-size="24" text-anchor="middle" font-style="italic" fill="#1f2328">«control»</text><text x="1480.0" y="2865.0" font-family="WenQuanYi Zen Hei, Microsoft YaHei, SimSun, sans-serif" font-size="34" text-anchor="middle" font-weight="bold" fill="#1f2328">CommentsService</text>
<text x="1139.0" y="2990.5" font-family="WenQuanYi Zen Hei, Microsoft YaHei, SimSun, sans-serif" font-size="34" text-anchor="start" fill="#1f2328">- db: AsyncSession</text>
<line x1="1133.0" y1="3014.5" x2="1827.0" y2="3014.5" stroke="#000000" stroke-width="1"/>
<text x="1139.0" y="3070.5" font-family="WenQuanYi Zen Hei, Microsoft YaHei, SimSun, sans-serif" font-size="34" text-anchor="start" fill="#1f2328">+ listComments()  «keyset»</text>
<rect x="2040.0" y="2833.0" width="765.0" height="431.0" rx="3" fill="#ffffff" stroke="#000000" stroke-width="1.3"/><path d="M2040.0 2873.0 L2040.0 2836.0 Q2040.0 2833.0 2043.0 2833.0 L2802.0 2833.0 Q2805.0 2833.0 2805.0 2836.0 L2805.0 2873.0 Z" fill="#ffffff" stroke="#000000" stroke-width="1.3"/><text x="2422.5" y="2849.0" font-family="WenQuanYi Zen Hei, Microsoft YaHei, SimSun, sans-serif" font-size="24" text-anchor="middle" font-style="italic" fill="#1f2328">«control»</text><text x="2422.5" y="2865.0" font-family="WenQuanYi Zen Hei, Microsoft YaHei, SimSun, sans-serif" font-size="34" text-anchor="middle" font-weight="bold" fill="#1f2328">AiComposeService</text>
<text x="2046.0" y="2990.5" font-family="WenQuanYi Zen Hei, Microsoft YaHei, SimSun, sans-serif" font-size="34" text-anchor="start" fill="#1f2328">- client: OpenAI</text>
<text x="2046.0" y="3047.5" font-family="WenQuanYi Zen Hei, Microsoft YaHei, SimSun, sans-serif" font-size="34" text-anchor="start" fill="#1f2328">- model: str</text>
<line x1="2040.0" y1="3071.5" x2="2805.0" y2="3071.5" stroke="#000000" stroke-width="1"/>
<text x="2046.0" y="3126.5" font-family="WenQuanYi Zen Hei, Microsoft YaHei, SimSun, sans-serif" font-size="34" text-anchor="start" fill="#1f2328">+ polish()</text>
<text x="2046.0" y="3183.5" font-family="WenQuanYi Zen Hei, Microsoft YaHei, SimSun, sans-serif" font-size="34" text-anchor="start" fill="#1f2328">+ summarizeStream()</text>
<text x="2046.0" y="3240.5" font-family="WenQuanYi Zen Hei, Microsoft YaHei, SimSun, sans-serif" font-size="34" text-anchor="start" fill="#1f2328">+ fallbackTruncate()</text>
<rect x="3485.0" y="2833.0" width="765.0" height="317.0" rx="3" fill="#ffffff" stroke="#000000" stroke-width="1.3"/><path d="M3485.0 2873.0 L3485.0 2836.0 Q3485.0 2833.0 3488.0 2833.0 L4247.0 2833.0 Q4250.0 2833.0 4250.0 2836.0 L4250.0 2873.0 Z" fill="#ffffff" stroke="#000000" stroke-width="1.3"/><text x="3867.5" y="2849.0" font-family="WenQuanYi Zen Hei, Microsoft YaHei, SimSun, sans-serif" font-size="24" text-anchor="middle" font-style="italic" fill="#1f2328">«external»</text><text x="3867.5" y="2865.0" font-family="WenQuanYi Zen Hei, Microsoft YaHei, SimSun, sans-serif" font-size="34" text-anchor="middle" font-weight="bold" fill="#1f2328">AI 服务</text>
<text x="3491.0" y="2990.5" font-family="WenQuanYi Zen Hei, Microsoft YaHei, SimSun, sans-serif" font-size="34" text-anchor="start" fill="#1f2328">+ endpoint: /v1/chat/completions</text>
<text x="3491.0" y="3047.5" font-family="WenQuanYi Zen Hei, Microsoft YaHei, SimSun, sans-serif" font-size="34" text-anchor="start" fill="#1f2328">+ model</text>
<line x1="3485.0" y1="3071.5" x2="4250.0" y2="3071.5" stroke="#000000" stroke-width="1"/>
<text x="3491.0" y="3126.5" font-family="WenQuanYi Zen Hei, Microsoft YaHei, SimSun, sans-serif" font-size="34" text-anchor="start" fill="#1f2328">+ chatCompletions()  «一次性/SSE»</text>
<rect x="368.0" y="3584.0" width="3627.0" height="408.0" rx="3" fill="#ffffff" stroke="#000000" stroke-width="1.3"/><path d="M368.0 3624.0 L368.0 3587.0 Q368.0 3584.0 371.0 3584.0 L3992.0 3584.0 Q3995.0 3584.0 3995.0 3587.0 L3995.0 3624.0 Z" fill="#ffffff" stroke="#000000" stroke-width="1.3"/><text x="2181.5" y="3600.0" font-family="WenQuanYi Zen Hei, Microsoft YaHei, SimSun, sans-serif" font-size="24" text-anchor="middle" font-style="italic" fill="#1f2328">«entity»</text><text x="2181.5" y="3616.0" font-family="WenQuanYi Zen Hei, Microsoft YaHei, SimSun, sans-serif" font-size="34" text-anchor="middle" font-weight="bold" fill="#1f2328">ORM 模型（SQLAlchemy · 详见图5-2）</text>
<text x="374.0" y="3741.5" font-family="WenQuanYi Zen Hei, Microsoft YaHei, SimSun, sans-serif" font-size="34" text-anchor="start" fill="#1f2328">User · Note · Draft · Comment</text>
<text x="374.0" y="3798.5" font-family="WenQuanYi Zen Hei, Microsoft YaHei, SimSun, sans-serif" font-size="34" text-anchor="start" fill="#1f2328">Like · NoteDislike · Favorite · CommentReaction</text>
<text x="374.0" y="3855.5" font-family="WenQuanYi Zen Hei, Microsoft YaHei, SimSun, sans-serif" font-size="34" text-anchor="start" fill="#1f2328">Collection · CollectionEntry · CheckIn · XpEvent · LoginEvent</text>
<text x="374.0" y="3911.5" font-family="WenQuanYi Zen Hei, Microsoft YaHei, SimSun, sans-serif" font-size="34" text-anchor="start" fill="#1f2328">Report · Block（规划·预留）</text>
<line x1="368.0" y1="3935.5" x2="3995.0" y2="3935.5" stroke="#000000" stroke-width="1"/>

<text x="2696.0" y="1305.5" font-family="WenQuanYi Zen Hei, Microsoft YaHei, SimSun, sans-serif" font-size="34" text-anchor="start" font-weight="bold" fill="#000000">分层单向依赖：routes → services → db； 发布 POST /drafts/{id}/publish 为唯一建笔记路径； AI 永不硬失败：故障降级不阻断主流程。</text>
<path d="M1846.8 657.0 L1842.0 1054.0 L1063.0 1240.1" fill="none" stroke="#000000" stroke-width="1.3" stroke-dasharray="6 4"/><line x1="1073.2" y1="1233.9" x2="1063.0" y2="1240.1" stroke="#000000" stroke-width="1.3"/><line x1="1075.0" y1="1241.1" x2="1063.0" y2="1240.1" stroke="#000000" stroke-width="1.3"/><rect x="1627.9" y="1092.4" width="35.3" height="17.0" fill="#ffffff" opacity="0.85" rx="3"/><text x="1645.6" y="1104.4" font-family="WenQuanYi Zen Hei, Microsoft YaHei, SimSun, sans-serif" font-size="11" text-anchor="middle" fill="#000000">调用</text>
<path d="M467.7 714.0 L468.0 1020.0 L567.0 1133.0 L567.0 1133.0" fill="none" stroke="#000000" stroke-width="1.3" stroke-dasharray="6 4"/><line x1="555.6" y1="1136.7" x2="567.0" y2="1133.0" stroke="#000000" stroke-width="1.3"/><line x1="555.6" y1="1129.3" x2="567.0" y2="1133.0" stroke="#000000" stroke-width="1.3"/>
<path d="M609.2 1564.0 L609.0 1728.0 L1572.0 1988.0" fill="none" stroke="#000000" stroke-width="1.3" stroke-dasharray="6 4"/><line x1="1560.0" y1="1988.6" x2="1572.0" y2="1988.0" stroke="#000000" stroke-width="1.3"/><line x1="1561.9" y1="1981.5" x2="1572.0" y2="1988.0" stroke="#000000" stroke-width="1.3"/><rect x="956.2" y="1828.1" width="110.3" height="17.0" fill="#ffffff" opacity="0.85" rx="3"/><text x="1011.3" y="1840.1" font-family="WenQuanYi Zen Hei, Microsoft YaHei, SimSun, sans-serif" font-size="11" text-anchor="middle" fill="#000000">REST JSON + JWT</text>
<path d="M1807.4 2329.0 L1547.3 2833.0" fill="none" stroke="#000000" stroke-width="1.3" stroke-dasharray="6 4"/><line x1="1549.3" y1="2821.2" x2="1547.3" y2="2833.0" stroke="#000000" stroke-width="1.3"/><line x1="1555.9" y1="2824.6" x2="1547.3" y2="2833.0" stroke="#000000" stroke-width="1.3"/><rect x="1646.1" y="2572.5" width="62.6" height="17.0" fill="#ffffff" opacity="0.85" rx="3"/><text x="1677.3" y="2584.5" font-family="WenQuanYi Zen Hei, Microsoft YaHei, SimSun, sans-serif" font-size="11" text-anchor="middle" fill="#000000">复用查询</text>
<path d="M484.7 2329.0 L533.8 2833.0" fill="none" stroke="#000000" stroke-width="1.3" stroke-dasharray="6 4"/><line x1="529.0" y1="2822.0" x2="533.8" y2="2833.0" stroke="#000000" stroke-width="1.3"/><line x1="536.4" y1="2821.3" x2="533.8" y2="2833.0" stroke="#000000" stroke-width="1.3"/><rect x="478.0" y="2572.5" width="62.6" height="17.0" fill="#ffffff" opacity="0.85" rx="3"/><text x="509.3" y="2584.5" font-family="WenQuanYi Zen Hei, Microsoft YaHei, SimSun, sans-serif" font-size="11" text-anchor="middle" fill="#000000">复用查询</text>
<path d="M3268.7 2159.0 L2918.0 2635.0 L2422.0 2678.0 L2422.2 2833.0" fill="none" stroke="#000000" stroke-width="1.3" stroke-dasharray="6 4"/><line x1="2418.5" y1="2821.6" x2="2422.2" y2="2833.0" stroke="#000000" stroke-width="1.3"/><line x1="2425.9" y1="2821.6" x2="2422.2" y2="2833.0" stroke="#000000" stroke-width="1.3"/><rect x="2859.4" y="2629.2" width="55.7" height="17.0" fill="#ffffff" opacity="0.85" rx="3"/><text x="2887.3" y="2641.2" font-family="WenQuanYi Zen Hei, Microsoft YaHei, SimSun, sans-serif" font-size="11" text-anchor="middle" fill="#000000">AI 编排</text>
<path d="M4009.3 2216.0 L4009.0 2550.0 L4329.0 2550.0 L4329.0 3559.0 L3853.0 3559.0 L3670.5 3584.0" fill="none" stroke="#000000" stroke-width="1.3" stroke-dasharray="6 4"/><line x1="3681.3" y1="3578.8" x2="3670.5" y2="3584.0" stroke="#000000" stroke-width="1.3"/><line x1="3682.3" y1="3586.1" x2="3670.5" y2="3584.0" stroke="#000000" stroke-width="1.3"/><rect x="4280.7" y="3049.1" width="96.7" height="17.0" fill="#ffffff" opacity="0.85" rx="3"/><text x="4329.0" y="3061.1" font-family="WenQuanYi Zen Hei, Microsoft YaHei, SimSun, sans-serif" font-size="11" text-anchor="middle" fill="#000000">签到/经验写入</text>
<path d="M1905.8 2329.0 L1870.0 2649.0 L1870.0 3542.0 L1923.2 3584.0" fill="none" stroke="#000000" stroke-width="1.3" stroke-dasharray="6 4"/><line x1="1911.9" y1="3579.8" x2="1923.2" y2="3584.0" stroke="#000000" stroke-width="1.3"/><line x1="1916.5" y1="3574.0" x2="1923.2" y2="3584.0" stroke="#000000" stroke-width="1.3"/><rect x="1838.7" y="2959.9" width="62.6" height="17.0" fill="#ffffff" opacity="0.85" rx="3"/><text x="1870.0" y="2971.9" font-family="WenQuanYi Zen Hei, Microsoft YaHei, SimSun, sans-serif" font-size="11" text-anchor="middle" fill="#000000">轻量写入</text>
<path d="M906.0 3186.8 L1748.7 3584.0" fill="none" stroke="#000000" stroke-width="1.3" stroke-dasharray="6 4"/><line x1="1736.8" y1="3582.5" x2="1748.7" y2="3584.0" stroke="#000000" stroke-width="1.3"/><line x1="1739.9" y1="3575.8" x2="1748.7" y2="3584.0" stroke="#000000" stroke-width="1.3"/><rect x="1272.2" y="3376.9" width="110.3" height="17.0" fill="#ffffff" opacity="0.85" rx="3"/><text x="1327.3" y="3388.9" font-family="WenQuanYi Zen Hei, Microsoft YaHei, SimSun, sans-serif" font-size="11" text-anchor="middle" fill="#000000">SQLAlchemy 查询</text>
<path d="M2805.0 3033.4 L3485.0 3006.6" fill="none" stroke="#000000" stroke-width="1.3" stroke-dasharray="6 4"/><line x1="3473.7" y1="3010.7" x2="3485.0" y2="3006.6" stroke="#000000" stroke-width="1.3"/><line x1="3473.5" y1="3003.3" x2="3485.0" y2="3006.6" stroke="#000000" stroke-width="1.3"/><rect x="3100.1" y="3011.5" width="89.8" height="17.0" fill="#ffffff" opacity="0.85" rx="3"/><text x="3145.0" y="3023.5" font-family="WenQuanYi Zen Hei, Microsoft YaHei, SimSun, sans-serif" font-size="11" text-anchor="middle" fill="#000000">AI 润色/摘要</text>
</svg>