<svg xmlns="http://www.w3.org/2000/svg" width="1560" height="1470" viewBox="0 0 1560 1470" font-family="WenQuanYi Zen Hei, Microsoft YaHei, SimSun, sans-serif">
<rect width="1560" height="1470" fill="#ffffff"/>
<rect x="55.0" y="100.0" width="220.0" height="152.0" rx="3" fill="#ffffff" stroke="#d6b656" stroke-width="1.3"/><path d="M55.0 140.0 L55.0 103.0 Q55.0 100.0 58.0 100.0 L272.0 100.0 Q275.0 100.0 275.0 103.0 L275.0 140.0 Z" fill="#fff2cc" stroke="#d6b656" stroke-width="1.3"/><text x="165.0" y="117.0" font-family="WenQuanYi Zen Hei, Microsoft YaHei, SimSun, sans-serif" font-size="11" text-anchor="middle" font-style="italic" fill="#1f2328">«boundary»</text><text x="165.0" y="133.0" font-family="WenQuanYi Zen Hei, Microsoft YaHei, SimSun, sans-serif" font-size="13" text-anchor="middle" font-weight="bold" fill="#1f2328">WritePage</text>
<text x="61.0" y="155.0" font-family="WenQuanYi Zen Hei, Microsoft YaHei, SimSun, sans-serif" font-size="12" text-anchor="start" fill="#1f2328">- draftStore</text>
<text x="61.0" y="175.0" font-family="WenQuanYi Zen Hei, Microsoft YaHei, SimSun, sans-serif" font-size="12" text-anchor="start" fill="#1f2328">- aiState</text>
<line x1="55.0" y1="184.0" x2="275.0" y2="184.0" stroke="#d6b656" stroke-width="1"/>
<text x="61.0" y="203.0" font-family="WenQuanYi Zen Hei, Microsoft YaHei, SimSun, sans-serif" font-size="12" text-anchor="start" fill="#1f2328">+ autoSave()</text>
<text x="61.0" y="223.0" font-family="WenQuanYi Zen Hei, Microsoft YaHei, SimSun, sans-serif" font-size="12" text-anchor="start" fill="#1f2328">+ aiPolish()</text>
<text x="61.0" y="243.0" font-family="WenQuanYi Zen Hei, Microsoft YaHei, SimSun, sans-serif" font-size="12" text-anchor="start" fill="#1f2328">+ publish()</text>
<rect x="300.0" y="100.0" width="215.0" height="132.0" rx="3" fill="#ffffff" stroke="#d6b656" stroke-width="1.3"/><path d="M300.0 140.0 L300.0 103.0 Q300.0 100.0 303.0 100.0 L512.0 100.0 Q515.0 100.0 515.0 103.0 L515.0 140.0 Z" fill="#fff2cc" stroke="#d6b656" stroke-width="1.3"/><text x="407.5" y="117.0" font-family="WenQuanYi Zen Hei, Microsoft YaHei, SimSun, sans-serif" font-size="11" text-anchor="middle" font-style="italic" fill="#1f2328">«boundary»</text><text x="407.5" y="133.0" font-family="WenQuanYi Zen Hei, Microsoft YaHei, SimSun, sans-serif" font-size="13" text-anchor="middle" font-weight="bold" fill="#1f2328">BrowsePage</text>
<text x="306.0" y="155.0" font-family="WenQuanYi Zen Hei, Microsoft YaHei, SimSun, sans-serif" font-size="12" text-anchor="start" fill="#1f2328">- filters</text>
<text x="306.0" y="175.0" font-family="WenQuanYi Zen Hei, Microsoft YaHei, SimSun, sans-serif" font-size="12" text-anchor="start" fill="#1f2328">- cursor</text>
<line x1="300.0" y1="184.0" x2="515.0" y2="184.0" stroke="#d6b656" stroke-width="1"/>
<text x="306.0" y="203.0" font-family="WenQuanYi Zen Hei, Microsoft YaHei, SimSun, sans-serif" font-size="12" text-anchor="start" fill="#1f2328">+ filterSort()</text>
<text x="306.0" y="223.0" font-family="WenQuanYi Zen Hei, Microsoft YaHei, SimSun, sans-serif" font-size="12" text-anchor="start" fill="#1f2328">+ loadMore()</text>
<rect x="540.0" y="100.0" width="225.0" height="132.0" rx="3" fill="#ffffff" stroke="#d6b656" stroke-width="1.3"/><path d="M540.0 140.0 L540.0 103.0 Q540.0 100.0 543.0 100.0 L762.0 100.0 Q765.0 100.0 765.0 103.0 L765.0 140.0 Z" fill="#fff2cc" stroke="#d6b656" stroke-width="1.3"/><text x="652.5" y="117.0" font-family="WenQuanYi Zen Hei, Microsoft YaHei, SimSun, sans-serif" font-size="11" text-anchor="middle" font-style="italic" fill="#1f2328">«boundary»</text><text x="652.5" y="133.0" font-family="WenQuanYi Zen Hei, Microsoft YaHei, SimSun, sans-serif" font-size="13" text-anchor="middle" font-weight="bold" fill="#1f2328">NoteDetailPage</text>
<text x="546.0" y="155.0" font-family="WenQuanYi Zen Hei, Microsoft YaHei, SimSun, sans-serif" font-size="12" text-anchor="start" fill="#1f2328">- noteId</text>
<text x="546.0" y="175.0" font-family="WenQuanYi Zen Hei, Microsoft YaHei, SimSun, sans-serif" font-size="12" text-anchor="start" fill="#1f2328">- cmtMode</text>
<line x1="540.0" y1="184.0" x2="765.0" y2="184.0" stroke="#d6b656" stroke-width="1"/>
<text x="546.0" y="203.0" font-family="WenQuanYi Zen Hei, Microsoft YaHei, SimSun, sans-serif" font-size="12" text-anchor="start" fill="#1f2328">+ like()</text>
<text x="546.0" y="223.0" font-family="WenQuanYi Zen Hei, Microsoft YaHei, SimSun, sans-serif" font-size="12" text-anchor="start" fill="#1f2328">+ toggleCmtMode()</text>
<rect x="790.0" y="100.0" width="235.0" height="152.0" rx="3" fill="#ffffff" stroke="#d6b656" stroke-width="1.3"/><path d="M790.0 140.0 L790.0 103.0 Q790.0 100.0 793.0 100.0 L1022.0 100.0 Q1025.0 100.0 1025.0 103.0 L1025.0 140.0 Z" fill="#fff2cc" stroke="#d6b656" stroke-width="1.3"/><text x="907.5" y="117.0" font-family="WenQuanYi Zen Hei, Microsoft YaHei, SimSun, sans-serif" font-size="11" text-anchor="middle" font-style="italic" fill="#1f2328">«boundary»</text><text x="907.5" y="133.0" font-family="WenQuanYi Zen Hei, Microsoft YaHei, SimSun, sans-serif" font-size="13" text-anchor="middle" font-weight="bold" fill="#1f2328">CommentSection</text>
<text x="796.0" y="155.0" font-family="WenQuanYi Zen Hei, Microsoft YaHei, SimSun, sans-serif" font-size="12" text-anchor="start" fill="#1f2328">- comments</text>
<text x="796.0" y="175.0" font-family="WenQuanYi Zen Hei, Microsoft YaHei, SimSun, sans-serif" font-size="12" text-anchor="start" fill="#1f2328">- anchor</text>
<line x1="790.0" y1="184.0" x2="1025.0" y2="184.0" stroke="#d6b656" stroke-width="1"/>
<text x="796.0" y="203.0" font-family="WenQuanYi Zen Hei, Microsoft YaHei, SimSun, sans-serif" font-size="12" text-anchor="start" fill="#1f2328">+ createComment()</text>
<text x="796.0" y="223.0" font-family="WenQuanYi Zen Hei, Microsoft YaHei, SimSun, sans-serif" font-size="12" text-anchor="start" fill="#1f2328">+ deleteComment()</text>
<text x="796.0" y="243.0" font-family="WenQuanYi Zen Hei, Microsoft YaHei, SimSun, sans-serif" font-size="12" text-anchor="start" fill="#1f2328">+ anchorJump()</text>
<rect x="1050.0" y="100.0" width="215.0" height="112.0" rx="3" fill="#ffffff" stroke="#d6b656" stroke-width="1.3"/><path d="M1050.0 140.0 L1050.0 103.0 Q1050.0 100.0 1053.0 100.0 L1262.0 100.0 Q1265.0 100.0 1265.0 103.0 L1265.0 140.0 Z" fill="#fff2cc" stroke="#d6b656" stroke-width="1.3"/><text x="1157.5" y="117.0" font-family="WenQuanYi Zen Hei, Microsoft YaHei, SimSun, sans-serif" font-size="11" text-anchor="middle" font-style="italic" fill="#1f2328">«boundary»</text><text x="1157.5" y="133.0" font-family="WenQuanYi Zen Hei, Microsoft YaHei, SimSun, sans-serif" font-size="13" text-anchor="middle" font-weight="bold" fill="#1f2328">ProfilePage</text>
<text x="1056.0" y="155.0" font-family="WenQuanYi Zen Hei, Microsoft YaHei, SimSun, sans-serif" font-size="12" text-anchor="start" fill="#1f2328">- activeTab</text>
<line x1="1050.0" y1="164.0" x2="1265.0" y2="164.0" stroke="#d6b656" stroke-width="1"/>
<text x="1056.0" y="183.0" font-family="WenQuanYi Zen Hei, Microsoft YaHei, SimSun, sans-serif" font-size="12" text-anchor="start" fill="#1f2328">+ notesTab()</text>
<text x="1056.0" y="203.0" font-family="WenQuanYi Zen Hei, Microsoft YaHei, SimSun, sans-serif" font-size="12" text-anchor="start" fill="#1f2328">+ draftsTab()</text>
<rect x="1290.0" y="100.0" width="215.0" height="112.0" rx="3" fill="#ffffff" stroke="#d6b656" stroke-width="1.3"/><path d="M1290.0 140.0 L1290.0 103.0 Q1290.0 100.0 1293.0 100.0 L1502.0 100.0 Q1505.0 100.0 1505.0 103.0 L1505.0 140.0 Z" fill="#fff2cc" stroke="#d6b656" stroke-width="1.3"/><text x="1397.5" y="117.0" font-family="WenQuanYi Zen Hei, Microsoft YaHei, SimSun, sans-serif" font-size="11" text-anchor="middle" font-style="italic" fill="#1f2328">«boundary»</text><text x="1397.5" y="133.0" font-family="WenQuanYi Zen Hei, Microsoft YaHei, SimSun, sans-serif" font-size="13" text-anchor="middle" font-weight="bold" fill="#1f2328">AdminPage</text>
<text x="1296.0" y="155.0" font-family="WenQuanYi Zen Hei, Microsoft YaHei, SimSun, sans-serif" font-size="12" text-anchor="start" fill="#1f2328">- role</text>
<line x1="1290.0" y1="164.0" x2="1505.0" y2="164.0" stroke="#d6b656" stroke-width="1"/>
<text x="1296.0" y="183.0" font-family="WenQuanYi Zen Hei, Microsoft YaHei, SimSun, sans-serif" font-size="12" text-anchor="start" fill="#1f2328">+ manageUsers()</text>
<text x="1296.0" y="203.0" font-family="WenQuanYi Zen Hei, Microsoft YaHei, SimSun, sans-serif" font-size="12" text-anchor="start" fill="#1f2328">+ loginAudit()</text>
<rect x="55.0" y="400.0" width="320.0" height="152.0" rx="3" fill="#ffffff" stroke="#6c8ebf" stroke-width="1.3"/><path d="M55.0 440.0 L55.0 403.0 Q55.0 400.0 58.0 400.0 L372.0 400.0 Q375.0 400.0 375.0 403.0 L375.0 440.0 Z" fill="#c7dbf5" stroke="#6c8ebf" stroke-width="1.3"/><text x="215.0" y="417.0" font-family="WenQuanYi Zen Hei, Microsoft YaHei, SimSun, sans-serif" font-size="11" text-anchor="middle" font-style="italic" fill="#1f2328">«boundary»</text><text x="215.0" y="433.0" font-family="WenQuanYi Zen Hei, Microsoft YaHei, SimSun, sans-serif" font-size="13" text-anchor="middle" font-weight="bold" fill="#1f2328">ApiClient</text>
<text x="61.0" y="455.0" font-family="WenQuanYi Zen Hei, Microsoft YaHei, SimSun, sans-serif" font-size="12" text-anchor="start" fill="#1f2328">- baseURL: str</text>
<text x="61.0" y="475.0" font-family="WenQuanYi Zen Hei, Microsoft YaHei, SimSun, sans-serif" font-size="12" text-anchor="start" fill="#1f2328">- token: JWT</text>
<line x1="55.0" y1="484.0" x2="375.0" y2="484.0" stroke="#6c8ebf" stroke-width="1"/>
<text x="61.0" y="503.0" font-family="WenQuanYi Zen Hei, Microsoft YaHei, SimSun, sans-serif" font-size="12" text-anchor="start" fill="#1f2328">+ get() / post() / put() / del()</text>
<text x="61.0" y="523.0" font-family="WenQuanYi Zen Hei, Microsoft YaHei, SimSun, sans-serif" font-size="12" text-anchor="start" fill="#1f2328">+ authBearer()</text>
<text x="61.0" y="543.0" font-family="WenQuanYi Zen Hei, Microsoft YaHei, SimSun, sans-serif" font-size="12" text-anchor="start" fill="#1f2328">+ zodParse(schema)</text>
<rect x="430.0" y="400.0" width="480.0" height="144.0" rx="3" fill="#ffffff" stroke="#8a94a6" stroke-width="1.3"/><path d="M430.0 440.0 L430.0 403.0 Q430.0 400.0 433.0 400.0 L907.0 400.0 Q910.0 400.0 910.0 403.0 L910.0 440.0 Z" fill="#f2f4f7" stroke="#8a94a6" stroke-width="1.3"/><text x="670.0" y="417.0" font-family="WenQuanYi Zen Hei, Microsoft YaHei, SimSun, sans-serif" font-size="11" text-anchor="middle" font-style="italic" fill="#1f2328">«pydantic · Zod»</text><text x="670.0" y="433.0" font-family="WenQuanYi Zen Hei, Microsoft YaHei, SimSun, sans-serif" font-size="13" text-anchor="middle" font-weight="bold" fill="#1f2328">DTO / Schemas</text>
<text x="436.0" y="455.0" font-family="WenQuanYi Zen Hei, Microsoft YaHei, SimSun, sans-serif" font-size="12" text-anchor="start" fill="#1f2328">NoteOut · DraftOut · NoteCard</text>
<text x="436.0" y="475.0" font-family="WenQuanYi Zen Hei, Microsoft YaHei, SimSun, sans-serif" font-size="12" text-anchor="start" fill="#1f2328">CommentIn · CommentOut · PaginatedComments</text>
<text x="436.0" y="495.0" font-family="WenQuanYi Zen Hei, Microsoft YaHei, SimSun, sans-serif" font-size="12" text-anchor="start" fill="#1f2328">CollectionOut · CollectionDetailOut</text>
<text x="436.0" y="515.0" font-family="WenQuanYi Zen Hei, Microsoft YaHei, SimSun, sans-serif" font-size="12" text-anchor="start" fill="#1f2328">AIComposeIn/Out · CheckinOut · XpEventOut</text>
<line x1="430.0" y1="524.0" x2="910.0" y2="524.0" stroke="#8a94a6" stroke-width="1"/>

<rect x="50.0" y="650.0" width="225.0" height="172.0" rx="3" fill="#ffffff" stroke="#6c8ebf" stroke-width="1.3"/><path d="M50.0 690.0 L50.0 653.0 Q50.0 650.0 53.0 650.0 L272.0 650.0 Q275.0 650.0 275.0 653.0 L275.0 690.0 Z" fill="#c7dbf5" stroke="#6c8ebf" stroke-width="1.3"/><text x="162.5" y="667.0" font-family="WenQuanYi Zen Hei, Microsoft YaHei, SimSun, sans-serif" font-size="11" text-anchor="middle" font-style="italic" fill="#1f2328">«control»</text><text x="162.5" y="683.0" font-family="WenQuanYi Zen Hei, Microsoft YaHei, SimSun, sans-serif" font-size="13" text-anchor="middle" font-weight="bold" fill="#1f2328">NotesRoutes</text>
<text x="56.0" y="705.0" font-family="WenQuanYi Zen Hei, Microsoft YaHei, SimSun, sans-serif" font-size="12" text-anchor="start" fill="#1f2328">- svc: NotesService</text>
<text x="56.0" y="725.0" font-family="WenQuanYi Zen Hei, Microsoft YaHei, SimSun, sans-serif" font-size="12" text-anchor="start" fill="#1f2328">- db</text>
<line x1="50.0" y1="734.0" x2="275.0" y2="734.0" stroke="#6c8ebf" stroke-width="1"/>
<text x="56.0" y="753.0" font-family="WenQuanYi Zen Hei, Microsoft YaHei, SimSun, sans-serif" font-size="12" text-anchor="start" fill="#1f2328">+ list()</text>
<text x="56.0" y="773.0" font-family="WenQuanYi Zen Hei, Microsoft YaHei, SimSun, sans-serif" font-size="12" text-anchor="start" fill="#1f2328">+ detail()</text>
<text x="56.0" y="793.0" font-family="WenQuanYi Zen Hei, Microsoft YaHei, SimSun, sans-serif" font-size="12" text-anchor="start" fill="#1f2328">+ edit()</text>
<text x="56.0" y="813.0" font-family="WenQuanYi Zen Hei, Microsoft YaHei, SimSun, sans-serif" font-size="12" text-anchor="start" fill="#1f2328">+ delete()</text>
<rect x="300.0" y="650.0" width="230.0" height="152.0" rx="3" fill="#ffffff" stroke="#6c8ebf" stroke-width="1.3"/><path d="M300.0 690.0 L300.0 653.0 Q300.0 650.0 303.0 650.0 L527.0 650.0 Q530.0 650.0 530.0 653.0 L530.0 690.0 Z" fill="#c7dbf5" stroke="#6c8ebf" stroke-width="1.3"/><text x="415.0" y="667.0" font-family="WenQuanYi Zen Hei, Microsoft YaHei, SimSun, sans-serif" font-size="11" text-anchor="middle" font-style="italic" fill="#1f2328">«control»</text><text x="415.0" y="683.0" font-family="WenQuanYi Zen Hei, Microsoft YaHei, SimSun, sans-serif" font-size="13" text-anchor="middle" font-weight="bold" fill="#1f2328">DraftsRoutes</text>
<text x="306.0" y="705.0" font-family="WenQuanYi Zen Hei, Microsoft YaHei, SimSun, sans-serif" font-size="12" text-anchor="start" fill="#1f2328">- ai: AiComposeService</text>
<text x="306.0" y="725.0" font-family="WenQuanYi Zen Hei, Microsoft YaHei, SimSun, sans-serif" font-size="12" text-anchor="start" fill="#1f2328">- db</text>
<line x1="300.0" y1="734.0" x2="530.0" y2="734.0" stroke="#6c8ebf" stroke-width="1"/>
<text x="306.0" y="753.0" font-family="WenQuanYi Zen Hei, Microsoft YaHei, SimSun, sans-serif" font-size="12" text-anchor="start" fill="#1f2328">+ create()</text>
<text x="306.0" y="773.0" font-family="WenQuanYi Zen Hei, Microsoft YaHei, SimSun, sans-serif" font-size="12" text-anchor="start" fill="#1f2328">+ update()</text>
<text x="306.0" y="793.0" font-family="WenQuanYi Zen Hei, Microsoft YaHei, SimSun, sans-serif" font-size="12" text-anchor="start" fill="#1f2328">+ publish()</text>
<rect x="555.0" y="650.0" width="255.0" height="172.0" rx="3" fill="#ffffff" stroke="#6c8ebf" stroke-width="1.3"/><path d="M555.0 690.0 L555.0 653.0 Q555.0 650.0 558.0 650.0 L807.0 650.0 Q810.0 650.0 810.0 653.0 L810.0 690.0 Z" fill="#c7dbf5" stroke="#6c8ebf" stroke-width="1.3"/><text x="682.5" y="667.0" font-family="WenQuanYi Zen Hei, Microsoft YaHei, SimSun, sans-serif" font-size="11" text-anchor="middle" font-style="italic" fill="#1f2328">«control»</text><text x="682.5" y="683.0" font-family="WenQuanYi Zen Hei, Microsoft YaHei, SimSun, sans-serif" font-size="13" text-anchor="middle" font-weight="bold" fill="#1f2328">InteractionsRoutes</text>
<text x="561.0" y="705.0" font-family="WenQuanYi Zen Hei, Microsoft YaHei, SimSun, sans-serif" font-size="12" text-anchor="start" fill="#1f2328">- cmt: CommentsService</text>
<text x="561.0" y="725.0" font-family="WenQuanYi Zen Hei, Microsoft YaHei, SimSun, sans-serif" font-size="12" text-anchor="start" fill="#1f2328">- db</text>
<line x1="555.0" y1="734.0" x2="810.0" y2="734.0" stroke="#6c8ebf" stroke-width="1"/>
<text x="561.0" y="753.0" font-family="WenQuanYi Zen Hei, Microsoft YaHei, SimSun, sans-serif" font-size="12" text-anchor="start" fill="#1f2328">+ like() / dislike()</text>
<text x="561.0" y="773.0" font-family="WenQuanYi Zen Hei, Microsoft YaHei, SimSun, sans-serif" font-size="12" text-anchor="start" fill="#1f2328">+ favorite()</text>
<text x="561.0" y="793.0" font-family="WenQuanYi Zen Hei, Microsoft YaHei, SimSun, sans-serif" font-size="12" text-anchor="start" fill="#1f2328">+ createComment()</text>
<text x="561.0" y="813.0" font-family="WenQuanYi Zen Hei, Microsoft YaHei, SimSun, sans-serif" font-size="12" text-anchor="start" fill="#1f2328">+ reactComment()</text>
<rect x="835.0" y="650.0" width="235.0" height="132.0" rx="3" fill="#ffffff" stroke="#6c8ebf" stroke-width="1.3"/><path d="M835.0 690.0 L835.0 653.0 Q835.0 650.0 838.0 650.0 L1067.0 650.0 Q1070.0 650.0 1070.0 653.0 L1070.0 690.0 Z" fill="#c7dbf5" stroke="#6c8ebf" stroke-width="1.3"/><text x="952.5" y="667.0" font-family="WenQuanYi Zen Hei, Microsoft YaHei, SimSun, sans-serif" font-size="11" text-anchor="middle" font-style="italic" fill="#1f2328">«control»</text><text x="952.5" y="683.0" font-family="WenQuanYi Zen Hei, Microsoft YaHei, SimSun, sans-serif" font-size="13" text-anchor="middle" font-weight="bold" fill="#1f2328">CollectionsRoutes</text>
<text x="841.0" y="705.0" font-family="WenQuanYi Zen Hei, Microsoft YaHei, SimSun, sans-serif" font-size="12" text-anchor="start" fill="#1f2328">- db</text>
<line x1="835.0" y1="714.0" x2="1070.0" y2="714.0" stroke="#6c8ebf" stroke-width="1"/>
<text x="841.0" y="733.0" font-family="WenQuanYi Zen Hei, Microsoft YaHei, SimSun, sans-serif" font-size="12" text-anchor="start" fill="#1f2328">+ crud()</text>
<text x="841.0" y="753.0" font-family="WenQuanYi Zen Hei, Microsoft YaHei, SimSun, sans-serif" font-size="12" text-anchor="start" fill="#1f2328">+ addEntry()</text>
<text x="841.0" y="773.0" font-family="WenQuanYi Zen Hei, Microsoft YaHei, SimSun, sans-serif" font-size="12" text-anchor="start" fill="#1f2328">+ noteContext()</text>
<rect x="1095.0" y="650.0" width="200.0" height="112.0" rx="3" fill="#ffffff" stroke="#6c8ebf" stroke-width="1.3"/><path d="M1095.0 690.0 L1095.0 653.0 Q1095.0 650.0 1098.0 650.0 L1292.0 650.0 Q1295.0 650.0 1295.0 653.0 L1295.0 690.0 Z" fill="#c7dbf5" stroke="#6c8ebf" stroke-width="1.3"/><text x="1195.0" y="667.0" font-family="WenQuanYi Zen Hei, Microsoft YaHei, SimSun, sans-serif" font-size="11" text-anchor="middle" font-style="italic" fill="#1f2328">«control»</text><text x="1195.0" y="683.0" font-family="WenQuanYi Zen Hei, Microsoft YaHei, SimSun, sans-serif" font-size="13" text-anchor="middle" font-weight="bold" fill="#1f2328">AiRoutes</text>
<text x="1101.0" y="705.0" font-family="WenQuanYi Zen Hei, Microsoft YaHei, SimSun, sans-serif" font-size="12" text-anchor="start" fill="#1f2328">- ai: AiComposeService</text>
<line x1="1095.0" y1="714.0" x2="1295.0" y2="714.0" stroke="#6c8ebf" stroke-width="1"/>
<text x="1101.0" y="733.0" font-family="WenQuanYi Zen Hei, Microsoft YaHei, SimSun, sans-serif" font-size="12" text-anchor="start" fill="#1f2328">+ compose()</text>
<text x="1101.0" y="753.0" font-family="WenQuanYi Zen Hei, Microsoft YaHei, SimSun, sans-serif" font-size="12" text-anchor="start" fill="#1f2328">+ composeStream()</text>
<rect x="1315.0" y="650.0" width="200.0" height="132.0" rx="3" fill="#ffffff" stroke="#6c8ebf" stroke-width="1.3"/><path d="M1315.0 690.0 L1315.0 653.0 Q1315.0 650.0 1318.0 650.0 L1512.0 650.0 Q1515.0 650.0 1515.0 653.0 L1515.0 690.0 Z" fill="#c7dbf5" stroke="#6c8ebf" stroke-width="1.3"/><text x="1415.0" y="667.0" font-family="WenQuanYi Zen Hei, Microsoft YaHei, SimSun, sans-serif" font-size="11" text-anchor="middle" font-style="italic" fill="#1f2328">«control»</text><text x="1415.0" y="683.0" font-family="WenQuanYi Zen Hei, Microsoft YaHei, SimSun, sans-serif" font-size="13" text-anchor="middle" font-weight="bold" fill="#1f2328">AuthRoutes</text>
<text x="1321.0" y="705.0" font-family="WenQuanYi Zen Hei, Microsoft YaHei, SimSun, sans-serif" font-size="12" text-anchor="start" fill="#1f2328">- db</text>
<line x1="1315.0" y1="714.0" x2="1515.0" y2="714.0" stroke="#6c8ebf" stroke-width="1"/>
<text x="1321.0" y="733.0" font-family="WenQuanYi Zen Hei, Microsoft YaHei, SimSun, sans-serif" font-size="12" text-anchor="start" fill="#1f2328">+ login() / register()</text>
<text x="1321.0" y="753.0" font-family="WenQuanYi Zen Hei, Microsoft YaHei, SimSun, sans-serif" font-size="12" text-anchor="start" fill="#1f2328">+ dailyCheckin()</text>
<text x="1321.0" y="773.0" font-family="WenQuanYi Zen Hei, Microsoft YaHei, SimSun, sans-serif" font-size="12" text-anchor="start" fill="#1f2328">+ xpEvents()</text>
<rect x="70.0" y="1000.0" width="250.0" height="132.0" rx="3" fill="#ffffff" stroke="#82b366" stroke-width="1.3"/><path d="M70.0 1040.0 L70.0 1003.0 Q70.0 1000.0 73.0 1000.0 L317.0 1000.0 Q320.0 1000.0 320.0 1003.0 L320.0 1040.0 Z" fill="#d5e8d4" stroke="#82b366" stroke-width="1.3"/><text x="195.0" y="1017.0" font-family="WenQuanYi Zen Hei, Microsoft YaHei, SimSun, sans-serif" font-size="11" text-anchor="middle" font-style="italic" fill="#1f2328">«control»</text><text x="195.0" y="1033.0" font-family="WenQuanYi Zen Hei, Microsoft YaHei, SimSun, sans-serif" font-size="13" text-anchor="middle" font-weight="bold" fill="#1f2328">NotesService</text>
<text x="76.0" y="1055.0" font-family="WenQuanYi Zen Hei, Microsoft YaHei, SimSun, sans-serif" font-size="12" text-anchor="start" fill="#1f2328">- db: AsyncSession</text>
<line x1="70.0" y1="1064.0" x2="320.0" y2="1064.0" stroke="#82b366" stroke-width="1"/>
<text x="76.0" y="1083.0" font-family="WenQuanYi Zen Hei, Microsoft YaHei, SimSun, sans-serif" font-size="12" text-anchor="start" fill="#1f2328">+ listNotes()</text>
<text x="76.0" y="1103.0" font-family="WenQuanYi Zen Hei, Microsoft YaHei, SimSun, sans-serif" font-size="12" text-anchor="start" fill="#1f2328">+ detail()</text>
<text x="76.0" y="1123.0" font-family="WenQuanYi Zen Hei, Microsoft YaHei, SimSun, sans-serif" font-size="12" text-anchor="start" fill="#1f2328">+ edit() / delete()</text>
<rect x="400.0" y="1000.0" width="245.0" height="92.0" rx="3" fill="#ffffff" stroke="#82b366" stroke-width="1.3"/><path d="M400.0 1040.0 L400.0 1003.0 Q400.0 1000.0 403.0 1000.0 L642.0 1000.0 Q645.0 1000.0 645.0 1003.0 L645.0 1040.0 Z" fill="#d5e8d4" stroke="#82b366" stroke-width="1.3"/><text x="522.5" y="1017.0" font-family="WenQuanYi Zen Hei, Microsoft YaHei, SimSun, sans-serif" font-size="11" text-anchor="middle" font-style="italic" fill="#1f2328">«control»</text><text x="522.5" y="1033.0" font-family="WenQuanYi Zen Hei, Microsoft YaHei, SimSun, sans-serif" font-size="13" text-anchor="middle" font-weight="bold" fill="#1f2328">CommentsService</text>
<text x="406.0" y="1055.0" font-family="WenQuanYi Zen Hei, Microsoft YaHei, SimSun, sans-serif" font-size="12" text-anchor="start" fill="#1f2328">- db: AsyncSession</text>
<line x1="400.0" y1="1064.0" x2="645.0" y2="1064.0" stroke="#82b366" stroke-width="1"/>
<text x="406.0" y="1083.0" font-family="WenQuanYi Zen Hei, Microsoft YaHei, SimSun, sans-serif" font-size="12" text-anchor="start" fill="#1f2328">+ listComments()  «keyset»</text>
<rect x="720.0" y="1000.0" width="270.0" height="152.0" rx="3" fill="#ffffff" stroke="#82b366" stroke-width="1.3"/><path d="M720.0 1040.0 L720.0 1003.0 Q720.0 1000.0 723.0 1000.0 L987.0 1000.0 Q990.0 1000.0 990.0 1003.0 L990.0 1040.0 Z" fill="#d5e8d4" stroke="#82b366" stroke-width="1.3"/><text x="855.0" y="1017.0" font-family="WenQuanYi Zen Hei, Microsoft YaHei, SimSun, sans-serif" font-size="11" text-anchor="middle" font-style="italic" fill="#1f2328">«control»</text><text x="855.0" y="1033.0" font-family="WenQuanYi Zen Hei, Microsoft YaHei, SimSun, sans-serif" font-size="13" text-anchor="middle" font-weight="bold" fill="#1f2328">AiComposeService</text>
<text x="726.0" y="1055.0" font-family="WenQuanYi Zen Hei, Microsoft YaHei, SimSun, sans-serif" font-size="12" text-anchor="start" fill="#1f2328">- client: OpenAI</text>
<text x="726.0" y="1075.0" font-family="WenQuanYi Zen Hei, Microsoft YaHei, SimSun, sans-serif" font-size="12" text-anchor="start" fill="#1f2328">- model: str</text>
<line x1="720.0" y1="1084.0" x2="990.0" y2="1084.0" stroke="#82b366" stroke-width="1"/>
<text x="726.0" y="1103.0" font-family="WenQuanYi Zen Hei, Microsoft YaHei, SimSun, sans-serif" font-size="12" text-anchor="start" fill="#1f2328">+ polish()</text>
<text x="726.0" y="1123.0" font-family="WenQuanYi Zen Hei, Microsoft YaHei, SimSun, sans-serif" font-size="12" text-anchor="start" fill="#1f2328">+ summarizeStream()</text>
<text x="726.0" y="1143.0" font-family="WenQuanYi Zen Hei, Microsoft YaHei, SimSun, sans-serif" font-size="12" text-anchor="start" fill="#1f2328">+ fallbackTruncate()</text>
<rect x="1230.0" y="1000.0" width="270.0" height="112.0" rx="3" fill="#ffffff" stroke="#d79b00" stroke-width="1.3"/><path d="M1230.0 1040.0 L1230.0 1003.0 Q1230.0 1000.0 1233.0 1000.0 L1497.0 1000.0 Q1500.0 1000.0 1500.0 1003.0 L1500.0 1040.0 Z" fill="#ffe6cc" stroke="#d79b00" stroke-width="1.3"/><text x="1365.0" y="1017.0" font-family="WenQuanYi Zen Hei, Microsoft YaHei, SimSun, sans-serif" font-size="11" text-anchor="middle" font-style="italic" fill="#1f2328">«external»</text><text x="1365.0" y="1033.0" font-family="WenQuanYi Zen Hei, Microsoft YaHei, SimSun, sans-serif" font-size="13" text-anchor="middle" font-weight="bold" fill="#1f2328">AI 服务</text>
<text x="1236.0" y="1055.0" font-family="WenQuanYi Zen Hei, Microsoft YaHei, SimSun, sans-serif" font-size="12" text-anchor="start" fill="#1f2328">+ endpoint: /v1/chat/completions</text>
<text x="1236.0" y="1075.0" font-family="WenQuanYi Zen Hei, Microsoft YaHei, SimSun, sans-serif" font-size="12" text-anchor="start" fill="#1f2328">+ model</text>
<line x1="1230.0" y1="1084.0" x2="1500.0" y2="1084.0" stroke="#d79b00" stroke-width="1"/>
<text x="1236.0" y="1103.0" font-family="WenQuanYi Zen Hei, Microsoft YaHei, SimSun, sans-serif" font-size="12" text-anchor="start" fill="#1f2328">+ chatCompletions()  «一次性/SSE»</text>
<rect x="130.0" y="1265.0" width="937.0" height="120.0" rx="3" fill="#ffffff" stroke="#6c8ebf" stroke-width="1.3"/><path d="M130.0 1305.0 L130.0 1268.0 Q130.0 1265.0 133.0 1265.0 L1064.0 1265.0 Q1067.0 1265.0 1067.0 1268.0 L1067.0 1305.0 Z" fill="#c7dbf5" stroke="#6c8ebf" stroke-width="1.3"/><text x="598.5" y="1282.0" font-family="WenQuanYi Zen Hei, Microsoft YaHei, SimSun, sans-serif" font-size="11" text-anchor="middle" font-style="italic" fill="#1f2328">«entity»</text><text x="598.5" y="1298.0" font-family="WenQuanYi Zen Hei, Microsoft YaHei, SimSun, sans-serif" font-size="13" text-anchor="middle" font-weight="bold" fill="#1f2328">ORM 模型（SQLAlchemy · 详见图5-2）</text>
<text x="136.0" y="1280.0" font-family="WenQuanYi Zen Hei, Microsoft YaHei, SimSun, sans-serif" font-size="12" text-anchor="start" fill="#1f2328">User · Note · Draft · Comment</text>
<text x="136.0" y="1300.0" font-family="WenQuanYi Zen Hei, Microsoft YaHei, SimSun, sans-serif" font-size="12" text-anchor="start" fill="#1f2328">Like · NoteDislike · Favorite · CommentReaction</text>
<text x="136.0" y="1320.0" font-family="WenQuanYi Zen Hei, Microsoft YaHei, SimSun, sans-serif" font-size="12" text-anchor="start" fill="#1f2328">Collection · CollectionEntry · CheckIn · XpEvent · LoginEvent</text>
<text x="136.0" y="1340.0" font-family="WenQuanYi Zen Hei, Microsoft YaHei, SimSun, sans-serif" font-size="12" text-anchor="start" fill="#1f2328">Collection · CollectionEntry · CheckIn · XpEvent · LoginEvent</text>
<text x="136.0" y="1360.0" font-family="WenQuanYi Zen Hei, Microsoft YaHei, SimSun, sans-serif" font-size="12" text-anchor="start" fill="#1f2328">Report · Block（规划·预留）</text>
<line x1="130.0" y1="1369.0" x2="1067.0" y2="1369.0" stroke="#6c8ebf" stroke-width="1"/>

<path d="M559.4 232.0 L322.3 400.0" fill="none" stroke="#5b6b7b" stroke-width="1.3" stroke-dasharray="6 4"/><line x1="329.4" y1="390.4" x2="322.3" y2="400.0" stroke="#5b6b7b" stroke-width="1.3"/><line x1="333.7" y1="396.4" x2="322.3" y2="400.0" stroke="#5b6b7b" stroke-width="1.3"/><rect x="423.2" y="307.5" width="35.3" height="17.0" fill="#ffffff" opacity="0.85" rx="3"/><text x="440.8" y="319.5" font-family="WenQuanYi Zen Hei, Microsoft YaHei, SimSun, sans-serif" font-size="11" text-anchor="middle" fill="#57606a">调用</text>
<path d="M240.1 252.0 L329.0 342.0 L279.7 400.0" fill="none" stroke="#5b6b7b" stroke-width="1.3" stroke-dasharray="6 4"/><line x1="284.2" y1="388.9" x2="279.7" y2="400.0" stroke="#5b6b7b" stroke-width="1.3"/><line x1="289.9" y1="393.7" x2="279.7" y2="400.0" stroke="#5b6b7b" stroke-width="1.3"/>
<path d="M215.0 552.0 L215.0 610.0 L499.0 610.0 L557.3 650.0" fill="none" stroke="#5b6b7b" stroke-width="1.3" stroke-dasharray="6 4"/><line x1="545.7" y1="646.6" x2="557.3" y2="650.0" stroke="#5b6b7b" stroke-width="1.3"/><line x1="549.9" y1="640.5" x2="557.3" y2="650.0" stroke="#5b6b7b" stroke-width="1.3"/><rect x="308.2" y="601.5" width="110.3" height="17.0" fill="#ffffff" opacity="0.85" rx="3"/><text x="363.3" y="613.5" font-family="WenQuanYi Zen Hei, Microsoft YaHei, SimSun, sans-serif" font-size="11" text-anchor="middle" fill="#57606a">REST JSON + JWT</text>
<path d="M638.1 822.0 L546.2 1000.0" fill="none" stroke="#5b6b7b" stroke-width="1.3" stroke-dasharray="6 4"/><line x1="548.2" y1="988.2" x2="546.2" y2="1000.0" stroke="#5b6b7b" stroke-width="1.3"/><line x1="554.8" y1="991.6" x2="546.2" y2="1000.0" stroke="#5b6b7b" stroke-width="1.3"/><rect x="560.9" y="902.5" width="62.6" height="17.0" fill="#ffffff" opacity="0.85" rx="3"/><text x="592.2" y="914.5" font-family="WenQuanYi Zen Hei, Microsoft YaHei, SimSun, sans-serif" font-size="11" text-anchor="middle" fill="#57606a">复用查询</text>
<path d="M171.0 822.0 L188.5 1000.0" fill="none" stroke="#5b6b7b" stroke-width="1.3" stroke-dasharray="6 4"/><line x1="183.7" y1="989.0" x2="188.5" y2="1000.0" stroke="#5b6b7b" stroke-width="1.3"/><line x1="191.1" y1="988.3" x2="188.5" y2="1000.0" stroke="#5b6b7b" stroke-width="1.3"/><rect x="148.5" y="902.5" width="62.6" height="17.0" fill="#ffffff" opacity="0.85" rx="3"/><text x="179.7" y="914.5" font-family="WenQuanYi Zen Hei, Microsoft YaHei, SimSun, sans-serif" font-size="11" text-anchor="middle" fill="#57606a">复用查询</text>
<path d="M1153.8 762.0 L1030.0 930.0 L855.0 945.0 L855.0 1000.0" fill="none" stroke="#5b6b7b" stroke-width="1.3" stroke-dasharray="6 4"/><line x1="851.3" y1="988.6" x2="855.0" y2="1000.0" stroke="#5b6b7b" stroke-width="1.3"/><line x1="858.7" y1="988.6" x2="855.0" y2="1000.0" stroke="#5b6b7b" stroke-width="1.3"/><rect x="991.2" y="922.4" width="55.7" height="17.0" fill="#ffffff" opacity="0.85" rx="3"/><text x="1019.0" y="934.4" font-family="WenQuanYi Zen Hei, Microsoft YaHei, SimSun, sans-serif" font-size="11" text-anchor="middle" fill="#57606a">AI 编排</text>
<path d="M1415.0 782.0 L1415.0 900.0 L1528.0 900.0 L1528.0 1256.0 L1067.0 1290.2" fill="none" stroke="#5b6b7b" stroke-width="1.3" stroke-dasharray="6 4"/><line x1="1078.1" y1="1285.7" x2="1067.0" y2="1290.2" stroke="#5b6b7b" stroke-width="1.3"/><line x1="1078.7" y1="1293.1" x2="1067.0" y2="1290.2" stroke="#5b6b7b" stroke-width="1.3"/><rect x="1479.7" y="1185.1" width="96.7" height="17.0" fill="#ffffff" opacity="0.85" rx="3"/><text x="1528.0" y="1197.1" font-family="WenQuanYi Zen Hei, Microsoft YaHei, SimSun, sans-serif" font-size="11" text-anchor="middle" fill="#57606a">签到/经验写入</text>
<path d="M672.8 822.0 L660.0 935.0 L600.3 1265.0" fill="none" stroke="#5b6b7b" stroke-width="1.3" stroke-dasharray="6 4"/><line x1="598.7" y1="1253.1" x2="600.3" y2="1265.0" stroke="#5b6b7b" stroke-width="1.3"/><line x1="606.0" y1="1254.4" x2="600.3" y2="1265.0" stroke="#5b6b7b" stroke-width="1.3"/><rect x="609.0" y="1035.5" width="62.6" height="17.0" fill="#ffffff" opacity="0.85" rx="3"/><text x="640.3" y="1047.5" font-family="WenQuanYi Zen Hei, Microsoft YaHei, SimSun, sans-serif" font-size="11" text-anchor="middle" fill="#57606a">轻量写入</text>
<path d="M297.8 1132.0 L505.0 1265.0" fill="none" stroke="#5b6b7b" stroke-width="1.3" stroke-dasharray="6 4"/><line x1="493.4" y1="1262.0" x2="505.0" y2="1265.0" stroke="#5b6b7b" stroke-width="1.3"/><line x1="497.4" y1="1255.7" x2="505.0" y2="1265.0" stroke="#5b6b7b" stroke-width="1.3"/><rect x="346.3" y="1190.0" width="110.3" height="17.0" fill="#ffffff" opacity="0.85" rx="3"/><text x="401.4" y="1202.0" font-family="WenQuanYi Zen Hei, Microsoft YaHei, SimSun, sans-serif" font-size="11" text-anchor="middle" fill="#57606a">SQLAlchemy 查询</text>
<path d="M990.0 1070.7 L1230.0 1061.3" fill="none" stroke="#d79b00" stroke-width="1.3" stroke-dasharray="6 4"/><line x1="1218.7" y1="1065.4" x2="1230.0" y2="1061.3" stroke="#d79b00" stroke-width="1.3"/><line x1="1218.5" y1="1058.0" x2="1230.0" y2="1061.3" stroke="#d79b00" stroke-width="1.3"/><rect x="1065.1" y="1057.5" width="89.8" height="17.0" fill="#ffffff" opacity="0.85" rx="3"/><text x="1110.0" y="1069.5" font-family="WenQuanYi Zen Hei, Microsoft YaHei, SimSun, sans-serif" font-size="11" text-anchor="middle" fill="#57606a">AI 润色/摘要</text>
</svg>