<svg xmlns="http://www.w3.org/2000/svg" width="1200" height="620" viewBox="0 0 1200 620" font-family="WenQuanYi Zen Hei, Microsoft YaHei, SimSun, sans-serif">
<rect x="0" y="0" width="1200" height="620" fill="#ffffff"/>
<line x1="160.0" y1="78" x2="160.0" y2="560" stroke="#57606a" stroke-width="1" stroke-dasharray="5 4"/><circle cx="160.0" cy="27" r="11" fill="#ffffff" stroke="#1f2328" stroke-width="1.4"/><line x1="160.0" y1="38" x2="160.0" y2="64" stroke="#1f2328" stroke-width="1.4"/><line x1="144.0" y1="48" x2="176.0" y2="48" stroke="#1f2328" stroke-width="1.4"/><line x1="160.0" y1="64" x2="146.0" y2="86" stroke="#1f2328" stroke-width="1.4"/><line x1="160.0" y1="64" x2="174.0" y2="86" stroke="#1f2328" stroke-width="1.4"/><text x="160.0" y="76.0" font-family="WenQuanYi Zen Hei, Microsoft YaHei, SimSun, sans-serif" font-size="12" text-anchor="middle" font-weight="bold" fill="#1f2328">前端 / 调试客户端</text>
<line x1="480.0" y1="78" x2="480.0" y2="560" stroke="#57606a" stroke-width="1" stroke-dasharray="5 4"/><rect x="385" y="44" width="190" height="34" rx="3" fill="#dae8fc" stroke="#6c8ebf" stroke-width="1.2"/><text x="480.0" y="65.5" font-family="WenQuanYi Zen Hei, Microsoft YaHei, SimSun, sans-serif" font-size="12" text-anchor="middle" fill="#1f2328">CollectionsRoutes</text>
<line x1="820.0" y1="78" x2="820.0" y2="560" stroke="#57606a" stroke-width="1" stroke-dasharray="5 4"/><rect x="725" y="44" width="190" height="34" rx="3" fill="#dae8fc" stroke="#6c8ebf" stroke-width="1.2"/><text x="820.0" y="65.5" font-family="WenQuanYi Zen Hei, Microsoft YaHei, SimSun, sans-serif" font-size="12" text-anchor="middle" fill="#1f2328">DB · entries 表</text>
<line x1="1090.0" y1="78" x2="1090.0" y2="560" stroke="#57606a" stroke-width="1" stroke-dasharray="5 4"/><rect x="995" y="44" width="190" height="34" rx="3" fill="#dae8fc" stroke="#6c8ebf" stroke-width="1.2"/><text x="1090.0" y="65.5" font-family="WenQuanYi Zen Hei, Microsoft YaHei, SimSun, sans-serif" font-size="12" text-anchor="middle" fill="#1f2328">DB · notes/users</text>
<text x="320.0" y="142.0" font-family="WenQuanYi Zen Hei, Microsoft YaHei, SimSun, sans-serif" font-size="11" text-anchor="middle" fill="#1f2328">GET /notes/{id}/collection</text>
<text x="650.0" y="188.0" font-family="WenQuanYi Zen Hei, Microsoft YaHei, SimSun, sans-serif" font-size="11" text-anchor="middle" fill="#1f2328">查 collection_entries[note_id]</text>
<rect x="430" y="224" width="470" height="76" rx="2" fill="none" stroke="#57606a" stroke-width="1.2" stroke-dasharray="6 4"/>
<rect x="430" y="224" width="120" height="22" rx="2" fill="#eef2f7" stroke="#57606a" stroke-width="1.2"/>
<text x="438.0" y="238.0" font-family="WenQuanYi Zen Hei, Microsoft YaHei, SimSun, sans-serif" font-size="11" text-anchor="start" font-weight="bold" fill="#57606a">alt [无归属]</text>
<text x="650.0" y="254.0" font-family="WenQuanYi Zen Hei, Microsoft YaHei, SimSun, sans-serif" font-size="11" text-anchor="middle" fill="#1f2328">无记录</text>
<text x="320.0" y="292.0" font-family="WenQuanYi Zen Hei, Microsoft YaHei, SimSun, sans-serif" font-size="11" text-anchor="middle" fill="#1f2328">200 / null</text>
<rect x="430" y="330" width="710" height="170" rx="2" fill="none" stroke="#57606a" stroke-width="1.2" stroke-dasharray="6 4"/>
<rect x="430" y="330" width="120" height="22" rx="2" fill="#eef2f7" stroke="#57606a" stroke-width="1.2"/>
<text x="438.0" y="344.0" font-family="WenQuanYi Zen Hei, Microsoft YaHei, SimSun, sans-serif" font-size="11" text-anchor="start" font-weight="bold" fill="#57606a">[已归属合集]</text>
<text x="650.0" y="360.0" font-family="WenQuanYi Zen Hei, Microsoft YaHei, SimSun, sans-serif" font-size="11" text-anchor="middle" fill="#1f2328">collection_id</text>
<text x="785.0" y="400.0" font-family="WenQuanYi Zen Hei, Microsoft YaHei, SimSun, sans-serif" font-size="11" text-anchor="middle" fill="#1f2328">JOIN 同合集 visible 条目（排序）</text>
<text x="785.0" y="440.0" font-family="WenQuanYi Zen Hei, Microsoft YaHei, SimSun, sans-serif" font-size="11" text-anchor="middle" fill="#1f2328">entries + author</text>
<text x="562.0" y="491.0" font-family="WenQuanYi Zen Hei, Microsoft YaHei, SimSun, sans-serif" font-size="11" text-anchor="start" fill="#1f2328">组装 currentIndex</text>
<text x="320.0" y="526.0" font-family="WenQuanYi Zen Hei, Microsoft YaHei, SimSun, sans-serif" font-size="11" text-anchor="middle" fill="#1f2328">collection + entries + currentIndex</text>
<path d="M160.0 150.0 L480.0 150.0" fill="none" stroke="#5b6b7b" stroke-width="1.3"/><polygon points="480.0,150.0 468.4,153.1 468.4,146.9" fill="#5b6b7b"/>
<path d="M480.0 196.0 L820.0 196.0" fill="none" stroke="#5b6b7b" stroke-width="1.3"/><polygon points="820.0,196.0 808.4,199.1 808.4,192.9" fill="#5b6b7b"/>
<path d="M820.0 262.0 L480.0 262.0" fill="none" stroke="#5b6b7b" stroke-width="1.3" stroke-dasharray="6 4"/><line x1="491.4" y1="258.3" x2="480.0" y2="262.0" stroke="#5b6b7b" stroke-width="1.3"/><line x1="491.4" y1="265.7" x2="480.0" y2="262.0" stroke="#5b6b7b" stroke-width="1.3"/>
<path d="M480.0 300.0 L160.0 300.0" fill="none" stroke="#5b6b7b" stroke-width="1.3" stroke-dasharray="6 4"/><line x1="171.4" y1="296.3" x2="160.0" y2="300.0" stroke="#5b6b7b" stroke-width="1.3"/><line x1="171.4" y1="303.7" x2="160.0" y2="300.0" stroke="#5b6b7b" stroke-width="1.3"/>
<path d="M820.0 368.0 L480.0 368.0" fill="none" stroke="#5b6b7b" stroke-width="1.3" stroke-dasharray="6 4"/><line x1="491.4" y1="364.3" x2="480.0" y2="368.0" stroke="#5b6b7b" stroke-width="1.3"/><line x1="491.4" y1="371.7" x2="480.0" y2="368.0" stroke="#5b6b7b" stroke-width="1.3"/>
<path d="M480.0 408.0 L1090.0 408.0" fill="none" stroke="#5b6b7b" stroke-width="1.3"/><polygon points="1090.0,408.0 1078.4,411.1 1078.4,404.9" fill="#5b6b7b"/>
<path d="M1090.0 448.0 L480.0 448.0" fill="none" stroke="#5b6b7b" stroke-width="1.3" stroke-dasharray="6 4"/><line x1="491.4" y1="444.3" x2="480.0" y2="448.0" stroke="#5b6b7b" stroke-width="1.3"/><line x1="491.4" y1="451.7" x2="480.0" y2="448.0" stroke="#5b6b7b" stroke-width="1.3"/>
<path d="M480.0 478.0 L554.0 478.0 L554.0 504.0 L486.0 504.0" fill="none" stroke="#5b6b7b" stroke-width="1.3"/><polygon points="486.0,504.0 497.6,500.9 497.6,507.1" fill="#5b6b7b"/>
<path d="M480.0 534.0 L160.0 534.0" fill="none" stroke="#5b6b7b" stroke-width="1.3" stroke-dasharray="6 4"/><line x1="171.4" y1="530.3" x2="160.0" y2="534.0" stroke="#5b6b7b" stroke-width="1.3"/><line x1="171.4" y1="537.7" x2="160.0" y2="534.0" stroke="#5b6b7b" stroke-width="1.3"/>
</svg>