<svg xmlns="http://www.w3.org/2000/svg" width="3400" height="2550" viewBox="0 0 3400 2550" font-family="WenQuanYi Zen Hei, Microsoft YaHei, SimSun, sans-serif">
<rect width="3400" height="2550" fill="#ffffff"/>
<ellipse cx="374.0" cy="204.0" rx="34.0" ry="34.0" fill="#000000" stroke="#000000" stroke-width="1.2"/>
<rect x="170.0" y="368.0" width="567.0" height="142.0" rx="12" fill="#ffffff" stroke="#000000" stroke-width="1.2"/><text x="453.5" y="455.0" font-family="WenQuanYi Zen Hei, Microsoft YaHei, SimSun, sans-serif" font-size="34" text-anchor="middle" fill="#1f2328">触发生成摘要</text>
<rect x="170.0" y="623.0" width="567.0" height="142.0" rx="12" fill="#ffffff" stroke="#000000" stroke-width="1.2"/><text x="453.5" y="710.0" font-family="WenQuanYi Zen Hei, Microsoft YaHei, SimSun, sans-serif" font-size="34" text-anchor="middle" fill="#1f2328">SSE 流式接收</text>
<polygon points="453.0,878.0 708.0,1019.5 453.0,1161.0 198.0,1019.5" fill="#ffffff" stroke="#000000" stroke-width="1.2"/><text x="453.0" y="1031.4" font-family="WenQuanYi Zen Hei, Microsoft YaHei, SimSun, sans-serif" font-size="34" text-anchor="middle" fill="#1f2328">首个 chunk 到达？</text>
<rect x="170.0" y="1303.0" width="567.0" height="142.0" rx="12" fill="#ffffff" stroke="#000000" stroke-width="1.2"/><text x="453.5" y="1390.0" font-family="WenQuanYi Zen Hei, Microsoft YaHei, SimSun, sans-serif" font-size="34" text-anchor="middle" fill="#1f2328">逐字写入展示</text>
<rect x="1332.0" y="2040.0" width="623.0" height="159.0" rx="12" fill="#ffffff" stroke="#000000" stroke-width="1.2"/><text x="1643.5" y="2135.5" font-family="WenQuanYi Zen Hei, Microsoft YaHei, SimSun, sans-serif" font-size="34" text-anchor="middle" fill="#1f2328">完成：回填摘要</text>
<ellipse cx="1624.0" cy="2360.0" rx="37.0" ry="37.0" fill="#000000" stroke="#000000" stroke-width="1.2"/>
<rect x="1077.0" y="907.0" width="623.0" height="142.0" rx="12" fill="#ffffff" stroke="#000000" stroke-width="1.2"/><text x="1388.5" y="994.0" font-family="WenQuanYi Zen Hei, Microsoft YaHei, SimSun, sans-serif" font-size="34" text-anchor="middle" fill="#1f2328">回退 one-shot 生成</text>
<polygon points="1388.0,1190.0 1643.0,1331.5 1388.0,1473.0 1133.0,1331.5" fill="#ffffff" stroke="#000000" stroke-width="1.2"/><text x="1388.0" y="1343.4" font-family="WenQuanYi Zen Hei, Microsoft YaHei, SimSun, sans-serif" font-size="34" text-anchor="middle" fill="#1f2328">one-shot 成功？</text>
<rect x="1077.0" y="1587.0" width="623.0" height="142.0" rx="12" fill="#ffffff" stroke="#000000" stroke-width="1.2"/><text x="1388.5" y="1674.0" font-family="WenQuanYi Zen Hei, Microsoft YaHei, SimSun, sans-serif" font-size="34" text-anchor="middle" fill="#1f2328">回填结果</text>
<rect x="2040.0" y="1190.0" width="623.0" height="142.0" rx="12" fill="#ffffff" stroke="#000000" stroke-width="1.2"/><text x="2351.5" y="1277.0" font-family="WenQuanYi Zen Hei, Microsoft YaHei, SimSun, sans-serif" font-size="34" text-anchor="middle" fill="#1f2328">mock 伪流式</text>
<rect x="2040.0" y="1445.0" width="623.0" height="142.0" rx="12" fill="#ffffff" stroke="#000000" stroke-width="1.2"/><text x="2351.5" y="1532.0" font-family="WenQuanYi Zen Hei, Microsoft YaHei, SimSun, sans-serif" font-size="34" text-anchor="middle" fill="#1f2328">生成静态兜底文本</text>
<text x="174.0" y="2452.5" font-family="WenQuanYi Zen Hei, Microsoft YaHei, SimSun, sans-serif" font-size="34" text-anchor="start" font-weight="bold" fill="#000000">三层降级：SSE 流式 → one-shot → mock 伪流式；「AI 永不硬失败」，任一层成功即回填。</text>
<path d="M385.5 238.0 L429.5 368.0" fill="none" stroke="#000000" stroke-width="1.3"/><polygon points="429.5,368.0 422.3,358.4 429.3,356.0" fill="#000000" stroke="#000000" stroke-width="1"/>
<path d="M453.5 510.0 L453.5 623.0" fill="none" stroke="#000000" stroke-width="1.3"/><polygon points="453.5,623.0 449.8,611.6 457.2,611.6" fill="#000000" stroke="#000000" stroke-width="1"/>
<path d="M453.4 765.0 L453.2 878.0" fill="none" stroke="#000000" stroke-width="1.3"/><polygon points="453.2,878.0 449.5,866.6 456.9,866.6" fill="#000000" stroke="#000000" stroke-width="1"/>
<path d="M453.2 1161.0 L453.4 1303.0" fill="none" stroke="#000000" stroke-width="1.3"/><polygon points="453.4,1303.0 449.7,1291.6 457.1,1291.6" fill="#000000" stroke="#000000" stroke-width="1"/><rect x="442.5" y="1223.5" width="21.6" height="17.0" fill="#ffffff" opacity="0.85" rx="3"/><text x="453.3" y="1235.5" font-family="WenQuanYi Zen Hei, Microsoft YaHei, SimSun, sans-serif" font-size="11" text-anchor="middle" fill="#000000">是</text>
<path d="M453.0 1445.0 L453.0 1445.0 L453.0 2119.0 L1332.0 2119.0 L1332.0 2119.0" fill="none" stroke="#000000" stroke-width="1.3"/><polygon points="1332.0,2119.0 1320.6,2122.7 1320.6,2115.3" fill="#000000" stroke="#000000" stroke-width="1"/>
<path d="M708.0 1008.2 L1077.0 991.8" fill="none" stroke="#000000" stroke-width="1.3"/><polygon points="1077.0,991.8 1065.8,996.0 1065.4,988.6" fill="#000000" stroke="#000000" stroke-width="1"/><rect x="833.9" y="991.5" width="117.1" height="17.0" fill="#ffffff" opacity="0.85" rx="3"/><text x="892.5" y="1003.5" font-family="WenQuanYi Zen Hei, Microsoft YaHei, SimSun, sans-serif" font-size="11" text-anchor="middle" fill="#000000">否 / Stream 失败</text>
<path d="M1388.4 1049.0 L1388.2 1190.0" fill="none" stroke="#000000" stroke-width="1.3"/><polygon points="1388.2,1190.0 1384.5,1178.6 1391.9,1178.6" fill="#000000" stroke="#000000" stroke-width="1"/>
<path d="M1388.2 1473.0 L1388.4 1587.0" fill="none" stroke="#000000" stroke-width="1.3"/><polygon points="1388.4,1587.0 1384.7,1575.6 1392.1,1575.6" fill="#000000" stroke="#000000" stroke-width="1"/><rect x="1377.5" y="1521.5" width="21.6" height="17.0" fill="#ffffff" opacity="0.85" rx="3"/><text x="1388.3" y="1533.5" font-family="WenQuanYi Zen Hei, Microsoft YaHei, SimSun, sans-serif" font-size="11" text-anchor="middle" fill="#000000">是</text>
<path d="M1388.0 1729.0 L1388.0 1728.0 L1388.0 2040.0 L1388.0 2040.0" fill="none" stroke="#000000" stroke-width="1.3"/><polygon points="1388.0,2040.0 1376.6,2043.7 1376.6,2036.3" fill="#000000" stroke="#000000" stroke-width="1"/>
<path d="M1643.0 1312.8 L2040.0 1283.8" fill="none" stroke="#000000" stroke-width="1.3"/><polygon points="2040.0,1283.8 2028.9,1288.3 2028.3,1280.9" fill="#000000" stroke="#000000" stroke-width="1"/><rect x="1830.7" y="1289.8" width="21.6" height="17.0" fill="#ffffff" opacity="0.85" rx="3"/><text x="1841.5" y="1301.8" font-family="WenQuanYi Zen Hei, Microsoft YaHei, SimSun, sans-serif" font-size="11" text-anchor="middle" fill="#000000">否</text>
<path d="M2351.5 1332.0 L2351.5 1445.0" fill="none" stroke="#000000" stroke-width="1.3"/><polygon points="2351.5,1445.0 2347.8,1433.6 2355.2,1433.6" fill="#000000" stroke="#000000" stroke-width="1"/>
<path d="M2351.9 1587.0 L2352.0 1615.0 L2352.0 2119.0 L1955.0 2119.0 L1955.0 2119.0" fill="none" stroke="#000000" stroke-width="1.3"/><polygon points="1955.0,2119.0 1943.6,2122.7 1943.6,2115.3" fill="#000000" stroke="#000000" stroke-width="1"/><rect x="2320.7" y="2043.0" width="62.6" height="17.0" fill="#ffffff" opacity="0.85" rx="3"/><text x="2352.0" y="2055.0" font-family="WenQuanYi Zen Hei, Microsoft YaHei, SimSun, sans-serif" font-size="11" text-anchor="middle" fill="#000000">兜底摘要</text>
<path d="M1637.1 2199.0 L1627.0 2323.0" fill="none" stroke="#000000" stroke-width="1.3"/><polygon points="1627.0,2323.0 1624.2,2311.3 1631.6,2311.9" fill="#000000" stroke="#000000" stroke-width="1"/>
</svg>