<svg xmlns="http://www.w3.org/2000/svg" width="1120" height="460" viewBox="0 0 1120 460" font-family="WenQuanYi Zen Hei, Microsoft YaHei, SimSun, sans-serif">
<rect x="0" y="0" width="1120" height="460" fill="#ffffff"/>
<circle cx="72.0" cy="212.0" r="12.0" fill="#1f2328"/>
<rect x="170" y="178" width="170" height="66" rx="12" fill="#dae8fc" stroke="#6c8ebf" stroke-width="1.2"/><text x="255.0" y="215.5" font-family="WenQuanYi Zen Hei, Microsoft YaHei, SimSun, sans-serif" font-size="12" text-anchor="middle" fill="#1f2328">草稿 Draft</text>
<rect x="470" y="178" width="180" height="66" rx="12" fill="#dae8fc" stroke="#6c8ebf" stroke-width="1.2"/><text x="560.0" y="215.5" font-family="WenQuanYi Zen Hei, Microsoft YaHei, SimSun, sans-serif" font-size="12" text-anchor="middle" fill="#1f2328">可见 visible</text>
<circle cx="843.0" cy="211.0" r="13.0" fill="none" stroke="#1f2328" stroke-width="1.4"/><circle cx="843.0" cy="211.0" r="9.0" fill="#1f2328"/>
<rect x="470" y="330" width="190" height="62" rx="12" fill="#f2f4f7" stroke="#8a94a6" stroke-width="1.2" stroke-dasharray="6 4"/><text x="565.0" y="365.5" font-family="WenQuanYi Zen Hei, Microsoft YaHei, SimSun, sans-serif" font-size="12" text-anchor="middle" fill="#1f2328">隐藏 pending</text>
<text x="60.0" y="421.0" font-family="WenQuanYi Zen Hei, Microsoft YaHei, SimSun, sans-serif" font-size="11" text-anchor="start" fill="#57606a">已实现：草稿 → 发布(visible) → 作者删除；pending 隐藏态与治理裁决为后续规划（虚线）。</text>
<path d="M84.0 211.9 L170.0 211.5" fill="none" stroke="#5b6b7b" stroke-width="1.3"/><polygon points="170.0,211.5 158.4,214.6 158.4,208.4" fill="#5b6b7b"/>
<path d="M340.0 211.0 L470.0 211.0" fill="none" stroke="#5b6b7b" stroke-width="1.3"/><polygon points="470.0,211.0 458.4,214.1 458.4,207.9" fill="#5b6b7b"/><rect x="348.2" y="202.0" width="113.6" height="18.0" fill="#ffffff" opacity="0.9" rx="3"/><text x="405.0" y="213.0" font-family="WenQuanYi Zen Hei, Microsoft YaHei, SimSun, sans-serif" font-size="11" text-anchor="middle" fill="#57606a">发布（唯一路径）</text>
<path d="M650.0 211.0 L830.0 211.0" fill="none" stroke="#5b6b7b" stroke-width="1.3"/><polygon points="830.0,211.0 818.4,214.1 818.4,207.9" fill="#5b6b7b"/><rect x="679.9" y="195.0" width="120.2" height="32.0" fill="#ffffff" opacity="0.9" rx="3"/><text x="740.0" y="206.0" font-family="WenQuanYi Zen Hei, Microsoft YaHei, SimSun, sans-serif" font-size="11" text-anchor="middle" fill="#57606a">作者删除</text><text x="740.0" y="220.0" font-family="WenQuanYi Zen Hei, Microsoft YaHei, SimSun, sans-serif" font-size="11" text-anchor="middle" fill="#57606a">（级联清赞/评论）</text>
<path d="M561.1 244.0 L564.0 330.0" fill="none" stroke="#57606a" stroke-width="1.3" stroke-dasharray="6 4"/><polygon points="564.0,330.0 560.5,318.5 566.7,318.3" fill="#57606a"/><rect x="459.5" y="278.0" width="206.0" height="18.0" fill="#ffffff" opacity="0.9" rx="3"/><text x="562.5" y="289.0" font-family="WenQuanYi Zen Hei, Microsoft YaHei, SimSun, sans-serif" font-size="11" text-anchor="middle" fill="#57606a">AI 高置信 / 管理员裁决（规划）</text>
<path d="M470.0 361.0 L430.0 361.0 L430.0 244.0 L470.0 233.8" fill="none" stroke="#57606a" stroke-width="1.3" stroke-dasharray="6 4"/><polygon points="470.0,233.8 459.5,239.7 458.0,233.7" fill="#57606a"/><rect x="386.4" y="292.9" width="87.2" height="18.0" fill="#ffffff" opacity="0.9" rx="3"/><text x="430.0" y="303.9" font-family="WenQuanYi Zen Hei, Microsoft YaHei, SimSun, sans-serif" font-size="11" text-anchor="middle" fill="#57606a">恢复（规划）</text>
<path d="M660.0 361.0 L760.0 361.0 L843.0 244.0 L843.0 224.0" fill="none" stroke="#57606a" stroke-width="1.3" stroke-dasharray="6 4"/><polygon points="843.0,224.0 846.1,235.6 839.9,235.6" fill="#57606a"/><rect x="734.8" y="326.1" width="87.2" height="18.0" fill="#ffffff" opacity="0.9" rx="3"/><text x="778.4" y="337.1" font-family="WenQuanYi Zen Hei, Microsoft YaHei, SimSun, sans-serif" font-size="11" text-anchor="middle" fill="#57606a">删除（规划）</text>
</svg>