<svg xmlns="http://www.w3.org/2000/svg" width="900" height="1180" viewBox="0 0 900 1180" font-family="WenQuanYi Zen Hei, Microsoft YaHei, SimSun, sans-serif">
<rect x="0" y="0" width="900" height="1180" fill="#ffffff"/>
<circle cx="360.0" cy="42.0" r="12.0" fill="#1f2328"/>
<rect x="190" y="90" width="340" height="50" rx="12" fill="#d5e8d4" stroke="#82b366" stroke-width="1.2"/><text x="360.0" y="119.5" font-family="WenQuanYi Zen Hei, Microsoft YaHei, SimSun, sans-serif" font-size="12" text-anchor="middle" fill="#1f2328">选择分类（7 类）</text>
<rect x="190" y="176" width="340" height="50" rx="12" fill="#d5e8d4" stroke="#82b366" stroke-width="1.2"/><text x="360.0" y="205.5" font-family="WenQuanYi Zen Hei, Microsoft YaHei, SimSun, sans-serif" font-size="12" text-anchor="middle" fill="#1f2328">输入关键词</text>
<rect x="190" y="262" width="340" height="50" rx="12" fill="#d5e8d4" stroke="#82b366" stroke-width="1.2"/><text x="360.0" y="291.5" font-family="WenQuanYi Zen Hei, Microsoft YaHei, SimSun, sans-serif" font-size="12" text-anchor="middle" fill="#1f2328">选择标签</text>
<rect x="190" y="348" width="340" height="50" rx="12" fill="#d5e8d4" stroke="#82b366" stroke-width="1.2"/><text x="360.0" y="377.5" font-family="WenQuanYi Zen Hei, Microsoft YaHei, SimSun, sans-serif" font-size="12" text-anchor="middle" fill="#1f2328">切换排序（最新/热门/我赞过）</text>
<rect x="190" y="434" width="340" height="50" rx="12" fill="#d5e8d4" stroke="#82b366" stroke-width="1.2"/><text x="360.0" y="463.5" font-family="WenQuanYi Zen Hei, Microsoft YaHei, SimSun, sans-serif" font-size="12" text-anchor="middle" fill="#1f2328">GET /notes（游标 + 过滤参数）</text>
<rect x="190" y="520" width="340" height="50" rx="12" fill="#d5e8d4" stroke="#82b366" stroke-width="1.2"/><text x="360.0" y="549.5" font-family="WenQuanYi Zen Hei, Microsoft YaHei, SimSun, sans-serif" font-size="12" text-anchor="middle" fill="#1f2328">后端应用层过滤 + 排序</text>
<rect x="190" y="606" width="340" height="50" rx="12" fill="#d5e8d4" stroke="#82b366" stroke-width="1.2"/><text x="360.0" y="635.5" font-family="WenQuanYi Zen Hei, Microsoft YaHei, SimSun, sans-serif" font-size="12" text-anchor="middle" fill="#1f2328">keyset 游标分页（每页 6~8）</text>
<rect x="190" y="692" width="340" height="50" rx="12" fill="#d5e8d4" stroke="#82b366" stroke-width="1.2"/><text x="360.0" y="721.5" font-family="WenQuanYi Zen Hei, Microsoft YaHei, SimSun, sans-serif" font-size="12" text-anchor="middle" fill="#1f2328">返回列表 + nextCursor</text>
<rect x="190" y="778" width="340" height="50" rx="12" fill="#d5e8d4" stroke="#82b366" stroke-width="1.2"/><text x="360.0" y="807.5" font-family="WenQuanYi Zen Hei, Microsoft YaHei, SimSun, sans-serif" font-size="12" text-anchor="middle" fill="#1f2328">前端渲染笔记卡片</text>
<polygon points="360.0,864 450,909.0 360.0,954 270,909.0" fill="#fff2cc" stroke="#d6b656" stroke-width="1.2"/><text x="360.0" y="906.0" font-family="WenQuanYi Zen Hei, Microsoft YaHei, SimSun, sans-serif" font-size="11" text-anchor="middle" fill="#1f2328">有下一页</text><text x="360.0" y="920.0" font-family="WenQuanYi Zen Hei, Microsoft YaHei, SimSun, sans-serif" font-size="11" text-anchor="middle" fill="#1f2328">且滚动到底？</text>
<circle cx="360.0" cy="1027.0" r="13.0" fill="none" stroke="#1f2328" stroke-width="1.4"/><circle cx="360.0" cy="1027.0" r="9.0" fill="#1f2328"/>
<rect x="570" y="874" width="200" height="50" rx="12" fill="#d5e8d4" stroke="#82b366" stroke-width="1.2"/><text x="670.0" y="896.0" font-family="WenQuanYi Zen Hei, Microsoft YaHei, SimSun, sans-serif" font-size="12" text-anchor="middle" fill="#1f2328">加载更多</text><text x="670.0" y="911.0" font-family="WenQuanYi Zen Hei, Microsoft YaHei, SimSun, sans-serif" font-size="12" text-anchor="middle" fill="#1f2328">更新游标</text>
<path d="M360.0 54.0 L360.0 90.0" fill="none" stroke="#5b6b7b" stroke-width="1.3"/><polygon points="360.0,90.0 356.9,78.4 363.1,78.4" fill="#5b6b7b"/>
<path d="M360.0 140.0 L360.0 176.0" fill="none" stroke="#5b6b7b" stroke-width="1.3"/><polygon points="360.0,176.0 356.9,164.4 363.1,164.4" fill="#5b6b7b"/>
<path d="M360.0 226.0 L360.0 262.0" fill="none" stroke="#5b6b7b" stroke-width="1.3"/><polygon points="360.0,262.0 356.9,250.4 363.1,250.4" fill="#5b6b7b"/>
<path d="M360.0 312.0 L360.0 348.0" fill="none" stroke="#5b6b7b" stroke-width="1.3"/><polygon points="360.0,348.0 356.9,336.4 363.1,336.4" fill="#5b6b7b"/>
<path d="M360.0 398.0 L360.0 434.0" fill="none" stroke="#5b6b7b" stroke-width="1.3"/><polygon points="360.0,434.0 356.9,422.4 363.1,422.4" fill="#5b6b7b"/>
<path d="M360.0 484.0 L360.0 520.0" fill="none" stroke="#5b6b7b" stroke-width="1.3"/><polygon points="360.0,520.0 356.9,508.4 363.1,508.4" fill="#5b6b7b"/>
<path d="M360.0 570.0 L360.0 606.0" fill="none" stroke="#5b6b7b" stroke-width="1.3"/><polygon points="360.0,606.0 356.9,594.4 363.1,594.4" fill="#5b6b7b"/>
<path d="M360.0 656.0 L360.0 692.0" fill="none" stroke="#5b6b7b" stroke-width="1.3"/><polygon points="360.0,692.0 356.9,680.4 363.1,680.4" fill="#5b6b7b"/>
<path d="M360.0 742.0 L360.0 778.0" fill="none" stroke="#5b6b7b" stroke-width="1.3"/><polygon points="360.0,778.0 356.9,766.4 363.1,766.4" fill="#5b6b7b"/>
<path d="M360.0 828.0 L360.0 864.0" fill="none" stroke="#5b6b7b" stroke-width="1.3"/><polygon points="360.0,864.0 356.9,852.4 363.1,852.4" fill="#5b6b7b"/>
<path d="M360.0 954.0 L360.0 1014.0" fill="none" stroke="#5b6b7b" stroke-width="1.3"/><polygon points="360.0,1014.0 356.9,1002.4 363.1,1002.4" fill="#5b6b7b"/><rect x="349.4" y="975.0" width="21.2" height="18.0" fill="#ffffff" opacity="0.9" rx="3"/><text x="360.0" y="986.0" font-family="WenQuanYi Zen Hei, Microsoft YaHei, SimSun, sans-serif" font-size="11" text-anchor="middle" fill="#57606a">否</text>
<path d="M450.0 909.0 L570.0 902.2" fill="none" stroke="#5b6b7b" stroke-width="1.3"/><polygon points="570.0,902.2 558.6,906.0 558.3,899.8" fill="#5b6b7b"/><rect x="499.4" y="896.6" width="21.2" height="18.0" fill="#ffffff" opacity="0.9" rx="3"/><text x="510.0" y="907.6" font-family="WenQuanYi Zen Hei, Microsoft YaHei, SimSun, sans-serif" font-size="11" text-anchor="middle" fill="#57606a">是</text>
<path d="M670.0 874.0 L830.0 874.0 L830.0 803.0 L530.0 803.0" fill="none" stroke="#5b6b7b" stroke-width="1.3"/><polygon points="530.0,803.0 541.6,799.9 541.6,806.1" fill="#5b6b7b"/><rect x="765.1" y="794.0" width="60.8" height="18.0" fill="#ffffff" opacity="0.9" rx="3"/><text x="795.5" y="805.0" font-family="WenQuanYi Zen Hei, Microsoft YaHei, SimSun, sans-serif" font-size="11" text-anchor="middle" fill="#57606a">追加列表</text>
</svg>