<svg xmlns="http://www.w3.org/2000/svg" width="1540" height="1230" viewBox="0 0 1540 1230" font-family="WenQuanYi Zen Hei, Microsoft YaHei, SimSun, sans-serif">
<rect x="0" y="0" width="1540" height="1230" fill="#ffffff"/>
<rect x="30" y="50" width="1480" height="190" rx="12" fill="#fbfcfe" stroke="#d7dee8" stroke-width="1.2"/>
<text x="44.0" y="71.0" font-family="WenQuanYi Zen Hei, Microsoft YaHei, SimSun, sans-serif" font-size="13" text-anchor="start" font-weight="bold" fill="#57606a">① 前端表现层  React 组件（boundary）</text>
<rect x="30" y="270" width="1480" height="150" rx="12" fill="#fbfdfb" stroke="#d7dee8" stroke-width="1.2"/>
<text x="44.0" y="291.0" font-family="WenQuanYi Zen Hei, Microsoft YaHei, SimSun, sans-serif" font-size="13" text-anchor="start" font-weight="bold" fill="#57606a">② 前端接口层  API 封装 / 数据契约</text>
<rect x="30" y="450" width="1480" height="290" rx="12" fill="#fafbff" stroke="#d7dee8" stroke-width="1.2"/>
<text x="44.0" y="471.0" font-family="WenQuanYi Zen Hei, Microsoft YaHei, SimSun, sans-serif" font-size="13" text-anchor="start" font-weight="bold" fill="#57606a">③ 后端路由层  routes（control · FastAPI）</text>
<rect x="30" y="770" width="1130" height="190" rx="12" fill="#fbfdfb" stroke="#d7dee8" stroke-width="1.2"/>
<text x="44.0" y="791.0" font-family="WenQuanYi Zen Hei, Microsoft YaHei, SimSun, sans-serif" font-size="13" text-anchor="start" font-weight="bold" fill="#57606a">④ 后端服务层  services（control）</text>
<rect x="30" y="990" width="1480" height="200" rx="12" fill="#fcfbfd" stroke="#d7dee8" stroke-width="1.2"/>
<text x="44.0" y="1011.0" font-family="WenQuanYi Zen Hei, Microsoft YaHei, SimSun, sans-serif" font-size="13" text-anchor="start" font-weight="bold" fill="#57606a">⑤ 数据层  models（entity · SQLAlchemy ORM）</text>
<rect x="55" y="108" width="215" height="92" rx="3" fill="#ffffff" stroke="#d6b656" stroke-width="1.3"/><path d="M55 134 L55 111 Q55 108 58 108 L267 108 Q270 108 270 111 L270 134 Z" fill="#fff2cc" stroke="#d6b656" stroke-width="1.3"/><text x="162.5" y="131.0" font-family="WenQuanYi Zen Hei, Microsoft YaHei, SimSun, sans-serif" font-size="13" text-anchor="middle" font-weight="bold" fill="#1f2328">WritePage «page»</text><text x="63.0" y="149.0" font-family="WenQuanYi Zen Hei, Microsoft YaHei, SimSun, sans-serif" font-size="12" text-anchor="start" font-style="italic" fill="#1f2328">+ autoSave()</text><text x="63.0" y="169.0" font-family="WenQuanYi Zen Hei, Microsoft YaHei, SimSun, sans-serif" font-size="12" text-anchor="start" font-style="italic" fill="#1f2328">+ aiPolish()</text><text x="63.0" y="189.0" font-family="WenQuanYi Zen Hei, Microsoft YaHei, SimSun, sans-serif" font-size="12" text-anchor="start" font-style="italic" fill="#1f2328">+ publish()</text>
<rect x="295" y="108" width="210" height="72" rx="3" fill="#ffffff" stroke="#d6b656" stroke-width="1.3"/><path d="M295 134 L295 111 Q295 108 298 108 L502 108 Q505 108 505 111 L505 134 Z" fill="#fff2cc" stroke="#d6b656" stroke-width="1.3"/><text x="400.0" y="131.0" font-family="WenQuanYi Zen Hei, Microsoft YaHei, SimSun, sans-serif" font-size="13" text-anchor="middle" font-weight="bold" fill="#1f2328">BrowsePage «page»</text><text x="303.0" y="149.0" font-family="WenQuanYi Zen Hei, Microsoft YaHei, SimSun, sans-serif" font-size="12" text-anchor="start" font-style="italic" fill="#1f2328">+ filterSort()</text><text x="303.0" y="169.0" font-family="WenQuanYi Zen Hei, Microsoft YaHei, SimSun, sans-serif" font-size="12" text-anchor="start" font-style="italic" fill="#1f2328">+ loadMore()</text>
<rect x="525" y="108" width="220" height="72" rx="3" fill="#ffffff" stroke="#d6b656" stroke-width="1.3"/><path d="M525 134 L525 111 Q525 108 528 108 L742 108 Q745 108 745 111 L745 134 Z" fill="#fff2cc" stroke="#d6b656" stroke-width="1.3"/><text x="635.0" y="131.0" font-family="WenQuanYi Zen Hei, Microsoft YaHei, SimSun, sans-serif" font-size="13" text-anchor="middle" font-weight="bold" fill="#1f2328">NoteDetailPage «page»</text><text x="533.0" y="149.0" font-family="WenQuanYi Zen Hei, Microsoft YaHei, SimSun, sans-serif" font-size="12" text-anchor="start" font-style="italic" fill="#1f2328">+ like()</text><text x="533.0" y="169.0" font-family="WenQuanYi Zen Hei, Microsoft YaHei, SimSun, sans-serif" font-size="12" text-anchor="start" font-style="italic" fill="#1f2328">+ toggleCmtMode()</text>
<rect x="765" y="108" width="225" height="92" rx="3" fill="#ffffff" stroke="#d6b656" stroke-width="1.3"/><path d="M765 134 L765 111 Q765 108 768 108 L987 108 Q990 108 990 111 L990 134 Z" fill="#fff2cc" stroke="#d6b656" stroke-width="1.3"/><text x="877.5" y="131.0" font-family="WenQuanYi Zen Hei, Microsoft YaHei, SimSun, sans-serif" font-size="13" text-anchor="middle" font-weight="bold" fill="#1f2328">CommentSection «组件»</text><text x="773.0" y="149.0" font-family="WenQuanYi Zen Hei, Microsoft YaHei, SimSun, sans-serif" font-size="12" text-anchor="start" font-style="italic" fill="#1f2328">+ createComment()</text><text x="773.0" y="169.0" font-family="WenQuanYi Zen Hei, Microsoft YaHei, SimSun, sans-serif" font-size="12" text-anchor="start" font-style="italic" fill="#1f2328">+ deleteComment()</text><text x="773.0" y="189.0" font-family="WenQuanYi Zen Hei, Microsoft YaHei, SimSun, sans-serif" font-size="12" text-anchor="start" font-style="italic" fill="#1f2328">+ anchorJump()</text>
<rect x="1010" y="108" width="215" height="72" rx="3" fill="#ffffff" stroke="#d6b656" stroke-width="1.3"/><path d="M1010 134 L1010 111 Q1010 108 1013 108 L1222 108 Q1225 108 1225 111 L1225 134 Z" fill="#fff2cc" stroke="#d6b656" stroke-width="1.3"/><text x="1117.5" y="131.0" font-family="WenQuanYi Zen Hei, Microsoft YaHei, SimSun, sans-serif" font-size="13" text-anchor="middle" font-weight="bold" fill="#1f2328">ProfilePage «page»</text><text x="1018.0" y="149.0" font-family="WenQuanYi Zen Hei, Microsoft YaHei, SimSun, sans-serif" font-size="12" text-anchor="start" font-style="italic" fill="#1f2328">+ notesTab()</text><text x="1018.0" y="169.0" font-family="WenQuanYi Zen Hei, Microsoft YaHei, SimSun, sans-serif" font-size="12" text-anchor="start" font-style="italic" fill="#1f2328">+ draftsTab()</text>
<rect x="1245" y="108" width="215" height="72" rx="3" fill="#ffffff" stroke="#d6b656" stroke-width="1.3"/><path d="M1245 134 L1245 111 Q1245 108 1248 108 L1457 108 Q1460 108 1460 111 L1460 134 Z" fill="#fff2cc" stroke="#d6b656" stroke-width="1.3"/><text x="1352.5" y="131.0" font-family="WenQuanYi Zen Hei, Microsoft YaHei, SimSun, sans-serif" font-size="13" text-anchor="middle" font-weight="bold" fill="#1f2328">AdminPage «page»</text><text x="1253.0" y="149.0" font-family="WenQuanYi Zen Hei, Microsoft YaHei, SimSun, sans-serif" font-size="12" text-anchor="start" font-style="italic" fill="#1f2328">+ manageUsers()</text><text x="1253.0" y="169.0" font-family="WenQuanYi Zen Hei, Microsoft YaHei, SimSun, sans-serif" font-size="12" text-anchor="start" font-style="italic" fill="#1f2328">+ loginAudit()</text>
<rect x="55" y="312" width="320" height="92" rx="3" fill="#ffffff" stroke="#6c8ebf" stroke-width="1.3"/><path d="M55 338 L55 315 Q55 312 58 312 L372 312 Q375 312 375 315 L375 338 Z" fill="#c7dbf5" stroke="#6c8ebf" stroke-width="1.3"/><text x="215.0" y="335.0" font-family="WenQuanYi Zen Hei, Microsoft YaHei, SimSun, sans-serif" font-size="13" text-anchor="middle" font-weight="bold" fill="#1f2328">ApiClient «fetch 封装»</text><text x="63.0" y="353.0" font-family="WenQuanYi Zen Hei, Microsoft YaHei, SimSun, sans-serif" font-size="12" text-anchor="start" font-style="italic" fill="#1f2328">+ get() / post() / put() / del()</text><text x="63.0" y="373.0" font-family="WenQuanYi Zen Hei, Microsoft YaHei, SimSun, sans-serif" font-size="12" text-anchor="start" font-style="italic" fill="#1f2328">+ authBearer(JWT)</text><text x="63.0" y="393.0" font-family="WenQuanYi Zen Hei, Microsoft YaHei, SimSun, sans-serif" font-size="12" text-anchor="start" font-style="italic" fill="#1f2328">+ zodParse(schema)</text>
<rect x="430" y="312" width="470" height="112" rx="3" fill="#ffffff" stroke="#8a94a6" stroke-width="1.3"/><path d="M430 338 L430 315 Q430 312 433 312 L897 312 Q900 312 900 315 L900 338 Z" fill="#f2f4f7" stroke="#8a94a6" stroke-width="1.3"/><text x="665.0" y="335.0" font-family="WenQuanYi Zen Hei, Microsoft YaHei, SimSun, sans-serif" font-size="13" text-anchor="middle" font-weight="bold" fill="#1f2328">DTO / Schemas «pydantic · Zod»</text><text x="438.0" y="353.0" font-family="WenQuanYi Zen Hei, Microsoft YaHei, SimSun, sans-serif" font-size="12" text-anchor="start" fill="#1f2328">NoteOut · DraftOut · NoteCard</text><text x="438.0" y="373.0" font-family="WenQuanYi Zen Hei, Microsoft YaHei, SimSun, sans-serif" font-size="12" text-anchor="start" fill="#1f2328">CommentIn · CommentOut · PaginatedComments</text><text x="438.0" y="393.0" font-family="WenQuanYi Zen Hei, Microsoft YaHei, SimSun, sans-serif" font-size="12" text-anchor="start" fill="#1f2328">CollectionOut · CollectionDetailOut</text><text x="438.0" y="413.0" font-family="WenQuanYi Zen Hei, Microsoft YaHei, SimSun, sans-serif" font-size="12" text-anchor="start" fill="#1f2328">AIComposeIn/Out · CheckinOut · XpEventOut</text>
<rect x="45" y="512" width="225" height="112" rx="3" fill="#ffffff" stroke="#6c8ebf" stroke-width="1.3"/><path d="M45 538 L45 515 Q45 512 48 512 L267 512 Q270 512 270 515 L270 538 Z" fill="#c7dbf5" stroke="#6c8ebf" stroke-width="1.3"/><text x="157.5" y="535.0" font-family="WenQuanYi Zen Hei, Microsoft YaHei, SimSun, sans-serif" font-size="13" text-anchor="middle" font-weight="bold" fill="#1f2328">NotesRoutes</text><text x="53.0" y="553.0" font-family="WenQuanYi Zen Hei, Microsoft YaHei, SimSun, sans-serif" font-size="12" text-anchor="start" font-style="italic" fill="#1f2328">+ list()</text><text x="53.0" y="573.0" font-family="WenQuanYi Zen Hei, Microsoft YaHei, SimSun, sans-serif" font-size="12" text-anchor="start" font-style="italic" fill="#1f2328">+ detail()</text><text x="53.0" y="593.0" font-family="WenQuanYi Zen Hei, Microsoft YaHei, SimSun, sans-serif" font-size="12" text-anchor="start" font-style="italic" fill="#1f2328">+ edit()</text><text x="53.0" y="613.0" font-family="WenQuanYi Zen Hei, Microsoft YaHei, SimSun, sans-serif" font-size="12" text-anchor="start" font-style="italic" fill="#1f2328">+ delete()</text>
<rect x="290" y="512" width="225" height="92" rx="3" fill="#ffffff" stroke="#6c8ebf" stroke-width="1.3"/><path d="M290 538 L290 515 Q290 512 293 512 L512 512 Q515 512 515 515 L515 538 Z" fill="#c7dbf5" stroke="#6c8ebf" stroke-width="1.3"/><text x="402.5" y="535.0" font-family="WenQuanYi Zen Hei, Microsoft YaHei, SimSun, sans-serif" font-size="13" text-anchor="middle" font-weight="bold" fill="#1f2328">DraftsRoutes</text><text x="298.0" y="553.0" font-family="WenQuanYi Zen Hei, Microsoft YaHei, SimSun, sans-serif" font-size="12" text-anchor="start" font-style="italic" fill="#1f2328">+ create()</text><text x="298.0" y="573.0" font-family="WenQuanYi Zen Hei, Microsoft YaHei, SimSun, sans-serif" font-size="12" text-anchor="start" font-style="italic" fill="#1f2328">+ update()</text><text x="298.0" y="593.0" font-family="WenQuanYi Zen Hei, Microsoft YaHei, SimSun, sans-serif" font-size="12" text-anchor="start" font-style="italic" fill="#1f2328">+ publish()</text>
<rect x="535" y="512" width="245" height="112" rx="3" fill="#ffffff" stroke="#6c8ebf" stroke-width="1.3"/><path d="M535 538 L535 515 Q535 512 538 512 L777 512 Q780 512 780 515 L780 538 Z" fill="#c7dbf5" stroke="#6c8ebf" stroke-width="1.3"/><text x="657.5" y="535.0" font-family="WenQuanYi Zen Hei, Microsoft YaHei, SimSun, sans-serif" font-size="13" text-anchor="middle" font-weight="bold" fill="#1f2328">InteractionsRoutes</text><text x="543.0" y="553.0" font-family="WenQuanYi Zen Hei, Microsoft YaHei, SimSun, sans-serif" font-size="12" text-anchor="start" font-style="italic" fill="#1f2328">+ like() / dislike()</text><text x="543.0" y="573.0" font-family="WenQuanYi Zen Hei, Microsoft YaHei, SimSun, sans-serif" font-size="12" text-anchor="start" font-style="italic" fill="#1f2328">+ favorite()</text><text x="543.0" y="593.0" font-family="WenQuanYi Zen Hei, Microsoft YaHei, SimSun, sans-serif" font-size="12" text-anchor="start" font-style="italic" fill="#1f2328">+ createComment()</text><text x="543.0" y="613.0" font-family="WenQuanYi Zen Hei, Microsoft YaHei, SimSun, sans-serif" font-size="12" text-anchor="start" font-style="italic" fill="#1f2328">+ reactComment()</text>
<rect x="800" y="512" width="235" height="92" rx="3" fill="#ffffff" stroke="#6c8ebf" stroke-width="1.3"/><path d="M800 538 L800 515 Q800 512 803 512 L1032 512 Q1035 512 1035 515 L1035 538 Z" fill="#c7dbf5" stroke="#6c8ebf" stroke-width="1.3"/><text x="917.5" y="535.0" font-family="WenQuanYi Zen Hei, Microsoft YaHei, SimSun, sans-serif" font-size="13" text-anchor="middle" font-weight="bold" fill="#1f2328">CollectionsRoutes</text><text x="808.0" y="553.0" font-family="WenQuanYi Zen Hei, Microsoft YaHei, SimSun, sans-serif" font-size="12" text-anchor="start" font-style="italic" fill="#1f2328">+ crud()</text><text x="808.0" y="573.0" font-family="WenQuanYi Zen Hei, Microsoft YaHei, SimSun, sans-serif" font-size="12" text-anchor="start" font-style="italic" fill="#1f2328">+ addEntry()</text><text x="808.0" y="593.0" font-family="WenQuanYi Zen Hei, Microsoft YaHei, SimSun, sans-serif" font-size="12" text-anchor="start" font-style="italic" fill="#1f2328">+ noteContext()</text>
<rect x="1055" y="512" width="200" height="72" rx="3" fill="#ffffff" stroke="#6c8ebf" stroke-width="1.3"/><path d="M1055 538 L1055 515 Q1055 512 1058 512 L1252 512 Q1255 512 1255 515 L1255 538 Z" fill="#c7dbf5" stroke="#6c8ebf" stroke-width="1.3"/><text x="1155.0" y="535.0" font-family="WenQuanYi Zen Hei, Microsoft YaHei, SimSun, sans-serif" font-size="13" text-anchor="middle" font-weight="bold" fill="#1f2328">AiRoutes</text><text x="1063.0" y="553.0" font-family="WenQuanYi Zen Hei, Microsoft YaHei, SimSun, sans-serif" font-size="12" text-anchor="start" font-style="italic" fill="#1f2328">+ compose()</text><text x="1063.0" y="573.0" font-family="WenQuanYi Zen Hei, Microsoft YaHei, SimSun, sans-serif" font-size="12" text-anchor="start" font-style="italic" fill="#1f2328">+ composeStream()</text>
<rect x="1275" y="512" width="210" height="92" rx="3" fill="#ffffff" stroke="#6c8ebf" stroke-width="1.3"/><path d="M1275 538 L1275 515 Q1275 512 1278 512 L1482 512 Q1485 512 1485 515 L1485 538 Z" fill="#c7dbf5" stroke="#6c8ebf" stroke-width="1.3"/><text x="1380.0" y="535.0" font-family="WenQuanYi Zen Hei, Microsoft YaHei, SimSun, sans-serif" font-size="13" text-anchor="middle" font-weight="bold" fill="#1f2328">AuthRoutes</text><text x="1283.0" y="553.0" font-family="WenQuanYi Zen Hei, Microsoft YaHei, SimSun, sans-serif" font-size="12" text-anchor="start" font-style="italic" fill="#1f2328">+ login() / register()</text><text x="1283.0" y="573.0" font-family="WenQuanYi Zen Hei, Microsoft YaHei, SimSun, sans-serif" font-size="12" text-anchor="start" font-style="italic" fill="#1f2328">+ dailyCheckin()</text><text x="1283.0" y="593.0" font-family="WenQuanYi Zen Hei, Microsoft YaHei, SimSun, sans-serif" font-size="12" text-anchor="start" font-style="italic" fill="#1f2328">+ xpEvents()</text>
<rect x="70" y="812" width="250" height="92" rx="3" fill="#ffffff" stroke="#82b366" stroke-width="1.3"/><path d="M70 838 L70 815 Q70 812 73 812 L317 812 Q320 812 320 815 L320 838 Z" fill="#d5e8d4" stroke="#82b366" stroke-width="1.3"/><text x="195.0" y="835.0" font-family="WenQuanYi Zen Hei, Microsoft YaHei, SimSun, sans-serif" font-size="13" text-anchor="middle" font-weight="bold" fill="#1f2328">NotesService</text><text x="78.0" y="853.0" font-family="WenQuanYi Zen Hei, Microsoft YaHei, SimSun, sans-serif" font-size="12" text-anchor="start" font-style="italic" fill="#1f2328">+ listNotes()</text><text x="78.0" y="873.0" font-family="WenQuanYi Zen Hei, Microsoft YaHei, SimSun, sans-serif" font-size="12" text-anchor="start" font-style="italic" fill="#1f2328">+ detail()</text><text x="78.0" y="893.0" font-family="WenQuanYi Zen Hei, Microsoft YaHei, SimSun, sans-serif" font-size="12" text-anchor="start" font-style="italic" fill="#1f2328">+ edit() / delete()</text>
<rect x="400" y="812" width="240" height="52" rx="3" fill="#ffffff" stroke="#82b366" stroke-width="1.3"/><path d="M400 838 L400 815 Q400 812 403 812 L637 812 Q640 812 640 815 L640 838 Z" fill="#d5e8d4" stroke="#82b366" stroke-width="1.3"/><text x="520.0" y="835.0" font-family="WenQuanYi Zen Hei, Microsoft YaHei, SimSun, sans-serif" font-size="13" text-anchor="middle" font-weight="bold" fill="#1f2328">CommentsService</text><text x="408.0" y="853.0" font-family="WenQuanYi Zen Hei, Microsoft YaHei, SimSun, sans-serif" font-size="12" text-anchor="start" font-style="italic" fill="#1f2328">+ listComments()  «keyset 分页»</text>
<rect x="720" y="812" width="270" height="92" rx="3" fill="#ffffff" stroke="#82b366" stroke-width="1.3"/><path d="M720 838 L720 815 Q720 812 723 812 L987 812 Q990 812 990 815 L990 838 Z" fill="#d5e8d4" stroke="#82b366" stroke-width="1.3"/><text x="855.0" y="835.0" font-family="WenQuanYi Zen Hei, Microsoft YaHei, SimSun, sans-serif" font-size="13" text-anchor="middle" font-weight="bold" fill="#1f2328">AiComposeService</text><text x="728.0" y="853.0" font-family="WenQuanYi Zen Hei, Microsoft YaHei, SimSun, sans-serif" font-size="12" text-anchor="start" font-style="italic" fill="#1f2328">+ polish()</text><text x="728.0" y="873.0" font-family="WenQuanYi Zen Hei, Microsoft YaHei, SimSun, sans-serif" font-size="12" text-anchor="start" font-style="italic" fill="#1f2328">+ summarizeStream()</text><text x="728.0" y="893.0" font-family="WenQuanYi Zen Hei, Microsoft YaHei, SimSun, sans-serif" font-size="12" text-anchor="start" font-style="italic" fill="#1f2328">+ fallbackTruncate()</text>
<rect x="1220" y="812" width="270" height="72" rx="3" fill="#ffffff" stroke="#d79b00" stroke-width="1.3"/><path d="M1220 838 L1220 815 Q1220 812 1223 812 L1487 812 Q1490 812 1490 815 L1490 838 Z" fill="#ffe6cc" stroke="#d79b00" stroke-width="1.3"/><text x="1355.0" y="835.0" font-family="WenQuanYi Zen Hei, Microsoft YaHei, SimSun, sans-serif" font-size="13" text-anchor="middle" font-weight="bold" fill="#1f2328">AI 服务 «external»</text><text x="1228.0" y="853.0" font-family="WenQuanYi Zen Hei, Microsoft YaHei, SimSun, sans-serif" font-size="12" text-anchor="start" font-style="italic" fill="#1f2328">+ /v1/chat/completions</text><text x="1228.0" y="873.0" font-family="WenQuanYi Zen Hei, Microsoft YaHei, SimSun, sans-serif" font-size="12" text-anchor="start" font-style="italic" fill="#1f2328">+ 一次性 / SSE 流式</text>
<rect x="130" y="1030" width="1280" height="112" rx="3" fill="#ffffff" stroke="#6c8ebf" stroke-width="1.3"/><path d="M130 1056 L130 1033 Q130 1030 133 1030 L1407 1030 Q1410 1030 1410 1033 L1410 1056 Z" fill="#c7dbf5" stroke="#6c8ebf" stroke-width="1.3"/><text x="770.0" y="1053.0" font-family="WenQuanYi Zen Hei, Microsoft YaHei, SimSun, sans-serif" font-size="13" text-anchor="middle" font-weight="bold" fill="#1f2328">ORM 模型（SQLAlchemy · 详见图5-2）</text><text x="138.0" y="1071.0" font-family="WenQuanYi Zen Hei, Microsoft YaHei, SimSun, sans-serif" font-size="12" text-anchor="start" fill="#1f2328">User · Note · Draft · Comment</text><text x="138.0" y="1091.0" font-family="WenQuanYi Zen Hei, Microsoft YaHei, SimSun, sans-serif" font-size="12" text-anchor="start" fill="#1f2328">Like · NoteDislike · Favorite · CommentReaction</text><text x="138.0" y="1111.0" font-family="WenQuanYi Zen Hei, Microsoft YaHei, SimSun, sans-serif" font-size="12" text-anchor="start" fill="#1f2328">Collection · CollectionEntry · CheckIn · XpEvent · LoginEvent</text><text x="138.0" y="1131.0" font-family="WenQuanYi Zen Hei, Microsoft YaHei, SimSun, sans-serif" font-size="12" text-anchor="start" fill="#1f2328">Report · Block（规划·预留）</text>
<text x="950.0" y="333.0" font-family="WenQuanYi Zen Hei, Microsoft YaHei, SimSun, sans-serif" font-size="11" text-anchor="start" fill="#57606a">分层单向依赖：routes → services → db；</text><text x="950.0" y="348.0" font-family="WenQuanYi Zen Hei, Microsoft YaHei, SimSun, sans-serif" font-size="11" text-anchor="start" fill="#57606a">发布 POST /drafts/{id}/publish 为唯一建笔记路径；</text><text x="950.0" y="363.0" font-family="WenQuanYi Zen Hei, Microsoft YaHei, SimSun, sans-serif" font-size="11" text-anchor="start" fill="#57606a">AI 永不硬失败：故障降级不阻断主流程。</text>
<path d="M635.0 180.0 L635.0 275.0 L375.0 326.4" fill="none" stroke="#5b6b7b" stroke-width="1.3" stroke-dasharray="6 4"/><line x1="385.3" y1="320.2" x2="375.0" y2="326.4" stroke="#5b6b7b" stroke-width="1.3"/><line x1="386.9" y1="328.2" x2="375.0" y2="326.4" stroke="#5b6b7b" stroke-width="1.3"/><rect x="534.4" y="282.5" width="34.4" height="18.0" fill="#ffffff" opacity="0.9" rx="3"/><text x="551.6" y="293.5" font-family="WenQuanYi Zen Hei, Microsoft YaHei, SimSun, sans-serif" font-size="11" text-anchor="middle" fill="#57606a">调用</text>
<path d="M162.3 200.0 L162.0 280.0 L200.0 300.0 L203.1 312.0" fill="none" stroke="#5b6b7b" stroke-width="1.3" stroke-dasharray="6 4"/><line x1="196.3" y1="302.1" x2="203.1" y2="312.0" stroke="#5b6b7b" stroke-width="1.3"/><line x1="204.3" y1="300.1" x2="203.1" y2="312.0" stroke="#5b6b7b" stroke-width="1.3"/>
<path d="M215.0 404.0 L215.0 452.0 L535.0 535.9" fill="none" stroke="#5b6b7b" stroke-width="1.3" stroke-dasharray="6 4"/><line x1="523.1" y1="537.0" x2="535.0" y2="535.9" stroke="#5b6b7b" stroke-width="1.3"/><line x1="525.1" y1="529.1" x2="535.0" y2="535.9" stroke="#5b6b7b" stroke-width="1.3"/><rect x="298.3" y="478.9" width="107.0" height="18.0" fill="#ffffff" opacity="0.9" rx="3"/><text x="351.8" y="489.9" font-family="WenQuanYi Zen Hei, Microsoft YaHei, SimSun, sans-serif" font-size="11" text-anchor="middle" fill="#57606a">REST JSON + JWT</text>
<path d="M629.0 624.0 L533.2 812.0" fill="none" stroke="#5b6b7b" stroke-width="1.3" stroke-dasharray="6 4"/><line x1="534.7" y1="800.1" x2="533.2" y2="812.0" stroke="#5b6b7b" stroke-width="1.3"/><line x1="542.0" y1="803.8" x2="533.2" y2="812.0" stroke="#5b6b7b" stroke-width="1.3"/><rect x="550.7" y="709.0" width="60.8" height="18.0" fill="#ffffff" opacity="0.9" rx="3"/><text x="581.1" y="720.0" font-family="WenQuanYi Zen Hei, Microsoft YaHei, SimSun, sans-serif" font-size="11" text-anchor="middle" fill="#57606a">复用查询</text>
<path d="M164.7 624.0 L189.1 812.0" fill="none" stroke="#5b6b7b" stroke-width="1.3" stroke-dasharray="6 4"/><line x1="183.5" y1="801.3" x2="189.1" y2="812.0" stroke="#5b6b7b" stroke-width="1.3"/><line x1="191.7" y1="800.3" x2="189.1" y2="812.0" stroke="#5b6b7b" stroke-width="1.3"/><rect x="146.5" y="709.0" width="60.8" height="18.0" fill="#ffffff" opacity="0.9" rx="3"/><text x="176.9" y="720.0" font-family="WenQuanYi Zen Hei, Microsoft YaHei, SimSun, sans-serif" font-size="11" text-anchor="middle" fill="#57606a">复用查询</text>
<path d="M1126.7 584.0 L1000.0 745.0 L855.0 770.0 L855.0 812.0" fill="none" stroke="#5b6b7b" stroke-width="1.3" stroke-dasharray="6 4"/><line x1="850.9" y1="800.7" x2="855.0" y2="812.0" stroke="#5b6b7b" stroke-width="1.3"/><line x1="859.1" y1="800.7" x2="855.0" y2="812.0" stroke="#5b6b7b" stroke-width="1.3"/><rect x="977.8" y="729.8" width="54.2" height="18.0" fill="#ffffff" opacity="0.9" rx="3"/><text x="1004.9" y="740.8" font-family="WenQuanYi Zen Hei, Microsoft YaHei, SimSun, sans-serif" font-size="11" text-anchor="middle" fill="#57606a">AI 编排</text>
<path d="M1382.6 604.0 L1388.0 700.0 L1388.0 1005.0 L1197.3 1030.0" fill="none" stroke="#5b6b7b" stroke-width="1.3" stroke-dasharray="6 4"/><line x1="1207.9" y1="1024.5" x2="1197.3" y2="1030.0" stroke="#5b6b7b" stroke-width="1.3"/><line x1="1209.0" y1="1032.6" x2="1197.3" y2="1030.0" stroke="#5b6b7b" stroke-width="1.3"/><rect x="1341.1" y="891.6" width="93.8" height="18.0" fill="#ffffff" opacity="0.9" rx="3"/><text x="1388.0" y="902.6" font-family="WenQuanYi Zen Hei, Microsoft YaHei, SimSun, sans-serif" font-size="11" text-anchor="middle" fill="#57606a">签到/经验写入</text>
<path d="M657.6 624.0 L658.0 760.0 L658.0 978.0 L711.9 1030.0" fill="none" stroke="#5b6b7b" stroke-width="1.3" stroke-dasharray="6 4"/><line x1="701.0" y1="1025.1" x2="711.9" y2="1030.0" stroke="#5b6b7b" stroke-width="1.3"/><line x1="706.7" y1="1019.2" x2="711.9" y2="1030.0" stroke="#5b6b7b" stroke-width="1.3"/><rect x="627.6" y="829.5" width="60.8" height="18.0" fill="#ffffff" opacity="0.9" rx="3"/><text x="658.0" y="840.5" font-family="WenQuanYi Zen Hei, Microsoft YaHei, SimSun, sans-serif" font-size="11" text-anchor="middle" fill="#57606a">轻量写入</text>
<path d="M311.0 904.0 L628.8 1030.0" fill="none" stroke="#5b6b7b" stroke-width="1.3" stroke-dasharray="6 4"/><line x1="616.8" y1="1029.7" x2="628.8" y2="1030.0" stroke="#5b6b7b" stroke-width="1.3"/><line x1="619.8" y1="1022.0" x2="628.8" y2="1030.0" stroke="#5b6b7b" stroke-width="1.3"/><rect x="416.4" y="958.0" width="107.0" height="18.0" fill="#ffffff" opacity="0.9" rx="3"/><text x="469.9" y="969.0" font-family="WenQuanYi Zen Hei, Microsoft YaHei, SimSun, sans-serif" font-size="11" text-anchor="middle" fill="#57606a">SQLAlchemy 查询</text>
<path d="M990.0 855.3 L1220.0 850.7" fill="none" stroke="#d79b00" stroke-width="1.3" stroke-dasharray="6 4"/><line x1="1208.8" y1="855.0" x2="1220.0" y2="850.7" stroke="#d79b00" stroke-width="1.3"/><line x1="1208.6" y1="846.8" x2="1220.0" y2="850.7" stroke="#d79b00" stroke-width="1.3"/><rect x="1061.4" y="844.0" width="87.2" height="18.0" fill="#ffffff" opacity="0.9" rx="3"/><text x="1105.0" y="855.0" font-family="WenQuanYi Zen Hei, Microsoft YaHei, SimSun, sans-serif" font-size="11" text-anchor="middle" fill="#57606a">AI 润色/摘要</text>
</svg>