<svg xmlns="http://www.w3.org/2000/svg" width="3740" height="2437" viewBox="0 0 3740 2437" font-family="WenQuanYi Zen Hei, Microsoft YaHei, SimSun, sans-serif">
<rect width="3740" height="2437" fill="#ffffff"/>
<rect x="170.0" y="340.0" width="468.0" height="210.0" rx="12" fill="#ffffff" stroke="#000000" stroke-width="1.2"/><text x="404.0" y="461.0" font-family="WenQuanYi Zen Hei, Microsoft YaHei, SimSun, sans-serif" font-size="34" text-anchor="middle" fill="#1f2328">匿名访客</text>
<rect x="170.0" y="1020.0" width="468.0" height="210.0" rx="12" fill="#ffffff" stroke="#000000" stroke-width="1.2"/><text x="404.0" y="1141.0" font-family="WenQuanYi Zen Hei, Microsoft YaHei, SimSun, sans-serif" font-size="34" text-anchor="middle" fill="#1f2328">注册用户</text>
<rect x="3102.0" y="595.0" width="482.0" height="210.0" rx="12" fill="#ffffff" stroke="#000000" stroke-width="1.2"/><text x="3343.0" y="716.0" font-family="WenQuanYi Zen Hei, Microsoft YaHei, SimSun, sans-serif" font-size="34" text-anchor="middle" fill="#1f2328">外部 AI 服务</text>
<rect x="3102.0" y="1332.0" width="482.0" height="210.0" rx="12" fill="#ffffff" stroke="#000000" stroke-width="1.2" stroke-dasharray="6 4"/><text x="3343.0" y="1453.0" font-family="WenQuanYi Zen Hei, Microsoft YaHei, SimSun, sans-serif" font-size="34" text-anchor="middle" fill="#1f2328">管理员（规划）</text>
<ellipse cx="1841.5" cy="863.5" rx="481.5" ry="481.5" fill="#ffffff" stroke="#000000" stroke-width="1.2"/><text x="1841.5" y="863.5" font-family="WenQuanYi Zen Hei, Microsoft YaHei, SimSun, sans-serif" font-size="34" text-anchor="middle" fill="#1f2328">P0 笔记与社区互动子系统</text>
<path d="M180.0 1870.0 L638.0 1870.0 M180.0 2029.0 L638.0 2029.0 M180.0 1870.0 L180.0 2029.0" fill="none" stroke="#000000" stroke-width="1.2"/><text x="414.0" y="1965.5" font-family="WenQuanYi Zen Hei, Microsoft YaHei, SimSun, sans-serif" font-size="34" text-anchor="middle" fill="#1f2328">D1 草稿库</text>
<path d="M690.0 1870.0 L1148.0 1870.0 M690.0 2029.0 L1148.0 2029.0 M690.0 1870.0 L690.0 2029.0" fill="none" stroke="#000000" stroke-width="1.2"/><text x="924.0" y="1965.5" font-family="WenQuanYi Zen Hei, Microsoft YaHei, SimSun, sans-serif" font-size="34" text-anchor="middle" fill="#1f2328">D2 笔记库</text>
<path d="M1200.0 1870.0 L1658.0 1870.0 M1200.0 2029.0 L1658.0 2029.0 M1200.0 1870.0 L1200.0 2029.0" fill="none" stroke="#000000" stroke-width="1.2"/><text x="1434.0" y="1965.5" font-family="WenQuanYi Zen Hei, Microsoft YaHei, SimSun, sans-serif" font-size="34" text-anchor="middle" fill="#1f2328">D3 互动库</text>
<path d="M1710.0 1870.0 L2168.0 1870.0 M1710.0 2029.0 L2168.0 2029.0 M1710.0 1870.0 L1710.0 2029.0" fill="none" stroke="#000000" stroke-width="1.2"/><text x="1944.0" y="1965.5" font-family="WenQuanYi Zen Hei, Microsoft YaHei, SimSun, sans-serif" font-size="34" text-anchor="middle" fill="#1f2328">D4 评论库</text>
<path d="M2220.0 1870.0 L2678.0 1870.0 M2220.0 2029.0 L2678.0 2029.0 M2220.0 1870.0 L2220.0 2029.0" fill="none" stroke="#000000" stroke-width="1.2" stroke-dasharray="6 4"/><text x="2454.0" y="1965.5" font-family="WenQuanYi Zen Hei, Microsoft YaHei, SimSun, sans-serif" font-size="34" text-anchor="middle" fill="#1f2328">D5 治理预留库</text>
<path d="M2730.0 1870.0 L3188.0 1870.0 M2730.0 2029.0 L3188.0 2029.0 M2730.0 1870.0 L2730.0 2029.0" fill="none" stroke="#000000" stroke-width="1.2"/><text x="2964.0" y="1965.5" font-family="WenQuanYi Zen Hei, Microsoft YaHei, SimSun, sans-serif" font-size="34" text-anchor="middle" fill="#1f2328">D6 成长库</text>
<path d="M3240.0 1870.0 L3698.0 1870.0 M3240.0 2029.0 L3698.0 2029.0 M3240.0 1870.0 L3240.0 2029.0" fill="none" stroke="#000000" stroke-width="1.2"/><text x="3474.0" y="1965.5" font-family="WenQuanYi Zen Hei, Microsoft YaHei, SimSun, sans-serif" font-size="34" text-anchor="middle" fill="#1f2328">D7 合集库</text>
<path d="M638.0 1082.4 L1360.0 951.1" fill="none" stroke="#000000" stroke-width="1.3"/><polygon points="1360.0,951.1 1349.4,956.8 1348.1,949.5" fill="#000000" stroke="#000000" stroke-width="1"/><rect x="879.1" y="1008.3" width="239.9" height="17.0" fill="#ffffff" opacity="0.85" rx="3"/><text x="999.0" y="1020.3" font-family="WenQuanYi Zen Hei, Microsoft YaHei, SimSun, sans-serif" font-size="11" text-anchor="middle" fill="#000000">草稿/发布/评论 表态/收藏/签到/合集</text>
<path d="M1417.0 1020.0 L850.0 850.0 L638.0 1091.0" fill="none" stroke="#000000" stroke-width="1.3"/><polygon points="638.0,1091.0 642.8,1080.0 648.3,1084.9" fill="#000000" stroke="#000000" stroke-width="1"/><rect x="928.0" y="880.4" width="103.5" height="17.0" fill="#ffffff" opacity="0.85" rx="3"/><text x="979.8" y="892.4" font-family="WenQuanYi Zen Hei, Microsoft YaHei, SimSun, sans-serif" font-size="11" text-anchor="middle" fill="#000000">列表/详情/结果</text>
<path d="M638.0 513.1 L1360.0 723.3" fill="none" stroke="#000000" stroke-width="1.3"/><polygon points="1360.0,723.3 1348.0,723.7 1350.1,716.6" fill="#000000" stroke="#000000" stroke-width="1"/><rect x="964.3" y="609.7" width="69.4" height="17.0" fill="#ffffff" opacity="0.85" rx="3"/><text x="999.0" y="621.7" font-family="WenQuanYi Zen Hei, Microsoft YaHei, SimSun, sans-serif" font-size="11" text-anchor="middle" fill="#000000">浏览/检索</text>
<path d="M1417.0 708.0 L850.0 496.0 L638.0 453.0" fill="none" stroke="#000000" stroke-width="1.3"/><polygon points="638.0,453.0 649.9,451.6 648.4,458.9" fill="#000000" stroke="#000000" stroke-width="1"/><rect x="983.9" y="555.6" width="96.7" height="17.0" fill="#ffffff" opacity="0.85" rx="3"/><text x="1032.2" y="567.6" font-family="WenQuanYi Zen Hei, Microsoft YaHei, SimSun, sans-serif" font-size="11" text-anchor="middle" fill="#000000">笔记/评论数据</text>
<path d="M2352.0 765.0 L3102.0 708.0" fill="none" stroke="#000000" stroke-width="1.3"/><polygon points="3102.0,708.0 3090.9,712.6 3090.3,705.2" fill="#000000" stroke="#000000" stroke-width="1"/><rect x="2678.7" y="728.0" width="96.7" height="17.0" fill="#ffffff" opacity="0.85" rx="3"/><text x="2727.0" y="740.0" font-family="WenQuanYi Zen Hei, Microsoft YaHei, SimSun, sans-serif" font-size="11" text-anchor="middle" fill="#000000">润色/摘要请求</text>
<path d="M3102.0 808.0 L2352.0 907.0" fill="none" stroke="#000000" stroke-width="1.3"/><polygon points="2352.0,907.0 2362.8,901.8 2363.8,909.2" fill="#000000" stroke="#000000" stroke-width="1"/><rect x="2678.7" y="849.0" width="96.7" height="17.0" fill="#ffffff" opacity="0.85" rx="3"/><text x="2727.0" y="861.0" font-family="WenQuanYi Zen Hei, Microsoft YaHei, SimSun, sans-serif" font-size="11" text-anchor="middle" fill="#000000">改写/摘要文本</text>
<path d="M3102.0 1344.9 L2323.0 1047.4" fill="none" stroke="#000000" stroke-width="1.3" stroke-dasharray="6 4"/><polygon points="2323.0,1047.4 2335.0,1048.0 2332.3,1054.9" fill="#000000" stroke="#000000" stroke-width="1"/><rect x="2674.4" y="1187.7" width="76.2" height="17.0" fill="#ffffff" opacity="0.85" rx="3"/><text x="2712.5" y="1199.7" font-family="WenQuanYi Zen Hei, Microsoft YaHei, SimSun, sans-serif" font-size="11" text-anchor="middle" fill="#000000">裁决(规划)</text>
<path d="M1360.0 1048.6 L402.0 1417.0 L403.7 1870.0" fill="none" stroke="#000000" stroke-width="1.3"/><polygon points="403.7,1870.0 400.0,1858.6 407.4,1858.6" fill="#000000" stroke="#000000" stroke-width="1"/>
<path d="M1360.0 1150.2 L912.0 1417.0 L913.7 1870.0" fill="none" stroke="#000000" stroke-width="1.3"/><polygon points="913.7,1870.0 910.0,1858.6 917.4,1858.6" fill="#000000" stroke="#000000" stroke-width="1"/>
<path d="M1476.6 1345.0 L1422.0 1417.0 L1423.7 1870.0" fill="none" stroke="#000000" stroke-width="1.3"/><polygon points="1423.7,1870.0 1420.0,1858.6 1427.4,1858.6" fill="#000000" stroke="#000000" stroke-width="1"/>
<path d="M1920.2 1345.0 L1932.0 1417.0 L1933.7 1870.0" fill="none" stroke="#000000" stroke-width="1.3"/><polygon points="1933.7,1870.0 1930.0,1858.6 1937.4,1858.6" fill="#000000" stroke="#000000" stroke-width="1"/>
<path d="M2323.0 1307.3 L2442.0 1417.0 L2443.7 1870.0" fill="none" stroke="#000000" stroke-width="1.3" stroke-dasharray="6 4"/><polygon points="2443.7,1870.0 2440.0,1858.6 2447.4,1858.6" fill="#000000" stroke="#000000" stroke-width="1"/>
<path d="M2323.0 1103.5 L2952.0 1417.0 L2953.7 1870.0" fill="none" stroke="#000000" stroke-width="1.3"/><polygon points="2953.7,1870.0 2950.0,1858.6 2957.4,1858.6" fill="#000000" stroke="#000000" stroke-width="1"/>
<path d="M2323.0 1028.0 L3462.0 1417.0 L3463.7 1870.0" fill="none" stroke="#000000" stroke-width="1.3"/><polygon points="3463.7,1870.0 3460.0,1858.6 3467.4,1858.6" fill="#000000" stroke="#000000" stroke-width="1"/>
</svg>