<svg xmlns="http://www.w3.org/2000/svg" width="3400" height="1757" viewBox="0 0 3400 1757" font-family="WenQuanYi Zen Hei, Microsoft YaHei, SimSun, sans-serif">
<rect width="3400" height="1757" fill="#ffffff"/>
<line x1="453.0" y1="165.0" x2="453.0" y2="1587.0" stroke="#57606a" stroke-width="1" stroke-dasharray="5 4"/><circle cx="453.0" cy="138.0" r="11" fill="#ffffff" stroke="#000000" stroke-width="1.4"/><line x1="453.0" y1="149.0" x2="453.0" y2="171.0" stroke="#000000" stroke-width="1.4"/><line x1="438.0" y1="157.0" x2="468.0" y2="157.0" stroke="#000000" stroke-width="1.4"/><line x1="453.0" y1="171.0" x2="440.0" y2="189.0" stroke="#000000" stroke-width="1.4"/><line x1="453.0" y1="171.0" x2="466.0" y2="189.0" stroke="#000000" stroke-width="1.4"/><text x="453.0" y="167.0" font-family="WenQuanYi Zen Hei, Microsoft YaHei, SimSun, sans-serif" font-size="34" text-anchor="middle" font-weight="bold" fill="#1f2328">前端 / 调试客户端</text>
<line x1="1360.0" y1="159.0" x2="1360.0" y2="1587.0" stroke="#57606a" stroke-width="1" stroke-dasharray="5 4"/><rect x="1091.0" y="125.0" width="538.0" height="34.0" rx="3" fill="#ffffff" stroke="#000000" stroke-width="1.2"/><text x="1360.0" y="141.0" font-family="WenQuanYi Zen Hei, Microsoft YaHei, SimSun, sans-serif" font-size="34" text-anchor="middle" fill="#1f2328">CollectionsRoutes</text>
<line x1="2323.0" y1="159.0" x2="2323.0" y2="1587.0" stroke="#57606a" stroke-width="1" stroke-dasharray="5 4"/><rect x="2054.0" y="125.0" width="538.0" height="34.0" rx="3" fill="#ffffff" stroke="#000000" stroke-width="1.2"/><text x="2323.0" y="141.0" font-family="WenQuanYi Zen Hei, Microsoft YaHei, SimSun, sans-serif" font-size="34" text-anchor="middle" fill="#1f2328">DB · entries 表</text>
<line x1="3088.0" y1="159.0" x2="3088.0" y2="1587.0" stroke="#57606a" stroke-width="1" stroke-dasharray="5 4"/><rect x="2819.0" y="125.0" width="538.0" height="34.0" rx="3" fill="#ffffff" stroke="#000000" stroke-width="1.2"/><text x="3088.0" y="141.0" font-family="WenQuanYi Zen Hei, Microsoft YaHei, SimSun, sans-serif" font-size="34" text-anchor="middle" fill="#1f2328">DB · notes/users</text>
<text x="907.0" y="409.5" font-family="WenQuanYi Zen Hei, Microsoft YaHei, SimSun, sans-serif" font-size="34" text-anchor="middle" font-weight="bold" fill="#000000">GET /notes/{id}/collection</text>
<text x="1842.0" y="540.5" font-family="WenQuanYi Zen Hei, Microsoft YaHei, SimSun, sans-serif" font-size="34" text-anchor="middle" font-weight="bold" fill="#000000">查 collection_entries[note_id]</text>
<rect x="1218.0" y="635.0" width="1332.0" height="215.0" rx="2" fill="none" stroke="#000000" stroke-width="1.2" stroke-dasharray="6 4"/>
<rect x="1218.0" y="635.0" width="340.0" height="62.0" rx="2" fill="#ffffff" stroke="#000000" stroke-width="1.2"/>
<text x="1245.0" y="681.5" font-family="WenQuanYi Zen Hei, Microsoft YaHei, SimSun, sans-serif" font-size="34" text-anchor="start" font-weight="bold" fill="#000000">alt [无归属]</text>
<text x="1842.0" y="726.5" font-family="WenQuanYi Zen Hei, Microsoft YaHei, SimSun, sans-serif" font-size="34" text-anchor="middle" font-weight="bold" fill="#000000">无记录</text>
<text x="907.0" y="834.5" font-family="WenQuanYi Zen Hei, Microsoft YaHei, SimSun, sans-serif" font-size="34" text-anchor="middle" font-weight="bold" fill="#000000">200 / null</text>
<rect x="1218.0" y="935.0" width="2012.0" height="482.0" rx="2" fill="none" stroke="#000000" stroke-width="1.2" stroke-dasharray="6 4"/>
<rect x="1218.0" y="935.0" width="340.0" height="62.0" rx="2" fill="#ffffff" stroke="#000000" stroke-width="1.2"/>
<text x="1245.0" y="982.5" font-family="WenQuanYi Zen Hei, Microsoft YaHei, SimSun, sans-serif" font-size="34" text-anchor="start" font-weight="bold" fill="#000000">[已归属合集]</text>
<text x="1842.0" y="1027.5" font-family="WenQuanYi Zen Hei, Microsoft YaHei, SimSun, sans-serif" font-size="34" text-anchor="middle" font-weight="bold" fill="#000000">collection_id</text>
<text x="2224.0" y="1140.5" font-family="WenQuanYi Zen Hei, Microsoft YaHei, SimSun, sans-serif" font-size="34" text-anchor="middle" font-weight="bold" fill="#000000">JOIN 同合集 visible 条目（排序）</text>
<text x="2224.0" y="1254.5" font-family="WenQuanYi Zen Hei, Microsoft YaHei, SimSun, sans-serif" font-size="34" text-anchor="middle" font-weight="bold" fill="#000000">entries + author</text>
<text x="1596.0" y="1418.5" font-family="WenQuanYi Zen Hei, Microsoft YaHei, SimSun, sans-serif" font-size="34" text-anchor="start" font-weight="bold" fill="#000000">组装 currentIndex</text>
<text x="907.0" y="1497.5" font-family="WenQuanYi Zen Hei, Microsoft YaHei, SimSun, sans-serif" font-size="34" text-anchor="middle" font-weight="bold" fill="#000000">collection + entries + currentIndex</text>
<path d="M453.0 425.0 L1360.0 425.0" fill="none" stroke="#000000" stroke-width="1.3"/><polygon points="1360.0,425.0 1348.6,428.7 1348.6,421.3" fill="#000000" stroke="#000000" stroke-width="1"/>
<path d="M1360.0 555.0 L2323.0 555.0" fill="none" stroke="#000000" stroke-width="1.3"/><polygon points="2323.0,555.0 2311.6,558.7 2311.6,551.3" fill="#000000" stroke="#000000" stroke-width="1"/>
<path d="M2323.0 742.0 L1360.0 742.0" fill="none" stroke="#000000" stroke-width="1.3" stroke-dasharray="6 4"/><line x1="1371.4" y1="738.3" x2="1360.0" y2="742.0" stroke="#000000" stroke-width="1.3"/><line x1="1371.4" y1="745.7" x2="1360.0" y2="742.0" stroke="#000000" stroke-width="1.3"/>
<path d="M1360.0 850.0 L453.0 850.0" fill="none" stroke="#000000" stroke-width="1.3" stroke-dasharray="6 4"/><line x1="464.4" y1="846.3" x2="453.0" y2="850.0" stroke="#000000" stroke-width="1.3"/><line x1="464.4" y1="853.7" x2="453.0" y2="850.0" stroke="#000000" stroke-width="1.3"/>
<path d="M2323.0 1043.0 L1360.0 1043.0" fill="none" stroke="#000000" stroke-width="1.3" stroke-dasharray="6 4"/><line x1="1371.4" y1="1039.3" x2="1360.0" y2="1043.0" stroke="#000000" stroke-width="1.3"/><line x1="1371.4" y1="1046.7" x2="1360.0" y2="1043.0" stroke="#000000" stroke-width="1.3"/>
<path d="M1360.0 1156.0 L3088.0 1156.0" fill="none" stroke="#000000" stroke-width="1.3"/><polygon points="3088.0,1156.0 3076.6,1159.7 3076.6,1152.3" fill="#000000" stroke="#000000" stroke-width="1"/>
<path d="M3088.0 1269.0 L1360.0 1269.0" fill="none" stroke="#000000" stroke-width="1.3" stroke-dasharray="6 4"/><line x1="1371.4" y1="1265.3" x2="1360.0" y2="1269.0" stroke="#000000" stroke-width="1.3"/><line x1="1371.4" y1="1272.7" x2="1360.0" y2="1269.0" stroke="#000000" stroke-width="1.3"/>
<path d="M1360.0 1354.0 L1570.0 1354.0 L1570.0 1428.0 L1377.0 1428.0" fill="none" stroke="#000000" stroke-width="1.3"/><polygon points="1377.0,1428.0 1388.4,1424.3 1388.4,1431.7" fill="#000000" stroke="#000000" stroke-width="1"/>
<path d="M1360.0 1513.0 L453.0 1513.0" fill="none" stroke="#000000" stroke-width="1.3" stroke-dasharray="6 4"/><line x1="464.4" y1="1509.3" x2="453.0" y2="1513.0" stroke="#000000" stroke-width="1.3"/><line x1="464.4" y1="1516.7" x2="453.0" y2="1513.0" stroke="#000000" stroke-width="1.3"/>
</svg>