<svg xmlns="http://www.w3.org/2000/svg" width="3910" height="2437" viewBox="0 0 3910 2437" font-family="WenQuanYi Zen Hei, Microsoft YaHei, SimSun, sans-serif">
<rect width="3910" height="2437" fill="#ffffff"/>
<line x1="269.0" y1="165.0" x2="269.0" y2="2239.0" stroke="#57606a" stroke-width="1" stroke-dasharray="5 4"/><circle cx="269.0" cy="138.0" r="11" fill="#ffffff" stroke="#000000" stroke-width="1.4"/><line x1="269.0" y1="149.0" x2="269.0" y2="171.0" stroke="#000000" stroke-width="1.4"/><line x1="254.0" y1="157.0" x2="284.0" y2="157.0" stroke="#000000" stroke-width="1.4"/><line x1="269.0" y1="171.0" x2="256.0" y2="189.0" stroke="#000000" stroke-width="1.4"/><line x1="269.0" y1="171.0" x2="282.0" y2="189.0" stroke="#000000" stroke-width="1.4"/><text x="269.0" y="167.0" font-family="WenQuanYi Zen Hei, Microsoft YaHei, SimSun, sans-serif" font-size="34" text-anchor="middle" font-weight="bold" fill="#1f2328">注册用户</text>
<line x1="935.0" y1="159.0" x2="935.0" y2="2239.0" stroke="#57606a" stroke-width="1" stroke-dasharray="5 4"/><rect x="666.0" y="125.0" width="538.0" height="34.0" rx="3" fill="#ffffff" stroke="#000000" stroke-width="1.2"/><text x="935.0" y="141.0" font-family="WenQuanYi Zen Hei, Microsoft YaHei, SimSun, sans-serif" font-size="34" text-anchor="middle" fill="#1f2328">WritePage 前端</text>
<line x1="1657.0" y1="159.0" x2="1657.0" y2="2239.0" stroke="#57606a" stroke-width="1" stroke-dasharray="5 4"/><rect x="1388.0" y="125.0" width="538.0" height="34.0" rx="3" fill="#ffffff" stroke="#000000" stroke-width="1.2"/><text x="1657.0" y="141.0" font-family="WenQuanYi Zen Hei, Microsoft YaHei, SimSun, sans-serif" font-size="34" text-anchor="middle" fill="#1f2328">DraftsRoutes·发布</text>
<line x1="2380.0" y1="159.0" x2="2380.0" y2="2239.0" stroke="#57606a" stroke-width="1" stroke-dasharray="5 4"/><rect x="2111.0" y="125.0" width="538.0" height="34.0" rx="3" fill="#ffffff" stroke="#000000" stroke-width="1.2"/><text x="2380.0" y="141.0" font-family="WenQuanYi Zen Hei, Microsoft YaHei, SimSun, sans-serif" font-size="34" text-anchor="middle" fill="#1f2328">AiComposeService</text>
<line x1="3060.0" y1="159.0" x2="3060.0" y2="2239.0" stroke="#57606a" stroke-width="1" stroke-dasharray="5 4"/><rect x="2791.0" y="125.0" width="538.0" height="34.0" rx="3" fill="#ffffff" stroke="#000000" stroke-width="1.2"/><text x="3060.0" y="141.0" font-family="WenQuanYi Zen Hei, Microsoft YaHei, SimSun, sans-serif" font-size="34" text-anchor="middle" fill="#1f2328">外部 AI 服务</text>
<line x1="3655.0" y1="159.0" x2="3655.0" y2="2239.0" stroke="#57606a" stroke-width="1" stroke-dasharray="5 4"/><rect x="3386.0" y="125.0" width="538.0" height="34.0" rx="3" fill="#ffffff" stroke="#000000" stroke-width="1.2"/><text x="3655.0" y="141.0" font-family="WenQuanYi Zen Hei, Microsoft YaHei, SimSun, sans-serif" font-size="34" text-anchor="middle" fill="#1f2328">DB · SQLite</text>
<text x="601.0" y="352.5" font-family="WenQuanYi Zen Hei, Microsoft YaHei, SimSun, sans-serif" font-size="34" text-anchor="middle" font-weight="bold" fill="#000000">点击「发布」</text>
<text x="1171.0" y="517.5" font-family="WenQuanYi Zen Hei, Microsoft YaHei, SimSun, sans-serif" font-size="34" text-anchor="start" font-weight="bold" fill="#000000">校验标题 / 正文 / 分类非空</text>
<text x="1295.0" y="642.5" font-family="WenQuanYi Zen Hei, Microsoft YaHei, SimSun, sans-serif" font-size="34" text-anchor="middle" font-weight="bold" fill="#000000">POST /notes/drafts/{id}/publish</text>
<text x="2655.0" y="755.5" font-family="WenQuanYi Zen Hei, Microsoft YaHei, SimSun, sans-serif" font-size="34" text-anchor="middle" font-weight="bold" fill="#000000">读取草稿</text>
<text x="2655.0" y="862.5" font-family="WenQuanYi Zen Hei, Microsoft YaHei, SimSun, sans-serif" font-size="34" text-anchor="middle" font-weight="bold" fill="#000000">草稿数据</text>
<rect x="1530.0" y="952.0" width="1700.0" height="720.0" rx="2" fill="none" stroke="#000000" stroke-width="1.2" stroke-dasharray="6 4"/>
<rect x="1530.0" y="952.0" width="340.0" height="62.0" rx="2" fill="#ffffff" stroke="#000000" stroke-width="1.2"/>
<text x="1557.0" y="998.5" font-family="WenQuanYi Zen Hei, Microsoft YaHei, SimSun, sans-serif" font-size="34" text-anchor="start" font-weight="bold" fill="#000000">opt [摘要为空]</text>
<text x="2017.0" y="1038.5" font-family="WenQuanYi Zen Hei, Microsoft YaHei, SimSun, sans-serif" font-size="34" text-anchor="middle" font-weight="bold" fill="#000000">请求生成一句话摘要</text>
<text x="2720.0" y="1146.5" font-family="WenQuanYi Zen Hei, Microsoft YaHei, SimSun, sans-serif" font-size="34" text-anchor="middle" font-weight="bold" fill="#000000">chat.completions</text>
<rect x="2267.0" y="1224.0" width="907.0" height="363.0" rx="2" fill="none" stroke="#000000" stroke-width="1.2" stroke-dasharray="6 4"/>
<rect x="2267.0" y="1224.0" width="340.0" height="62.0" rx="2" fill="#ffffff" stroke="#000000" stroke-width="1.2"/>
<text x="2293.0" y="1270.5" font-family="WenQuanYi Zen Hei, Microsoft YaHei, SimSun, sans-serif" font-size="34" text-anchor="start" font-weight="bold" fill="#000000">alt [超时/失败]</text>
<text x="2720.0" y="1310.5" font-family="WenQuanYi Zen Hei, Microsoft YaHei, SimSun, sans-serif" font-size="34" text-anchor="middle" font-weight="bold" fill="#000000">摘要文本 / 超时</text>
<text x="2616.0" y="1480.5" font-family="WenQuanYi Zen Hei, Microsoft YaHei, SimSun, sans-serif" font-size="34" text-anchor="start" font-weight="bold" fill="#000000">首段截断兜底（永不失败）</text>
<text x="2017.0" y="1613.5" font-family="WenQuanYi Zen Hei, Microsoft YaHei, SimSun, sans-serif" font-size="34" text-anchor="middle" font-weight="bold" fill="#000000">最终摘要文本</text>
<text x="2655.0" y="1764.5" font-family="WenQuanYi Zen Hei, Microsoft YaHei, SimSun, sans-serif" font-size="34" text-anchor="middle" font-weight="bold" fill="#000000">单事务：建笔记 + 删草稿</text>
<text x="2655.0" y="1877.5" font-family="WenQuanYi Zen Hei, Microsoft YaHei, SimSun, sans-serif" font-size="34" text-anchor="middle" font-weight="bold" fill="#000000">新笔记</text>
<text x="1295.0" y="1990.5" font-family="WenQuanYi Zen Hei, Microsoft YaHei, SimSun, sans-serif" font-size="34" text-anchor="middle" font-weight="bold" fill="#000000">201 新笔记</text>
<text x="601.0" y="2104.5" font-family="WenQuanYi Zen Hei, Microsoft YaHei, SimSun, sans-serif" font-size="34" text-anchor="middle" font-weight="bold" fill="#000000">跳转笔记详情页</text>
<path d="M269.0 368.0 L935.0 368.0" fill="none" stroke="#000000" stroke-width="1.3"/><polygon points="935.0,368.0 923.6,371.7 923.6,364.3" fill="#000000" stroke="#000000" stroke-width="1"/>
<path d="M935.0 453.0 L1145.0 453.0 L1145.0 527.0 L952.0 527.0" fill="none" stroke="#000000" stroke-width="1.3"/><polygon points="952.0,527.0 963.4,523.3 963.4,530.7" fill="#000000" stroke="#000000" stroke-width="1"/>
<path d="M935.0 657.0 L1658.0 657.0" fill="none" stroke="#000000" stroke-width="1.3"/><polygon points="1658.0,657.0 1646.6,660.7 1646.6,653.3" fill="#000000" stroke="#000000" stroke-width="1"/>
<path d="M1658.0 771.0 L3655.0 771.0" fill="none" stroke="#000000" stroke-width="1.3"/><polygon points="3655.0,771.0 3643.6,774.7 3643.6,767.3" fill="#000000" stroke="#000000" stroke-width="1"/>
<path d="M3655.0 878.0 L1658.0 878.0" fill="none" stroke="#000000" stroke-width="1.3" stroke-dasharray="6 4"/><line x1="1669.4" y1="874.3" x2="1658.0" y2="878.0" stroke="#000000" stroke-width="1.3"/><line x1="1669.4" y1="881.7" x2="1658.0" y2="878.0" stroke="#000000" stroke-width="1.3"/>
<path d="M1658.0 1054.0 L2380.0 1054.0" fill="none" stroke="#000000" stroke-width="1.3"/><polygon points="2380.0,1054.0 2368.6,1057.7 2368.6,1050.3" fill="#000000" stroke="#000000" stroke-width="1"/>
<path d="M2380.0 1162.0 L3060.0 1162.0" fill="none" stroke="#000000" stroke-width="1.3"/><polygon points="3060.0,1162.0 3048.6,1165.7 3048.6,1158.3" fill="#000000" stroke="#000000" stroke-width="1"/>
<path d="M3060.0 1326.0 L2380.0 1326.0" fill="none" stroke="#000000" stroke-width="1.3" stroke-dasharray="6 4"/><line x1="2391.4" y1="1322.3" x2="2380.0" y2="1326.0" stroke="#000000" stroke-width="1.3"/><line x1="2391.4" y1="1329.7" x2="2380.0" y2="1326.0" stroke="#000000" stroke-width="1.3"/>
<path d="M2380.0 1417.0 L2590.0 1417.0 L2590.0 1490.0 L2397.0 1490.0" fill="none" stroke="#000000" stroke-width="1.3"/><polygon points="2397.0,1490.0 2408.4,1486.3 2408.4,1493.7" fill="#000000" stroke="#000000" stroke-width="1"/>
<path d="M2380.0 1629.0 L1658.0 1629.0" fill="none" stroke="#000000" stroke-width="1.3" stroke-dasharray="6 4"/><line x1="1669.4" y1="1625.3" x2="1658.0" y2="1629.0" stroke="#000000" stroke-width="1.3"/><line x1="1669.4" y1="1632.7" x2="1658.0" y2="1629.0" stroke="#000000" stroke-width="1.3"/>
<path d="M1658.0 1779.0 L3655.0 1779.0" fill="none" stroke="#000000" stroke-width="1.3"/><polygon points="3655.0,1779.0 3643.6,1782.7 3643.6,1775.3" fill="#000000" stroke="#000000" stroke-width="1"/>
<path d="M3655.0 1893.0 L1658.0 1893.0" fill="none" stroke="#000000" stroke-width="1.3" stroke-dasharray="6 4"/><line x1="1669.4" y1="1889.3" x2="1658.0" y2="1893.0" stroke="#000000" stroke-width="1.3"/><line x1="1669.4" y1="1896.7" x2="1658.0" y2="1893.0" stroke="#000000" stroke-width="1.3"/>
<path d="M1658.0 2006.0 L935.0 2006.0" fill="none" stroke="#000000" stroke-width="1.3" stroke-dasharray="6 4"/><line x1="946.4" y1="2002.3" x2="935.0" y2="2006.0" stroke="#000000" stroke-width="1.3"/><line x1="946.4" y1="2009.7" x2="935.0" y2="2006.0" stroke="#000000" stroke-width="1.3"/>
<path d="M935.0 2119.0 L269.0 2119.0" fill="none" stroke="#000000" stroke-width="1.3" stroke-dasharray="6 4"/><line x1="280.4" y1="2115.3" x2="269.0" y2="2119.0" stroke="#000000" stroke-width="1.3"/><line x1="280.4" y1="2122.7" x2="269.0" y2="2119.0" stroke="#000000" stroke-width="1.3"/>
</svg>