<svg xmlns="http://www.w3.org/2000/svg" width="3003" height="2663" viewBox="0 0 3003 2663" font-family="WenQuanYi Zen Hei, Microsoft YaHei, SimSun, sans-serif">
<rect width="3003" height="2663" fill="#ffffff"/>
<rect x="1133.0" y="113.0" width="737.0" height="181.0" rx="12" fill="#ffffff" stroke="#000000" stroke-width="1.2"/><text x="1501.5" y="219.5" font-family="WenQuanYi Zen Hei, Microsoft YaHei, SimSun, sans-serif" font-size="34" text-anchor="middle" fill="#1f2328">用户 / 管理员</text>
<rect x="1133.0" y="425.0" width="737.0" height="170.0" rx="2" fill="#ffffff" stroke="#000000" stroke-width="1.2"/><text x="1501.5" y="526.0" font-family="WenQuanYi Zen Hei, Microsoft YaHei, SimSun, sans-serif" font-size="34" text-anchor="middle" fill="#1f2328">浏览器 · React 18 SPA</text>
<rect x="1077.0" y="742.0" width="850.0" height="187.0" rx="2" fill="#ffffff" stroke="#000000" stroke-width="1.2"/><text x="1502.0" y="833.5" font-family="WenQuanYi Zen Hei, Microsoft YaHei, SimSun, sans-serif" font-size="34" text-anchor="middle" fill="#1f2328">nginx 反向代理 静态资源直出 + API 反向代</text><text x="1502.0" y="869.5" font-family="WenQuanYi Zen Hei, Microsoft YaHei, SimSun, sans-serif" font-size="34" text-anchor="middle" fill="#1f2328">理</text>
<rect x="992.0" y="1054.0" width="1020.0" height="907.0" rx="12" fill="#ffffff" stroke="#000000" stroke-width="1.2"/>
<text x="1041.0" y="1126.5" font-family="WenQuanYi Zen Hei, Microsoft YaHei, SimSun, sans-serif" font-size="34" text-anchor="start" font-weight="bold" fill="#000000">FastAPI 单体后端（routes → services → db）</text>
<rect x="1190.0" y="1190.0" width="623.0" height="153.0" rx="2" fill="#ffffff" stroke="#000000" stroke-width="1.2"/><text x="1501.5" y="1282.5" font-family="WenQuanYi Zen Hei, Microsoft YaHei, SimSun, sans-serif" font-size="34" text-anchor="middle" fill="#1f2328">路由层 routes</text>
<rect x="1190.0" y="1417.0" width="623.0" height="153.0" rx="2" fill="#ffffff" stroke="#000000" stroke-width="1.2"/><text x="1501.5" y="1509.5" font-family="WenQuanYi Zen Hei, Microsoft YaHei, SimSun, sans-serif" font-size="34" text-anchor="middle" fill="#1f2328">服务层 services</text>
<rect x="1190.0" y="1643.0" width="623.0" height="153.0" rx="2" fill="#ffffff" stroke="#000000" stroke-width="1.2"/><text x="1501.5" y="1735.5" font-family="WenQuanYi Zen Hei, Microsoft YaHei, SimSun, sans-serif" font-size="34" text-anchor="middle" fill="#1f2328">数据层 db（SQLAlchemy）</text>
<path d="M1143.0 2097.0 L1870.0 2097.0 M1143.0 2267.0 L1870.0 2267.0 M1143.0 2097.0 L1143.0 2267.0" fill="none" stroke="#000000" stroke-width="1.2"/><text x="1511.5" y="2198.0" font-family="WenQuanYi Zen Hei, Microsoft YaHei, SimSun, sans-serif" font-size="34" text-anchor="middle" fill="#1f2328">SQLite 主库 labnotes.db</text>
<rect x="2210.0" y="1332.0" width="623.0" height="210.0" rx="12" fill="#ffffff" stroke="#000000" stroke-width="1.2"/><text x="2521.5" y="1435.0" font-family="WenQuanYi Zen Hei, Microsoft YaHei, SimSun, sans-serif" font-size="34" text-anchor="middle" fill="#1f2328">外部 AI 服务 DeepSeek · OpenAI</text><text x="2521.5" y="1471.0" font-family="WenQuanYi Zen Hei, Microsoft YaHei, SimSun, sans-serif" font-size="34" text-anchor="middle" fill="#1f2328"> 兼容</text>
<rect x="2210.0" y="1672.0" width="623.0" height="153.0" rx="2" fill="#ffffff" stroke="#000000" stroke-width="1.2" stroke-dasharray="6 4"/><text x="2521.5" y="1764.5" font-family="WenQuanYi Zen Hei, Microsoft YaHei, SimSun, sans-serif" font-size="34" text-anchor="middle" fill="#1f2328">AI 审查分类（规划）</text>
<path d="M2163.0 2097.0 L2833.0 2097.0 M2163.0 2267.0 L2833.0 2267.0 M2163.0 2097.0 L2163.0 2267.0" fill="none" stroke="#000000" stroke-width="1.2" stroke-dasharray="6 4"/><text x="2503.0" y="2198.0" font-family="WenQuanYi Zen Hei, Microsoft YaHei, SimSun, sans-serif" font-size="34" text-anchor="middle" fill="#1f2328">HF 私有 Dataset · 灾备快照</text>
<path d="M1501.5 294.0 L1501.5 425.0" fill="none" stroke="#000000" stroke-width="1.3"/><polygon points="1501.5,425.0 1497.8,413.6 1505.2,413.6" fill="#000000" stroke="#000000" stroke-width="1"/><rect x="1483.9" y="351.0" width="35.3" height="17.0" fill="#ffffff" opacity="0.85" rx="3"/><text x="1501.5" y="363.0" font-family="WenQuanYi Zen Hei, Microsoft YaHei, SimSun, sans-serif" font-size="11" text-anchor="middle" fill="#000000">操作</text>
<path d="M1501.6 595.0 L1501.9 742.0" fill="none" stroke="#000000" stroke-width="1.3"/><polygon points="1501.9,742.0 1498.1,730.6 1505.5,730.6" fill="#000000" stroke="#000000" stroke-width="1"/><rect x="1463.6" y="660.0" width="76.2" height="17.0" fill="#ffffff" opacity="0.85" rx="3"/><text x="1501.7" y="672.0" font-family="WenQuanYi Zen Hei, Microsoft YaHei, SimSun, sans-serif" font-size="11" text-anchor="middle" fill="#000000">HTTPS 请求</text>
<path d="M1501.9 929.0 L1501.6 1190.0" fill="none" stroke="#000000" stroke-width="1.3"/><polygon points="1501.6,1190.0 1497.9,1178.6 1505.3,1178.6" fill="#000000" stroke="#000000" stroke-width="1"/><rect x="1463.6" y="1051.0" width="76.2" height="17.0" fill="#ffffff" opacity="0.85" rx="3"/><text x="1501.7" y="1063.0" font-family="WenQuanYi Zen Hei, Microsoft YaHei, SimSun, sans-serif" font-size="11" text-anchor="middle" fill="#000000">REST · JWT</text>
<path d="M1501.5 1343.0 L1501.5 1417.0" fill="none" stroke="#000000" stroke-width="1.3"/><polygon points="1501.5,1417.0 1497.8,1405.6 1505.2,1405.6" fill="#000000" stroke="#000000" stroke-width="1"/><rect x="1442.9" y="1371.5" width="117.1" height="17.0" fill="#ffffff" opacity="0.85" rx="3"/><text x="1501.5" y="1383.5" font-family="WenQuanYi Zen Hei, Microsoft YaHei, SimSun, sans-serif" font-size="11" text-anchor="middle" fill="#000000">复杂查询/AI/鉴权</text>
<path d="M1190.0 1266.1 L1133.0 1266.0 L1133.0 1720.0 L1190.0 1719.9" fill="none" stroke="#000000" stroke-width="1.3"/><polygon points="1190.0,1719.9 1178.6,1723.6 1178.6,1716.2" fill="#000000" stroke="#000000" stroke-width="1"/><rect x="1101.7" y="1484.5" width="62.6" height="17.0" fill="#ffffff" opacity="0.85" rx="3"/><text x="1133.0" y="1496.5" font-family="WenQuanYi Zen Hei, Microsoft YaHei, SimSun, sans-serif" font-size="11" text-anchor="middle" fill="#000000">轻量写入</text>
<path d="M1501.5 1570.0 L1501.5 1643.0" fill="none" stroke="#000000" stroke-width="1.3"/><polygon points="1501.5,1643.0 1497.8,1631.6 1505.2,1631.6" fill="#000000" stroke="#000000" stroke-width="1"/><rect x="1470.2" y="1598.0" width="62.6" height="17.0" fill="#ffffff" opacity="0.85" rx="3"/><text x="1501.5" y="1610.0" font-family="WenQuanYi Zen Hei, Microsoft YaHei, SimSun, sans-serif" font-size="11" text-anchor="middle" fill="#000000">ORM 查询</text>
<path d="M1501.5 1796.0 L1501.5 2097.0" fill="none" stroke="#000000" stroke-width="1.3"/><polygon points="1501.5,2097.0 1497.8,2085.6 1505.2,2085.6" fill="#000000" stroke="#000000" stroke-width="1"/><rect x="1483.9" y="1938.0" width="35.3" height="17.0" fill="#ffffff" opacity="0.85" rx="3"/><text x="1501.5" y="1950.0" font-family="WenQuanYi Zen Hei, Microsoft YaHei, SimSun, sans-serif" font-size="11" text-anchor="middle" fill="#000000">读写</text>
<path d="M1813.0 1476.2 L2210.0 1454.3" fill="none" stroke="#000000" stroke-width="1.3"/><polygon points="2210.0,1454.3 2198.8,1458.6 2198.4,1451.2" fill="#000000" stroke="#000000" stroke-width="1"/><rect x="1970.0" y="1456.8" width="83.0" height="17.0" fill="#ffffff" opacity="0.85" rx="3"/><text x="2011.5" y="1468.8" font-family="WenQuanYi Zen Hei, Microsoft YaHei, SimSun, sans-serif" font-size="11" text-anchor="middle" fill="#000000">润色 / 摘要</text>
<path d="M1813.0 1493.1 L1870.0 1493.0 L1983.0 1748.0 L2210.0 1748.2" fill="none" stroke="#000000" stroke-width="1.3" stroke-dasharray="6 4"/><polygon points="2210.0,1748.2 2198.6,1751.9 2198.6,1744.5" fill="#000000" stroke="#000000" stroke-width="1"/><rect x="1922.8" y="1689.7" width="76.2" height="17.0" fill="#ffffff" opacity="0.85" rx="3"/><text x="1960.9" y="1701.7" font-family="WenQuanYi Zen Hei, Microsoft YaHei, SimSun, sans-serif" font-size="11" text-anchor="middle" fill="#000000">审查(规划)</text>
<path d="M1870.0 2182.0 L2153.0 2182.0" fill="none" stroke="#000000" stroke-width="1.3" stroke-dasharray="6 4"/><polygon points="2153.0,2182.0 2141.6,2185.7 2141.6,2178.3" fill="#000000" stroke="#000000" stroke-width="1"/><rect x="1976.8" y="2173.5" width="69.4" height="17.0" fill="#ffffff" opacity="0.85" rx="3"/><text x="2011.5" y="2185.5" font-family="WenQuanYi Zen Hei, Microsoft YaHei, SimSun, sans-serif" font-size="11" text-anchor="middle" fill="#000000">cron 快照</text>
<path d="M1870.0 510.0 L1955.0 510.0 L1955.0 204.0 L1870.0 203.9" fill="none" stroke="#000000" stroke-width="1.3"/><polygon points="1870.0,203.9 1881.4,200.2 1881.4,207.6" fill="#000000" stroke="#000000" stroke-width="1"/><rect x="1923.7" y="348.5" width="62.6" height="17.0" fill="#ffffff" opacity="0.85" rx="3"/><text x="1955.0" y="360.5" font-family="WenQuanYi Zen Hei, Microsoft YaHei, SimSun, sans-serif" font-size="11" text-anchor="middle" fill="#000000">页面响应</text>
</svg>