<svg xmlns="http://www.w3.org/2000/svg" width="3910" height="2323" viewBox="0 0 3910 2323" font-family="WenQuanYi Zen Hei, Microsoft YaHei, SimSun, sans-serif">
<rect width="3910" height="2323" fill="#ffffff"/>
<line x1="269.0" y1="165.0" x2="269.0" y2="2125.0" stroke="#57606a" stroke-width="1" stroke-dasharray="5 4"/><circle cx="269.0" cy="138.0" r="11" fill="#ffffff" stroke="#000000" stroke-width="1.4"/><line x1="269.0" y1="149.0" x2="269.0" y2="171.0" stroke="#000000" stroke-width="1.4"/><line x1="254.0" y1="157.0" x2="284.0" y2="157.0" stroke="#000000" stroke-width="1.4"/><line x1="269.0" y1="171.0" x2="256.0" y2="189.0" stroke="#000000" stroke-width="1.4"/><line x1="269.0" y1="171.0" x2="282.0" y2="189.0" stroke="#000000" stroke-width="1.4"/><text x="269.0" y="167.0" font-family="WenQuanYi Zen Hei, Microsoft YaHei, SimSun, sans-serif" font-size="34" text-anchor="middle" font-weight="bold" fill="#1f2328">注册用户</text>
<line x1="850.0" y1="159.0" x2="850.0" y2="2125.0" stroke="#57606a" stroke-width="1" stroke-dasharray="5 4"/><rect x="581.0" y="125.0" width="538.0" height="34.0" rx="3" fill="#ffffff" stroke="#000000" stroke-width="1.2"/><text x="850.0" y="141.0" font-family="WenQuanYi Zen Hei, Microsoft YaHei, SimSun, sans-serif" font-size="34" text-anchor="middle" fill="#1f2328">前端</text>
<line x1="1530.0" y1="159.0" x2="1530.0" y2="2125.0" stroke="#57606a" stroke-width="1" stroke-dasharray="5 4"/><rect x="1261.0" y="125.0" width="538.0" height="34.0" rx="3" fill="#ffffff" stroke="#000000" stroke-width="1.2"/><text x="1530.0" y="141.0" font-family="WenQuanYi Zen Hei, Microsoft YaHei, SimSun, sans-serif" font-size="34" text-anchor="middle" fill="#1f2328">ReportsRoutes（规划）</text>
<line x1="2153.0" y1="159.0" x2="2153.0" y2="2125.0" stroke="#57606a" stroke-width="1" stroke-dasharray="5 4"/><rect x="1884.0" y="125.0" width="538.0" height="34.0" rx="3" fill="#ffffff" stroke="#000000" stroke-width="1.2"/><text x="2153.0" y="141.0" font-family="WenQuanYi Zen Hei, Microsoft YaHei, SimSun, sans-serif" font-size="34" text-anchor="middle" fill="#1f2328">DB · reports</text>
<line x1="2777.0" y1="159.0" x2="2777.0" y2="2125.0" stroke="#57606a" stroke-width="1" stroke-dasharray="5 4"/><rect x="2508.0" y="125.0" width="538.0" height="34.0" rx="3" fill="#ffffff" stroke="#000000" stroke-width="1.2"/><text x="2777.0" y="141.0" font-family="WenQuanYi Zen Hei, Microsoft YaHei, SimSun, sans-serif" font-size="34" text-anchor="middle" fill="#1f2328">AI 审查任务（规划）</text>
<line x1="3485.0" y1="165.0" x2="3485.0" y2="2125.0" stroke="#57606a" stroke-width="1" stroke-dasharray="5 4"/><circle cx="3485.0" cy="138.0" r="11" fill="#ffffff" stroke="#000000" stroke-width="1.4"/><line x1="3485.0" y1="149.0" x2="3485.0" y2="171.0" stroke="#000000" stroke-width="1.4"/><line x1="3470.0" y1="157.0" x2="3500.0" y2="157.0" stroke="#000000" stroke-width="1.4"/><line x1="3485.0" y1="171.0" x2="3472.0" y2="189.0" stroke="#000000" stroke-width="1.4"/><line x1="3485.0" y1="171.0" x2="3498.0" y2="189.0" stroke="#000000" stroke-width="1.4"/><text x="3485.0" y="167.0" font-family="WenQuanYi Zen Hei, Microsoft YaHei, SimSun, sans-serif" font-size="34" text-anchor="middle" font-weight="bold" fill="#1f2328">管理员</text>
<text x="854.0" y="313.5" font-family="WenQuanYi Zen Hei, Microsoft YaHei, SimSun, sans-serif" font-size="34" text-anchor="start" font-weight="bold" fill="#000000">★ 本链路为后续治理能力设计，当前代码尚未实现（虚线=规划）</text>
<text x="558.0" y="409.5" font-family="WenQuanYi Zen Hei, Microsoft YaHei, SimSun, sans-serif" font-size="34" text-anchor="middle" font-weight="bold" fill="#000000">点击「举报」，选择类型</text>
<text x="1190.0" y="522.5" font-family="WenQuanYi Zen Hei, Microsoft YaHei, SimSun, sans-serif" font-size="34" text-anchor="middle" font-weight="bold" fill="#000000">POST /reports</text>
<text x="1842.0" y="630.5" font-family="WenQuanYi Zen Hei, Microsoft YaHei, SimSun, sans-serif" font-size="34" text-anchor="middle" font-weight="bold" fill="#000000">创建工单 pending</text>
<text x="1190.0" y="738.5" font-family="WenQuanYi Zen Hei, Microsoft YaHei, SimSun, sans-serif" font-size="34" text-anchor="middle" font-weight="bold" fill="#000000">已受理</text>
<text x="2153.0" y="896.5" font-family="WenQuanYi Zen Hei, Microsoft YaHei, SimSun, sans-serif" font-size="34" text-anchor="middle" font-weight="bold" fill="#000000">异步送审（不阻塞受理）</text>

<text x="3013.0" y="1061.5" font-family="WenQuanYi Zen Hei, Microsoft YaHei, SimSun, sans-serif" font-size="34" text-anchor="start" font-weight="bold" fill="#000000">AI 分类 {label, confidence, reason}</text>
<text x="2465.0" y="1202.5" font-family="WenQuanYi Zen Hei, Microsoft YaHei, SimSun, sans-serif" font-size="34" text-anchor="middle" font-weight="bold" fill="#000000">写回结论；高置信→自动隐藏目标</text>
<text x="2507.0" y="1401.5" font-family="WenQuanYi Zen Hei, Microsoft YaHei, SimSun, sans-serif" font-size="34" text-anchor="middle" font-weight="bold" fill="#000000">打开举报队列</text>
<text x="1842.0" y="1514.5" font-family="WenQuanYi Zen Hei, Microsoft YaHei, SimSun, sans-serif" font-size="34" text-anchor="middle" font-weight="bold" fill="#000000">查工单 + AI 结论</text>
<text x="2819.0" y="1622.5" font-family="WenQuanYi Zen Hei, Microsoft YaHei, SimSun, sans-serif" font-size="34" text-anchor="middle" font-weight="bold" fill="#000000">工单列表 + 快照 + 置信度</text>
<text x="2507.0" y="1786.5" font-family="WenQuanYi Zen Hei, Microsoft YaHei, SimSun, sans-serif" font-size="34" text-anchor="middle" font-weight="bold" fill="#000000">裁决：删除 / 恢复</text>
<text x="1842.0" y="1894.5" font-family="WenQuanYi Zen Hei, Microsoft YaHei, SimSun, sans-serif" font-size="34" text-anchor="middle" font-weight="bold" fill="#000000">更新工单 resolved / dismissed</text>
<path d="M269.0 425.0 L850.0 425.0" fill="none" stroke="#000000" stroke-width="1.3" stroke-dasharray="6 4"/><polygon points="850.0,425.0 838.6,428.7 838.6,421.3" fill="#000000" stroke="#000000" stroke-width="1"/>
<path d="M850.0 538.0 L1530.0 538.0" fill="none" stroke="#000000" stroke-width="1.3" stroke-dasharray="6 4"/><polygon points="1530.0,538.0 1518.6,541.7 1518.6,534.3" fill="#000000" stroke="#000000" stroke-width="1"/>
<path d="M1530.0 646.0 L2153.0 646.0" fill="none" stroke="#000000" stroke-width="1.3" stroke-dasharray="6 4"/><polygon points="2153.0,646.0 2141.6,649.7 2141.6,642.3" fill="#000000" stroke="#000000" stroke-width="1"/>
<path d="M1530.0 754.0 L850.0 754.0" fill="none" stroke="#000000" stroke-width="1.3" stroke-dasharray="6 4"/><line x1="861.4" y1="750.3" x2="850.0" y2="754.0" stroke="#000000" stroke-width="1.3"/><line x1="861.4" y1="757.7" x2="850.0" y2="754.0" stroke="#000000" stroke-width="1.3"/>
<path d="M1530.0 912.0 L2777.0 912.0" fill="none" stroke="#000000" stroke-width="1.3" stroke-dasharray="6 4"/><polygon points="2777.0,912.0 2765.6,915.7 2765.6,908.3" fill="#000000" stroke="#000000" stroke-width="1"/>
<path d="M2777.0 1020.0 L2777.0 1020.0" fill="none" stroke="#000000" stroke-width="1.3" stroke-dasharray="6 4"/><polygon points="2777.0,1020.0 2765.6,1023.7 2765.6,1016.3" fill="#000000" stroke="#000000" stroke-width="1"/>
<path d="M2777.0 997.0 L2986.0 997.0 L2986.0 1071.0 L2794.0 1071.0" fill="none" stroke="#000000" stroke-width="1.3" stroke-dasharray="6 4"/><polygon points="2794.0,1071.0 2805.4,1067.3 2805.4,1074.7" fill="#000000" stroke="#000000" stroke-width="1"/>
<path d="M2777.0 1218.0 L2153.0 1218.0" fill="none" stroke="#000000" stroke-width="1.3" stroke-dasharray="6 4"/><polygon points="2153.0,1218.0 2164.4,1214.3 2164.4,1221.7" fill="#000000" stroke="#000000" stroke-width="1"/>
<path d="M3485.0 1417.0 L1530.0 1417.0" fill="none" stroke="#000000" stroke-width="1.3" stroke-dasharray="6 4"/><polygon points="1530.0,1417.0 1541.4,1413.3 1541.4,1420.7" fill="#000000" stroke="#000000" stroke-width="1"/>
<path d="M1530.0 1530.0 L2153.0 1530.0" fill="none" stroke="#000000" stroke-width="1.3" stroke-dasharray="6 4"/><polygon points="2153.0,1530.0 2141.6,1533.7 2141.6,1526.3" fill="#000000" stroke="#000000" stroke-width="1"/>
<path d="M2153.0 1638.0 L3485.0 1638.0" fill="none" stroke="#000000" stroke-width="1.3" stroke-dasharray="6 4"/><line x1="3473.6" y1="1641.7" x2="3485.0" y2="1638.0" stroke="#000000" stroke-width="1.3"/><line x1="3473.6" y1="1634.3" x2="3485.0" y2="1638.0" stroke="#000000" stroke-width="1.3"/>
<path d="M3485.0 1802.0 L1530.0 1802.0" fill="none" stroke="#000000" stroke-width="1.3" stroke-dasharray="6 4"/><polygon points="1530.0,1802.0 1541.4,1798.3 1541.4,1805.7" fill="#000000" stroke="#000000" stroke-width="1"/>
<path d="M1530.0 1910.0 L2153.0 1910.0" fill="none" stroke="#000000" stroke-width="1.3" stroke-dasharray="6 4"/><polygon points="2153.0,1910.0 2141.6,1913.7 2141.6,1906.3" fill="#000000" stroke="#000000" stroke-width="1"/>
</svg>