<svg xmlns="http://www.w3.org/2000/svg" width="2550" height="3343" viewBox="0 0 2550 3343" font-family="WenQuanYi Zen Hei, Microsoft YaHei, SimSun, sans-serif">
<rect width="2550" height="3343" fill="#ffffff"/>
<ellipse cx="1020.0" cy="119.0" rx="34.0" ry="34.0" fill="#000000" stroke="#000000" stroke-width="1.2"/>
<rect x="538.0" y="255.0" width="963.0" height="142.0" rx="12" fill="#ffffff" stroke="#000000" stroke-width="1.2"/><text x="1019.5" y="342.0" font-family="WenQuanYi Zen Hei, Microsoft YaHei, SimSun, sans-serif" font-size="34" text-anchor="middle" fill="#1f2328">选择分类（7 类）</text>
<rect x="538.0" y="499.0" width="963.0" height="142.0" rx="12" fill="#ffffff" stroke="#000000" stroke-width="1.2"/><text x="1019.5" y="586.0" font-family="WenQuanYi Zen Hei, Microsoft YaHei, SimSun, sans-serif" font-size="34" text-anchor="middle" fill="#1f2328">输入关键词</text>
<rect x="538.0" y="742.0" width="963.0" height="142.0" rx="12" fill="#ffffff" stroke="#000000" stroke-width="1.2"/><text x="1019.5" y="829.0" font-family="WenQuanYi Zen Hei, Microsoft YaHei, SimSun, sans-serif" font-size="34" text-anchor="middle" fill="#1f2328">选择标签</text>
<rect x="538.0" y="986.0" width="963.0" height="142.0" rx="12" fill="#ffffff" stroke="#000000" stroke-width="1.2"/><text x="1019.5" y="1073.0" font-family="WenQuanYi Zen Hei, Microsoft YaHei, SimSun, sans-serif" font-size="34" text-anchor="middle" fill="#1f2328">切换排序（最新/热门/我赞过）</text>
<rect x="538.0" y="1230.0" width="963.0" height="142.0" rx="12" fill="#ffffff" stroke="#000000" stroke-width="1.2"/><text x="1019.5" y="1317.0" font-family="WenQuanYi Zen Hei, Microsoft YaHei, SimSun, sans-serif" font-size="34" text-anchor="middle" fill="#1f2328">GET /notes（游标 + 过滤参数）</text>
<rect x="538.0" y="1473.0" width="963.0" height="142.0" rx="12" fill="#ffffff" stroke="#000000" stroke-width="1.2"/><text x="1019.5" y="1560.0" font-family="WenQuanYi Zen Hei, Microsoft YaHei, SimSun, sans-serif" font-size="34" text-anchor="middle" fill="#1f2328">后端应用层过滤 + 排序</text>
<rect x="538.0" y="1717.0" width="963.0" height="142.0" rx="12" fill="#ffffff" stroke="#000000" stroke-width="1.2"/><text x="1019.5" y="1804.0" font-family="WenQuanYi Zen Hei, Microsoft YaHei, SimSun, sans-serif" font-size="34" text-anchor="middle" fill="#1f2328">keyset 游标分页（每页 6~8）</text>
<rect x="538.0" y="1961.0" width="963.0" height="142.0" rx="12" fill="#ffffff" stroke="#000000" stroke-width="1.2"/><text x="1019.5" y="2048.0" font-family="WenQuanYi Zen Hei, Microsoft YaHei, SimSun, sans-serif" font-size="34" text-anchor="middle" fill="#1f2328">返回列表 + nextCursor</text>
<rect x="538.0" y="2204.0" width="963.0" height="142.0" rx="12" fill="#ffffff" stroke="#000000" stroke-width="1.2"/><text x="1019.5" y="2291.0" font-family="WenQuanYi Zen Hei, Microsoft YaHei, SimSun, sans-serif" font-size="34" text-anchor="middle" fill="#1f2328">前端渲染笔记卡片</text>
<polygon points="1020.0,2448.0 1275.0,2575.5 1020.0,2703.0 765.0,2575.5" fill="#ffffff" stroke="#000000" stroke-width="1.2"/><text x="1020.0" y="2587.4" font-family="WenQuanYi Zen Hei, Microsoft YaHei, SimSun, sans-serif" font-size="34" text-anchor="middle" fill="#1f2328">有下一页 且滚动到底？</text>
<ellipse cx="1020.0" cy="2910.0" rx="37.0" ry="37.0" fill="#000000" stroke="#000000" stroke-width="1.2"/>
<rect x="1615.0" y="2476.0" width="567.0" height="142.0" rx="12" fill="#ffffff" stroke="#000000" stroke-width="1.2"/><text x="1898.5" y="2563.0" font-family="WenQuanYi Zen Hei, Microsoft YaHei, SimSun, sans-serif" font-size="34" text-anchor="middle" fill="#1f2328">加载更多 更新游标</text>
<path d="M1019.9 153.0 L1019.7 255.0" fill="none" stroke="#000000" stroke-width="1.3"/><polygon points="1019.7,255.0 1016.0,243.6 1023.4,243.6" fill="#000000" stroke="#000000" stroke-width="1"/>
<path d="M1019.5 397.0 L1019.5 499.0" fill="none" stroke="#000000" stroke-width="1.3"/><polygon points="1019.5,499.0 1015.8,487.6 1023.2,487.6" fill="#000000" stroke="#000000" stroke-width="1"/>
<path d="M1019.5 641.0 L1019.5 742.0" fill="none" stroke="#000000" stroke-width="1.3"/><polygon points="1019.5,742.0 1015.8,730.6 1023.2,730.6" fill="#000000" stroke="#000000" stroke-width="1"/>
<path d="M1019.5 884.0 L1019.5 986.0" fill="none" stroke="#000000" stroke-width="1.3"/><polygon points="1019.5,986.0 1015.8,974.6 1023.2,974.6" fill="#000000" stroke="#000000" stroke-width="1"/>
<path d="M1019.5 1128.0 L1019.5 1230.0" fill="none" stroke="#000000" stroke-width="1.3"/><polygon points="1019.5,1230.0 1015.8,1218.6 1023.2,1218.6" fill="#000000" stroke="#000000" stroke-width="1"/>
<path d="M1019.5 1372.0 L1019.5 1473.0" fill="none" stroke="#000000" stroke-width="1.3"/><polygon points="1019.5,1473.0 1015.8,1461.6 1023.2,1461.6" fill="#000000" stroke="#000000" stroke-width="1"/>
<path d="M1019.5 1615.0 L1019.5 1717.0" fill="none" stroke="#000000" stroke-width="1.3"/><polygon points="1019.5,1717.0 1015.8,1705.6 1023.2,1705.6" fill="#000000" stroke="#000000" stroke-width="1"/>
<path d="M1019.5 1859.0 L1019.5 1961.0" fill="none" stroke="#000000" stroke-width="1.3"/><polygon points="1019.5,1961.0 1015.8,1949.6 1023.2,1949.6" fill="#000000" stroke="#000000" stroke-width="1"/>
<path d="M1019.5 2103.0 L1019.5 2204.0" fill="none" stroke="#000000" stroke-width="1.3"/><polygon points="1019.5,2204.0 1015.8,2192.6 1023.2,2192.6" fill="#000000" stroke="#000000" stroke-width="1"/>
<path d="M1019.6 2346.0 L1019.8 2448.0" fill="none" stroke="#000000" stroke-width="1.3"/><polygon points="1019.8,2448.0 1016.1,2436.6 1023.5,2436.6" fill="#000000" stroke="#000000" stroke-width="1"/>
<path d="M1020.0 2703.0 L1020.0 2873.0" fill="none" stroke="#000000" stroke-width="1.3"/><polygon points="1020.0,2873.0 1016.3,2861.6 1023.7,2861.6" fill="#000000" stroke="#000000" stroke-width="1"/><rect x="1009.2" y="2779.5" width="21.6" height="17.0" fill="#ffffff" opacity="0.85" rx="3"/><text x="1020.0" y="2791.5" font-family="WenQuanYi Zen Hei, Microsoft YaHei, SimSun, sans-serif" font-size="11" text-anchor="middle" fill="#000000">否</text>
<path d="M1275.0 2567.2 L1615.0 2556.2" fill="none" stroke="#000000" stroke-width="1.3"/><polygon points="1615.0,2556.2 1603.7,2560.3 1603.5,2552.9" fill="#000000" stroke="#000000" stroke-width="1"/><rect x="1434.2" y="2553.2" width="21.6" height="17.0" fill="#ffffff" opacity="0.85" rx="3"/><text x="1445.0" y="2565.2" font-family="WenQuanYi Zen Hei, Microsoft YaHei, SimSun, sans-serif" font-size="11" text-anchor="middle" fill="#000000">是</text>
<path d="M1898.0 2476.0 L2352.0 2476.0 L2352.0 2275.0 L1502.0 2275.0" fill="none" stroke="#000000" stroke-width="1.3"/><polygon points="1502.0,2275.0 1513.4,2271.3 1513.4,2278.7" fill="#000000" stroke="#000000" stroke-width="1"/><rect x="2223.2" y="2266.5" width="62.6" height="17.0" fill="#ffffff" opacity="0.85" rx="3"/><text x="2254.5" y="2278.5" font-family="WenQuanYi Zen Hei, Microsoft YaHei, SimSun, sans-serif" font-size="11" text-anchor="middle" fill="#000000">追加列表</text>
</svg>